<svg width="339" height="60" viewBox="0 0 339 60" fill="none" xmlns="http://www.w3.org/2000/svg">
<g clip-path="url(#clip0)">
<path d="M0.914307 1.18237H2.31431C4.51431 1.18237 6.61431 1.78237 6.61431 4.38237C6.61431 5.28237 6.11431 6.28237 5.31431 6.58237C6.71431 6.88237 7.71431 8.18237 7.71431 9.58237C7.71431 11.9824 5.71431 12.8824 3.61431 12.8824H0.914307V1.18237ZM2.41431 6.38237H2.81431C4.21431 6.38237 5.31431 6.08237 5.31431 4.38237C5.31431 2.68237 4.21431 2.48237 2.81431 2.48237H2.41431V6.38237ZM2.41431 11.5824H3.51431C4.91431 11.5824 6.31431 11.1824 6.31431 9.48237C6.31431 7.78237 4.61431 7.48237 3.31431 7.48237H2.41431V11.5824Z" fill="#5B9CD6"/>
<path d="M10.9143 11.5824H14.5143V12.8824H9.41431V1.18237H10.9143V11.5824Z" fill="#5B9CD6"/>
<path d="M27.0143 7.08257C27.0143 10.5826 24.2143 13.2826 20.8143 13.2826C17.4143 13.2826 14.6143 10.6826 14.6143 7.08257C14.6143 3.68257 17.4143 0.882568 20.8143 0.882568C24.2143 0.882568 27.0143 3.68257 27.0143 7.08257ZM25.5143 7.08257C25.5143 4.48257 23.6143 2.28257 20.8143 2.28257C18.0143 2.28257 16.1143 4.48257 16.1143 7.08257C16.1143 9.78257 18.3143 11.8826 20.8143 11.8826C23.3143 11.8826 25.5143 9.78257 25.5143 7.08257Z" fill="#5B9CD6"/>
<path d="M38.1143 13.1825L37.1143 12.0825C36.1143 12.7825 34.9143 13.1825 33.7143 13.1825C30.3143 13.1825 27.5143 10.5825 27.5143 6.98247C27.5143 3.58247 30.3143 0.782471 33.7143 0.782471C37.1143 0.782471 39.9143 3.58247 39.9143 6.98247C39.9143 8.68247 39.2143 10.2825 38.0143 11.3825L39.8143 13.1825H38.1143ZM37.1143 10.3825C38.0143 9.58247 38.5143 8.18247 38.5143 7.08247C38.5143 4.48247 36.6143 2.28247 33.8143 2.28247C31.0143 2.28247 29.1143 4.48247 29.1143 7.08247C29.1143 9.78247 31.3143 11.8825 33.8143 11.8825C34.5143 11.8825 35.4143 11.6825 36.1143 11.1825L33.4143 8.58247H35.2143L37.1143 10.3825Z" fill="#5B9CD6"/>
<path d="M42.6144 1.18237V8.18237C42.6144 10.0824 43.2144 11.8824 45.4144 11.8824C47.7144 11.8824 48.3144 10.0824 48.3144 8.18237V1.18237H49.8144V8.68237C49.8144 11.2824 48.2144 13.2824 45.5144 13.2824C42.8144 13.2824 41.2144 11.2824 41.2144 8.68237V1.18237H42.6144Z" fill="#5B9CD6"/>
<path d="M51.9143 1.18237H58.2143V2.48237H53.3143V5.78237H58.0143V7.08237H53.3143V11.5824H58.2143V12.8824H51.9143V1.18237Z" fill="#5B9CD6"/>
<path d="M5.61426 31.5825V24.0825H19.4143V58.2825H10.5143V31.5825H5.61426Z" fill="#5B9CD6"/>
<path d="M56.6143 32.4825C56.6143 36.0825 54.3143 39.1825 51.2143 40.1825V40.2825C55.3143 41.6825 58.0143 44.7825 58.0143 49.2825C58.0143 56.3825 50.8143 59.5825 45.0143 59.5825C39.2143 59.5825 32.0143 56.2825 32.0143 49.2825C32.0143 44.7825 34.7143 41.6825 38.8143 40.2825V40.1825C35.7143 39.1825 33.4143 36.0825 33.4143 32.4825C33.4143 25.9825 39.2143 22.7825 45.0143 22.7825C50.8143 22.6825 56.6143 25.9825 56.6143 32.4825ZM40.9143 48.1825C40.9143 50.4825 42.7143 52.3825 45.0143 52.3825C47.3143 52.3825 49.1143 50.4825 49.1143 48.1825C49.1143 45.7825 47.3143 43.8825 45.0143 43.8825C42.7143 43.8825 40.9143 45.7825 40.9143 48.1825ZM41.2143 32.7825C41.2143 34.8825 42.9143 36.6825 45.0143 36.6825C47.1143 36.6825 48.8143 34.9825 48.8143 32.7825C48.8143 30.6825 47.1143 28.8825 45.0143 28.8825C42.8143 28.8825 41.2143 30.5825 41.2143 32.7825Z" fill="#5B9CD6"/>
<path d="M105.714 39.9824C105.714 50.6824 97.0143 59.3824 86.3143 59.3824C75.6143 59.3824 66.8143 50.6824 66.8143 39.9824C66.8143 29.2824 75.5143 20.5824 86.3143 20.5824C97.0143 20.4824 105.714 29.1824 105.714 39.9824Z" fill="#A9C5DC"/>
<path d="M132.314 33.9824C131.714 33.0824 130.914 32.5824 129.714 32.5824C128.614 32.5824 127.614 33.3824 127.614 34.4824C127.614 37.3824 134.414 36.1824 134.414 41.8824C134.414 45.2824 132.314 47.6824 128.814 47.6824C126.414 47.6824 124.714 46.2824 123.514 44.3824L125.714 42.2824C126.214 43.5824 127.414 44.7824 128.814 44.7824C130.214 44.7824 131.014 43.5824 131.014 42.2824C131.014 40.4824 129.414 39.9824 128.014 39.4824C125.814 38.5824 124.214 37.4824 124.214 34.7824C124.214 31.9824 126.314 29.6824 129.214 29.6824C130.714 29.6824 132.814 30.3824 133.914 31.5824L132.314 33.9824Z" fill="#858686"/>
<path d="M143.814 47.6824C138.614 47.6824 135.414 43.6824 135.414 38.6824C135.414 33.5824 138.814 29.6824 143.814 29.6824C148.814 29.6824 152.214 33.5824 152.214 38.6824C152.314 43.6824 149.014 47.6824 143.814 47.6824ZM143.814 32.9824C140.714 32.9824 138.814 35.7824 138.814 38.4824C138.814 41.0824 140.114 44.3824 143.814 44.3824C147.514 44.3824 148.814 41.1824 148.814 38.4824C148.814 35.7824 147.014 32.9824 143.814 32.9824Z" fill="#858686"/>
<path d="M162.014 33.9824C161.414 33.0824 160.614 32.5824 159.414 32.5824C158.314 32.5824 157.314 33.3824 157.314 34.4824C157.314 37.3824 164.114 36.1824 164.114 41.8824C164.114 45.2824 162.014 47.6824 158.514 47.6824C156.114 47.6824 154.414 46.2824 153.214 44.3824L155.414 42.2824C155.914 43.5824 157.114 44.7824 158.514 44.7824C159.914 44.7824 160.714 43.5824 160.714 42.2824C160.714 40.4824 159.114 39.9824 157.714 39.4824C155.514 38.5824 153.914 37.4824 153.914 34.7824C153.914 31.9824 156.014 29.6824 158.914 29.6824C160.414 29.6824 162.514 30.3824 163.614 31.5824L162.014 33.9824Z" fill="#858686"/>
<path d="M171.414 47.2824H168.114V33.0824H164.714V30.1824H174.914V33.0824H171.514V47.2824H171.414Z" fill="#858686"/>
<path d="M179.414 33.0824V36.8824H184.714V39.7824H179.414V44.3824H184.914V47.2824H176.114V30.1824H184.914V33.0824H179.414Z" fill="#858686"/>
<path d="M187.114 29.7825H189.514L198.514 41.6825V30.1825H201.814V47.5825H199.414L190.414 35.6825V47.2825H187.114V29.7825Z" fill="#858686"/>
<path d="M207.614 47.2824H204.314V30.1824H207.614V47.2824Z" fill="#858686"/>
<path d="M210.014 30.1824H214.114C217.314 30.1824 219.214 31.3824 219.214 34.7824C219.214 35.9824 218.814 37.3824 217.714 38.0824C219.714 38.4824 220.614 40.4824 220.614 42.3824C220.614 45.6824 218.214 47.1824 215.114 47.1824H209.914V30.1824H210.014ZM213.414 37.2824H213.814C215.414 37.2824 216.214 36.7824 216.214 35.0824C216.214 33.3824 215.214 32.8824 213.814 32.8824H213.414V37.2824ZM213.414 44.5824H214.114C215.914 44.5824 217.414 44.3824 217.414 42.1824C217.414 39.9824 215.614 39.8824 213.914 39.8824H213.414V44.5824Z" fill="#858686"/>
<path d="M225.914 47.2824H222.614V30.1824H225.914V47.2824Z" fill="#858686"/>
<path d="M231.614 44.3824H236.314V47.2824H228.314V30.1824H231.614V44.3824Z" fill="#858686"/>
<path d="M240.814 47.2824H237.514V30.1824H240.814V47.2824Z" fill="#858686"/>
<path d="M243.214 30.1824H248.014C252.914 30.1824 256.214 33.8824 256.214 38.7824C256.214 43.5824 252.814 47.2824 247.914 47.2824H243.214V30.1824ZM246.514 44.3824H247.014C251.114 44.3824 252.714 42.0824 252.714 38.7824C252.714 35.0824 250.814 33.1824 247.014 33.1824H246.514V44.3824Z" fill="#858686"/>
<path d="M261.314 43.6825L259.914 47.2825H256.414L263.114 29.7825H265.714L272.214 47.2825H268.614L267.314 43.6825H261.314ZM264.214 34.7825L262.314 40.9825H266.414L264.214 34.7825Z" fill="#858686"/>
<path d="M273.114 30.1824H277.914C282.814 30.1824 286.114 33.8824 286.114 38.7824C286.114 43.5824 282.714 47.2824 277.814 47.2824H273.114V30.1824ZM276.414 44.3824H276.914C281.014 44.3824 282.614 42.0824 282.614 38.7824C282.614 35.0824 280.714 33.1824 276.914 33.1824H276.414V44.3824Z" fill="#858686"/>
</g>
<circle cx="323.583" cy="39.8791" r="13.2082" fill="#009DE0"/>
<path d="M320.42 23.2905C320.42 23.0165 320.528 22.7537 320.722 22.5599C320.916 22.3662 321.179 22.2573 321.453 22.2573H325.586C325.86 22.2573 326.122 22.3662 326.316 22.5599C326.51 22.7537 326.619 23.0165 326.619 23.2905C326.619 23.5645 326.51 23.8273 326.316 24.0211C326.122 24.2149 325.86 24.3237 325.586 24.3237V25.5015C328.396 25.9066 330.946 27.1133 332.991 28.8904C333 28.8814 333.008 28.8724 333.016 28.8635L333.748 28.132L333.016 27.4026C332.822 27.2089 332.713 26.946 332.713 26.6718C332.713 26.3977 332.822 26.1347 333.015 25.9406C333.209 25.7466 333.472 25.6375 333.746 25.6374C334.02 25.6372 334.283 25.7459 334.477 25.9396L337.399 28.8635C337.498 28.9589 337.576 29.0729 337.631 29.1989C337.685 29.325 337.713 29.4605 337.714 29.5977C337.716 29.7349 337.69 29.871 337.638 29.9979C337.586 30.1249 337.509 30.2403 337.412 30.3373C337.315 30.4343 337.2 30.511 337.073 30.563C336.946 30.6149 336.81 30.6411 336.672 30.6399C336.535 30.6387 336.4 30.6102 336.274 30.556C336.147 30.5019 336.033 30.4232 335.938 30.3245L335.209 29.593L334.477 30.3245C334.468 30.3329 334.459 30.3412 334.45 30.3493C336.554 32.778 337.79 35.8382 337.961 39.0469C338.133 42.2556 337.232 45.4301 335.399 48.0696C333.566 50.7091 330.907 52.6632 327.841 53.6237C324.774 54.5841 321.475 54.4961 318.465 53.3736C315.454 52.2511 312.902 50.158 311.213 47.4246C309.524 44.6912 308.793 41.4731 309.135 38.2781C309.478 35.0831 310.874 32.0931 313.105 29.78C315.335 27.4669 318.272 25.9623 321.453 25.5036V24.3237C321.179 24.3237 320.916 24.2149 320.722 24.0211C320.528 23.8273 320.42 23.5645 320.42 23.2905ZM323.519 27.4233C321.891 27.4234 320.279 27.7442 318.775 28.3674C317.27 28.9906 315.904 29.904 314.753 31.0554C312.428 33.3807 311.122 36.5344 311.122 39.8226C311.122 43.1108 312.429 46.2643 314.754 48.5892C317.079 50.9142 320.233 52.2201 323.521 52.2199C326.809 52.2196 329.963 50.9131 332.288 48.5878C334.613 46.2624 335.919 43.1088 335.919 39.8205C335.918 36.5323 334.612 33.3789 332.286 31.0539C329.961 28.729 326.807 27.423 323.519 27.4233Z" fill="#009DE0"/>
<path d="M321.145 43.2009V44.6709H314.999V43.2009H317.183V36.7749L315.153 37.9929V36.3829L317.925 34.7029H318.975V43.2009H321.145ZM326.558 38.3009C327.183 38.3009 327.734 38.4362 328.21 38.7069C328.686 38.9682 329.055 39.3416 329.316 39.8269C329.577 40.3029 329.708 40.8536 329.708 41.4789C329.708 42.1322 329.559 42.7109 329.26 43.2149C328.961 43.7096 328.532 44.0969 327.972 44.3769C327.412 44.6476 326.763 44.7829 326.026 44.7829C325.401 44.7829 324.785 44.6802 324.178 44.4749C323.571 44.2602 323.072 43.9756 322.68 43.6209L323.282 42.3049C324.187 42.9956 325.111 43.3409 326.054 43.3409C326.679 43.3409 327.155 43.1869 327.482 42.8789C327.818 42.5616 327.986 42.1136 327.986 41.5349C327.986 40.9842 327.813 40.5456 327.468 40.2189C327.132 39.8829 326.679 39.7149 326.11 39.7149C325.718 39.7149 325.349 39.7896 325.004 39.9389C324.659 40.0789 324.355 40.2889 324.094 40.5689H323.002V34.7029H329.246V36.1029H324.766V38.8189C325.27 38.4736 325.867 38.3009 326.558 38.3009ZM332.951 34.7029V35.9909C332.951 36.4856 332.867 36.9336 332.699 37.3349C332.531 37.7269 332.246 38.1236 331.845 38.5249L331.131 37.9649C331.551 37.5169 331.803 37.0829 331.887 36.6629H330.991V34.7029H332.951Z" fill="white"/>
<defs>
<clipPath id="clip0">
<rect width="285.2" height="58.7" fill="white" transform="translate(0.914307 0.882568)"/>
</clipPath>
</defs>
</svg>
