<svg width="347" height="61" viewBox="0 0 347 61" fill="none" xmlns="http://www.w3.org/2000/svg">
<g clip-path="url(#clip0)">
<path d="M0.632202 0.426025H2.0322C4.2322 0.426025 6.3322 1.02603 6.3322 3.62603C6.3322 4.52603 5.8322 5.52602 5.0322 5.82603C6.4322 6.12603 7.4322 7.42602 7.4322 8.82603C7.4322 11.226 5.4322 12.126 3.3322 12.126H0.632202V0.426025ZM2.1322 5.62603H2.5322C3.9322 5.62603 5.0322 5.32603 5.0322 3.62603C5.0322 1.92603 3.9322 1.72603 2.5322 1.72603H2.1322V5.62603ZM2.1322 10.826H3.2322C4.6322 10.826 6.0322 10.426 6.0322 8.72603C6.0322 7.02603 4.3322 6.72603 3.0322 6.72603H2.1322V10.826Z" fill="#5B9CD6"/>
<path d="M10.6322 10.826H14.2322V12.126H9.1322V0.426025H10.6322V10.826Z" fill="#5B9CD6"/>
<path d="M26.7322 6.32622C26.7322 9.82622 23.9322 12.5262 20.5322 12.5262C17.1322 12.5262 14.3322 9.92622 14.3322 6.32622C14.3322 2.92622 17.1322 0.126221 20.5322 0.126221C23.9322 0.126221 26.7322 2.92622 26.7322 6.32622ZM25.2322 6.32622C25.2322 3.72622 23.3322 1.52622 20.5322 1.52622C17.7322 1.52622 15.8322 3.72622 15.8322 6.32622C15.8322 9.02622 18.0322 11.1262 20.5322 11.1262C23.0322 11.1262 25.2322 9.02622 25.2322 6.32622Z" fill="#5B9CD6"/>
<path d="M37.8322 12.4261L36.8322 11.3261C35.8322 12.0261 34.6322 12.4261 33.4322 12.4261C30.0322 12.4261 27.2322 9.82612 27.2322 6.22612C27.2322 2.82612 30.0322 0.026123 33.4322 0.026123C36.8322 0.026123 39.6322 2.82612 39.6322 6.22612C39.6322 7.92612 38.9322 9.52612 37.7322 10.6261L39.5322 12.4261H37.8322ZM36.8322 9.62612C37.7322 8.82612 38.2322 7.42612 38.2322 6.32612C38.2322 3.72612 36.3322 1.52612 33.5322 1.52612C30.7322 1.52612 28.8322 3.72612 28.8322 6.32612C28.8322 9.02612 31.0322 11.1261 33.5322 11.1261C34.2322 11.1261 35.1322 10.9261 35.8322 10.4261L33.1322 7.82612H34.9322L36.8322 9.62612Z" fill="#5B9CD6"/>
<path d="M42.3322 0.426025V7.42603C42.3322 9.32603 42.9322 11.126 45.1322 11.126C47.4322 11.126 48.0322 9.32603 48.0322 7.42603V0.426025H49.5322V7.92603C49.5322 10.526 47.9322 12.526 45.2322 12.526C42.5322 12.526 40.9322 10.526 40.9322 7.92603V0.426025H42.3322Z" fill="#5B9CD6"/>
<path d="M51.6322 0.426025H57.9322V1.72603H53.0322V5.02603H57.7322V6.32603H53.0322V10.826H57.9322V12.126H51.6322V0.426025Z" fill="#5B9CD6"/>
<path d="M5.33221 30.8259V23.3259H19.1322V57.5259H10.2322V30.8259H5.33221Z" fill="#5B9CD6"/>
<path d="M58.0322 49.926V57.426H30.6322L44.6322 42.226C46.6322 40.026 48.5322 36.926 48.5322 33.826C48.5322 31.626 47.0322 29.426 44.6322 29.426C42.2322 29.426 40.9322 31.326 40.9322 33.626C40.9322 34.126 40.9322 34.626 41.0322 35.026H31.2322C31.5322 27.226 36.5322 21.926 44.5322 21.926C51.7322 21.926 57.7322 26.626 57.7322 34.026C57.7322 38.926 55.7322 41.726 52.2322 44.926L46.9322 49.826H58.0322V49.926Z" fill="#5B9CD6"/>
<path d="M105.432 41.426C105.432 52.126 96.7322 60.826 86.0322 60.826C75.3322 60.826 66.5322 52.126 66.5322 41.426C66.5322 30.726 75.2322 21.926 86.0322 21.926C96.7322 22.026 105.432 30.726 105.432 41.426Z" fill="#9CB5C9"/>
<path d="M123.232 13.7263H128.032C132.932 13.7263 136.232 17.4263 136.232 22.3263C136.232 27.1263 132.832 30.8263 127.932 30.8263H123.232V13.7263ZM126.532 27.8263H127.032C131.132 27.8263 132.732 25.5263 132.732 22.2263C132.732 18.5263 130.832 16.6263 127.032 16.6263H126.532V27.8263Z" fill="#858686"/>
<path d="M141.232 16.6263V20.4263H146.532V23.3263H141.232V27.9263H146.732V30.8263H137.932V13.7263H146.732V16.6263H141.232Z" fill="#858686"/>
<path d="M154.432 30.7263H151.132V16.6263H147.732V13.7263H157.932V16.6263H154.532V30.7263H154.432Z" fill="#858686"/>
<path d="M160.832 27.1263L159.432 30.7263H155.932L162.632 13.2263H165.232L171.732 30.7263H168.132L166.832 27.1263H160.832ZM163.732 18.2263L161.832 24.4263H165.932L163.732 18.2263Z" fill="#858686"/>
<path d="M175.932 27.8263H180.632V30.7263H172.632V13.7263H175.932V27.8263Z" fill="#858686"/>
<path d="M185.032 27.8263H189.732V30.7263H181.732V13.7263H185.032V27.8263Z" fill="#858686"/>
<path d="M194.132 16.6263V20.4263H199.432V23.3263H194.132V27.9263H199.632V30.8263H190.832V13.7263H199.632V16.6263H194.132Z" fill="#858686"/>
<path d="M209.932 17.4262C209.332 16.5262 208.532 16.0262 207.332 16.0262C206.232 16.0262 205.232 16.8262 205.232 17.9262C205.232 20.8262 212.032 19.6262 212.032 25.3262C212.032 28.7262 209.932 31.1262 206.432 31.1262C204.032 31.1262 202.332 29.7262 201.132 27.8262L203.332 25.7262C203.832 27.0262 205.032 28.2262 206.432 28.2262C207.832 28.2262 208.632 27.0262 208.632 25.7262C208.632 23.9262 207.032 23.4262 205.632 22.9262C203.432 22.0262 201.832 20.9262 201.832 18.2262C201.832 15.4262 203.932 13.1262 206.832 13.1262C208.332 13.1262 210.432 13.8262 211.532 15.0262L209.932 17.4262Z" fill="#858686"/>
<path d="M134.632 45.4263C133.732 44.3263 132.332 43.6263 130.832 43.6263C127.632 43.6263 125.832 46.5263 125.832 49.5263C125.832 52.4263 127.732 55.2263 130.832 55.2263C132.232 55.2263 133.732 54.5263 134.632 53.4263V57.4263C133.432 58.0263 132.132 58.4263 130.732 58.4263C125.932 58.4263 122.332 54.3263 122.332 49.5263C122.332 44.7263 125.732 40.4263 130.732 40.4263C132.032 40.4263 133.332 40.8263 134.532 41.4263V45.4263H134.632Z" fill="#858686"/>
<path d="M144.432 58.4263C139.232 58.4263 136.032 54.4263 136.032 49.4263C136.032 44.3263 139.432 40.4263 144.432 40.4263C149.432 40.4263 152.832 44.3263 152.832 49.4263C152.932 54.4263 149.632 58.4263 144.432 58.4263ZM144.432 43.7263C141.332 43.7263 139.432 46.5263 139.432 49.2263C139.432 51.8263 140.732 55.1263 144.432 55.1263C148.132 55.1263 149.432 51.9263 149.432 49.2263C149.432 46.5263 147.632 43.7263 144.432 43.7263Z" fill="#858686"/>
<path d="M154.532 40.4263H156.932L165.932 52.3263V40.9263H169.232V58.3263H166.832L157.832 46.4263V58.0263H154.532V40.4263Z" fill="#858686"/>
<path d="M179.732 44.6262C179.132 43.7262 178.332 43.2262 177.132 43.2262C176.032 43.2262 175.032 44.0262 175.032 45.1262C175.032 48.0262 181.832 46.8262 181.832 52.5262C181.832 55.9262 179.732 58.3262 176.232 58.3262C173.832 58.3262 172.132 56.9262 170.932 55.0262L173.132 52.9262C173.632 54.2262 174.832 55.4262 176.232 55.4262C177.632 55.4262 178.432 54.2262 178.432 52.9262C178.432 51.1262 176.832 50.6262 175.432 50.1262C173.232 49.2262 171.632 48.1262 171.632 45.4262C171.632 42.6262 173.732 40.3262 176.632 40.3262C178.132 40.3262 180.232 41.0262 181.332 42.2262L179.732 44.6262Z" fill="#858686"/>
<path d="M189.232 57.9263H185.932V43.8263H182.532V40.9263H192.632V43.8263H189.232V57.9263Z" fill="#858686"/>
<path d="M205.432 57.9263H201.432L197.332 51.0263V57.9263H194.032V40.9263H198.532C201.932 40.9263 204.232 42.4263 204.232 46.0263C204.232 48.2263 203.032 50.3263 200.732 50.7263L205.432 57.9263ZM197.232 48.7263H197.632C199.432 48.7263 200.732 48.2263 200.732 46.1263C200.732 44.0263 199.432 43.6263 197.632 43.6263H197.132V48.7263H197.232Z" fill="#858686"/>
<path d="M206.432 40.9263H209.732V50.5263C209.732 52.6263 209.932 55.6263 212.732 55.6263C215.532 55.6263 215.732 52.6263 215.732 50.5263V40.9263H219.032V51.1263C219.032 55.3263 217.232 58.4263 212.732 58.4263C208.232 58.4263 206.432 55.3263 206.432 51.1263V40.9263Z" fill="#858686"/>
<path d="M232.832 45.4263C231.932 44.3263 230.532 43.6263 229.032 43.6263C225.832 43.6263 224.032 46.5263 224.032 49.5263C224.032 52.4263 225.932 55.2263 229.032 55.2263C230.432 55.2263 231.932 54.5263 232.832 53.4263V57.4263C231.632 58.0263 230.332 58.4263 228.932 58.4263C224.132 58.4263 220.532 54.3263 220.532 49.5263C220.532 44.7263 223.932 40.4263 228.932 40.4263C230.232 40.4263 231.532 40.8263 232.732 41.4263V45.4263H232.832Z" fill="#858686"/>
<path d="M240.632 57.9263H237.332V43.8263H233.932V40.9263H244.132V43.8263H240.632V57.9263Z" fill="#858686"/>
<path d="M248.632 57.9263H245.332V40.9263H248.632V57.9263Z" fill="#858686"/>
<path d="M257.132 52.4263L260.932 40.9263H264.532L257.932 58.4263H256.032L249.532 40.9263H253.132L257.132 52.4263Z" fill="#858686"/>
<path d="M273.132 58.4263C267.932 58.4263 264.732 54.4263 264.732 49.4263C264.732 44.3263 268.132 40.4263 273.132 40.4263C278.132 40.4263 281.532 44.3263 281.532 49.4263C281.532 54.4263 278.332 58.4263 273.132 58.4263ZM273.132 43.7263C270.032 43.7263 268.132 46.5263 268.132 49.2263C268.132 51.8263 269.432 55.1263 273.132 55.1263C276.832 55.1263 278.132 51.9263 278.132 49.2263C278.132 46.5263 276.232 43.7263 273.132 43.7263Z" fill="#858686"/>
<path d="M291.232 44.6262C290.632 43.7262 289.832 43.2262 288.632 43.2262C287.532 43.2262 286.532 44.0262 286.532 45.1262C286.532 48.0262 293.332 46.8262 293.332 52.5262C293.332 55.9262 291.232 58.3262 287.732 58.3262C285.332 58.3262 283.632 56.9262 282.432 55.0262L284.632 52.9262C285.132 54.2262 286.332 55.4262 287.732 55.4262C289.132 55.4262 289.932 54.2262 289.932 52.9262C289.932 51.1262 288.332 50.6262 286.932 50.1262C284.732 49.2262 283.132 48.1262 283.132 45.4262C283.132 42.6262 285.232 40.3262 288.132 40.3262C289.632 40.3262 291.732 41.0262 292.832 42.2262L291.232 44.6262Z" fill="#858686"/>
</g>
<circle cx="331.874" cy="44.3203" r="13.2082" fill="#009DE0"/>
<path d="M328.711 27.7317C328.711 27.4577 328.82 27.1949 329.013 27.0011C329.207 26.8073 329.47 26.6985 329.744 26.6985H333.877C334.151 26.6985 334.414 26.8073 334.607 27.0011C334.801 27.1949 334.91 27.4577 334.91 27.7317C334.91 28.0057 334.801 28.2685 334.607 28.4623C334.414 28.656 334.151 28.7649 333.877 28.7649V29.9427C336.687 30.3477 339.237 31.5545 341.283 33.3316C341.291 33.3225 341.299 33.3136 341.307 33.3047L342.039 32.5732L341.307 31.8438C341.113 31.65 341.004 31.3872 341.004 31.113C341.004 30.8388 341.113 30.5758 341.306 30.3818C341.5 30.1878 341.763 30.0787 342.037 30.0785C342.311 30.0783 342.574 30.187 342.768 30.3808L345.69 33.3047C345.789 33.4 345.868 33.514 345.922 33.6401C345.976 33.7661 346.004 33.9017 346.006 34.0389C346.007 34.1761 345.981 34.3121 345.929 34.4391C345.877 34.5661 345.8 34.6814 345.703 34.7784C345.606 34.8755 345.491 34.9522 345.364 35.0041C345.237 35.0561 345.101 35.0822 344.963 35.081C344.826 35.0798 344.691 35.0513 344.565 34.9972C344.439 34.943 344.325 34.8643 344.229 34.7656L343.5 34.0341L342.768 34.7656C342.76 34.7741 342.751 34.7823 342.741 34.7904C344.845 37.2192 346.081 40.2793 346.253 43.488C346.424 46.6967 345.523 49.8713 343.69 52.5108C341.858 55.1503 339.198 57.1044 336.132 58.0648C333.065 59.0252 329.767 58.9372 326.756 57.8148C323.745 56.6923 321.193 54.5992 319.504 51.8657C317.815 49.1323 317.084 45.9142 317.426 42.7192C317.769 39.5243 319.166 36.5343 321.396 34.2212C323.626 31.908 326.564 30.4034 329.744 29.9448V28.7649C329.47 28.7649 329.207 28.656 329.013 28.4623C328.82 28.2685 328.711 28.0057 328.711 27.7317ZM331.81 31.8644C330.182 31.8646 328.57 32.1854 327.066 32.8086C325.562 33.4318 324.195 34.3452 323.044 35.4965C320.719 37.8219 319.413 40.9755 319.413 44.2638C319.413 47.552 320.72 50.7054 323.045 53.0304C325.37 55.3553 328.524 56.6613 331.812 56.661C335.101 56.6607 338.254 55.3542 340.579 53.0289C342.904 50.7036 344.21 47.5499 344.21 44.2617C344.209 40.9735 342.903 37.82 340.578 35.4951C338.252 33.1701 335.099 31.8642 331.81 31.8644Z" fill="#009DE0"/>
<path d="M329.437 47.6421V49.1121H323.291V47.6421H325.475V41.2161L323.445 42.4341V40.8241L326.217 39.1441H327.267V47.6421H329.437ZM334.849 42.7421C335.475 42.7421 336.025 42.8774 336.501 43.1481C336.977 43.4094 337.346 43.7827 337.607 44.2681C337.869 44.7441 337.999 45.2947 337.999 45.9201C337.999 46.5734 337.85 47.1521 337.551 47.6561C337.253 48.1507 336.823 48.5381 336.263 48.8181C335.703 49.0887 335.054 49.2241 334.317 49.2241C333.692 49.2241 333.076 49.1214 332.469 48.9161C331.862 48.7014 331.363 48.4167 330.971 48.0621L331.573 46.7461C332.478 47.4367 333.402 47.7821 334.345 47.7821C334.971 47.7821 335.447 47.6281 335.773 47.3201C336.109 47.0027 336.277 46.5547 336.277 45.9761C336.277 45.4254 336.105 44.9867 335.759 44.6601C335.423 44.3241 334.971 44.1561 334.401 44.1561C334.009 44.1561 333.64 44.2307 333.295 44.3801C332.95 44.5201 332.646 44.7301 332.385 45.0101H331.293V39.1441H337.537V40.5441H333.057V43.2601C333.561 42.9147 334.158 42.7421 334.849 42.7421ZM341.242 39.1441V40.4321C341.242 40.9267 341.158 41.3747 340.99 41.7761C340.822 42.1681 340.537 42.5647 340.136 42.9661L339.422 42.4061C339.842 41.9581 340.094 41.5241 340.178 41.1041H339.282V39.1441H341.242Z" fill="white"/>
<defs>
<clipPath id="clip0">
<rect width="292.7" height="60.8" fill="white" transform="translate(0.632202 0.126221)"/>
</clipPath>
</defs>
</svg>
