<svg width="296" height="60" viewBox="0 0 296 60" fill="none" xmlns="http://www.w3.org/2000/svg">
<g clip-path="url(#clip0)">
<path d="M2.06964 0.563965H3.56964C5.76964 0.563965 7.86964 1.16396 7.86964 3.76396C7.86964 4.66396 7.36964 5.66396 6.56964 5.96396C7.96964 6.26396 8.96964 7.56396 8.96964 8.96396C8.96964 11.364 6.96964 12.264 4.86964 12.264H2.06964V0.563965ZM3.56964 5.76396H3.96964C5.36964 5.76396 6.46964 5.46396 6.46964 3.76396C6.46964 2.06396 5.36964 1.86396 3.96964 1.86396H3.56964V5.76396ZM3.56964 10.964H4.66964C6.06964 10.964 7.46964 10.564 7.46964 8.86397C7.46964 7.16397 5.76964 6.86396 4.46964 6.86396H3.56964V10.964Z" fill="#5B9CD6"/>
<path d="M12.0696 10.964H15.6696V12.264H10.5696V0.563965H12.0696V10.964Z" fill="#5B9CD6"/>
<path d="M28.1697 6.46392C28.1697 9.96392 25.3697 12.6639 21.9697 12.6639C18.5697 12.6639 15.7697 10.0639 15.7697 6.46392C15.7697 3.06392 18.5697 0.263916 21.9697 0.263916C25.3697 0.263916 28.1697 3.06392 28.1697 6.46392ZM26.6697 6.46392C26.6697 3.86392 24.7697 1.66392 21.9697 1.66392C19.1697 1.66392 17.2697 3.86392 17.2697 6.46392C17.2697 9.16392 19.4697 11.2639 21.9697 11.2639C24.4697 11.2639 26.6697 9.16392 26.6697 6.46392Z" fill="#5B9CD6"/>
<path d="M39.3697 12.5639L38.3697 11.5639C37.3697 12.2639 36.1697 12.5639 34.9697 12.5639C31.5697 12.5639 28.7697 9.96392 28.7697 6.36392C28.7697 3.06392 31.5697 0.263916 34.9697 0.263916C38.3697 0.263916 41.1697 3.06392 41.1697 6.46392C41.1697 8.16392 40.4697 9.76392 39.3697 10.8639L41.1697 12.6639H39.3697V12.5639ZM38.2697 9.76392C39.1697 8.96392 39.6697 7.56392 39.6697 6.46392C39.6697 3.86392 37.7697 1.66392 34.9697 1.66392C32.1697 1.66392 30.2697 3.86392 30.2697 6.46392C30.2697 9.16392 32.4697 11.2639 34.9697 11.2639C35.6697 11.2639 36.5697 11.0639 37.2697 10.5639L34.5697 7.86392H36.3697L38.2697 9.76392Z" fill="#5B9CD6"/>
<path d="M43.8696 0.563965V7.56396C43.8696 9.46396 44.4696 11.264 46.7696 11.264C49.0696 11.264 49.5696 9.46396 49.5696 7.56396V0.563965H51.0696V8.06396C51.0696 10.664 49.4696 12.664 46.7696 12.664C44.0696 12.664 42.4696 10.664 42.4696 8.06396V0.563965H43.8696Z" fill="#5B9CD6"/>
<path d="M53.0696 0.563965H59.3696V1.86396H54.5696V5.16396H59.2696V6.46396H54.5696V10.964H59.4696V12.264H53.1696V0.563965H53.0696Z" fill="#5B9CD6"/>
<path d="M29.5696 40.5639C29.5696 49.4639 25.2696 58.9639 15.0696 58.9639C4.86964 58.9639 0.569641 49.4639 0.569641 40.5639C0.569641 31.6639 4.86964 22.1639 15.0696 22.1639C25.1696 22.0639 29.5696 31.6639 29.5696 40.5639ZM9.36964 40.4639C9.36964 43.7639 10.4696 51.0639 15.0696 51.0639C19.6696 51.0639 20.7696 43.7639 20.7696 40.4639C20.7696 37.1639 19.6696 29.8639 15.0696 29.8639C10.4696 29.9639 9.36964 37.1639 9.36964 40.4639Z" fill="#5B9CD6"/>
<path d="M33.7696 30.9639V23.4639H61.7696L42.2696 57.6639H32.5696L48.1696 31.0639H33.7696V30.9639Z" fill="#5B9CD6"/>
<path d="M93.6697 8.66382V59.2638H69.7697V32.5638C69.7697 19.3638 80.4697 8.66382 93.6697 8.66382Z" fill="#D9D9D9"/>
<path d="M127.97 31.164H124.67V14.064H129.17C132.77 14.064 135.07 15.464 135.07 19.364C135.07 22.964 133.07 24.764 129.57 24.764H127.87V31.164H127.97ZM127.97 21.964H128.67C130.67 21.964 131.67 21.564 131.67 19.364C131.67 17.164 130.37 16.864 128.57 16.864H127.97V21.964Z" fill="#858686"/>
<path d="M148.17 31.164H144.17L140.07 24.264V31.164H136.57V14.064H141.07C144.47 14.064 146.77 15.564 146.77 19.164C146.77 21.364 145.57 23.464 143.27 23.864L148.17 31.164ZM139.97 21.964H140.37C142.17 21.964 143.47 21.464 143.47 19.364C143.47 17.264 142.17 16.864 140.37 16.864H139.87V21.964H139.97Z" fill="#858686"/>
<path d="M156.87 31.564C151.67 31.564 148.47 27.564 148.47 22.564C148.47 17.464 151.87 13.564 156.87 13.564C161.87 13.564 165.27 17.464 165.27 22.564C165.27 27.664 162.07 31.564 156.87 31.564ZM156.87 16.964C153.77 16.964 151.87 19.764 151.87 22.464C151.87 25.064 153.17 28.364 156.87 28.364C160.57 28.364 161.87 25.164 161.87 22.464C161.87 19.664 159.97 16.964 156.87 16.964Z" fill="#858686"/>
<path d="M165.37 14.064H169.27L172.27 19.964L175.57 14.064H179.47L174.07 23.264V31.064H170.77V23.264L165.37 14.064Z" fill="#858686"/>
<path d="M183.57 16.964V20.764H188.87V23.664H183.57V28.264H189.07V31.164H180.27V14.064H189.07V16.964H183.57Z" fill="#858686"/>
<path d="M202.67 18.564C201.77 17.464 200.37 16.764 198.87 16.764C195.67 16.764 193.87 19.664 193.87 22.664C193.87 25.564 195.77 28.364 198.87 28.364C200.27 28.364 201.77 27.664 202.67 26.564V30.564C201.47 31.164 200.17 31.564 198.77 31.564C193.97 31.564 190.37 27.464 190.37 22.664C190.37 17.864 193.77 13.564 198.77 13.564C200.07 13.564 201.37 13.964 202.57 14.564V18.564H202.67Z" fill="#858686"/>
<path d="M210.47 31.164H207.17V16.964H203.77V14.064H213.97V16.964H210.57V31.164H210.47Z" fill="#858686"/>
<path d="M222.77 31.564C217.57 31.564 214.37 27.564 214.37 22.564C214.37 17.464 217.77 13.564 222.77 13.564C227.77 13.564 231.17 17.464 231.17 22.564C231.17 27.664 227.97 31.564 222.77 31.564ZM222.77 16.964C219.67 16.964 217.77 19.764 217.77 22.464C217.77 25.064 219.07 28.364 222.77 28.364C226.47 28.364 227.77 25.164 227.77 22.464C227.77 19.664 225.87 16.964 222.77 16.964Z" fill="#858686"/>
<path d="M240.87 17.864C240.27 16.964 239.47 16.464 238.27 16.464C237.17 16.464 236.17 17.264 236.17 18.364C236.17 21.264 242.97 20.064 242.97 25.764C242.97 29.164 240.87 31.564 237.37 31.564C234.97 31.564 233.27 30.164 232.07 28.264L234.27 26.164C234.77 27.464 235.97 28.664 237.37 28.664C238.77 28.664 239.57 27.464 239.57 26.164C239.57 24.364 237.97 23.864 236.57 23.364C234.37 22.464 232.77 21.364 232.77 18.664C232.77 15.864 234.87 13.564 237.77 13.564C239.27 13.564 241.37 14.264 242.47 15.464L240.87 17.864Z" fill="#858686"/>
<path d="M134.07 47.9639V41.2639H137.37V58.3639H134.07V50.7639H127.87V58.3639H124.57V41.2639H127.87V47.9639H134.07Z" fill="#858686"/>
<path d="M147.57 58.7639C142.37 58.7639 139.17 54.7639 139.17 49.7639C139.17 44.6639 142.57 40.7639 147.57 40.7639C152.57 40.7639 155.97 44.6639 155.97 49.7639C155.97 54.7639 152.77 58.7639 147.57 58.7639ZM147.57 44.0639C144.47 44.0639 142.57 46.8639 142.57 49.5639C142.57 52.1639 143.87 55.4639 147.57 55.4639C151.27 55.4639 152.57 52.2639 152.57 49.5639C152.57 46.8639 150.67 44.0639 147.57 44.0639Z" fill="#858686"/>
<path d="M163.17 58.3639H159.87V44.1639H156.47V41.2639H166.57V44.1639H163.17V58.3639Z" fill="#858686"/>
<path d="M171.17 44.1639V47.9639H176.47V50.8639H171.17V55.4639H176.67V58.3639H167.87V41.2639H176.67V44.1639H171.17Z" fill="#858686"/>
<path d="M182.17 55.4639H186.87V58.3639H178.87V41.2639H182.17V55.4639Z" fill="#858686"/>
<path d="M191.27 44.1639V47.9639H196.57V50.8639H191.27V55.4639H196.77V58.3639H187.97V41.2639H196.77V44.1639H191.27Z" fill="#858686"/>
<path d="M210.57 58.3639H206.57L202.47 51.4639V58.3639H199.17V41.2639H203.67C207.07 41.2639 209.37 42.7639 209.37 46.3639C209.37 48.5639 208.17 50.6639 205.87 51.0639L210.57 58.3639ZM202.37 49.1639H202.77C204.57 49.1639 205.87 48.6639 205.87 46.5639C205.87 44.4639 204.57 44.0639 202.77 44.0639H202.27V49.1639H202.37Z" fill="#858686"/>
<path d="M219.27 58.7639C214.07 58.7639 210.87 54.7639 210.87 49.7639C210.87 44.6639 214.27 40.7639 219.27 40.7639C224.27 40.7639 227.67 44.6639 227.67 49.7639C227.77 54.7639 224.47 58.7639 219.27 58.7639ZM219.27 44.0639C216.17 44.0639 214.27 46.8639 214.27 49.5639C214.27 52.1639 215.57 55.4639 219.27 55.4639C222.97 55.4639 224.27 52.2639 224.27 49.5639C224.27 46.8639 222.47 44.0639 219.27 44.0639Z" fill="#858686"/>
<path d="M237.37 45.0639C236.77 44.1639 235.97 43.6639 234.77 43.6639C233.67 43.6639 232.67 44.4639 232.67 45.5639C232.67 48.4639 239.47 47.2639 239.47 52.9639C239.47 56.3639 237.37 58.7639 233.87 58.7639C231.47 58.7639 229.77 57.3639 228.57 55.4639L230.77 53.3639C231.27 54.6639 232.47 55.8639 233.87 55.8639C235.27 55.8639 236.07 54.6639 236.07 53.3639C236.07 51.5639 234.47 51.0639 233.07 50.5639C230.87 49.6639 229.27 48.5639 229.27 45.8639C229.27 43.0639 231.37 40.7639 234.27 40.7639C235.77 40.7639 237.87 41.4639 238.97 42.6639L237.37 45.0639Z" fill="#858686"/>
</g>
<path d="M278.088 27.9695C278.088 27.6955 278.197 27.4327 278.391 27.2389C278.584 27.0451 278.847 26.9363 279.121 26.9363H283.254C283.528 26.9363 283.791 27.0451 283.985 27.2389C284.178 27.4327 284.287 27.6955 284.287 27.9695C284.287 28.2435 284.178 28.5063 283.985 28.7C283.791 28.8938 283.528 29.0027 283.254 29.0027V30.1805C286.064 30.5855 288.614 31.7923 290.66 33.5694C290.668 33.5603 290.676 33.5514 290.685 33.5425L291.416 32.811L290.685 32.0816C290.491 31.8878 290.382 31.625 290.381 31.3508C290.381 31.0766 290.49 30.8136 290.684 30.6196C290.877 30.4256 291.14 30.3165 291.414 30.3163C291.689 30.3161 291.952 30.4248 292.146 30.6186L295.068 33.5425C295.166 33.6378 295.245 33.7518 295.299 33.8779C295.353 34.0039 295.382 34.1395 295.383 34.2767C295.384 34.4139 295.358 34.5499 295.306 34.6769C295.254 34.8039 295.177 34.9192 295.08 35.0162C294.983 35.1132 294.868 35.19 294.741 35.2419C294.614 35.2939 294.478 35.32 294.341 35.3188C294.204 35.3176 294.068 35.2891 293.942 35.235C293.816 35.1808 293.702 35.1021 293.607 35.0034L292.877 34.2719L292.146 35.0034C292.137 35.0119 292.128 35.0201 292.119 35.0282C294.223 37.457 295.458 40.5171 295.63 43.7258C295.802 46.9345 294.9 50.1091 293.068 52.7486C291.235 55.3881 288.576 57.3422 285.509 58.3026C282.443 59.263 279.144 59.175 276.133 58.0525C273.122 56.9301 270.571 54.837 268.881 52.1035C267.192 49.3701 266.461 46.152 266.804 42.957C267.146 39.762 268.543 36.7721 270.773 34.459C273.004 32.1458 275.941 30.6412 279.121 30.1826V29.0027C278.847 29.0027 278.584 28.8938 278.391 28.7C278.197 28.5063 278.088 28.2435 278.088 27.9695ZM281.188 32.1022C279.559 32.1024 277.947 32.4232 276.443 33.0464C274.939 33.6696 273.572 34.583 272.421 35.7343C270.096 38.0597 268.79 41.2133 268.79 44.5016C268.791 47.7898 270.097 50.9432 272.422 53.2682C274.748 55.5931 277.901 56.8991 281.19 56.8988C284.478 56.8985 287.631 55.592 289.956 53.2667C292.281 50.9414 293.587 47.7877 293.587 44.4995C293.587 41.2113 292.28 38.0578 289.955 35.7329C287.63 33.4079 284.476 32.102 281.188 32.1022Z" fill="#009DE0"/>
<circle cx="281.251" cy="44.5581" r="13.2082" fill="#009DE0"/>
<path d="M278.814 47.8799V49.3499H272.668V47.8799H274.852V41.4539L272.822 42.6719V41.0619L275.594 39.3819H276.644V47.8799H278.814ZM284.226 42.9799C284.852 42.9799 285.402 43.1152 285.878 43.3859C286.354 43.6472 286.723 44.0205 286.984 44.5059C287.246 44.9819 287.376 45.5325 287.376 46.1579C287.376 46.8112 287.227 47.3899 286.928 47.8939C286.63 48.3885 286.2 48.7759 285.64 49.0559C285.08 49.3265 284.432 49.4619 283.694 49.4619C283.069 49.4619 282.453 49.3592 281.846 49.1539C281.24 48.9392 280.74 48.6545 280.348 48.2999L280.95 46.9839C281.856 47.6745 282.78 48.0199 283.722 48.0199C284.348 48.0199 284.824 47.8659 285.15 47.5579C285.486 47.2405 285.654 46.7925 285.654 46.2139C285.654 45.6632 285.482 45.2245 285.136 44.8979C284.8 44.5619 284.348 44.3939 283.778 44.3939C283.386 44.3939 283.018 44.4685 282.672 44.6179C282.327 44.7579 282.024 44.9679 281.762 45.2479H280.67V39.3819H286.914V40.7819H282.434V43.4979C282.938 43.1525 283.536 42.9799 284.226 42.9799ZM290.619 39.3819V40.6699C290.619 41.1645 290.535 41.6125 290.367 42.0139C290.199 42.4059 289.914 42.8025 289.513 43.2039L288.799 42.6439C289.219 42.1959 289.471 41.7619 289.555 41.3419H288.659V39.3819H290.619Z" fill="white"/>
<defs>
<clipPath id="clip0">
<rect width="242.4" height="59" fill="white" transform="translate(0.569641 0.263916)"/>
</clipPath>
</defs>
</svg>
