<svg width="229" height="60" viewBox="0 0 229 60" fill="none" xmlns="http://www.w3.org/2000/svg">
<g clip-path="url(#clip0)">
<path d="M1.80798 0.899414H3.30798C5.50798 0.899414 7.60798 1.49941 7.60798 4.09941C7.60798 4.99941 7.10798 5.99941 6.30798 6.29941C7.70798 6.59941 8.70798 7.89941 8.70798 9.29941C8.70798 11.6994 6.70798 12.5994 4.60798 12.5994H1.80798V0.899414ZM3.30798 6.09941H3.70798C5.10798 6.09941 6.20798 5.79941 6.20798 4.09941C6.20798 2.39941 5.10798 2.19941 3.70798 2.19941H3.30798V6.09941ZM3.30798 11.2994H4.40798C5.80798 11.2994 7.20798 10.8994 7.20798 9.19941C7.20798 7.49941 5.50798 7.19941 4.20798 7.19941H3.30798V11.2994Z" fill="#5B9CD6"/>
<path d="M11.808 11.2994H15.408V12.5994H10.308V0.899414H11.808V11.2994Z" fill="#5B9CD6"/>
<path d="M27.908 6.79936C27.908 10.2994 25.108 12.9994 21.708 12.9994C18.308 12.9994 15.508 10.3994 15.508 6.79936C15.508 3.39936 18.308 0.599365 21.708 0.599365C25.108 0.599365 27.908 3.39936 27.908 6.79936ZM26.408 6.79936C26.408 4.19936 24.508 1.99936 21.708 1.99936C18.908 1.99936 17.008 4.19936 17.008 6.79936C17.008 9.49936 19.208 11.5994 21.708 11.5994C24.208 11.5994 26.408 9.49936 26.408 6.79936Z" fill="#5B9CD6"/>
<path d="M39.108 12.8994L38.108 11.8994C37.108 12.5994 35.908 12.8994 34.708 12.8994C31.308 12.8994 28.508 10.2994 28.508 6.69936C28.508 3.39936 31.308 0.599365 34.708 0.599365C38.108 0.599365 40.908 3.39936 40.908 6.79936C40.908 8.49936 40.208 10.0994 39.108 11.1994L40.908 12.9994H39.108V12.8994ZM38.008 10.0994C38.908 9.29936 39.408 7.89936 39.408 6.79936C39.408 4.19936 37.508 1.99936 34.708 1.99936C31.908 1.99936 30.008 4.19936 30.008 6.79936C30.008 9.49936 32.208 11.5994 34.708 11.5994C35.408 11.5994 36.308 11.3994 37.008 10.8994L34.308 8.19936H36.108L38.008 10.0994Z" fill="#5B9CD6"/>
<path d="M43.608 0.899414V7.89941C43.608 9.79941 44.208 11.5994 46.508 11.5994C48.808 11.5994 49.308 9.79941 49.308 7.89941V0.899414H50.808V8.39941C50.808 10.9994 49.208 12.9994 46.508 12.9994C43.808 12.9994 42.208 10.9994 42.208 8.39941V0.899414H43.608Z" fill="#5B9CD6"/>
<path d="M52.808 0.899414H59.108V2.19941H54.308V5.49941H59.008V6.79941H54.308V11.2994H59.208V12.5994H52.908V0.899414H52.808Z" fill="#5B9CD6"/>
<path d="M29.308 40.8993C29.308 49.7993 25.008 59.2993 14.808 59.2993C4.60798 59.2993 0.307983 49.7993 0.307983 40.8993C0.307983 31.9993 4.60798 22.4993 14.808 22.4993C24.908 22.3993 29.308 31.9993 29.308 40.8993ZM9.10798 40.7993C9.10798 44.0993 10.208 51.3993 14.808 51.3993C19.408 51.3993 20.508 44.0993 20.508 40.7993C20.508 37.4993 19.408 30.1993 14.808 30.1993C10.208 30.2993 9.10798 37.4993 9.10798 40.7993Z" fill="#5B9CD6"/>
<path d="M33.608 33.5993C34.008 29.9993 35.408 27.2993 37.608 25.3993C39.808 23.4993 42.808 22.4993 46.308 22.4993C52.408 22.4993 57.208 25.9993 57.208 32.3993C57.208 35.0993 56.108 37.9993 53.608 39.3993C57.208 40.3993 59.208 44.4993 59.208 47.9993C59.208 55.4992 52.708 59.2992 45.908 59.2992C42.008 59.2992 38.508 58.2992 35.708 55.3993C33.708 53.2993 31.708 49.7993 31.808 46.7993H40.908C40.908 49.4993 42.808 51.5993 45.708 51.5993C48.408 51.5993 50.508 49.7993 50.508 46.9993C50.508 44.3993 48.308 42.3993 45.808 42.3993C45.308 42.3993 44.808 42.4993 44.308 42.6993V36.7993H45.208C47.508 36.7993 49.108 35.3993 49.108 32.9993C49.108 30.8993 47.608 29.5993 45.608 29.5993C43.308 29.5993 41.908 31.2993 42.008 33.4993H33.608V33.5993Z" fill="#5B9CD6"/>
<path d="M93.408 8.49939V59.1993H69.508V32.3994C69.508 19.1994 80.208 8.49939 93.408 8.49939Z" fill="#5797D3"/>
<path d="M135.808 31.5994C134.908 30.4994 133.508 29.7994 132.008 29.7994C128.808 29.7994 127.008 32.6994 127.008 35.6994C127.008 38.5994 128.908 41.3994 132.008 41.3994C133.408 41.3994 134.908 40.6994 135.808 39.5994V43.5994C134.608 44.1994 133.308 44.5994 131.908 44.5994C127.108 44.5994 123.508 40.4994 123.508 35.6994C123.508 30.8994 126.908 26.5994 131.908 26.5994C133.208 26.5994 134.508 26.9994 135.708 27.5994V31.5994H135.808Z" fill="#858686"/>
<path d="M143.508 44.1993H140.208V29.9994H136.808V27.0994H147.008V29.9994H143.608V44.1993H143.508Z" fill="#858686"/>
<path d="M151.508 29.9994V33.7994H156.808V36.6994H151.508V41.2994H157.008V44.1993H148.208V27.0994H157.008V29.9994H151.508Z" fill="#858686"/>
<path d="M164.508 35.5994V38.1994H159.008V35.5994H164.508Z" fill="#858686"/>
<path d="M166.708 27.0994H171.508C176.408 27.0994 179.708 30.7994 179.708 35.6994C179.708 40.4994 176.308 44.1993 171.408 44.1993H166.708V27.0994ZM170.008 41.2994H170.508C174.608 41.2994 176.208 38.9994 176.208 35.6994C176.208 31.9994 174.308 30.0994 170.508 30.0994H170.008V41.2994Z" fill="#858686"/>
<path d="M181.308 27.0994H185.408C188.608 27.0994 190.508 28.2994 190.508 31.6994C190.508 32.8994 190.108 34.2994 189.008 34.9994C191.008 35.3994 191.908 37.3994 191.908 39.2994C191.908 42.5994 189.508 44.0994 186.408 44.0994H181.308V27.0994ZM184.708 34.1994H185.108C186.708 34.1994 187.508 33.6994 187.508 31.9994C187.508 30.2994 186.508 29.7994 185.108 29.7994H184.708V34.1994ZM184.708 41.4994H185.408C187.208 41.4994 188.708 41.2994 188.708 39.0994C188.708 36.8994 186.908 36.7994 185.208 36.7994H184.708V41.4994Z" fill="#858686"/>
<path d="M199.108 35.5994V38.1994H193.608V35.5994H199.108Z" fill="#858686"/>
<path d="M210.808 33.7994V27.0994H214.108V44.1993H210.808V36.5994H204.608V44.1993H201.308V27.0994H204.608V33.7994H210.808Z" fill="#858686"/>
<path d="M228.208 44.1993H224.208L220.108 37.2994V44.1993H216.808V27.0994H221.308C224.708 27.0994 227.008 28.5994 227.008 32.1994C227.008 34.3994 225.808 36.4994 223.508 36.8994L228.208 44.1993ZM219.908 34.9994H220.308C222.108 34.9994 223.408 34.4994 223.408 32.3994C223.408 30.2994 222.108 29.8994 220.308 29.8994H219.808V34.9994H219.908Z" fill="#858686"/>
</g>
<defs>
<clipPath id="clip0">
<rect width="227.9" height="58.7" fill="white" transform="translate(0.307983 0.599365)"/>
</clipPath>
</defs>
</svg>
