<?xml version="1.0" encoding="utf-8"?>
<!-- Generator: Adobe Illustrator 18.0.0, SVG Export Plug-In . SVG Version: 6.00 Build 0)  -->
<!DOCTYPE svg PUBLIC "-//W3C//DTD SVG 1.1//EN" "http://www.w3.org/Graphics/SVG/1.1/DTD/svg11.dtd">
<svg version="1.1" id="Capa_1" xmlns="http://www.w3.org/2000/svg" xmlns:xlink="http://www.w3.org/1999/xlink" x="0px" y="0px"
	 width="404.2px" height="61px" viewBox="0 0 404.2 61" enable-background="new 0 0 404.2 61" xml:space="preserve">
<g>
	<g>
		<defs>
			<rect id="SVGID_1_" x="0.2" y="0.5" width="281" height="60.4"/>
		</defs>
		<clipPath id="SVGID_2_">
			<use xlink:href="#SVGID_1_"  overflow="visible"/>
		</clipPath>
		<g clip-path="url(#SVGID_2_)">
			<path fill="#5B9CD6" d="M1.7,0.8h1.5c2.2,0,4.3,0.6,4.3,3.2c0,0.9-0.5,1.9-1.3,2.2c1.4,0.3,2.4,1.6,2.4,3c0,2.4-2,3.3-4.1,3.3
				H1.7V0.8z M3.2,6h0.4C5,6,6.1,5.7,6.1,4S5,2.1,3.6,2.1H3.2V6z M3.2,11.2h1.1c1.4,0,2.8-0.4,2.8-2.1s-1.7-2-3-2H3.2V11.2z"/>
			<path fill="#5B9CD6" d="M11.7,11.2h3.6v1.3h-5.1V0.8h1.5C11.7,0.8,11.7,11.2,11.7,11.2z"/>
			<path fill="#5B9CD6" d="M27.8,6.7c0,3.5-2.8,6.2-6.2,6.2s-6.2-2.6-6.2-6.2c0-3.4,2.8-6.2,6.2-6.2S27.8,3.3,27.8,6.7z M26.3,6.7
				c0-2.6-1.9-4.8-4.7-4.8s-4.7,2.2-4.7,4.8c0,2.7,2.2,4.8,4.7,4.8S26.3,9.4,26.3,6.7z"/>
			<path fill="#5B9CD6" d="M39,12.8l-1-1c-1,0.7-2.2,1-3.4,1c-3.4,0-6.2-2.6-6.2-6.2c0-3.3,2.8-6.1,6.2-6.1s6.2,2.8,6.2,6.2
				c0,1.7-0.7,3.3-1.8,4.4l1.8,1.8H39V12.8z M37.9,10c0.9-0.8,1.4-2.2,1.4-3.3c0-2.6-1.9-4.8-4.7-4.8s-4.7,2.2-4.7,4.8
				c0,2.7,2.2,4.8,4.7,4.8c0.7,0,1.6-0.2,2.3-0.7l-2.7-2.7H36L37.9,10z"/>
			<path fill="#5B9CD6" d="M43.5,0.8v7c0,1.9,0.6,3.7,2.9,3.7c2.3,0,2.8-1.8,2.8-3.7v-7h1.5v7.5c0,2.6-1.6,4.6-4.3,4.6
				s-4.3-2-4.3-4.6V0.8H43.5z"/>
			<path fill="#5B9CD6" d="M52.7,0.8H59v1.3h-4.8v3.3h4.7v1.3h-4.7v4.5h4.9v1.3h-6.3L52.7,0.8L52.7,0.8z"/>
			<path fill="#9CB5C9" d="M106.6,41.4c0,10.7-8.7,19.4-19.4,19.4s-19.5-8.7-19.5-19.4S76.4,22,87.2,22
				C97.8,22,106.6,30.7,106.6,41.4z"/>
			<g enable-background="new    ">
				<path fill="#5B9CD6" d="M27.8,51.1v7.5H0.5l13.9-15.1c2-2.2,3.9-5.2,3.9-8.4c0-2.2-1.5-4.4-3.9-4.4c-2.4,0-3.7,1.9-3.7,4.2
					c0,0.5,0,0.9,0.1,1.4H1.1c0.3-7.8,5.2-13.1,13.3-13.1c7.1,0,13.1,4.7,13.1,12.1c0,4.9-2,7.7-5.5,10.9l-5.3,4.9H27.8z"/>
				<path fill="#5B9CD6" d="M58.8,51.1v7.5H31.5l13.9-15.1c2-2.2,3.9-5.2,3.9-8.4c0-2.2-1.5-4.4-3.9-4.4c-2.4,0-3.7,1.9-3.7,4.2
					c0,0.5,0,0.9,0.1,1.4H32c0.3-7.8,5.2-13.1,13.3-13.1c7.1,0,13.1,4.7,13.1,12.1c0,4.9-2,7.7-5.5,10.9l-5.3,4.9H58.8z"/>
			</g>
		</g>
	</g>
</g>
<g>
	<circle fill="#009DE0" cx="389.8" cy="40.2" r="13.2"/>
	<path fill="#009DE0" d="M386.6,23.6c0-0.3,0.1-0.5,0.3-0.7c0.2-0.2,0.5-0.3,0.7-0.3h4.1c0.3,0,0.5,0.1,0.7,0.3
		c0.2,0.2,0.3,0.5,0.3,0.7s-0.1,0.5-0.3,0.7c-0.2,0.2-0.5,0.3-0.7,0.3v1.2c2.8,0.4,5.4,1.6,7.4,3.4l0,0l0.7-0.7l-0.7-0.7
		c-0.2-0.2-0.3-0.5-0.3-0.7s0.1-0.5,0.3-0.7c0.2-0.2,0.5-0.3,0.7-0.3s0.5,0.1,0.7,0.3l2.9,2.9c0.1,0.1,0.2,0.2,0.2,0.3
		c0.1,0.1,0.1,0.3,0.1,0.4s0,0.3-0.1,0.4s-0.1,0.2-0.2,0.3c-0.1,0.1-0.2,0.2-0.3,0.2c-0.1,0.1-0.3,0.1-0.4,0.1s-0.3,0-0.4-0.1
		s-0.2-0.1-0.3-0.2l-0.7-0.7l-0.7,0.7l0,0c2.1,2.4,3.3,5.5,3.5,8.7c0.2,3.2-0.7,6.4-2.6,9c-1.8,2.6-4.5,4.6-7.6,5.6
		s-6.4,0.9-9.4-0.2c-3-1.1-5.6-3.2-7.3-5.9c-1.7-2.7-2.4-6-2.1-9.1c0.3-3.2,1.7-6.2,4-8.5c2.2-2.3,5.2-3.8,8.3-4.3v-1.2
		c-0.3,0-0.5-0.1-0.7-0.3C386.7,24.2,386.6,23.9,386.6,23.6z M389.7,27.8c-1.6,0-3.2,0.3-4.7,0.9s-2.9,1.5-4,2.7
		c-2.3,2.3-3.6,5.5-3.6,8.8s1.3,6.4,3.6,8.8c2.3,2.3,5.5,3.6,8.8,3.6s6.4-1.3,8.8-3.6c2.3-2.3,3.6-5.5,3.6-8.8s-1.3-6.4-3.6-8.8
		C396.2,29.1,393,27.8,389.7,27.8z"/>
	<path fill="#FFFFFF" d="M387.3,43.6V45h-6.1v-1.5h2.2v-6.4l-2,1.2v-1.6l2.8-1.7h1.1v8.5L387.3,43.6L387.3,43.6z M392.8,38.7
		c0.6,0,1.2,0.1,1.7,0.4c0.5,0.3,0.8,0.6,1.1,1.1c0.3,0.5,0.4,1,0.4,1.7s-0.1,1.2-0.4,1.7s-0.7,0.9-1.3,1.2
		c-0.6,0.3-1.2,0.4-1.9,0.4c-0.6,0-1.2-0.1-1.8-0.3c-0.6-0.2-1.1-0.5-1.5-0.9l0.6-1.3c0.9,0.7,1.8,1,2.8,1c0.6,0,1.1-0.2,1.4-0.5
		s0.5-0.8,0.5-1.3c0-0.6-0.2-1-0.5-1.3s-0.8-0.5-1.4-0.5c-0.4,0-0.8,0.1-1.1,0.2c-0.3,0.1-0.6,0.4-0.9,0.6h-1.1V35h6.2v1.4h-4.5v2.7
		C391.5,38.8,392.1,38.7,392.8,38.7z M399.1,35.1v1.3c0,0.5-0.1,0.9-0.3,1.3c-0.2,0.4-0.5,0.8-0.9,1.2l-0.7-0.6
		c0.4-0.4,0.7-0.9,0.8-1.3h-0.9v-2L399.1,35.1L399.1,35.1z"/>
</g>
<g enable-background="new    ">
	<path fill="#858686" d="M132.5,19.2c-1-1.2-2.5-1.9-4-1.9c-3.4,0-5.3,3.1-5.3,6.2c0,3,2,6.1,5.3,6.1c1.5,0,3-0.8,4-1.9v4.2
		c-1.3,0.6-2.6,1.1-4.1,1.1c-5.1,0-8.9-4.4-8.9-9.4c0-5.1,3.6-9.7,8.9-9.7c1.4,0,2.8,0.4,4,1.1V19.2z"/>
	<path fill="#858686" d="M134.7,14.4h3.5v10.1c0,2.2,0.2,5.4,3.2,5.4c3,0,3.2-3.1,3.2-5.4V14.4h3.5v10.8c0,4.4-1.9,7.8-6.7,7.8
		c-4.8,0-6.7-3.3-6.7-7.8V14.4z"/>
	<path fill="#858686" d="M150.7,14.4h4.4c3.4,0,5.4,1.3,5.4,4.9c0,1.3-0.5,2.8-1.6,3.5c2.1,0.4,3.1,2.5,3.1,4.5
		c0,3.6-2.5,5.1-5.8,5.1h-5.5V14.4z M154.2,22h0.4c1.7,0,2.6-0.5,2.6-2.4c0-1.8-1.1-2.3-2.5-2.3h-0.5V22z M154.2,29.7h0.7
		c1.9,0,3.5-0.2,3.5-2.6c0-2.4-1.9-2.4-3.7-2.4h-0.6V29.7z"/>
	<path fill="#858686" d="M167.5,32.5H164V14.4h3.5V32.5z"/>
	<path fill="#858686" d="M173.6,17.5v4h5.6v3.1h-5.6v4.9h5.8v3.1h-9.4V14.4h9.4v3.1H173.6z"/>
	<path fill="#858686" d="M194,32.5h-4.3l-4.4-7.3h0v7.3h-3.5V14.4h4.8c3.6,0,6,1.6,6,5.4c0,2.3-1.3,4.6-3.7,5L194,32.5z M185.3,22.7
		h0.5c1.9,0,3.3-0.6,3.3-2.8c0-2.2-1.4-2.7-3.3-2.7h-0.5V22.7z"/>
	<path fill="#858686" d="M200.6,32.5H197v-15h-3.6v-3.1h10.8v3.1h-3.6V32.5z"/>
	<path fill="#858686" d="M207.3,28.7l-1.5,3.8h-3.7l7.1-18.6h2.7l6.9,18.6H215l-1.4-3.8H207.3z M210.3,19.2L210.3,19.2l-2,6.6h4.3
		L210.3,19.2z"/>
	<path fill="#858686" d="M230.4,28.7l-1.5,3.8h-3.7l7.1-18.6h2.7l6.9,18.6h-3.8l-1.4-3.8H230.4z M233.5,19.2L233.5,19.2l-2,6.6h4.3
		L233.5,19.2z"/>
	<path fill="#858686" d="M256.8,33.3l-1.2-1.5c-1.2,0.8-2.8,1.2-4.5,1.2c-5.3,0-9-4.4-9-9.6c0-5.1,3.7-9.5,9-9.5s9,4.4,9,9.5
		c0,2.4-0.7,4.8-2.1,6.6l2.5,2.9L256.8,33.3z M255.2,27.1c0.8-1,1.1-2.5,1.1-3.7c0-2.9-2.1-6-5.3-6c-3.4,0-5.3,3.2-5.3,6.4
		c0,3,1.8,5.9,5.3,5.9c0.6,0,1.4-0.3,1.9-0.6l-3-3.4l3.6-0.3L255.2,27.1z"/>
	<path fill="#858686" d="M261.6,14.4h3.5v10.1c0,2.2,0.2,5.4,3.2,5.4c3,0,3.2-3.1,3.2-5.4V14.4h3.5v10.8c0,4.4-1.9,7.8-6.7,7.8
		c-4.8,0-6.7-3.3-6.7-7.8V14.4z"/>
	<path fill="#858686" d="M281.3,28.7l-1.5,3.8h-3.7l7.1-18.6h2.7l6.9,18.6h-3.8l-1.4-3.8H281.3z M284.3,19.2L284.3,19.2l-2,6.6h4.3
		L284.3,19.2z"/>
	<path fill="#858686" d="M297.3,32.5h-3.5V14.4h4.8c3.8,0,6.3,1.5,6.3,5.6c0,3.8-2.1,5.7-5.8,5.7h-1.8V32.5z M297.3,22.8h0.7
		c2.1,0,3.2-0.5,3.2-2.8c0-2.3-1.3-2.7-3.3-2.7h-0.6V22.8z"/>
	<path fill="#858686" d="M308.2,28.7l-1.5,3.8H303l7.1-18.6h2.7l6.9,18.6h-3.8l-1.4-3.8H308.2z M311.3,19.2L311.3,19.2l-2,6.6h4.3
		L311.3,19.2z"/>
	<path fill="#858686" d="M320.8,13.9h2.5l9.5,12.6h0V14.4h3.5v18.5h-2.5l-9.5-12.6h0v12.3h-3.5V13.9z"/>
	<path fill="#858686" d="M342.5,17.5v4h5.6v3.1h-5.6v4.9h5.8v3.1H339V14.4h9.4v3.1H342.5z"/>
	<path fill="#858686" d="M354.2,29.4h5v3.1h-8.5V14.4h3.5V29.4z"/>
	<path fill="#858686" d="M364.7,30.8c0,1.2-1,2.2-2.1,2.2s-2.1-1-2.1-2.2c0-1.2,1-2.1,2.1-2.1S364.7,29.7,364.7,30.8z"/>
	<path fill="#858686" d="M132.7,56.5h-4.3l-4.4-7.3h0v7.3h-3.5V38.4h4.8c3.6,0,6,1.6,6,5.4c0,2.3-1.3,4.6-3.7,5L132.7,56.5z
		 M123.9,46.8h0.5c1.9,0,3.3-0.6,3.3-2.8c0-2.2-1.4-2.7-3.3-2.7h-0.5V46.8z"/>
	<path fill="#858686" d="M141.9,57c-5.5,0-9-4.2-9-9.6c0-5.4,3.6-9.5,9-9.5c5.4,0,9,4.1,9,9.5C150.9,52.8,147.4,57,141.9,57z
		 M141.9,41.4c-3.3,0-5.3,3-5.3,5.9c0,2.8,1.4,6.2,5.3,6.2c3.9,0,5.3-3.4,5.3-6.2C147.2,44.4,145.2,41.4,141.9,41.4z"/>
	<path fill="#858686" d="M160.7,57c-5.5,0-9-4.2-9-9.6c0-5.4,3.6-9.5,9-9.5s9,4.1,9,9.5C169.6,52.8,166.2,57,160.7,57z M160.7,41.4
		c-3.3,0-5.3,3-5.3,5.9c0,2.8,1.4,6.2,5.3,6.2s5.3-3.4,5.3-6.2C166,44.4,164,41.4,160.7,41.4z"/>
	<path fill="#858686" d="M174.9,41.5v4h5.1v3.1h-5.1v8h-3.5V38.4h9v3.1H174.9z"/>
	<path fill="#858686" d="M188.3,56.5h-3.5v-15h-3.6v-3.1H192v3.1h-3.6V56.5z"/>
	<path fill="#858686" d="M201.4,57c-5.5,0-9-4.2-9-9.6c0-5.4,3.6-9.5,9-9.5s9,4.1,9,9.5C210.3,52.8,206.9,57,201.4,57z M201.4,41.4
		c-3.3,0-5.3,3-5.3,5.9c0,2.8,1.4,6.2,5.3,6.2s5.3-3.4,5.3-6.2C206.7,44.4,204.7,41.4,201.4,41.4z"/>
	<path fill="#858686" d="M215.6,56.5h-3.5V38.4h4.8c3.8,0,6.3,1.5,6.3,5.6c0,3.8-2.1,5.7-5.8,5.7h-1.8V56.5z M215.6,46.8h0.7
		c2.1,0,3.2-0.5,3.2-2.8c0-2.3-1.3-2.7-3.3-2.7h-0.6V46.8z"/>
</g>
</svg>
