<svg width="339" height="60" viewBox="0 0 339 60" fill="none" xmlns="http://www.w3.org/2000/svg">
<g clip-path="url(#clip0)">
<path d="M0.914307 0.728027H2.31431C4.51431 0.728027 6.61431 1.32803 6.61431 3.92803C6.61431 4.82802 6.11431 5.82802 5.31431 6.12802C6.71431 6.42802 7.71431 7.72802 7.71431 9.12802C7.71431 11.528 5.71431 12.428 3.61431 12.428H0.914307V0.728027ZM2.41431 5.92802H2.81431C4.21431 5.92802 5.31431 5.62802 5.31431 3.92803C5.31431 2.22803 4.21431 2.02803 2.81431 2.02803H2.41431V5.92802ZM2.41431 11.128H3.51431C4.91431 11.128 6.31431 10.728 6.31431 9.02802C6.31431 7.32802 4.61431 7.02802 3.31431 7.02802H2.41431V11.128Z" fill="#5B9CD6"/>
<path d="M10.9143 11.128H14.5143V12.428H9.41431V0.728027H10.9143V11.128Z" fill="#5B9CD6"/>
<path d="M27.0143 6.62822C27.0143 10.1282 24.2143 12.8282 20.8143 12.8282C17.4143 12.8282 14.6143 10.2282 14.6143 6.62822C14.6143 3.22822 17.4143 0.428223 20.8143 0.428223C24.2143 0.428223 27.0143 3.22822 27.0143 6.62822ZM25.5143 6.62822C25.5143 4.02822 23.6143 1.82822 20.8143 1.82822C18.0143 1.82822 16.1143 4.02822 16.1143 6.62822C16.1143 9.32821 18.3143 11.4282 20.8143 11.4282C23.3143 11.4282 25.5143 9.32821 25.5143 6.62822Z" fill="#5B9CD6"/>
<path d="M38.1143 12.7281L37.1143 11.7281C36.1143 12.4281 34.9143 12.7281 33.7143 12.7281C30.3143 12.7281 27.5143 10.1281 27.5143 6.52812C27.5143 3.12812 30.3143 0.328125 33.7143 0.328125C37.1143 0.328125 39.9143 3.12812 39.9143 6.52812C39.9143 8.22812 39.2143 9.82812 38.1143 10.9281L39.9143 12.7281H38.1143ZM37.1143 9.92812C38.0143 9.12812 38.5143 7.72812 38.5143 6.62812C38.5143 4.02812 36.6143 1.82812 33.8143 1.82812C31.0143 1.82812 29.1143 4.02812 29.1143 6.62812C29.1143 9.32812 31.3143 11.4281 33.8143 11.4281C34.5143 11.4281 35.4143 11.2281 36.1143 10.7281L33.4143 8.12812H35.2143L37.1143 9.92812Z" fill="#5B9CD6"/>
<path d="M42.6144 0.728027V7.72802C42.6144 9.62802 43.2144 11.428 45.5144 11.428C47.8144 11.428 48.3144 9.62802 48.3144 7.72802V0.728027H49.8144V8.22802C49.8144 10.828 48.2144 12.828 45.5144 12.828C42.8144 12.828 41.2144 10.828 41.2144 8.22802V0.728027H42.6144Z" fill="#5B9CD6"/>
<path d="M51.9143 0.728027H58.2143V2.02803H53.3143V5.32802H58.0143V6.62802H53.3143V11.128H58.2143V12.428H51.9143V0.728027Z" fill="#5B9CD6"/>
<path d="M5.61426 31.1282V23.6282H19.4143V57.8282H10.5143V31.1282H5.61426Z" fill="#5B9CD6"/>
<path d="M53.3143 23.6282L43.6143 35.2282L43.7143 35.3282C45.2143 34.6282 46.7143 34.3282 48.5143 34.3282C55.2143 34.3282 59.5143 40.1282 59.5143 46.3282C59.5143 54.7281 52.6143 59.2281 44.8143 59.2281C41.5143 59.2281 37.7143 58.3281 35.1143 56.3281C32.4143 54.0281 30.5143 50.5282 30.5143 46.9282C30.5143 42.0282 33.0143 37.2282 36.0143 33.3282L43.3143 23.7282H53.3143V23.6282ZM50.2143 46.5282C50.2143 43.4282 47.8143 40.9282 44.7143 40.9282C41.6143 40.9282 39.1143 43.4282 39.1143 46.5282C39.1143 49.6281 41.6143 52.2281 44.7143 52.2281C47.8143 52.1281 50.2143 49.6281 50.2143 46.5282Z" fill="#5B9CD6"/>
<path d="M101.114 36.128C101.114 42.128 98.7143 47.628 94.7143 51.528C90.8143 55.428 85.3143 57.928 79.3143 57.928H71.5143V14.228H79.3143C91.3143 14.228 101.114 24.028 101.114 36.128Z" fill="#5797D3"/>
<path d="M129.114 28.528H125.814V14.328H122.414V11.428H132.614V14.328H129.214V28.528H129.114Z" fill="#858686"/>
<path d="M137.114 14.328V18.128H142.414V21.028H137.114V25.628H142.614V28.528H133.814V11.428H142.614V14.328H137.114Z" fill="#858686"/>
<path d="M156.214 15.928C155.314 14.828 153.914 14.128 152.414 14.128C149.214 14.128 147.414 17.028 147.414 20.028C147.414 22.928 149.314 25.728 152.414 25.728C153.814 25.728 155.314 25.028 156.214 23.928V27.928C155.014 28.528 153.714 28.928 152.314 28.928C147.514 28.928 143.914 24.828 143.914 20.028C143.914 15.228 147.314 10.928 152.314 10.928C153.614 10.928 154.914 11.328 156.114 11.928V15.928H156.214Z" fill="#858686"/>
<path d="M167.914 18.128V11.428H171.214V28.528H167.914V20.928H161.714V28.528H158.414V11.428H161.714V18.128H167.914Z" fill="#858686"/>
<path d="M181.314 28.928C176.114 28.928 172.914 24.928 172.914 19.928C172.914 14.828 176.314 10.928 181.314 10.928C186.314 10.928 189.714 14.828 189.714 19.928C189.714 25.028 186.514 28.928 181.314 28.928ZM181.314 14.228C178.214 14.228 176.314 17.028 176.314 19.728C176.314 22.328 177.614 25.628 181.314 25.628C185.014 25.628 186.314 22.428 186.314 19.728C186.314 17.028 184.414 14.228 181.314 14.228Z" fill="#858686"/>
<path d="M199.414 15.228C198.814 14.328 198.014 13.828 196.814 13.828C195.714 13.828 194.714 14.628 194.714 15.728C194.714 18.628 201.514 17.428 201.514 23.128C201.514 26.528 199.414 28.928 195.914 28.928C193.514 28.928 191.814 27.528 190.614 25.628L192.814 23.528C193.314 24.828 194.514 26.028 195.914 26.028C197.314 26.028 198.114 24.828 198.114 23.528C198.114 21.728 196.514 21.228 195.114 20.728C192.914 19.828 191.314 18.728 191.314 16.028C191.314 13.228 193.414 10.928 196.314 10.928C197.814 10.928 199.914 11.628 201.014 12.828L199.414 15.228Z" fill="#858686"/>
<path d="M127.014 52.128L125.614 55.728H122.114L128.814 38.228H131.414L137.914 55.728H134.314L133.014 52.128H127.014ZM129.914 43.128L128.014 49.328H132.114L129.914 43.128Z" fill="#858686"/>
<path d="M150.214 43.1282C149.314 42.0282 147.914 41.3282 146.414 41.3282C143.214 41.3282 141.414 44.2282 141.414 47.2282C141.414 50.1282 143.314 52.9282 146.414 52.9282C147.814 52.9282 149.314 52.2282 150.214 51.1282V55.1282C149.014 55.7282 147.714 56.1282 146.314 56.1282C141.514 56.1282 137.914 52.0282 137.914 47.2282C137.914 42.4282 141.314 38.1282 146.314 38.1282C147.614 38.1282 148.914 38.5282 150.114 39.1282V43.1282H150.214Z" fill="#858686"/>
<path d="M152.314 38.6281H155.614V48.2281C155.614 50.3281 155.814 53.3281 158.614 53.3281C161.414 53.3281 161.614 50.3281 161.614 48.2281V38.6281H164.914V48.8281C164.914 53.0281 163.114 56.1281 158.614 56.1281C154.014 56.1281 152.314 53.0281 152.314 48.8281V38.6281ZM162.314 34.4281L158.914 37.8281L157.314 36.8281L160.014 33.0281L162.314 34.4281Z" fill="#858686"/>
<path d="M175.414 42.3281C174.814 41.4281 174.014 40.9281 172.814 40.9281C171.714 40.9281 170.714 41.7281 170.714 42.8281C170.714 45.7281 177.514 44.5281 177.514 50.2281C177.514 53.6281 175.414 56.0281 171.914 56.0281C169.514 56.0281 167.814 54.6281 166.614 52.7281L168.814 50.6281C169.314 51.9281 170.514 53.1281 171.914 53.1281C173.314 53.1281 174.114 51.9281 174.114 50.6281C174.114 48.8281 172.514 48.3281 171.114 47.8281C168.914 46.9281 167.314 45.8281 167.314 43.1281C167.314 40.3281 169.414 38.0281 172.314 38.0281C173.814 38.0281 175.914 38.7281 177.014 39.9281L175.414 42.3281Z" fill="#858686"/>
<path d="M184.814 55.7282H181.514V41.5282H178.114V38.6282H188.314V41.5282H184.914V55.7282H184.814Z" fill="#858686"/>
<path d="M192.814 55.7282H189.514V38.6282H192.814V55.7282Z" fill="#858686"/>
<path d="M206.714 43.1282C205.814 42.0282 204.414 41.3282 202.914 41.3282C199.714 41.3282 197.914 44.2282 197.914 47.2282C197.914 50.1282 199.814 52.9282 202.914 52.9282C204.314 52.9282 205.814 52.2282 206.714 51.1282V55.1282C205.514 55.7282 204.214 56.1282 202.814 56.1282C198.014 56.1282 194.414 52.0282 194.414 47.2282C194.414 42.4282 197.814 38.1282 202.814 38.1282C204.114 38.1282 205.414 38.5282 206.614 39.1282V43.1282H206.714Z" fill="#858686"/>
<path d="M216.514 56.1282C211.314 56.1282 208.114 52.1282 208.114 47.1282C208.114 42.0282 211.514 38.1282 216.514 38.1282C221.514 38.1282 224.914 42.0282 224.914 47.1282C224.914 52.1282 221.714 56.1282 216.514 56.1282ZM216.514 41.4282C213.414 41.4282 211.514 44.2282 211.514 46.9282C211.514 49.5282 212.814 52.8282 216.514 52.8282C220.214 52.8282 221.514 49.6282 221.514 46.9282C221.514 44.2282 219.614 41.4282 216.514 41.4282Z" fill="#858686"/>
<path d="M234.614 42.3281C234.014 41.4281 233.214 40.9281 232.014 40.9281C230.914 40.9281 229.914 41.7281 229.914 42.8281C229.914 45.7281 236.714 44.5281 236.714 50.2281C236.714 53.6281 234.614 56.0281 231.114 56.0281C228.714 56.0281 227.014 54.6281 225.814 52.7281L228.014 50.6281C228.514 51.9281 229.714 53.1281 231.114 53.1281C232.514 53.1281 233.314 51.9281 233.314 50.6281C233.314 48.8281 231.714 48.3281 230.314 47.8281C228.114 46.9281 226.514 45.8281 226.514 43.1281C226.514 40.3281 228.614 38.0281 231.514 38.0281C233.014 38.0281 235.114 38.7281 236.214 39.9281L234.614 42.3281Z" fill="#858686"/>
</g>
<circle cx="323.583" cy="43.4226" r="13.2082" fill="#009DE0"/>
<path d="M320.42 26.834C320.42 26.56 320.528 26.2972 320.722 26.1034C320.916 25.9096 321.179 25.8008 321.453 25.8008H325.586C325.86 25.8008 326.122 25.9096 326.316 26.1034C326.51 26.2972 326.619 26.56 326.619 26.834C326.619 27.108 326.51 27.3708 326.316 27.5645C326.122 27.7583 325.86 27.8672 325.586 27.8672V29.045C328.396 29.45 330.946 30.6568 332.991 32.4339C333 32.4248 333.008 32.4159 333.016 32.407L333.748 31.6755L333.016 30.9461C332.822 30.7523 332.713 30.4895 332.713 30.2153C332.713 29.9411 332.822 29.6781 333.015 29.4841C333.209 29.2901 333.472 29.181 333.746 29.1808C334.02 29.1806 334.283 29.2893 334.477 29.4831L337.399 32.407C337.498 32.5023 337.576 32.6163 337.631 32.7424C337.685 32.8684 337.713 33.004 337.714 33.1412C337.716 33.2784 337.69 33.4144 337.638 33.5414C337.586 33.6684 337.509 33.7837 337.412 33.8807C337.315 33.9778 337.2 34.0545 337.073 34.1064C336.946 34.1584 336.81 34.1845 336.672 34.1833C336.535 34.1821 336.4 34.1536 336.274 34.0995C336.147 34.0453 336.033 33.9666 335.938 33.8679L335.209 33.1364L334.477 33.8679C334.468 33.8764 334.459 33.8846 334.45 33.8927C336.554 36.3215 337.79 39.3816 337.961 42.5903C338.133 45.799 337.232 48.9736 335.399 51.6131C333.566 54.2526 330.907 56.2067 327.841 57.1671C324.774 58.1275 321.475 58.0395 318.465 56.917C315.454 55.7946 312.902 53.7015 311.213 50.968C309.524 48.2346 308.793 45.0165 309.135 41.8215C309.478 38.6266 310.874 35.6366 313.105 33.3235C315.335 31.0103 318.272 29.5057 321.453 29.0471V27.8672C321.179 27.8672 320.916 27.7583 320.722 27.5645C320.528 27.3708 320.42 27.108 320.42 26.834ZM323.519 30.9667C321.891 30.9669 320.279 31.2877 318.775 31.9109C317.27 32.5341 315.904 33.4475 314.753 34.5988C312.428 36.9242 311.122 40.0778 311.122 43.3661C311.122 46.6543 312.429 49.8077 314.754 52.1327C317.079 54.4576 320.233 55.7636 323.521 55.7633C326.809 55.763 329.963 54.4565 332.288 52.1312C334.613 49.8059 335.919 46.6522 335.919 43.364C335.918 40.0758 334.612 36.9223 332.286 34.5974C329.961 32.2724 326.807 30.9665 323.519 30.9667Z" fill="#009DE0"/>
<path d="M321.145 46.7444V48.2144H314.999V46.7444H317.183V40.3184L315.153 41.5364V39.9264L317.925 38.2464H318.975V46.7444H321.145ZM326.558 41.8444C327.183 41.8444 327.734 41.9797 328.21 42.2504C328.686 42.5117 329.055 42.885 329.316 43.3704C329.577 43.8464 329.708 44.397 329.708 45.0224C329.708 45.6757 329.559 46.2544 329.26 46.7584C328.961 47.253 328.532 47.6404 327.972 47.9204C327.412 48.191 326.763 48.3264 326.026 48.3264C325.401 48.3264 324.785 48.2237 324.178 48.0184C323.571 47.8037 323.072 47.519 322.68 47.1644L323.282 45.8484C324.187 46.539 325.111 46.8844 326.054 46.8844C326.679 46.8844 327.155 46.7304 327.482 46.4224C327.818 46.105 327.986 45.657 327.986 45.0784C327.986 44.5277 327.813 44.089 327.468 43.7624C327.132 43.4264 326.679 43.2584 326.11 43.2584C325.718 43.2584 325.349 43.333 325.004 43.4824C324.659 43.6224 324.355 43.8324 324.094 44.1124H323.002V38.2464H329.246V39.6464H324.766V42.3624C325.27 42.017 325.867 41.8444 326.558 41.8444ZM332.951 38.2464V39.5344C332.951 40.029 332.867 40.477 332.699 40.8784C332.531 41.2704 332.246 41.667 331.845 42.0684L331.131 41.5084C331.551 41.0604 331.803 40.6264 331.887 40.2064H330.991V38.2464H332.951Z" fill="white"/>
<defs>
<clipPath id="clip0">
<rect width="235.8" height="58.7" fill="white" transform="translate(0.914307 0.428223)"/>
</clipPath>
</defs>
</svg>
