<?xml version="1.0" encoding="utf-8"?>
<!-- Generator: Adobe Illustrator 22.0.0, SVG Export Plug-In . SVG Version: 6.00 Build 0)  -->
<svg version="1.1" id="Capa_1" xmlns="http://www.w3.org/2000/svg" xmlns:xlink="http://www.w3.org/1999/xlink" x="0px" y="0px"
	 viewBox="0 0 252.4 61" style="enable-background:new 0 0 252.4 61;" xml:space="preserve">
<style type="text/css">
	.st0{fill:#5B9CD6;}
	.st1{fill:#9CB5C9;}
	.st2{fill:#858686;}
</style>
<g>
	<g>
		<g>
			<path class="st0" d="M1.7,0.8h1.5c2.2,0,4.3,0.6,4.3,3.2c0,0.9-0.5,1.9-1.3,2.2c1.4,0.3,2.4,1.6,2.4,3c0,2.4-2,3.3-4.1,3.3H1.7
				V0.8z M3.2,6h0.4C5,6,6.1,5.7,6.1,4S5,2.1,3.6,2.1H3.2V6z M3.2,11.2h1.1c1.4,0,2.8-0.4,2.8-2.1s-1.7-2-3-2H3.2V11.2z"/>
			<path class="st0" d="M11.7,11.2h3.6v1.3h-5.1V0.8h1.5C11.7,0.8,11.7,11.2,11.7,11.2z"/>
			<path class="st0" d="M27.8,6.7c0,3.5-2.8,6.2-6.2,6.2s-6.2-2.6-6.2-6.2c0-3.4,2.8-6.2,6.2-6.2S27.8,3.3,27.8,6.7z M26.3,6.7
				c0-2.6-1.9-4.8-4.7-4.8s-4.7,2.2-4.7,4.8c0,2.7,2.2,4.8,4.7,4.8S26.3,9.4,26.3,6.7z"/>
			<path class="st0" d="M39,12.8l-1-1c-1,0.7-2.2,1-3.4,1c-3.4,0-6.2-2.6-6.2-6.2c0-3.3,2.8-6.1,6.2-6.1s6.2,2.8,6.2,6.2
				c0,1.7-0.7,3.3-1.8,4.4l1.8,1.8H39V12.8z M37.9,10c0.9-0.8,1.4-2.2,1.4-3.3c0-2.6-1.9-4.8-4.7-4.8s-4.7,2.2-4.7,4.8
				c0,2.7,2.2,4.8,4.7,4.8c0.7,0,1.6-0.2,2.3-0.7l-2.7-2.7H36L37.9,10z"/>
			<path class="st0" d="M43.5,0.8v7c0,1.9,0.6,3.7,2.9,3.7c2.3,0,2.8-1.8,2.8-3.7v-7h1.5v7.5c0,2.6-1.6,4.6-4.3,4.6s-4.3-2-4.3-4.6
				V0.8H43.5z"/>
			<path class="st0" d="M52.7,0.8H59v1.3h-4.8v3.3h4.7v1.3h-4.7v4.5h4.9v1.3h-6.3L52.7,0.8L52.7,0.8z"/>
			<path class="st0" d="M29.2,40.8c0,8.9-4.3,18.4-14.5,18.4S0.2,49.7,0.2,40.8s4.3-18.4,14.5-18.4C24.8,22.3,29.2,31.9,29.2,40.8z
				 M9,40.7c0,3.3,1.1,10.6,5.7,10.6s5.7-7.3,5.7-10.6s-1.1-10.6-5.7-10.6C10.1,30.2,9,37.4,9,40.7z"/>
			<path class="st0" d="M37.5,31.2v-7.5h13.8v34.2h-8.9V31.2H37.5z"/>
			<path class="st1" d="M106.6,41.4c0,10.7-8.7,19.4-19.4,19.4s-19.5-8.7-19.5-19.4S76.4,22,87.2,22C97.8,22,106.6,30.7,106.6,41.4z
				"/>
		</g>
	</g>
</g>
<g>
	<path class="st2" d="M123.9,32.5h-3.5V14.4h4.8c3.8,0,6.3,1.5,6.3,5.6c0,3.8-2.1,5.7-5.8,5.7h-1.8
		C123.9,25.7,123.9,32.5,123.9,32.5z M123.9,22.8h0.7c2.1,0,3.2-0.5,3.2-2.8s-1.3-2.7-3.3-2.7h-0.6
		C123.9,17.3,123.9,22.8,123.9,22.8z"/>
	<path class="st2" d="M145.3,32.5H141l-4.4-7.3l0,0v7.3h-3.5V14.4h4.8c3.6,0,6,1.6,6,5.4c0,2.3-1.3,4.6-3.7,5L145.3,32.5z
		 M136.6,22.7h0.5c1.9,0,3.3-0.6,3.3-2.8s-1.4-2.7-3.3-2.7h-0.5V22.7z"/>
	<path class="st2" d="M154.6,33c-5.5,0-9-4.2-9-9.6s3.6-9.5,9-9.5s9,4.1,9,9.5C163.5,28.8,160.1,33,154.6,33z M154.6,17.4
		c-3.3,0-5.3,3-5.3,5.9c0,2.8,1.4,6.2,5.3,6.2c3.9,0,5.3-3.4,5.3-6.2C159.9,20.4,157.9,17.4,154.6,17.4z"/>
	<path class="st2" d="M165.3,14.4h5c5.2,0,8.7,3.9,8.7,9.1c0,5.1-3.6,9-8.8,9h-5V14.4H165.3z M168.8,29.4h0.6c4.3,0,6-2.4,6-6
		c0-3.9-2-6-6-6h-0.6V29.4z"/>
	<path class="st2" d="M180.7,14.4h3.5v10.1c0,2.2,0.2,5.4,3.2,5.4s3.2-3.1,3.2-5.4V14.4h3.5v10.8c0,4.4-1.9,7.8-6.7,7.8
		s-6.7-3.3-6.7-7.8V14.4z"/>
	<path class="st2" d="M208.7,19.2c-1-1.2-2.5-1.9-4-1.9c-3.4,0-5.3,3.1-5.3,6.2c0,3,2,6.1,5.3,6.1c1.5,0,3-0.8,4-1.9v4.2
		c-1.3,0.6-2.6,1.1-4.1,1.1c-5.1,0-8.9-4.4-8.9-9.4c0-5.1,3.6-9.7,8.9-9.7c1.4,0,2.8,0.4,4,1.1v4.2H208.7z"/>
	<path class="st2" d="M216.9,32.5h-3.5v-15h-3.6v-3.1h10.8v3.1H217L216.9,32.5L216.9,32.5z"/>
	<path class="st2" d="M229.9,33c-5.5,0-9-4.2-9-9.6s3.6-9.5,9-9.5s9,4.1,9,9.5S235.5,33,229.9,33z M229.9,17.4c-3.3,0-5.3,3-5.3,5.9
		c0,2.8,1.4,6.2,5.3,6.2c3.9,0,5.3-3.4,5.3-6.2C235.2,20.4,233.3,17.4,229.9,17.4z"/>
	<path class="st2" d="M249.1,18.4c-0.7-0.9-1.5-1.5-2.7-1.5c-1.1,0-2.2,0.9-2.2,2c0,3,7.2,1.8,7.2,7.8c0,3.6-2.3,6.2-6,6.2
		c-2.5,0-4.3-1.4-5.6-3.5l2.3-2.2c0.5,1.4,1.8,2.6,3.3,2.6c1.4,0,2.3-1.2,2.3-2.6c0-1.9-1.7-2.4-3.1-3c-2.3-1-4-2.1-4-4.9
		c0-3,2.2-5.4,5.3-5.4c1.6,0,3.8,0.8,4.9,2L249.1,18.4z"/>
	<path class="st2" d="M118.7,37.4h4.1l3.2,6.3l3.5-6.3h4.1l-5.7,9.8v8.3h-3.5v-8.3L118.7,37.4z"/>
	<path class="st2" d="M150,41.4c-0.7-0.9-1.5-1.5-2.7-1.5c-1.1,0-2.2,0.9-2.2,2c0,3,7.2,1.8,7.2,7.8c0,3.6-2.3,6.2-6,6.2
		c-2.5,0-4.3-1.4-5.6-3.5l2.3-2.2c0.5,1.4,1.8,2.6,3.3,2.6c1.4,0,2.3-1.2,2.3-2.6c0-1.9-1.7-2.4-3.1-3c-2.3-1-4-2.1-4-4.9
		c0-3,2.2-5.4,5.3-5.4c1.6,0,3.8,0.8,4.9,2L150,41.4z"/>
	<path class="st2" d="M157.6,55.5h-3.5V37.4h3.5V55.5z"/>
	<path class="st2" d="M168.7,41.4c-0.7-0.9-1.5-1.5-2.7-1.5c-1.1,0-2.2,0.9-2.2,2c0,3,7.2,1.8,7.2,7.8c0,3.6-2.3,6.2-6,6.2
		c-2.5,0-4.3-1.4-5.6-3.5l2.3-2.2c0.5,1.4,1.8,2.6,3.3,2.6c1.4,0,2.3-1.2,2.3-2.6c0-1.9-1.7-2.4-3.1-3c-2.3-1-4-2.1-4-4.9
		c0-3,2.2-5.4,5.3-5.4c1.6,0,3.8,0.8,4.9,2L168.7,41.4z"/>
	<path class="st2" d="M178.7,55.5h-3.5v-15h-3.6v-3.1h10.8v3.1h-3.6L178.7,55.5L178.7,55.5z"/>
	<path class="st2" d="M187.1,40.5v4h5.6v3.1h-5.6v4.9h5.8v3.1h-9.4V37.4h9.4v3.1H187.1z"/>
	<path class="st2" d="M208.8,44.3L208.8,44.3l-4.2,11.5h-1.2l-4-11.5l0,0l-1.6,11.2h-3.6l3-18.6h2.5l4.5,11.9l4.3-11.9h2.5l2.7,18.6
		h-3.6L208.8,44.3z"/>
	<path class="st2" d="M219.1,51.7l-1.5,3.8h-3.7l7.1-18.6h2.7l6.9,18.6h-3.8l-1.4-3.8H219.1z M222.1,42.2L222.1,42.2l-2,6.6h4.3
		L222.1,42.2z"/>
	<path class="st2" d="M240.1,41.4c-0.7-0.9-1.5-1.5-2.7-1.5c-1.1,0-2.2,0.9-2.2,2c0,3,7.2,1.8,7.2,7.8c0,3.6-2.3,6.2-6,6.2
		c-2.5,0-4.3-1.4-5.6-3.5l2.3-2.2c0.5,1.4,1.8,2.6,3.3,2.6c1.4,0,2.3-1.2,2.3-2.6c0-1.9-1.7-2.4-3.1-3c-2.3-1-4-2.1-4-4.9
		c0-3,2.2-5.4,5.3-5.4c1.6,0,3.8,0.8,4.9,2L240.1,41.4z"/>
</g>
</svg>
