<svg width="279" height="60" viewBox="0 0 279 60" fill="none" xmlns="http://www.w3.org/2000/svg">
<g clip-path="url(#clip0)">
<path d="M2.16962 1.29858H3.66962C5.86962 1.29858 7.96962 1.89858 7.96962 4.49858C7.96962 5.39858 7.46962 6.39858 6.66962 6.69858C8.06962 6.99858 9.06962 8.29858 9.06962 9.69858C9.06962 12.0986 7.06962 12.9986 4.96962 12.9986H2.16962V1.29858ZM3.66962 6.49858H4.06962C5.46962 6.49858 6.56962 6.19858 6.56962 4.49858C6.56962 2.79858 5.46962 2.59858 4.06962 2.59858H3.66962V6.49858ZM3.66962 11.6986H4.76962C6.16962 11.6986 7.56962 11.2986 7.56962 9.59858C7.56962 7.89858 5.86962 7.59858 4.56962 7.59858H3.66962V11.6986Z" fill="#5B9CD6"/>
<path d="M12.1696 11.6986H15.7696V12.9986H10.6696V1.29858H12.1696V11.6986Z" fill="#5B9CD6"/>
<path d="M28.2696 7.19853C28.2696 10.6985 25.4696 13.3985 22.0696 13.3985C18.6696 13.3985 15.8696 10.7985 15.8696 7.19853C15.8696 3.79853 18.6696 0.998535 22.0696 0.998535C25.4696 0.998535 28.2696 3.79853 28.2696 7.19853ZM26.7696 7.19853C26.7696 4.59853 24.8696 2.39853 22.0696 2.39853C19.2696 2.39853 17.3696 4.59853 17.3696 7.19853C17.3696 9.89853 19.5696 11.9985 22.0696 11.9985C24.5696 11.9985 26.7696 9.89853 26.7696 7.19853Z" fill="#5B9CD6"/>
<path d="M39.4696 13.2985L38.4696 12.2985C37.4696 12.9985 36.2696 13.2985 35.0696 13.2985C31.6696 13.2985 28.8696 10.6985 28.8696 7.09853C28.8696 3.79853 31.6696 0.998535 35.0696 0.998535C38.4696 0.998535 41.2696 3.79853 41.2696 7.19853C41.2696 8.89853 40.5696 10.4985 39.4696 11.5985L41.2696 13.3985H39.4696V13.2985ZM38.3696 10.4985C39.2696 9.69853 39.7696 8.29853 39.7696 7.19853C39.7696 4.59853 37.8696 2.39853 35.0696 2.39853C32.2696 2.39853 30.3696 4.59853 30.3696 7.19853C30.3696 9.89853 32.5696 11.9985 35.0696 11.9985C35.7696 11.9985 36.6696 11.7985 37.3696 11.2985L34.6696 8.59853H36.4696L38.3696 10.4985Z" fill="#5B9CD6"/>
<path d="M43.9696 1.29858V8.29858C43.9696 10.1986 44.5696 11.9986 46.8696 11.9986C49.1696 11.9986 49.6696 10.1986 49.6696 8.29858V1.29858H51.1696V8.79858C51.1696 11.3986 49.5696 13.3986 46.8696 13.3986C44.1696 13.3986 42.5696 11.3986 42.5696 8.79858V1.29858H43.9696Z" fill="#5B9CD6"/>
<path d="M53.1696 1.29858H59.4696V2.59858H54.6696V5.89858H59.3696V7.19858H54.6696V11.6986H59.5696V12.9986H53.2696V1.29858H53.1696Z" fill="#5B9CD6"/>
<path d="M29.6696 41.2985C29.6696 50.1984 25.3696 59.6984 15.1696 59.6984C4.96962 59.6984 0.669617 50.1984 0.669617 41.2985C0.669617 32.3985 4.96962 22.8985 15.1696 22.8985C25.2696 22.7985 29.6696 32.3985 29.6696 41.2985ZM9.46962 41.1985C9.46962 44.4985 10.5696 51.7984 15.1696 51.7984C19.7696 51.7984 20.8696 44.4985 20.8696 41.1985C20.8696 37.8985 19.7696 30.5985 15.1696 30.5985C10.5696 30.6985 9.46962 37.8985 9.46962 41.1985Z" fill="#5B9CD6"/>
<path d="M33.9696 33.9984C34.3696 30.3984 35.7696 27.6984 37.9696 25.7984C40.1696 23.8984 43.1696 22.8984 46.6696 22.8984C52.7696 22.8984 57.5696 26.3984 57.5696 32.7984C57.5696 35.4984 56.4696 38.3984 53.9696 39.7984C57.5696 40.7984 59.5696 44.8984 59.5696 48.3984C59.5696 55.8984 53.0696 59.6984 46.2696 59.6984C42.3696 59.6984 38.8696 58.6984 36.0696 55.7984C34.0696 53.6984 32.0696 50.1984 32.1696 47.1984H41.2696C41.2696 49.8984 43.1696 51.9984 46.0696 51.9984C48.7696 51.9984 50.8696 50.1984 50.8696 47.3984C50.8696 44.7984 48.6696 42.7984 46.1696 42.7984C45.6696 42.7984 45.1696 42.8984 44.6696 43.0984V37.1984H45.5696C47.8696 37.1984 49.4696 35.7984 49.4696 33.3984C49.4696 31.2984 47.9696 29.9984 45.9696 29.9984C43.6696 29.9984 42.2696 31.6984 42.3696 33.8984H33.9696V33.9984Z" fill="#5B9CD6"/>
<path d="M93.7696 8.89844V59.5984H69.8696V32.7984C69.8696 19.5984 80.5696 8.89844 93.7696 8.89844Z" fill="#5797D3"/>
<path d="M136.17 31.9985C135.27 30.8985 133.87 30.1985 132.37 30.1985C129.17 30.1985 127.37 33.0985 127.37 36.0985C127.37 38.9985 129.27 41.7985 132.37 41.7985C133.77 41.7985 135.27 41.0985 136.17 39.9985V43.9985C134.97 44.5985 133.67 44.9985 132.27 44.9985C127.47 44.9985 123.87 40.8985 123.87 36.0985C123.87 31.2985 127.27 26.9985 132.27 26.9985C133.57 26.9985 134.87 27.3985 136.07 27.9985V31.9985H136.17Z" fill="#858686"/>
<path d="M143.87 44.5985H140.57V30.3985H137.17V27.4985H147.37V30.3985H143.97V44.5985H143.87Z" fill="#858686"/>
<path d="M151.87 30.3985V34.1985H157.17V37.0985H151.87V41.6985H157.37V44.5985H148.57V27.4985H157.37V30.3985H151.87Z" fill="#858686"/>
<path d="M164.87 35.9985V38.5985H159.37V35.9985H164.87Z" fill="#858686"/>
<path d="M167.07 27.4985H171.87C176.77 27.4985 180.07 31.1985 180.07 36.0985C180.07 40.8985 176.67 44.5985 171.77 44.5985H167.07V27.4985ZM170.37 41.6985H170.87C174.97 41.6985 176.57 39.3985 176.57 36.0985C176.57 32.3985 174.67 30.4985 170.87 30.4985H170.37V41.6985Z" fill="#858686"/>
<path d="M181.67 27.4985H185.77C188.97 27.4985 190.87 28.6985 190.87 32.0985C190.87 33.2985 190.47 34.6985 189.37 35.3985C191.37 35.7985 192.27 37.7985 192.27 39.6985C192.27 42.9985 189.87 44.4985 186.77 44.4985H181.67V27.4985ZM185.07 34.5985H185.47C187.07 34.5985 187.87 34.0985 187.87 32.3985C187.87 30.6985 186.87 30.1985 185.47 30.1985H185.07V34.5985ZM185.07 41.8985H185.77C187.57 41.8985 189.07 41.6985 189.07 39.4985C189.07 37.2985 187.27 37.1985 185.57 37.1985H185.07V41.8985Z" fill="#858686"/>
<path d="M199.47 35.9985V38.5985H193.97V35.9985H199.47Z" fill="#858686"/>
<path d="M211.17 34.1985V27.4985H214.47V44.5985H211.17V36.9985H204.97V44.5985H201.67V27.4985H204.97V34.1985H211.17Z" fill="#858686"/>
<path d="M228.57 44.5985H224.57L220.47 37.6985V44.5985H217.17V27.4985H221.67C225.07 27.4985 227.37 28.9985 227.37 32.5985C227.37 34.7985 226.17 36.8985 223.87 37.2985L228.57 44.5985ZM220.27 35.3985H220.67C222.47 35.3985 223.77 34.8985 223.77 32.7985C223.77 30.6985 222.47 30.2985 220.67 30.2985H220.17V35.3985H220.27Z" fill="#858686"/>
</g>
<path d="M260.616 19.5317C260.616 19.2577 260.724 18.9949 260.918 18.8012C261.112 18.6074 261.375 18.4985 261.649 18.4985H265.781C266.055 18.4985 266.318 18.6074 266.512 18.8012C266.706 18.9949 266.815 19.2577 266.815 19.5317C266.815 19.8058 266.706 20.0685 266.512 20.2623C266.318 20.4561 266.055 20.5649 265.781 20.5649V21.7428C268.592 22.1478 271.142 23.3545 273.187 25.1316C273.196 25.1226 273.204 25.1136 273.212 25.1048L273.944 24.3733L273.212 23.6438C273.018 23.4501 272.909 23.1872 272.909 22.9131C272.909 22.6389 273.017 22.3759 273.211 22.1819C273.405 21.9879 273.668 21.8788 273.942 21.8786C274.216 21.8784 274.479 21.9871 274.673 22.1808L277.595 25.1048C277.694 25.2001 277.772 25.3141 277.826 25.4401C277.881 25.5662 277.909 25.7018 277.91 25.8389C277.912 25.9761 277.885 26.1122 277.833 26.2392C277.781 26.3661 277.705 26.4815 277.608 26.5785C277.511 26.6755 277.395 26.7522 277.268 26.8042C277.141 26.8561 277.005 26.8823 276.868 26.8811C276.731 26.8799 276.596 26.8514 276.469 26.7972C276.343 26.7431 276.229 26.6644 276.134 26.5657L275.405 25.8342L274.673 26.5657C274.664 26.5741 274.655 26.5824 274.646 26.5905C276.75 29.0192 277.986 32.0794 278.157 35.2881C278.329 38.4968 277.428 41.6713 275.595 44.3108C273.762 46.9503 271.103 48.9044 268.037 49.8649C264.97 50.8253 261.671 50.7373 258.66 49.6148C255.65 48.4923 253.098 46.3992 251.409 43.6658C249.72 40.9324 248.989 37.7143 249.331 34.5193C249.674 31.3243 251.07 28.3343 253.301 26.0212C255.531 23.7081 258.468 22.2035 261.649 21.7448V20.5649C261.375 20.5649 261.112 20.4561 260.918 20.2623C260.724 20.0685 260.616 19.8058 260.616 19.5317ZM263.715 23.6645C262.087 23.6646 260.475 23.9855 258.971 24.6087C257.466 25.2319 256.1 26.1452 254.949 27.2966C252.624 29.6219 251.318 32.7756 251.318 36.0638C251.318 39.352 252.625 42.5055 254.95 44.8304C257.275 47.1554 260.429 48.4613 263.717 48.4611C267.005 48.4608 270.159 47.1543 272.484 44.829C274.809 42.5036 276.115 39.35 276.114 36.0617C276.114 32.7735 274.808 29.6201 272.482 27.2951C270.157 24.9702 267.003 23.6642 263.715 23.6645Z" fill="#009DE0"/>
<path d="M263.779 49.3285C271.073 49.3285 276.987 43.415 276.987 36.1203C276.987 28.8256 271.073 22.9121 263.779 22.9121C256.484 22.9121 250.571 28.8256 250.571 36.1203C250.571 43.415 256.484 49.3285 263.779 49.3285Z" fill="#009DE0"/>
<path d="M259.367 35.7881C259.955 35.9468 260.403 36.2361 260.711 36.6561C261.029 37.0761 261.187 37.5941 261.187 38.2101C261.187 39.0781 260.865 39.7641 260.221 40.2681C259.587 40.7721 258.728 41.0241 257.645 41.0241C256.973 41.0241 256.325 40.9214 255.699 40.7161C255.083 40.5108 254.575 40.2261 254.173 39.8621L254.789 38.5461C255.676 39.2368 256.605 39.5821 257.575 39.5821C258.21 39.5821 258.681 39.4561 258.989 39.2041C259.307 38.9521 259.465 38.5694 259.465 38.0561C259.465 37.5521 259.307 37.1834 258.989 36.9501C258.672 36.7074 258.182 36.5861 257.519 36.5861H256.203V35.1441H257.281C258.569 35.1441 259.213 34.6541 259.213 33.6741C259.213 33.2168 259.073 32.8668 258.793 32.6241C258.513 32.3814 258.121 32.2601 257.617 32.2601C256.721 32.2601 255.825 32.6054 254.929 33.2961L254.327 31.9801C254.729 31.6254 255.233 31.3454 255.839 31.1401C256.455 30.9254 257.085 30.8181 257.729 30.8181C258.709 30.8181 259.489 31.0608 260.067 31.5461C260.655 32.0221 260.949 32.6614 260.949 33.4641C260.94 34.0148 260.795 34.4954 260.515 34.9061C260.245 35.3074 259.862 35.6014 259.367 35.7881ZM266.222 41.0381C265.037 41.0381 264.131 40.6041 263.506 39.7361C262.89 38.8588 262.582 37.5848 262.582 35.9141C262.582 34.2714 262.89 33.0161 263.506 32.1481C264.131 31.2801 265.037 30.8461 266.222 30.8461C267.407 30.8461 268.308 31.2801 268.924 32.1481C269.549 33.0068 269.862 34.2621 269.862 35.9141C269.862 37.5754 269.549 38.8448 268.924 39.7221C268.308 40.5994 267.407 41.0381 266.222 41.0381ZM266.222 39.6241C266.866 39.6241 267.333 39.3301 267.622 38.7421C267.921 38.1448 268.07 37.2021 268.07 35.9141C268.07 34.6448 267.921 33.7208 267.622 33.1421C267.333 32.5541 266.866 32.2601 266.222 32.2601C265.578 32.2601 265.107 32.5541 264.808 33.1421C264.519 33.7208 264.374 34.6448 264.374 35.9141C264.374 37.2021 264.519 38.1448 264.808 38.7421C265.107 39.3301 265.578 39.6241 266.222 39.6241ZM273.146 30.9441V32.2321C273.146 32.7268 273.063 33.1748 272.895 33.5761C272.727 33.9681 272.442 34.3648 272.041 34.7661L271.326 34.2061C271.746 33.7581 271.999 33.3241 272.083 32.9041H271.187V30.9441H273.146Z" fill="white"/>
<defs>
<clipPath id="clip0">
<rect width="227.9" height="58.7" fill="white" transform="translate(0.669617 0.998535)"/>
</clipPath>
</defs>
</svg>
