<svg width="301" height="59" viewBox="0 0 301 59" fill="none" xmlns="http://www.w3.org/2000/svg">
<g clip-path="url(#clip0)">
<path d="M2.18225 0.450928H3.68225C5.88225 0.450928 7.98225 1.05093 7.98225 3.65093C7.98225 4.55093 7.48225 5.55093 6.68225 5.85093C8.08225 6.15093 9.08225 7.45093 9.08225 8.85093C9.08225 11.2509 7.08225 12.1509 4.98225 12.1509H2.18225V0.450928ZM3.68225 5.65093H4.08225C5.48225 5.65093 6.58225 5.35093 6.58225 3.65093C6.58225 1.95093 5.48225 1.75093 4.08225 1.75093H3.68225V5.65093ZM3.68225 10.8509H4.78225C6.18225 10.8509 7.58225 10.4509 7.58225 8.75093C7.58225 7.05093 5.88225 6.75093 4.58225 6.75093H3.68225V10.8509Z" fill="#5B9CD6"/>
<path d="M12.1823 10.8509H15.7823V12.1509H10.6823V0.450928H12.1823V10.8509Z" fill="#5B9CD6"/>
<path d="M28.2823 6.35088C28.2823 9.85088 25.4823 12.5509 22.0823 12.5509C18.6823 12.5509 15.8823 9.95088 15.8823 6.35088C15.8823 2.95088 18.6823 0.150879 22.0823 0.150879C25.4823 0.150879 28.2823 2.95088 28.2823 6.35088ZM26.7823 6.35088C26.7823 3.75088 24.8823 1.55088 22.0823 1.55088C19.2823 1.55088 17.3823 3.75088 17.3823 6.35088C17.3823 9.05088 19.5823 11.1509 22.0823 11.1509C24.5823 11.1509 26.7823 9.05088 26.7823 6.35088Z" fill="#5B9CD6"/>
<path d="M39.4823 12.4509L38.4823 11.4509C37.4823 12.1509 36.2823 12.4509 35.0823 12.4509C31.6823 12.4509 28.8823 9.85088 28.8823 6.25088C28.8823 2.95088 31.6823 0.150879 35.0823 0.150879C38.4823 0.150879 41.2823 2.95088 41.2823 6.35088C41.2823 8.05088 40.5823 9.65088 39.4823 10.7509L41.2823 12.5509H39.4823V12.4509ZM38.3823 9.65088C39.2823 8.85088 39.7823 7.45088 39.7823 6.35088C39.7823 3.75088 37.8823 1.55088 35.0823 1.55088C32.2823 1.55088 30.3823 3.75088 30.3823 6.35088C30.3823 9.05088 32.5823 11.1509 35.0823 11.1509C35.7823 11.1509 36.6823 10.9509 37.3823 10.4509L34.6823 7.75088H36.4823L38.3823 9.65088Z" fill="#5B9CD6"/>
<path d="M43.9823 0.450928V7.45093C43.9823 9.35093 44.5823 11.1509 46.8823 11.1509C49.1823 11.1509 49.6823 9.35093 49.6823 7.45093V0.450928H51.1823V7.95093C51.1823 10.5509 49.5823 12.5509 46.8823 12.5509C44.1823 12.5509 42.5823 10.5509 42.5823 7.95093V0.450928H43.9823Z" fill="#5B9CD6"/>
<path d="M53.1823 0.450928H59.4823V1.75093H54.6823V5.05093H59.3823V6.35093H54.6823V10.8509H59.5823V12.1509H53.2822V0.450928H53.1823Z" fill="#5B9CD6"/>
<path d="M29.6823 40.4508C29.6823 49.3508 25.3823 58.8508 15.1823 58.8508C4.98225 58.8508 0.682251 49.3508 0.682251 40.4508C0.682251 31.5508 4.98225 22.0508 15.1823 22.0508C25.2823 21.9508 29.6823 31.5508 29.6823 40.4508ZM9.48225 40.3508C9.48225 43.6508 10.5823 50.9508 15.1823 50.9508C19.7823 50.9508 20.8823 43.6508 20.8823 40.3508C20.8823 37.0508 19.7823 29.7508 15.1823 29.7508C10.5823 29.8508 9.48225 37.0508 9.48225 40.3508Z" fill="#5B9CD6"/>
<path d="M57.8822 31.7508C57.8822 35.3508 55.5822 38.4508 52.4822 39.4508V39.5508C56.5822 40.9508 59.2822 44.0508 59.2822 48.5508C59.2822 55.6508 52.0822 58.8508 46.2822 58.8508C40.4822 58.8508 33.2822 55.5508 33.2822 48.5508C33.2822 44.0508 35.9822 40.9508 40.0822 39.5508V39.4508C36.9822 38.4508 34.6822 35.3508 34.6822 31.7508C34.6822 25.2508 40.4822 22.0508 46.2822 22.0508C52.0822 21.9508 57.8822 25.2508 57.8822 31.7508ZM42.1822 47.4508C42.1822 49.7508 43.9822 51.6508 46.2822 51.6508C48.5822 51.6508 50.3822 49.7508 50.3822 47.4508C50.3822 45.0508 48.5822 43.1508 46.2822 43.1508C43.9822 43.1508 42.1822 45.0508 42.1822 47.4508ZM42.4822 32.0508C42.4822 34.1508 44.1822 35.9508 46.2822 35.9508C48.3822 35.9508 50.0822 34.2508 50.0822 32.0508C50.0822 29.8508 48.3822 28.1508 46.2822 28.1508C44.1822 28.1508 42.4822 29.8508 42.4822 32.0508Z" fill="#5B9CD6"/>
<path d="M69.3823 20.5508V57.9508H105.882V57.0508C105.782 36.8508 89.4823 20.5508 69.3823 20.5508Z" fill="#C5C5C5"/>
<path d="M128.082 30.4509H124.782V13.4509H129.282C132.882 13.4509 135.182 14.8509 135.182 18.7509C135.182 22.3509 133.182 24.1509 129.682 24.1509H127.982V30.4509H128.082ZM128.082 21.3509H128.782C130.782 21.3509 131.782 20.9509 131.782 18.7509C131.782 16.5509 130.482 16.2509 128.682 16.2509H128.082V21.3509Z" fill="#858686"/>
<path d="M148.282 30.4509H144.282L140.182 23.5509V30.4509H136.682V13.4509H141.182C144.582 13.4509 146.882 14.9509 146.882 18.5509C146.882 20.7509 145.682 22.8509 143.382 23.2509L148.282 30.4509ZM140.082 21.2509H140.482C142.282 21.2509 143.582 20.7509 143.582 18.6509C143.582 16.5509 142.282 16.1509 140.482 16.1509H139.982V21.2509H140.082Z" fill="#858686"/>
<path d="M156.982 30.9509C151.782 30.9509 148.582 26.9509 148.582 21.9509C148.582 16.8509 151.982 12.9509 156.982 12.9509C161.982 12.9509 165.382 16.8509 165.382 21.9509C165.382 26.9509 162.182 30.9509 156.982 30.9509ZM156.982 16.2509C153.882 16.2509 151.982 19.0509 151.982 21.7509C151.982 24.3509 153.282 27.6509 156.982 27.6509C160.682 27.6509 161.982 24.4509 161.982 21.7509C161.982 19.0509 160.082 16.2509 156.982 16.2509Z" fill="#858686"/>
<path d="M165.482 13.4509H169.382L172.382 19.3509L175.682 13.4509H179.582L174.182 22.6509V30.4509H170.882V22.6509L165.482 13.4509Z" fill="#858686"/>
<path d="M183.682 16.2509V20.0509H188.982V22.9509H183.682V27.5509H189.182V30.4509H180.382V13.4509H189.182V16.3509H183.682V16.2509Z" fill="#858686"/>
<path d="M202.782 17.9509C201.882 16.8509 200.482 16.1509 198.982 16.1509C195.782 16.1509 193.982 19.0509 193.982 22.0509C193.982 24.9509 195.882 27.7509 198.982 27.7509C200.382 27.7509 201.882 27.0509 202.782 25.9509V29.9509C201.582 30.5509 200.282 30.9509 198.882 30.9509C194.082 30.9509 190.482 26.8509 190.482 22.0509C190.482 17.2509 193.882 12.9509 198.882 12.9509C200.182 12.9509 201.482 13.3509 202.682 13.9509V17.9509H202.782Z" fill="#858686"/>
<path d="M210.582 30.4508H207.282V16.2508H203.882V13.3508H214.082V16.2508H210.682V30.4508H210.582Z" fill="#858686"/>
<path d="M222.882 30.9509C217.682 30.9509 214.482 26.9509 214.482 21.9509C214.482 16.8509 217.882 12.9509 222.882 12.9509C227.882 12.9509 231.282 16.8509 231.282 21.9509C231.282 26.9509 228.082 30.9509 222.882 30.9509ZM222.882 16.2509C219.782 16.2509 217.882 19.0509 217.882 21.7509C217.882 24.3509 219.182 27.6509 222.882 27.6509C226.582 27.6509 227.882 24.4509 227.882 21.7509C227.882 19.0509 225.982 16.2509 222.882 16.2509Z" fill="#858686"/>
<path d="M240.982 17.1508C240.382 16.2508 239.582 15.7508 238.382 15.7508C237.282 15.7508 236.282 16.5508 236.282 17.6508C236.282 20.5508 243.082 19.3508 243.082 25.0508C243.082 28.4508 240.982 30.8508 237.482 30.8508C235.082 30.8508 233.382 29.4508 232.182 27.5508L234.382 25.4508C234.882 26.7508 236.082 27.9508 237.482 27.9508C238.882 27.9508 239.682 26.7508 239.682 25.4508C239.682 23.6508 238.082 23.1508 236.682 22.6508C234.482 21.7508 232.882 20.6508 232.882 17.9508C232.882 15.1508 234.982 12.8508 237.882 12.8508C239.382 12.8508 241.482 13.5508 242.582 14.7508L240.982 17.1508Z" fill="#858686"/>
<path d="M132.382 58.0508C127.182 58.0508 123.982 54.0508 123.982 49.0508C123.982 43.9508 127.382 40.0508 132.382 40.0508C137.382 40.0508 140.782 43.9508 140.782 49.0508C140.782 54.1508 137.582 58.0508 132.382 58.0508ZM132.382 43.4508C129.282 43.4508 127.382 46.2508 127.382 48.9508C127.382 51.5508 128.682 54.8508 132.382 54.8508C136.082 54.8508 137.382 51.6508 137.382 48.9508C137.382 46.1508 135.482 43.4508 132.382 43.4508Z" fill="#858686"/>
<path d="M145.782 43.4508V47.2508H150.582V50.1508H145.782V57.6508H142.482V40.5508H150.982V43.4508H145.782Z" fill="#858686"/>
<path d="M156.282 57.6508H152.982V40.5508H156.282V57.6508Z" fill="#858686"/>
<path d="M170.082 45.1509C169.182 44.0509 167.782 43.3509 166.282 43.3509C163.082 43.3509 161.282 46.2509 161.282 49.2509C161.282 52.1509 163.182 54.9509 166.282 54.9509C167.682 54.9509 169.182 54.2509 170.082 53.1509V57.1509C168.882 57.7509 167.582 58.1509 166.182 58.1509C161.382 58.1509 157.782 54.0509 157.782 49.2509C157.782 44.4509 161.182 40.1509 166.182 40.1509C167.482 40.1509 168.782 40.5509 169.982 41.1509V45.1509H170.082Z" fill="#858686"/>
<path d="M175.682 57.6508H172.382V40.5508H175.682V57.6508Z" fill="#858686"/>
<path d="M178.082 40.1509H180.482L189.482 52.0509V40.5509H192.782V57.9509H190.382L181.382 46.0509V57.6509H178.082V40.1509Z" fill="#858686"/>
<path d="M198.782 54.0509L197.382 57.6509H193.882L200.582 40.1509H203.182L209.682 57.6509H206.082L204.782 54.0509H198.782ZM201.582 45.1509L199.682 51.3509H203.782L201.582 45.1509Z" fill="#858686"/>
<path d="M218.582 44.3508C217.982 43.4508 217.182 42.9508 215.982 42.9508C214.882 42.9508 213.882 43.7508 213.882 44.8508C213.882 47.7508 220.682 46.5508 220.682 52.2508C220.682 55.6508 218.582 58.0508 215.082 58.0508C212.682 58.0508 210.982 56.6508 209.782 54.7508L211.982 52.6508C212.482 53.9508 213.682 55.1508 215.082 55.1508C216.482 55.1508 217.282 53.9508 217.282 52.6508C217.282 50.8508 215.682 50.3508 214.282 49.8508C212.082 48.9508 210.482 47.8508 210.482 45.1508C210.482 42.3508 212.582 40.0508 215.482 40.0508C216.982 40.0508 219.082 40.7508 220.182 41.9508L218.582 44.3508Z" fill="#858686"/>
</g>
<circle cx="286.412" cy="38.1721" r="13.2082" fill="#009DE0"/>
<path d="M283.249 21.5835C283.249 21.3095 283.358 21.0467 283.552 20.8529C283.745 20.6591 284.008 20.5503 284.282 20.5503H288.415C288.689 20.5503 288.952 20.6591 289.146 20.8529C289.339 21.0467 289.448 21.3095 289.448 21.5835C289.448 21.8575 289.339 22.1203 289.146 22.3141C288.952 22.5078 288.689 22.6167 288.415 22.6167V23.7945C291.225 24.1995 293.775 25.4063 295.821 27.1834C295.829 27.1743 295.837 27.1654 295.846 27.1565L296.577 26.425L295.846 25.6956C295.652 25.5019 295.543 25.239 295.542 24.9648C295.542 24.6906 295.651 24.4276 295.845 24.2336C296.038 24.0396 296.301 23.9305 296.575 23.9303C296.85 23.9301 297.113 24.0389 297.307 24.2326L300.229 27.1565C300.327 27.2518 300.406 27.3658 300.46 27.4919C300.514 27.6179 300.543 27.7535 300.544 27.8907C300.545 28.0279 300.519 28.1639 300.467 28.2909C300.415 28.4179 300.338 28.5332 300.241 28.6303C300.144 28.7273 300.029 28.804 299.902 28.8559C299.775 28.9079 299.639 28.934 299.502 28.9328C299.365 28.9316 299.229 28.9031 299.103 28.849C298.977 28.7948 298.863 28.7161 298.768 28.6174L298.038 27.8859L297.307 28.6174C297.298 28.6259 297.289 28.6341 297.28 28.6422C299.384 31.071 300.619 34.1311 300.791 37.3398C300.963 40.5485 300.061 43.7231 298.229 46.3626C296.396 49.0021 293.737 50.9562 290.67 51.9166C287.604 52.877 284.305 52.7891 281.294 51.6666C278.283 50.5441 275.732 48.451 274.042 45.7176C272.353 42.9841 271.622 39.766 271.965 36.5711C272.307 33.3761 273.704 30.3861 275.934 28.073C278.165 25.7598 281.102 24.2552 284.282 23.7966V22.6167C284.008 22.6167 283.745 22.5078 283.552 22.3141C283.358 22.1203 283.249 21.8575 283.249 21.5835ZM286.349 25.7162C284.72 25.7164 283.108 26.0372 281.604 26.6604C280.1 27.2836 278.733 28.197 277.582 29.3484C275.257 31.6737 273.951 34.8273 273.951 38.1156C273.952 41.4038 275.258 44.5572 277.584 46.8822C279.909 49.2071 283.062 50.5131 286.351 50.5128C289.639 50.5126 292.792 49.206 295.117 46.8807C297.442 44.5554 298.748 41.4017 298.748 38.1135C298.748 34.8253 297.441 31.6718 295.116 29.3469C292.791 27.022 289.637 25.716 286.349 25.7162Z" fill="#009DE0"/>
<path d="M283.975 41.4939V42.9639H277.829V41.4939H280.013V35.0679L277.983 36.2859V34.6759L280.755 32.9959H281.805V41.4939H283.975ZM289.387 36.5939C290.013 36.5939 290.563 36.7292 291.039 36.9999C291.515 37.2612 291.884 37.6345 292.145 38.1199C292.407 38.5959 292.537 39.1465 292.537 39.7719C292.537 40.4252 292.388 41.0039 292.089 41.5079C291.791 42.0025 291.361 42.3899 290.801 42.6699C290.241 42.9405 289.593 43.0759 288.855 43.0759C288.23 43.0759 287.614 42.9732 287.007 42.7679C286.401 42.5532 285.901 42.2685 285.509 41.9139L286.111 40.5979C287.017 41.2885 287.941 41.6339 288.883 41.6339C289.509 41.6339 289.985 41.4799 290.311 41.1719C290.647 40.8545 290.815 40.4065 290.815 39.8279C290.815 39.2772 290.643 38.8385 290.297 38.5119C289.961 38.1759 289.509 38.0079 288.939 38.0079C288.547 38.0079 288.179 38.0825 287.833 38.2319C287.488 38.3719 287.185 38.5819 286.923 38.8619H285.831V32.9959H292.075V34.3959H287.595V37.1119C288.099 36.7665 288.697 36.5939 289.387 36.5939ZM295.78 32.9959V34.2839C295.78 34.7785 295.696 35.2265 295.528 35.6279C295.36 36.0199 295.075 36.4165 294.674 36.8179L293.96 36.2579C294.38 35.8099 294.632 35.3759 294.716 34.9559H293.82V32.9959H295.78Z" fill="white"/>
<defs>
<clipPath id="clip0">
<rect width="242.4" height="58.7" fill="white" transform="translate(0.682251 0.150879)"/>
</clipPath>
</defs>
</svg>
