<svg width="267" height="60" viewBox="0 0 267 60" fill="none" xmlns="http://www.w3.org/2000/svg">
<g clip-path="url(#clip0)">
<path d="M1.66962 0.629883H3.16962C5.36962 0.629883 7.46962 1.22988 7.46962 3.82988C7.46962 4.72988 6.96962 5.72988 6.16962 6.02988C7.56962 6.32988 8.56962 7.62988 8.56962 9.02988C8.56962 11.4299 6.56962 12.3299 4.46962 12.3299H1.66962V0.629883ZM3.16962 5.82988H3.56962C4.96962 5.82988 6.06962 5.52988 6.06962 3.82988C6.06962 2.12988 4.96962 1.92988 3.56962 1.92988H3.16962V5.82988ZM3.16962 11.0299H4.26962C5.66962 11.0299 7.06962 10.6299 7.06962 8.92988C7.06962 7.22988 5.36962 6.92988 4.06962 6.92988H3.16962V11.0299Z" fill="#5B9CD6"/>
<path d="M11.6696 11.0299H15.2696V12.3299H10.1696V0.629883H11.6696V11.0299Z" fill="#5B9CD6"/>
<path d="M27.7696 6.52983C27.7696 10.0298 24.9696 12.7298 21.5696 12.7298C18.1696 12.7298 15.3696 10.1298 15.3696 6.52983C15.3696 3.12983 18.1696 0.329834 21.5696 0.329834C24.9696 0.329834 27.7696 3.12983 27.7696 6.52983ZM26.2696 6.52983C26.2696 3.92983 24.3696 1.72983 21.5696 1.72983C18.7696 1.72983 16.8696 3.92983 16.8696 6.52983C16.8696 9.22983 19.0696 11.3298 21.5696 11.3298C24.0696 11.3298 26.2696 9.22983 26.2696 6.52983Z" fill="#5B9CD6"/>
<path d="M38.9696 12.6298L37.9696 11.6298C36.9696 12.3298 35.7696 12.6298 34.5696 12.6298C31.1696 12.6298 28.3696 10.0298 28.3696 6.42983C28.3696 3.12983 31.1696 0.329834 34.5696 0.329834C37.9696 0.329834 40.7696 3.12983 40.7696 6.52983C40.7696 8.22983 40.0696 9.82983 38.9696 10.9298L40.7696 12.7298H38.9696V12.6298ZM37.8696 9.82983C38.7696 9.02983 39.2696 7.62983 39.2696 6.52983C39.2696 3.92983 37.3696 1.72983 34.5696 1.72983C31.7696 1.72983 29.8696 3.92983 29.8696 6.52983C29.8696 9.22983 32.0696 11.3298 34.5696 11.3298C35.2696 11.3298 36.1696 11.1298 36.8696 10.6298L34.1696 7.92983H35.9696L37.8696 9.82983Z" fill="#5B9CD6"/>
<path d="M43.4696 0.629883V7.62988C43.4696 9.52988 44.0696 11.3299 46.3696 11.3299C48.6696 11.3299 49.1696 9.52988 49.1696 7.62988V0.629883H50.6696V8.12988C50.6696 10.7299 49.0696 12.7299 46.3696 12.7299C43.6696 12.7299 42.0696 10.7299 42.0696 8.12988V0.629883H43.4696Z" fill="#5B9CD6"/>
<path d="M52.6696 0.629883H58.9696V1.92988H54.1696V5.22988H58.8696V6.52988H54.1696V11.0299H59.0696V12.3299H52.7696V0.629883H52.6696Z" fill="#5B9CD6"/>
<path d="M29.1696 40.6298C29.1696 49.5298 24.8696 59.0298 14.6696 59.0298C4.46962 59.0298 0.169617 49.5298 0.169617 40.6298C0.169617 31.7298 4.46962 22.2298 14.6696 22.2298C24.7696 22.1298 29.1696 31.7298 29.1696 40.6298ZM8.96962 40.5298C8.96962 43.8298 10.0696 51.1298 14.6696 51.1298C19.2696 51.1298 20.3696 43.8298 20.3696 40.5298C20.3696 37.2298 19.2696 29.9298 14.6696 29.9298C10.0696 30.0298 8.96962 37.2298 8.96962 40.5298Z" fill="#5B9CD6"/>
<path d="M59.1696 50.1299V57.6299H31.6696L45.6696 42.4299C47.6696 40.2299 49.5696 37.1299 49.5696 34.0299C49.5696 31.8299 48.0696 29.6299 45.6696 29.6299C43.2696 29.6299 41.9696 31.5299 41.9696 33.8299C41.9696 34.3299 41.9696 34.8299 42.0696 35.2299H32.2696C32.5696 27.4299 37.5696 22.1299 45.5696 22.1299C52.7696 22.1299 58.7696 26.8299 58.7696 34.2299C58.7696 39.1299 56.7696 41.9299 53.2696 45.1299L47.9696 50.0299H59.1696V50.1299Z" fill="#5B9CD6"/>
<path d="M68.8696 20.7297V58.1297H105.37V57.2297C105.27 37.0297 88.9696 20.7297 68.8696 20.7297Z" fill="#C5C5C5"/>
<path d="M135.67 33.8298C134.77 32.7298 133.37 32.0298 131.87 32.0298C128.67 32.0298 126.87 34.9298 126.87 37.9298C126.87 40.8298 128.77 43.6298 131.87 43.6298C133.27 43.6298 134.77 42.9298 135.67 41.8298V45.8298C134.47 46.4298 133.17 46.8298 131.77 46.8298C126.97 46.8298 123.37 42.7298 123.37 37.9298C123.37 33.1298 126.77 28.8298 131.77 28.8298C133.07 28.8298 134.37 29.2298 135.57 29.8298V33.8298H135.67Z" fill="#858686"/>
<path d="M143.37 46.3298H140.07V32.1298H136.67V29.3298H146.87V32.2298H143.47V46.3298H143.37Z" fill="#858686"/>
<path d="M151.37 32.1298V35.9298H156.67V38.8298H151.37V43.4298H156.87V46.3298H148.07V29.3298H156.87V32.2298H151.37V32.1298Z" fill="#858686"/>
<path d="M164.37 37.8298V40.4298H158.87V37.8298H164.37Z" fill="#858686"/>
<path d="M166.57 29.3298H171.37C176.27 29.3298 179.57 33.0298 179.57 37.9298C179.57 42.7298 176.17 46.4298 171.27 46.4298H166.57V29.3298ZM169.87 43.4298H170.37C174.47 43.4298 176.07 41.1298 176.07 37.8298C176.07 34.1298 174.17 32.2298 170.37 32.2298H169.87V43.4298Z" fill="#858686"/>
<path d="M181.17 29.3298H185.27C188.47 29.3298 190.37 30.5298 190.37 33.9298C190.37 35.1298 189.97 36.5298 188.87 37.2298C190.87 37.6298 191.77 39.6298 191.77 41.5298C191.77 44.8298 189.37 46.3298 186.27 46.3298H181.17V29.3298ZM184.57 36.4298H184.97C186.57 36.4298 187.37 35.9298 187.37 34.2298C187.37 32.5298 186.37 32.0298 184.97 32.0298H184.57V36.4298ZM184.57 43.6298H185.27C187.07 43.6298 188.57 43.4298 188.57 41.2298C188.57 39.0298 186.77 38.9298 185.07 38.9298H184.57V43.6298Z" fill="#858686"/>
<path d="M198.97 37.8298V40.4298H193.47V37.8298H198.97Z" fill="#858686"/>
<path d="M209.27 33.0297C208.67 32.1297 207.87 31.6297 206.67 31.6297C205.57 31.6297 204.57 32.4297 204.57 33.5297C204.57 36.4297 211.37 35.2297 211.37 40.9297C211.37 44.3297 209.27 46.7297 205.77 46.7297C203.37 46.7297 201.67 45.3297 200.47 43.4297L202.67 41.3297C203.17 42.6297 204.37 43.8297 205.77 43.8297C207.17 43.8297 207.97 42.6297 207.97 41.3297C207.97 39.5297 206.37 39.0297 204.97 38.5297C202.77 37.6297 201.17 36.5297 201.17 33.8297C201.17 31.0297 203.27 28.7297 206.17 28.7297C207.67 28.7297 209.77 29.4297 210.87 30.6297L209.27 33.0297Z" fill="#858686"/>
<path d="M216.47 46.3298H213.17V29.3298H216.47V46.3298Z" fill="#858686"/>
</g>
<path d="M248.744 22.8494C248.744 22.5753 248.853 22.3125 249.047 22.1188C249.241 21.925 249.504 21.8162 249.778 21.8162H253.91C254.184 21.8162 254.447 21.925 254.641 22.1188C254.835 22.3125 254.944 22.5753 254.944 22.8494C254.944 23.1234 254.835 23.3862 254.641 23.5799C254.447 23.7737 254.184 23.8825 253.91 23.8825V25.0604C256.721 25.4654 259.271 26.6722 261.316 28.4492C261.324 28.4402 261.333 28.4312 261.341 28.4224L262.073 27.6909L261.341 26.9615C261.147 26.7677 261.038 26.5049 261.038 26.2307C261.038 25.9565 261.146 25.6935 261.34 25.4995C261.534 25.3055 261.797 25.1964 262.071 25.1962C262.345 25.196 262.608 25.3047 262.802 25.4985L265.724 28.4224C265.823 28.5177 265.901 28.6317 265.955 28.7578C266.01 28.8838 266.038 29.0194 266.039 29.1566C266.04 29.2938 266.014 29.4298 265.962 29.5568C265.91 29.6838 265.834 29.7991 265.737 29.8961C265.64 29.9931 265.524 30.0698 265.397 30.1218C265.27 30.1737 265.134 30.1999 264.997 30.1987C264.86 30.1975 264.724 30.169 264.598 30.1149C264.472 30.0607 264.358 29.982 264.263 29.8833L263.533 29.1518L262.802 29.8833C262.793 29.8917 262.784 29.9 262.775 29.9081C264.879 32.3368 266.114 35.397 266.286 38.6057C266.458 41.8144 265.556 44.989 263.724 47.6285C261.891 50.2679 259.232 52.2221 256.165 53.1825C253.099 54.1429 249.8 54.0549 246.789 52.9324C243.778 51.8099 241.227 49.7168 239.538 46.9834C237.848 44.25 237.117 41.0319 237.46 37.8369C237.803 34.6419 239.199 31.652 241.43 29.3388C243.66 27.0257 246.597 25.5211 249.778 25.0624V23.8825C249.504 23.8825 249.241 23.7737 249.047 23.5799C248.853 23.3862 248.744 23.1234 248.744 22.8494ZM251.844 26.9821C250.216 26.9823 248.604 27.3031 247.099 27.9263C245.595 28.5495 244.229 29.4628 243.077 30.6142C240.752 32.9395 239.446 36.0932 239.447 39.3814C239.447 42.6697 240.753 45.8231 243.079 48.1481C245.404 50.473 248.558 51.779 251.846 51.7787C255.134 51.7784 258.288 50.4719 260.613 48.1466C262.938 45.8213 264.244 42.6676 264.243 39.3794C264.243 36.0911 262.936 32.9377 260.611 30.6128C258.286 28.2878 255.132 26.9818 251.844 26.9821Z" fill="#009DE0"/>
<path d="M248.616 22.5317C248.616 22.2577 248.724 21.9949 248.918 21.8012C249.112 21.6074 249.375 21.4985 249.649 21.4985H253.781C254.055 21.4985 254.318 21.6074 254.512 21.8012C254.706 21.9949 254.815 22.2577 254.815 22.5317C254.815 22.8058 254.706 23.0685 254.512 23.2623C254.318 23.4561 254.055 23.5649 253.781 23.5649V24.7428C256.592 25.1478 259.142 26.3545 261.187 28.1316C261.196 28.1226 261.204 28.1136 261.212 28.1048L261.944 27.3733L261.212 26.6438C261.018 26.4501 260.909 26.1872 260.909 25.9131C260.909 25.6389 261.017 25.3759 261.211 25.1819C261.405 24.9879 261.668 24.8788 261.942 24.8786C262.216 24.8784 262.479 24.9871 262.673 25.1808L265.595 28.1048C265.694 28.2001 265.772 28.3141 265.826 28.4401C265.881 28.5662 265.909 28.7018 265.91 28.8389C265.912 28.9761 265.885 29.1122 265.833 29.2392C265.781 29.3661 265.705 29.4815 265.608 29.5785C265.511 29.6755 265.395 29.7522 265.268 29.8042C265.141 29.8561 265.005 29.8823 264.868 29.8811C264.731 29.8799 264.596 29.8514 264.469 29.7972C264.343 29.7431 264.229 29.6644 264.134 29.5657L263.405 28.8342L262.673 29.5657C262.664 29.5741 262.655 29.5824 262.646 29.5905C264.75 32.0192 265.986 35.0794 266.157 38.2881C266.329 41.4968 265.428 44.6713 263.595 47.3108C261.762 49.9503 259.103 51.9044 256.037 52.8649C252.97 53.8253 249.671 53.7373 246.66 52.6148C243.65 51.4923 241.098 49.3992 239.409 46.6658C237.72 43.9324 236.989 40.7143 237.331 37.5193C237.674 34.3243 239.07 31.3343 241.301 29.0212C243.531 26.7081 246.468 25.2035 249.649 24.7448V23.5649C249.375 23.5649 249.112 23.4561 248.918 23.2623C248.724 23.0685 248.616 22.8058 248.616 22.5317ZM251.715 26.6645C250.087 26.6646 248.475 26.9855 246.971 27.6087C245.466 28.2319 244.1 29.1452 242.949 30.2966C240.624 32.6219 239.318 35.7756 239.318 39.0638C239.318 42.352 240.625 45.5055 242.95 47.8304C245.275 50.1554 248.429 51.4613 251.717 51.4611C255.005 51.4608 258.159 50.1543 260.484 47.829C262.809 45.5036 264.115 42.35 264.114 39.0617C264.114 35.7735 262.808 32.6201 260.482 30.2951C258.157 27.9702 255.003 26.6642 251.715 26.6645Z" fill="#009DE0"/>
<path d="M251.779 52.3285C259.074 52.3285 264.987 46.415 264.987 39.1203C264.987 31.8256 259.074 25.9121 251.779 25.9121C244.484 25.9121 238.571 31.8256 238.571 39.1203C238.571 46.415 244.484 52.3285 251.779 52.3285Z" fill="#009DE0"/>
<path d="M247.367 38.7881C247.955 38.9468 248.403 39.2361 248.711 39.6561C249.029 40.0761 249.187 40.5941 249.187 41.2101C249.187 42.0781 248.865 42.7641 248.221 43.2681C247.587 43.7721 246.728 44.0241 245.645 44.0241C244.973 44.0241 244.325 43.9214 243.699 43.7161C243.083 43.5108 242.575 43.2261 242.173 42.8621L242.789 41.5461C243.676 42.2368 244.605 42.5821 245.575 42.5821C246.21 42.5821 246.681 42.4561 246.989 42.2041C247.307 41.9521 247.465 41.5694 247.465 41.0561C247.465 40.5521 247.307 40.1834 246.989 39.9501C246.672 39.7074 246.182 39.5861 245.519 39.5861H244.203V38.1441H245.281C246.569 38.1441 247.213 37.6541 247.213 36.6741C247.213 36.2168 247.073 35.8668 246.793 35.6241C246.513 35.3814 246.121 35.2601 245.617 35.2601C244.721 35.2601 243.825 35.6054 242.929 36.2961L242.327 34.9801C242.729 34.6254 243.233 34.3454 243.839 34.1401C244.455 33.9254 245.085 33.8181 245.729 33.8181C246.709 33.8181 247.489 34.0608 248.067 34.5461C248.655 35.0221 248.949 35.6614 248.949 36.4641C248.94 37.0148 248.795 37.4954 248.515 37.9061C248.245 38.3074 247.862 38.6014 247.367 38.7881ZM254.222 44.0381C253.037 44.0381 252.131 43.6041 251.506 42.7361C250.89 41.8588 250.582 40.5848 250.582 38.9141C250.582 37.2714 250.89 36.0161 251.506 35.1481C252.131 34.2801 253.037 33.8461 254.222 33.8461C255.407 33.8461 256.308 34.2801 256.924 35.1481C257.549 36.0068 257.862 37.2621 257.862 38.9141C257.862 40.5754 257.549 41.8448 256.924 42.7221C256.308 43.5994 255.407 44.0381 254.222 44.0381ZM254.222 42.6241C254.866 42.6241 255.333 42.3301 255.622 41.7421C255.921 41.1448 256.07 40.2021 256.07 38.9141C256.07 37.6448 255.921 36.7208 255.622 36.1421C255.333 35.5541 254.866 35.2601 254.222 35.2601C253.578 35.2601 253.107 35.5541 252.808 36.1421C252.519 36.7208 252.374 37.6448 252.374 38.9141C252.374 40.2021 252.519 41.1448 252.808 41.7421C253.107 42.3301 253.578 42.6241 254.222 42.6241ZM261.146 33.9441V35.2321C261.146 35.7268 261.062 36.1748 260.894 36.5761C260.726 36.9681 260.442 37.3648 260.04 37.7661L259.326 37.2061C259.746 36.7581 259.998 36.3241 260.082 35.9041H259.186V33.9441H261.146Z" fill="white"/>
<defs>
<clipPath id="clip0">
<rect width="216.3" height="58.7" fill="white" transform="translate(0.169617 0.329834)"/>
</clipPath>
</defs>
</svg>
