<svg width="282" height="61" viewBox="0 0 282 61" fill="none" xmlns="http://www.w3.org/2000/svg">
<g clip-path="url(#clip0)">
<path d="M2.30798 0.861572H3.80798C6.00798 0.861572 8.10798 1.46157 8.10798 4.06157C8.10798 4.96157 7.60798 5.96157 6.80798 6.26157C8.20798 6.56157 9.20798 7.86157 9.20798 9.26157C9.20798 11.6616 7.20798 12.5616 5.10798 12.5616H2.30798V0.861572ZM3.80798 6.06157H4.20798C5.60798 6.06157 6.70798 5.76157 6.70798 4.06157C6.70798 2.36157 5.60798 2.16157 4.20798 2.16157H3.80798V6.06157ZM3.80798 11.2616H4.90798C6.30798 11.2616 7.70798 10.8616 7.70798 9.16157C7.70798 7.46157 6.00798 7.16157 4.70798 7.16157H3.80798V11.2616Z" fill="#5B9CD6"/>
<path d="M12.308 11.2616H15.908V12.5616H10.808V0.861572H12.308V11.2616Z" fill="#5B9CD6"/>
<path d="M28.408 6.76152C28.408 10.2615 25.608 12.9615 22.208 12.9615C18.808 12.9615 16.008 10.3615 16.008 6.76152C16.008 3.36152 18.808 0.561523 22.208 0.561523C25.608 0.561523 28.408 3.36152 28.408 6.76152ZM26.908 6.76152C26.908 4.16152 25.008 1.96152 22.208 1.96152C19.408 1.96152 17.508 4.16152 17.508 6.76152C17.508 9.46152 19.708 11.5615 22.208 11.5615C24.708 11.5615 26.908 9.46152 26.908 6.76152Z" fill="#5B9CD6"/>
<path d="M39.608 12.8615L38.608 11.8615C37.608 12.5615 36.408 12.8615 35.208 12.8615C31.808 12.8615 29.008 10.2615 29.008 6.66152C29.008 3.36152 31.808 0.561523 35.208 0.561523C38.608 0.561523 41.408 3.36152 41.408 6.76152C41.408 8.46152 40.708 10.0615 39.608 11.1615L41.408 12.9615H39.608V12.8615ZM38.508 10.0615C39.408 9.26152 39.908 7.86152 39.908 6.76152C39.908 4.16152 38.008 1.96152 35.208 1.96152C32.408 1.96152 30.508 4.16152 30.508 6.76152C30.508 9.46152 32.708 11.5615 35.208 11.5615C35.908 11.5615 36.808 11.3615 37.508 10.8615L34.808 8.16152H36.608L38.508 10.0615Z" fill="#5B9CD6"/>
<path d="M44.108 0.861572V7.86157C44.108 9.76157 44.708 11.5616 47.008 11.5616C49.308 11.5616 49.808 9.76157 49.808 7.86157V0.861572H51.308V8.36157C51.308 10.9616 49.708 12.9616 47.008 12.9616C44.308 12.9616 42.708 10.9616 42.708 8.36157V0.861572H44.108Z" fill="#5B9CD6"/>
<path d="M53.308 0.861572H59.608V2.16157H54.808V5.46157H59.508V6.76157H54.808V11.2616H59.708V12.5616H53.408V0.861572H53.308Z" fill="#5B9CD6"/>
<path d="M29.808 40.8615C29.808 49.7615 25.508 59.2615 15.308 59.2615C5.10798 59.2615 0.807983 49.7615 0.807983 40.8615C0.807983 31.9615 5.10798 22.4615 15.308 22.4615C25.408 22.3615 29.808 31.9615 29.808 40.8615ZM9.60798 40.7615C9.60798 44.0615 10.708 51.3615 15.308 51.3615C19.908 51.3615 21.008 44.0615 21.008 40.7615C21.008 37.4615 19.908 30.1615 15.308 30.1615C10.708 30.2615 9.60798 37.4615 9.60798 40.7615Z" fill="#5B9CD6"/>
<path d="M38.108 31.2615V23.7615H51.908V57.9615H43.008V31.2615H38.108Z" fill="#5B9CD6"/>
<path d="M107.208 41.4615C107.208 52.1615 98.508 60.8615 87.808 60.8615C77.108 60.8615 68.308 52.1615 68.308 41.4615C68.308 30.7615 77.008 22.0615 87.808 22.0615C98.408 22.0615 107.208 30.7615 107.208 41.4615Z" fill="#9CB5C9"/>
<path d="M126.608 48.0615H123.308V31.0615H126.608V48.0615Z" fill="#858686"/>
<path d="M129.008 30.5615H131.408L140.408 42.4615V31.0615H143.708V48.4615H141.308L132.308 36.5615V48.1615H129.008V30.5615Z" fill="#858686"/>
<path d="M151.708 48.0615H148.408V33.9615H145.008V31.0615H155.208V33.9615H151.808V48.0615H151.708Z" fill="#858686"/>
<path d="M168.008 48.0615H164.008L159.908 41.1615V48.0615H156.608V31.0615H161.108C164.508 31.0615 166.808 32.5615 166.808 36.1615C166.808 38.3615 165.608 40.4615 163.308 40.8615L168.008 48.0615ZM159.708 38.8615H160.108C161.908 38.8615 163.208 38.3615 163.208 36.2615C163.208 34.1615 161.908 33.7615 160.108 33.7615H159.608V38.8615H159.708Z" fill="#858686"/>
<path d="M176.708 48.5615C171.508 48.5615 168.308 44.5615 168.308 39.5615C168.308 34.4615 171.708 30.5615 176.708 30.5615C181.708 30.5615 185.108 34.4615 185.108 39.5615C185.108 44.5615 181.908 48.5615 176.708 48.5615ZM176.708 33.8615C173.608 33.8615 171.708 36.6615 171.708 39.3615C171.708 41.9615 173.008 45.2615 176.708 45.2615C180.408 45.2615 181.708 42.0615 181.708 39.3615C181.708 36.6615 179.808 33.8615 176.708 33.8615Z" fill="#858686"/>
<path d="M186.808 31.0615H191.608C196.508 31.0615 199.808 34.7615 199.808 39.6615C199.808 44.4615 196.408 48.1615 191.508 48.1615H186.808V31.0615ZM190.108 45.1615H190.608C194.708 45.1615 196.308 42.8615 196.308 39.5615C196.308 35.8615 194.408 33.9615 190.608 33.9615H190.108V45.1615Z" fill="#858686"/>
<path d="M201.308 31.0615H204.608V40.5615C204.608 42.6615 204.808 45.6615 207.608 45.6615C210.408 45.6615 210.608 42.6615 210.608 40.5615V30.9615H213.908V41.1615C213.908 45.3615 212.108 48.4615 207.608 48.4615C203.008 48.4615 201.308 45.3615 201.308 41.1615V31.0615Z" fill="#858686"/>
<path d="M227.708 35.5615C226.808 34.4615 225.408 33.7615 223.908 33.7615C220.708 33.7615 218.908 36.6615 218.908 39.6615C218.908 42.5615 220.808 45.3615 223.908 45.3615C225.308 45.3615 226.808 44.6615 227.708 43.5615V47.5615C226.508 48.1615 225.208 48.5615 223.808 48.5615C219.008 48.5615 215.408 44.4615 215.408 39.6615C215.408 34.8615 218.808 30.5615 223.808 30.5615C225.108 30.5615 226.408 30.9615 227.608 31.5615V35.5615H227.708Z" fill="#858686"/>
<path d="M241.408 35.5615C240.508 34.4615 239.108 33.7615 237.608 33.7615C234.408 33.7615 232.608 36.6615 232.608 39.6615C232.608 42.5615 234.508 45.3615 237.608 45.3615C239.008 45.3615 240.508 44.6615 241.408 43.5615V47.5615C240.208 48.1615 238.908 48.5615 237.508 48.5615C232.708 48.5615 229.108 44.4615 229.108 39.6615C229.108 34.8615 232.508 30.5615 237.508 30.5615C238.808 30.5615 240.108 30.9615 241.308 31.5615V35.5615H241.408Z" fill="#858686"/>
<path d="M246.908 48.0615H243.608V31.0615H246.908V48.0615Z" fill="#858686"/>
<path d="M256.908 48.5616C251.708 48.5616 248.508 44.5616 248.508 39.5616C248.508 34.4616 251.908 30.5616 256.908 30.5616C261.908 30.5616 265.308 34.4616 265.308 39.5616C265.408 44.5616 262.108 48.5616 256.908 48.5616ZM256.908 33.8616C253.808 33.8616 251.908 36.6616 251.908 39.3616C251.908 41.9616 253.208 45.2616 256.908 45.2616C260.608 45.2616 261.908 42.0616 261.908 39.3616C261.908 36.6616 260.108 33.8616 256.908 33.8616ZM260.108 26.7616L256.708 30.1616L255.108 29.1616L257.808 25.3616L260.108 26.7616Z" fill="#858686"/>
<path d="M267.008 30.5615H269.408L278.408 42.4615V31.0615H281.708V48.4615H279.308L270.308 36.5615V48.1615H267.008V30.5615Z" fill="#858686"/>
</g>
<defs>
<clipPath id="clip0">
<rect width="281" height="60.4" fill="white" transform="translate(0.807983 0.561523)"/>
</clipPath>
</defs>
</svg>
