<?xml version="1.0" encoding="utf-8"?>
<!-- Generator: Adobe Illustrator 22.0.0, SVG Export Plug-In . SVG Version: 6.00 Build 0)  -->
<svg version="1.1" id="Capa_1" xmlns="http://www.w3.org/2000/svg" xmlns:xlink="http://www.w3.org/1999/xlink" x="0px" y="0px"
	 viewBox="0 0 367.1 61" style="enable-background:new 0 0 367.1 61;" xml:space="preserve">
<style type="text/css">
	.st0{clip-path:url(#SVGID_2_);}
	.st1{fill:#5B9CD6;}
	.st2{fill:#9CB5C9;}
	.st3{enable-background:new    ;}
	.st4{fill:#858686;}
</style>
<g>
	<g>
		<g>
			<defs>
				<rect id="SVGID_1_" x="0.2" y="0.5" width="281" height="60.4"/>
			</defs>
			<clipPath id="SVGID_2_">
				<use xlink:href="#SVGID_1_"  style="overflow:visible;"/>
			</clipPath>
			<g class="st0">
				<path class="st1" d="M1.7,0.8h1.5c2.2,0,4.3,0.6,4.3,3.2c0,0.9-0.5,1.9-1.3,2.2c1.4,0.3,2.4,1.6,2.4,3c0,2.4-2,3.3-4.1,3.3H1.7
					V0.8z M3.2,6h0.4C5,6,6.1,5.7,6.1,4S5,2.1,3.6,2.1H3.2V6z M3.2,11.2h1.1c1.4,0,2.8-0.4,2.8-2.1s-1.7-2-3-2H3.2V11.2z"/>
				<path class="st1" d="M11.7,11.2h3.6v1.3h-5.1V0.8h1.5C11.7,0.8,11.7,11.2,11.7,11.2z"/>
				<path class="st1" d="M27.8,6.7c0,3.5-2.8,6.2-6.2,6.2s-6.2-2.6-6.2-6.2c0-3.4,2.8-6.2,6.2-6.2S27.8,3.3,27.8,6.7z M26.3,6.7
					c0-2.6-1.9-4.8-4.7-4.8s-4.7,2.2-4.7,4.8c0,2.7,2.2,4.8,4.7,4.8S26.3,9.4,26.3,6.7z"/>
				<path class="st1" d="M39,12.8l-1-1c-1,0.7-2.2,1-3.4,1c-3.4,0-6.2-2.6-6.2-6.2c0-3.3,2.8-6.1,6.2-6.1s6.2,2.8,6.2,6.2
					c0,1.7-0.7,3.3-1.8,4.4l1.8,1.8H39V12.8z M37.9,10c0.9-0.8,1.4-2.2,1.4-3.3c0-2.6-1.9-4.8-4.7-4.8s-4.7,2.2-4.7,4.8
					c0,2.7,2.2,4.8,4.7,4.8c0.7,0,1.6-0.2,2.3-0.7l-2.7-2.7H36L37.9,10z"/>
				<path class="st1" d="M43.5,0.8v7c0,1.9,0.6,3.7,2.9,3.7c2.3,0,2.8-1.8,2.8-3.7v-7h1.5v7.5c0,2.6-1.6,4.6-4.3,4.6s-4.3-2-4.3-4.6
					V0.8H43.5z"/>
				<path class="st1" d="M52.7,0.8H59v1.3h-4.8v3.3h4.7v1.3h-4.7v4.5h4.9v1.3h-6.3L52.7,0.8L52.7,0.8z"/>
				<path class="st2" d="M106.6,41.4c0,10.7-8.7,19.4-19.4,19.4s-19.5-8.7-19.5-19.4S76.4,22,87.2,22C97.8,22,106.6,30.7,106.6,41.4
					z"/>
				<g class="st3">
					<path class="st1" d="M27.8,51.1v7.5H0.5l13.9-15.1c2-2.2,3.9-5.2,3.9-8.4c0-2.2-1.5-4.4-3.9-4.4s-3.7,1.9-3.7,4.2
						c0,0.5,0,0.9,0.1,1.4H1.1c0.3-7.8,5.2-13.1,13.3-13.1c7.1,0,13.1,4.7,13.1,12.1c0,4.9-2,7.7-5.5,10.9l-5.3,4.9H27.8z"/>
					<path class="st1" d="M58.8,51.1v7.5H31.5l13.9-15.1c2-2.2,3.9-5.2,3.9-8.4c0-2.2-1.5-4.4-3.9-4.4s-3.7,1.9-3.7,4.2
						c0,0.5,0,0.9,0.1,1.4H32c0.3-7.8,5.2-13.1,13.3-13.1c7.1,0,13.1,4.7,13.1,12.1c0,4.9-2,7.7-5.5,10.9l-5.3,4.9H58.8z"/>
				</g>
			</g>
		</g>
	</g>
</g>
<g class="st3">
	<path class="st4" d="M132.5,19.2c-1-1.2-2.5-1.9-4-1.9c-3.4,0-5.3,3.1-5.3,6.2c0,3,2,6.1,5.3,6.1c1.5,0,3-0.8,4-1.9v4.2
		c-1.3,0.6-2.6,1.1-4.1,1.1c-5.1,0-8.9-4.4-8.9-9.4c0-5.1,3.6-9.7,8.9-9.7c1.4,0,2.8,0.4,4,1.1v4.2H132.5z"/>
	<path class="st4" d="M134.7,14.4h3.5v10.1c0,2.2,0.2,5.4,3.2,5.4s3.2-3.1,3.2-5.4V14.4h3.5v10.8c0,4.4-1.9,7.8-6.7,7.8
		s-6.7-3.3-6.7-7.8V14.4z"/>
	<path class="st4" d="M150.7,14.4h4.4c3.4,0,5.4,1.3,5.4,4.9c0,1.3-0.5,2.8-1.6,3.5c2.1,0.4,3.1,2.5,3.1,4.5c0,3.6-2.5,5.1-5.8,5.1
		h-5.5L150.7,14.4L150.7,14.4z M154.2,22h0.4c1.7,0,2.6-0.5,2.6-2.4c0-1.8-1.1-2.3-2.5-2.3h-0.5V22z M154.2,29.7h0.7
		c1.9,0,3.5-0.2,3.5-2.6s-1.9-2.4-3.7-2.4h-0.6v5H154.2z"/>
	<path class="st4" d="M167.5,32.5H164V14.4h3.5V32.5z"/>
	<path class="st4" d="M173.6,17.5v4h5.6v3.1h-5.6v4.9h5.8v3.1H170V14.4h9.4v3.1H173.6z"/>
	<path class="st4" d="M194,32.5h-4.3l-4.4-7.3l0,0v7.3h-3.5V14.4h4.8c3.6,0,6,1.6,6,5.4c0,2.3-1.3,4.6-3.7,5L194,32.5z M185.3,22.7
		h0.5c1.9,0,3.3-0.6,3.3-2.8s-1.4-2.7-3.3-2.7h-0.5V22.7z"/>
	<path class="st4" d="M200.6,32.5H197v-15h-3.6v-3.1h10.8v3.1h-3.6L200.6,32.5L200.6,32.5z"/>
	<path class="st4" d="M207.3,28.7l-1.5,3.8h-3.7l7.1-18.6h2.7l6.9,18.6H215l-1.4-3.8H207.3z M210.3,19.2L210.3,19.2l-2,6.6h4.3
		L210.3,19.2z"/>
	<path class="st4" d="M230.4,28.7l-1.5,3.8h-3.7l7.1-18.6h2.7l6.9,18.6h-3.8l-1.4-3.8H230.4z M233.5,19.2L233.5,19.2l-2,6.6h4.3
		L233.5,19.2z"/>
	<path class="st4" d="M256.8,33.3l-1.2-1.5c-1.2,0.8-2.8,1.2-4.5,1.2c-5.3,0-9-4.4-9-9.6c0-5.1,3.7-9.5,9-9.5s9,4.4,9,9.5
		c0,2.4-0.7,4.8-2.1,6.6l2.5,2.9L256.8,33.3z M255.2,27.1c0.8-1,1.1-2.5,1.1-3.7c0-2.9-2.1-6-5.3-6c-3.4,0-5.3,3.2-5.3,6.4
		c0,3,1.8,5.9,5.3,5.9c0.6,0,1.4-0.3,1.9-0.6l-3-3.4l3.6-0.3L255.2,27.1z"/>
	<path class="st4" d="M261.6,14.4h3.5v10.1c0,2.2,0.2,5.4,3.2,5.4s3.2-3.1,3.2-5.4V14.4h3.5v10.8c0,4.4-1.9,7.8-6.7,7.8
		c-4.8,0-6.7-3.3-6.7-7.8V14.4z"/>
	<path class="st4" d="M281.3,28.7l-1.5,3.8h-3.7l7.1-18.6h2.7l6.9,18.6H289l-1.4-3.8H281.3z M284.3,19.2L284.3,19.2l-2,6.6h4.3
		L284.3,19.2z"/>
	<path class="st4" d="M297.3,32.5h-3.5V14.4h4.8c3.8,0,6.3,1.5,6.3,5.6c0,3.8-2.1,5.7-5.8,5.7h-1.8V32.5z M297.3,22.8h0.7
		c2.1,0,3.2-0.5,3.2-2.8s-1.3-2.7-3.3-2.7h-0.6L297.3,22.8L297.3,22.8z"/>
	<path class="st4" d="M308.2,28.7l-1.5,3.8H303l7.1-18.6h2.7l6.9,18.6h-3.8l-1.4-3.8H308.2z M311.3,19.2L311.3,19.2l-2,6.6h4.3
		L311.3,19.2z"/>
	<path class="st4" d="M320.8,13.9h2.5l9.5,12.6l0,0V14.4h3.5v18.5h-2.5l-9.5-12.6l0,0v12.3h-3.5V13.9z"/>
	<path class="st4" d="M342.5,17.5v4h5.6v3.1h-5.6v4.9h5.8v3.1H339V14.4h9.4v3.1H342.5z"/>
	<path class="st4" d="M354.2,29.4h5v3.1h-8.5V14.4h3.5V29.4z"/>
	<path class="st4" d="M364.7,30.8c0,1.2-1,2.2-2.1,2.2s-2.1-1-2.1-2.2s1-2.1,2.1-2.1S364.7,29.7,364.7,30.8z"/>
	<path class="st4" d="M132.7,56.5h-4.3l-4.4-7.3l0,0v7.3h-3.5V38.4h4.8c3.6,0,6,1.6,6,5.4c0,2.3-1.3,4.6-3.7,5L132.7,56.5z
		 M123.9,46.8h0.5c1.9,0,3.3-0.6,3.3-2.8s-1.4-2.7-3.3-2.7h-0.5V46.8z"/>
	<path class="st4" d="M141.9,57c-5.5,0-9-4.2-9-9.6s3.6-9.5,9-9.5s9,4.1,9,9.5S147.4,57,141.9,57z M141.9,41.4c-3.3,0-5.3,3-5.3,5.9
		c0,2.8,1.4,6.2,5.3,6.2c3.9,0,5.3-3.4,5.3-6.2C147.2,44.4,145.2,41.4,141.9,41.4z"/>
	<path class="st4" d="M160.7,57c-5.5,0-9-4.2-9-9.6s3.6-9.5,9-9.5s9,4.1,9,9.5C169.6,52.8,166.2,57,160.7,57z M160.7,41.4
		c-3.3,0-5.3,3-5.3,5.9c0,2.8,1.4,6.2,5.3,6.2s5.3-3.4,5.3-6.2C166,44.4,164,41.4,160.7,41.4z"/>
	<path class="st4" d="M174.9,41.5v4h5.1v3.1h-5.1v8h-3.5V38.4h9v3.1H174.9z"/>
	<path class="st4" d="M188.3,56.5h-3.5v-15h-3.6v-3.1H192v3.1h-3.6L188.3,56.5L188.3,56.5z"/>
	<path class="st4" d="M201.4,57c-5.5,0-9-4.2-9-9.6s3.6-9.5,9-9.5s9,4.1,9,9.5C210.3,52.8,206.9,57,201.4,57z M201.4,41.4
		c-3.3,0-5.3,3-5.3,5.9c0,2.8,1.4,6.2,5.3,6.2s5.3-3.4,5.3-6.2C206.7,44.4,204.7,41.4,201.4,41.4z"/>
	<path class="st4" d="M215.6,56.5h-3.5V38.4h4.8c3.8,0,6.3,1.5,6.3,5.6c0,3.8-2.1,5.7-5.8,5.7h-1.8V56.5z M215.6,46.8h0.7
		c2.1,0,3.2-0.5,3.2-2.8s-1.3-2.7-3.3-2.7h-0.6L215.6,46.8L215.6,46.8z"/>
</g>
</svg>
