<svg width="320" height="62" viewBox="0 0 320 62" fill="none" xmlns="http://www.w3.org/2000/svg">
<g clip-path="url(#clip0)">
<path d="M1.56964 1.12622H3.06964C5.26964 1.12622 7.36964 1.72622 7.36964 4.32622C7.36964 5.22622 6.86964 6.22622 6.06964 6.52622C7.46964 6.82622 8.46964 8.12622 8.46964 9.52622C8.46964 11.9262 6.46964 12.8262 4.36964 12.8262H1.56964V1.12622ZM3.06964 6.32622H3.46964C4.86964 6.32622 5.96964 6.02622 5.96964 4.32622C5.96964 2.62622 4.86964 2.42622 3.46964 2.42622H3.06964V6.32622ZM3.06964 11.5262H4.16964C5.56964 11.5262 6.96964 11.1262 6.96964 9.42622C6.96964 7.72622 5.26964 7.42622 3.96964 7.42622H3.06964V11.5262Z" fill="#5B9CD6"/>
<path d="M11.5696 11.5262H15.1696V12.8262H10.0696V1.12622H11.5696V11.5262Z" fill="#5B9CD6"/>
<path d="M27.6697 7.02617C27.6697 10.5262 24.8697 13.2262 21.4697 13.2262C18.0697 13.2262 15.2697 10.6262 15.2697 7.02617C15.2697 3.62617 18.0697 0.826172 21.4697 0.826172C24.8697 0.826172 27.6697 3.62617 27.6697 7.02617ZM26.1697 7.02617C26.1697 4.42617 24.2697 2.22617 21.4697 2.22617C18.6697 2.22617 16.7697 4.42617 16.7697 7.02617C16.7697 9.72617 18.9697 11.8262 21.4697 11.8262C23.9697 11.8262 26.1697 9.72617 26.1697 7.02617Z" fill="#5B9CD6"/>
<path d="M38.8697 13.1262L37.8697 12.1262C36.8697 12.8262 35.6697 13.1262 34.4697 13.1262C31.0697 13.1262 28.2697 10.5262 28.2697 6.92617C28.2697 3.62617 31.0697 0.826172 34.4697 0.826172C37.8697 0.826172 40.6697 3.62617 40.6697 7.02617C40.6697 8.72617 39.9697 10.3262 38.8697 11.4262L40.6697 13.2262H38.8697V13.1262ZM37.7697 10.3262C38.6697 9.52617 39.1697 8.12617 39.1697 7.02617C39.1697 4.42617 37.2697 2.22617 34.4697 2.22617C31.6697 2.22617 29.7697 4.42617 29.7697 7.02617C29.7697 9.72617 31.9697 11.8262 34.4697 11.8262C35.1697 11.8262 36.0697 11.6262 36.7697 11.1262L34.0697 8.42617H35.8697L37.7697 10.3262Z" fill="#5B9CD6"/>
<path d="M43.3696 1.12622V8.12622C43.3696 10.0262 43.9696 11.8262 46.2696 11.8262C48.5696 11.8262 49.0696 10.0262 49.0696 8.12622V1.12622H50.5696V8.62622C50.5696 11.2262 48.9696 13.2262 46.2696 13.2262C43.5696 13.2262 41.9696 11.2262 41.9696 8.62622V1.12622H43.3696Z" fill="#5B9CD6"/>
<path d="M52.5696 1.12622H58.8696V2.42622H54.0696V5.72622H58.7696V7.02622H54.0696V11.5262H58.9696V12.8262H52.6696V1.12622H52.5696Z" fill="#5B9CD6"/>
<path d="M29.0696 41.1261C29.0696 50.0261 24.7696 59.5261 14.5696 59.5261C4.36964 59.5261 0.0696411 50.0261 0.0696411 41.1261C0.0696411 32.2261 4.36964 22.7261 14.5696 22.7261C24.6696 22.6261 29.0696 32.2261 29.0696 41.1261ZM8.86964 41.0261C8.86964 44.3261 9.96964 51.6261 14.5696 51.6261C19.1696 51.6261 20.2696 44.3261 20.2696 41.0261C20.2696 37.7261 19.1696 30.4261 14.5696 30.4261C9.96964 30.5261 8.86964 37.7261 8.86964 41.0261Z" fill="#5B9CD6"/>
<path d="M43.7696 31.5261L43.1696 35.4261L45.9696 35.2261C52.9696 34.7261 58.0696 40.4261 58.0696 47.4261C58.0696 51.0261 56.4696 54.3261 53.6696 56.6261C50.9696 58.8261 47.0696 59.5261 43.6696 59.5261C39.7696 59.5261 35.8696 58.5261 32.5696 56.4261L33.8696 48.0261C36.4696 50.4261 39.8696 51.9261 43.3696 51.9261C46.1696 51.9261 48.7696 49.9261 48.7696 46.9261C48.7696 42.8261 44.8696 41.1261 41.2696 41.1261C38.9696 41.1261 36.7696 41.6261 34.7696 42.5261L37.7696 24.0261H55.5696V31.5261H43.7696Z" fill="#5B9CD6"/>
<path d="M106.47 42.1262C106.47 52.8262 97.7696 61.5262 87.0696 61.5262C76.3696 61.5262 67.5696 52.8262 67.5696 42.1262C67.5696 31.4262 76.2696 22.6262 87.0696 22.6262C97.6696 22.7262 106.47 31.4262 106.47 42.1262Z" fill="#9CB5C9"/>
<path d="M127.47 30.0263H124.17V12.9263H128.67C132.27 12.9263 134.57 14.3263 134.57 18.2263C134.57 21.8263 132.57 23.6263 129.07 23.6263H127.37V30.0263H127.47ZM127.47 20.8263H128.17C130.17 20.8263 131.17 20.4263 131.17 18.2263C131.17 16.0263 129.87 15.7263 128.07 15.7263H127.47V20.8263Z" fill="#858686"/>
<path d="M147.67 30.0263H143.67L139.57 23.1263V30.0263H136.07V12.9263H140.57C143.97 12.9263 146.27 14.4263 146.27 18.0263C146.27 20.2263 145.07 22.3263 142.77 22.7263L147.67 30.0263ZM139.47 20.8263H139.87C141.67 20.8263 142.97 20.3263 142.97 18.2263C142.97 16.1263 141.67 15.7263 139.87 15.7263H139.37V20.8263H139.47Z" fill="#858686"/>
<path d="M156.37 30.4263C151.17 30.4263 147.97 26.4263 147.97 21.4263C147.97 16.3263 151.37 12.4263 156.37 12.4263C161.37 12.4263 164.77 16.3263 164.77 21.4263C164.77 26.4263 161.57 30.4263 156.37 30.4263ZM156.37 15.7263C153.27 15.7263 151.37 18.5263 151.37 21.2263C151.37 23.8263 152.67 27.1263 156.37 27.1263C160.07 27.1263 161.37 23.9263 161.37 21.2263C161.37 18.5263 159.47 15.7263 156.37 15.7263Z" fill="#858686"/>
<path d="M164.87 12.9263H168.77L171.77 18.8263L175.07 12.9263H178.97L173.57 22.1263V29.9263H170.27V22.1263L164.87 12.9263Z" fill="#858686"/>
<path d="M183.07 15.8263V19.6263H188.37V22.5263H183.07V27.1263H188.57V30.0263H179.77V12.9263H188.57V15.8263H183.07Z" fill="#858686"/>
<path d="M202.17 17.4263C201.27 16.3263 199.87 15.6263 198.37 15.6263C195.17 15.6263 193.37 18.5263 193.37 21.5263C193.37 24.4263 195.27 27.2263 198.37 27.2263C199.77 27.2263 201.27 26.5263 202.17 25.4263V29.4263C200.97 30.0263 199.67 30.4263 198.27 30.4263C193.47 30.4263 189.87 26.3263 189.87 21.5263C189.87 16.7263 193.27 12.4263 198.27 12.4263C199.57 12.4263 200.87 12.8263 202.07 13.4263V17.4263H202.17Z" fill="#858686"/>
<path d="M209.97 30.0263H206.67V15.8263H203.27V12.9263H213.47V15.8263H210.07V30.0263H209.97Z" fill="#858686"/>
<path d="M222.27 30.4263C217.07 30.4263 213.87 26.4263 213.87 21.4263C213.87 16.3263 217.27 12.4263 222.27 12.4263C227.27 12.4263 230.67 16.3263 230.67 21.4263C230.67 26.4263 227.47 30.4263 222.27 30.4263ZM222.27 15.7263C219.17 15.7263 217.27 18.5263 217.27 21.2263C217.27 23.8263 218.57 27.1263 222.27 27.1263C225.97 27.1263 227.27 23.9263 227.27 21.2263C227.27 18.5263 225.37 15.7263 222.27 15.7263Z" fill="#858686"/>
<path d="M240.37 16.7263C239.77 15.8263 238.97 15.3263 237.77 15.3263C236.67 15.3263 235.67 16.1263 235.67 17.2263C235.67 20.1263 242.47 18.9263 242.47 24.6263C242.47 28.0263 240.37 30.4263 236.87 30.4263C234.47 30.4263 232.77 29.0263 231.57 27.1263L233.77 25.0263C234.27 26.3263 235.47 27.5263 236.87 27.5263C238.27 27.5263 239.07 26.3263 239.07 25.0263C239.07 23.2263 237.47 22.7263 236.07 22.2263C233.87 21.3263 232.27 20.2263 232.27 17.5263C232.27 14.7263 234.37 12.4263 237.27 12.4263C238.77 12.4263 240.87 13.1263 241.97 14.3263L240.37 16.7263Z" fill="#858686"/>
<path d="M135.67 57.1262H131.67L127.57 50.2262V57.1262H124.27V40.1262H128.77C132.17 40.1262 134.47 41.6262 134.47 45.2262C134.47 47.4262 133.27 49.5262 130.97 49.9262L135.67 57.1262ZM127.47 47.9262H127.87C129.67 47.9262 130.97 47.4262 130.97 45.3262C130.97 43.2262 129.67 42.8262 127.87 42.8262H127.37V47.9262H127.47Z" fill="#858686"/>
<path d="M140.07 43.0262V46.8262H145.37V49.7262H140.07V54.3262H145.57V57.2262H136.77V40.1262H145.57V43.0262H140.07Z" fill="#858686"/>
<path d="M155.87 43.8261C155.27 42.9261 154.47 42.4261 153.27 42.4261C152.17 42.4261 151.17 43.2261 151.17 44.3261C151.17 47.2261 157.97 46.0261 157.97 51.7261C157.97 55.1261 155.87 57.5261 152.37 57.5261C149.97 57.5261 148.27 56.1261 147.07 54.2261L149.27 52.1261C149.77 53.4261 150.97 54.6261 152.37 54.6261C153.77 54.6261 154.57 53.4261 154.57 52.1261C154.57 50.3261 152.97 49.8261 151.57 49.3261C149.37 48.4261 147.77 47.3261 147.77 44.6261C147.77 41.8261 149.87 39.5261 152.77 39.5261C154.27 39.5261 156.37 40.2261 157.47 41.4261L155.87 43.8261Z" fill="#858686"/>
<path d="M163.07 57.1262H159.77V40.1262H163.07V57.1262Z" fill="#858686"/>
<path d="M165.47 40.1262H170.27C175.17 40.1262 178.47 43.8262 178.47 48.7262C178.47 53.5262 175.07 57.2262 170.17 57.2262H165.47V40.1262ZM168.77 54.2262H169.27C173.37 54.2262 174.97 51.9262 174.97 48.6262C174.97 44.9262 173.07 43.0262 169.27 43.0262H168.77V54.2262Z" fill="#858686"/>
<path d="M183.47 43.0262V46.8262H188.77V49.7262H183.47V54.3262H188.97V57.2262H180.07V40.1262H188.87V43.0262H183.47Z" fill="#858686"/>
<path d="M191.17 39.6262H193.57L202.57 51.5262V40.1262H205.87V57.5262H203.47L194.47 45.6262V57.2262H191.17V39.6262Z" fill="#858686"/>
<path d="M219.77 44.6262C218.87 43.5262 217.47 42.8262 215.97 42.8262C212.77 42.8262 210.97 45.7262 210.97 48.7262C210.97 51.6262 212.87 54.4262 215.97 54.4262C217.37 54.4262 218.87 53.7262 219.77 52.6262V56.6262C218.57 57.2262 217.27 57.6262 215.87 57.6262C211.07 57.6262 207.47 53.5262 207.47 48.7262C207.47 43.9262 210.87 39.6262 215.87 39.6262C217.17 39.6262 218.47 40.0262 219.67 40.6262V44.6262H219.77Z" fill="#858686"/>
<path d="M225.27 57.1262H221.97V40.1262H225.27V57.1262Z" fill="#858686"/>
<path d="M231.17 53.5262L229.77 57.1262H226.27L232.97 39.6262H235.57L242.07 57.1262H238.47L237.17 53.5262H231.17ZM234.07 44.6262L232.17 50.8262H236.27L234.07 44.6262Z" fill="#858686"/>
<path d="M246.37 54.2262H251.07V57.1262H243.07V40.1262H246.37V54.2262Z" fill="#858686"/>
<path d="M255.47 43.0262V46.8262H260.77V49.7262H255.47V54.3262H260.97V57.2262H252.17V40.1262H260.97V43.0262H255.47Z" fill="#858686"/>
<path d="M271.27 43.8261C270.67 42.9261 269.87 42.4261 268.67 42.4261C267.57 42.4261 266.57 43.2261 266.57 44.3261C266.57 47.2261 273.37 46.0261 273.37 51.7261C273.37 55.1261 271.27 57.5261 267.77 57.5261C265.37 57.5261 263.67 56.1261 262.47 54.2261L264.67 52.1261C265.17 53.4261 266.37 54.6261 267.77 54.6261C269.17 54.6261 269.97 53.4261 269.97 52.1261C269.97 50.3261 268.37 49.8261 266.97 49.3261C264.77 48.4261 263.17 47.3261 263.17 44.6261C263.17 41.8261 265.27 39.5261 268.17 39.5261C269.67 39.5261 271.77 40.2261 272.87 41.4261L271.27 43.8261Z" fill="#858686"/>
</g>
<path d="M301.616 26.5317C301.616 26.2577 301.724 25.9949 301.918 25.8011C302.112 25.6074 302.375 25.4985 302.649 25.4985H306.781C307.056 25.4985 307.318 25.6074 307.512 25.8011C307.706 25.9949 307.815 26.2577 307.815 26.5317C307.815 26.8057 307.706 27.0685 307.512 27.2623C307.318 27.4561 307.056 27.5649 306.781 27.5649V28.7428C309.592 29.1478 312.142 30.3545 314.187 32.1316C314.196 32.1226 314.204 32.1136 314.212 32.1048L314.944 31.3733L314.212 30.6438C314.018 30.4501 313.909 30.1872 313.909 29.9131C313.909 29.6389 314.017 29.3759 314.211 29.1819C314.405 28.9879 314.668 28.8788 314.942 28.8786C315.216 28.8784 315.479 28.9871 315.673 29.1808L318.595 32.1048C318.694 32.2001 318.772 32.3141 318.827 32.4401C318.881 32.5662 318.909 32.7018 318.91 32.8389C318.912 32.9761 318.885 33.1122 318.833 33.2392C318.782 33.3661 318.705 33.4815 318.608 33.5785C318.511 33.6755 318.395 33.7522 318.268 33.8042C318.141 33.8561 318.005 33.8823 317.868 33.8811C317.731 33.8799 317.595 33.8514 317.469 33.7972C317.343 33.7431 317.229 33.6644 317.134 33.5657L316.405 32.8342L315.673 33.5657C315.664 33.5741 315.655 33.5824 315.646 33.5905C317.75 36.0192 318.986 39.0794 319.157 42.2881C319.329 45.4968 318.428 48.6713 316.595 51.3108C314.762 53.9503 312.103 55.9044 309.037 56.8649C305.97 57.8253 302.671 57.7373 299.66 56.6148C296.65 55.4923 294.098 53.3992 292.409 50.6658C290.72 47.9324 289.989 44.7143 290.331 41.5193C290.674 38.3243 292.07 35.3343 294.301 33.0212C296.531 30.7081 299.468 29.2035 302.649 28.7448V27.5649C302.375 27.5649 302.112 27.4561 301.918 27.2623C301.724 27.0685 301.616 26.8057 301.616 26.5317ZM304.715 30.6645C303.087 30.6646 301.475 30.9855 299.971 31.6086C298.466 32.2318 297.1 33.1452 295.948 34.2966C293.624 36.6219 292.318 39.7756 292.318 43.0638C292.318 46.352 293.625 49.5055 295.95 51.8304C298.275 54.1554 301.429 55.4613 304.717 55.4611C308.005 55.4608 311.159 54.1543 313.484 51.829C315.809 49.5036 317.115 46.35 317.114 43.0617C317.114 39.7735 315.808 36.6201 313.482 34.2951C311.157 31.9702 308.003 30.6642 304.715 30.6645Z" fill="#009DE0"/>
<circle cx="304.779" cy="43.1203" r="13.2082" fill="#009DE0"/>
<path d="M300.367 42.7881C300.955 42.9468 301.403 43.2361 301.711 43.6561C302.029 44.0761 302.187 44.5941 302.187 45.2101C302.187 46.0781 301.865 46.7641 301.221 47.2681C300.587 47.7721 299.728 48.0241 298.645 48.0241C297.973 48.0241 297.325 47.9214 296.699 47.7161C296.083 47.5108 295.575 47.2261 295.173 46.8621L295.789 45.5461C296.676 46.2368 297.605 46.5821 298.575 46.5821C299.21 46.5821 299.681 46.4561 299.989 46.2041C300.307 45.9521 300.465 45.5694 300.465 45.0561C300.465 44.5521 300.307 44.1834 299.989 43.9501C299.672 43.7074 299.182 43.5861 298.519 43.5861H297.203V42.1441H298.281C299.569 42.1441 300.213 41.6541 300.213 40.6741C300.213 40.2168 300.073 39.8668 299.793 39.6241C299.513 39.3814 299.121 39.2601 298.617 39.2601C297.721 39.2601 296.825 39.6054 295.929 40.2961L295.327 38.9801C295.729 38.6254 296.233 38.3454 296.839 38.1401C297.455 37.9254 298.085 37.8181 298.729 37.8181C299.709 37.8181 300.489 38.0608 301.067 38.5461C301.655 39.0221 301.949 39.6614 301.949 40.4641C301.94 41.0148 301.795 41.4954 301.515 41.9061C301.245 42.3074 300.862 42.6014 300.367 42.7881ZM307.222 48.0381C306.037 48.0381 305.131 47.6041 304.506 46.7361C303.89 45.8588 303.582 44.5848 303.582 42.9141C303.582 41.2714 303.89 40.0161 304.506 39.1481C305.131 38.2801 306.037 37.8461 307.222 37.8461C308.407 37.8461 309.308 38.2801 309.924 39.1481C310.549 40.0068 310.862 41.2621 310.862 42.9141C310.862 44.5754 310.549 45.8448 309.924 46.7221C309.308 47.5994 308.407 48.0381 307.222 48.0381ZM307.222 46.6241C307.866 46.6241 308.333 46.3301 308.622 45.7421C308.921 45.1448 309.07 44.2021 309.07 42.9141C309.07 41.6448 308.921 40.7208 308.622 40.1421C308.333 39.5541 307.866 39.2601 307.222 39.2601C306.578 39.2601 306.107 39.5541 305.808 40.1421C305.519 40.7208 305.374 41.6448 305.374 42.9141C305.374 44.2021 305.519 45.1448 305.808 45.7421C306.107 46.3301 306.578 46.6241 307.222 46.6241ZM314.146 37.9441V39.2321C314.146 39.7268 314.062 40.1748 313.894 40.5761C313.726 40.9681 313.442 41.3648 313.04 41.7661L312.326 41.2061C312.746 40.7581 312.998 40.3241 313.082 39.9041H312.186V37.9441H314.146Z" fill="white"/>
<defs>
<clipPath id="clip0">
<rect width="273.3" height="60.8" fill="white" transform="translate(0.0696411 0.826172)"/>
</clipPath>
</defs>
</svg>
