<svg width="293" height="62" viewBox="0 0 293 62" fill="none" xmlns="http://www.w3.org/2000/svg">
<g clip-path="url(#clip0)">
<path d="M0.257996 0.537109H1.658C3.858 0.537109 5.958 1.13711 5.958 3.73711C5.958 4.63711 5.458 5.63711 4.658 5.93711C6.058 6.23711 7.058 7.53711 7.058 8.93711C7.058 11.3371 5.058 12.2371 2.958 12.2371H0.257996V0.537109ZM1.758 5.73711H2.158C3.558 5.73711 4.658 5.43711 4.658 3.73711C4.658 2.03711 3.558 1.83711 2.158 1.83711H1.758V5.73711ZM1.758 10.9371H2.858C4.258 10.9371 5.658 10.5371 5.658 8.83711C5.658 7.13711 3.958 6.83711 2.658 6.83711H1.758V10.9371Z" fill="#5B9CD6"/>
<path d="M10.258 10.9371H13.858V12.2371H8.758V0.537109H10.258V10.9371Z" fill="#5B9CD6"/>
<path d="M26.358 6.43706C26.358 9.93706 23.558 12.6371 20.158 12.6371C16.758 12.6371 13.958 10.0371 13.958 6.43706C13.958 3.03706 16.758 0.237061 20.158 0.237061C23.558 0.237061 26.358 3.03706 26.358 6.43706ZM24.858 6.43706C24.858 3.83706 22.958 1.63706 20.158 1.63706C17.358 1.63706 15.458 3.83706 15.458 6.43706C15.458 9.13706 17.658 11.2371 20.158 11.2371C22.658 11.2371 24.858 9.13706 24.858 6.43706Z" fill="#5B9CD6"/>
<path d="M37.458 12.5371L36.458 11.4371C35.458 12.1371 34.258 12.5371 33.058 12.5371C29.658 12.5371 26.858 9.93708 26.858 6.33708C26.858 2.93708 29.658 0.137085 33.058 0.137085C36.458 0.137085 39.258 2.93708 39.258 6.33708C39.258 8.03708 38.558 9.63708 37.358 10.7371L39.158 12.5371H37.458ZM36.458 9.73709C37.358 8.93709 37.858 7.53708 37.858 6.43708C37.858 3.83708 35.958 1.63708 33.158 1.63708C30.358 1.63708 28.458 3.83708 28.458 6.43708C28.458 9.13708 30.658 11.2371 33.158 11.2371C33.858 11.2371 34.758 11.0371 35.458 10.5371L32.758 7.93708H34.558L36.458 9.73709Z" fill="#5B9CD6"/>
<path d="M41.958 0.537109V7.53711C41.958 9.43711 42.558 11.2371 44.758 11.2371C47.058 11.2371 47.658 9.43711 47.658 7.53711V0.537109H49.158V8.03711C49.158 10.6371 47.558 12.6371 44.858 12.6371C42.158 12.6371 40.558 10.6371 40.558 8.03711V0.537109H41.958Z" fill="#5B9CD6"/>
<path d="M51.258 0.537109H57.558V1.83711H52.658V5.13711H57.358V6.43711H52.658V10.9371H57.558V12.2371H51.258V0.537109Z" fill="#5B9CD6"/>
<path d="M4.95799 30.9371V23.4371H18.758V57.6371H9.85799V30.9371H4.95799Z" fill="#5B9CD6"/>
<path d="M57.658 50.0371V57.5371H30.258L44.258 42.3371C46.258 40.1371 48.158 37.0371 48.158 33.9371C48.158 31.7371 46.658 29.5371 44.258 29.5371C41.858 29.5371 40.558 31.4371 40.558 33.7371C40.558 34.2371 40.558 34.7371 40.658 35.1371H30.858C31.158 27.3371 36.158 22.0371 44.158 22.0371C51.358 22.0371 57.358 26.7371 57.358 34.1371C57.358 39.0371 55.358 41.8371 51.858 45.0371L46.558 49.9371H57.658V50.0371Z" fill="#5B9CD6"/>
<path d="M105.058 41.5371C105.058 52.2371 96.358 60.9371 85.658 60.9371C74.958 60.9371 66.158 52.2371 66.158 41.5371C66.158 30.8371 74.858 22.0371 85.658 22.0371C96.358 22.1371 105.058 30.8371 105.058 41.5371Z" fill="#9CB5C9"/>
<path d="M122.858 13.837H127.658C132.558 13.837 135.858 17.537 135.858 22.437C135.858 27.237 132.458 30.937 127.558 30.937H122.858V13.837ZM126.158 27.937H126.658C130.758 27.937 132.358 25.637 132.358 22.337C132.358 18.637 130.458 16.737 126.658 16.737H126.158V27.937Z" fill="#858686"/>
<path d="M140.858 16.737V20.537H146.158V23.437H140.858V28.037H146.358V30.937H137.558V13.837H146.358V16.737H140.858Z" fill="#858686"/>
<path d="M154.058 30.837H150.758V16.737H147.358V13.837H157.558V16.737H154.158V30.837H154.058Z" fill="#858686"/>
<path d="M160.458 27.237L159.058 30.837H155.558L162.258 13.337H164.858L171.358 30.837H167.758L166.458 27.237H160.458ZM163.358 18.337L161.458 24.537H165.558L163.358 18.337Z" fill="#858686"/>
<path d="M175.558 27.937H180.258V30.837H172.258V13.837H175.558V27.937Z" fill="#858686"/>
<path d="M184.658 27.937H189.358V30.837H181.358V13.837H184.658V27.937Z" fill="#858686"/>
<path d="M193.758 16.737V20.537H199.058V23.437H193.758V28.037H199.258V30.937H190.458V13.837H199.258V16.737H193.758Z" fill="#858686"/>
<path d="M209.558 17.5371C208.958 16.6371 208.158 16.1371 206.958 16.1371C205.858 16.1371 204.858 16.9371 204.858 18.0371C204.858 20.9371 211.658 19.7371 211.658 25.4371C211.658 28.8371 209.558 31.2371 206.058 31.2371C203.658 31.2371 201.958 29.8371 200.758 27.9371L202.958 25.8371C203.458 27.1371 204.658 28.3371 206.058 28.3371C207.458 28.3371 208.258 27.1371 208.258 25.8371C208.258 24.0371 206.658 23.5371 205.258 23.0371C203.058 22.1371 201.458 21.0371 201.458 18.3371C201.458 15.5371 203.558 13.2371 206.458 13.2371C207.958 13.2371 210.058 13.9371 211.158 15.1371L209.558 17.5371Z" fill="#858686"/>
<path d="M134.258 45.5371C133.358 44.4371 131.958 43.7371 130.458 43.7371C127.258 43.7371 125.458 46.6371 125.458 49.6371C125.458 52.5371 127.358 55.3371 130.458 55.3371C131.858 55.3371 133.358 54.6371 134.258 53.5371V57.5371C133.058 58.1371 131.758 58.5371 130.358 58.5371C125.558 58.5371 121.958 54.4371 121.958 49.6371C121.958 44.8371 125.358 40.5371 130.358 40.5371C131.658 40.5371 132.958 40.9371 134.158 41.5371V45.5371H134.258Z" fill="#858686"/>
<path d="M144.058 58.5371C138.858 58.5371 135.658 54.5371 135.658 49.5371C135.658 44.4371 139.058 40.5371 144.058 40.5371C149.058 40.5371 152.458 44.4371 152.458 49.5371C152.558 54.5371 149.258 58.5371 144.058 58.5371ZM144.058 43.8371C140.958 43.8371 139.058 46.6371 139.058 49.3371C139.058 51.9371 140.358 55.2371 144.058 55.2371C147.758 55.2371 149.058 52.0371 149.058 49.3371C149.058 46.6371 147.258 43.8371 144.058 43.8371Z" fill="#858686"/>
<path d="M154.158 40.5371H156.558L165.558 52.4371V41.0371H168.858V58.4371H166.458L157.458 46.5371V58.1371H154.158V40.5371Z" fill="#858686"/>
<path d="M179.358 44.7371C178.758 43.8371 177.958 43.3371 176.758 43.3371C175.658 43.3371 174.658 44.1371 174.658 45.2371C174.658 48.1371 181.458 46.9371 181.458 52.6371C181.458 56.0371 179.358 58.4371 175.858 58.4371C173.458 58.4371 171.758 57.0371 170.558 55.1371L172.758 53.0371C173.258 54.3371 174.458 55.5371 175.858 55.5371C177.258 55.5371 178.058 54.3371 178.058 53.0371C178.058 51.2371 176.458 50.7371 175.058 50.2371C172.858 49.3371 171.258 48.2371 171.258 45.5371C171.258 42.7371 173.358 40.4371 176.258 40.4371C177.758 40.4371 179.858 41.1371 180.958 42.3371L179.358 44.7371Z" fill="#858686"/>
<path d="M188.858 58.0371H185.558V43.9371H182.158V41.0371H192.258V43.9371H188.858V58.0371Z" fill="#858686"/>
<path d="M205.058 58.0371H201.058L196.958 51.1371V58.0371H193.658V41.0371H198.158C201.558 41.0371 203.858 42.5371 203.858 46.1371C203.858 48.3371 202.658 50.4371 200.358 50.8371L205.058 58.0371ZM196.858 48.8371H197.258C199.058 48.8371 200.358 48.3371 200.358 46.2371C200.358 44.1371 199.058 43.7371 197.258 43.7371H196.758V48.8371H196.858Z" fill="#858686"/>
<path d="M206.058 41.0371H209.358V50.6371C209.358 52.7371 209.558 55.7371 212.358 55.7371C215.158 55.7371 215.358 52.7371 215.358 50.6371V41.0371H218.658V51.2371C218.658 55.4371 216.858 58.5371 212.358 58.5371C207.858 58.5371 206.058 55.4371 206.058 51.2371V41.0371Z" fill="#858686"/>
<path d="M232.458 45.5371C231.558 44.4371 230.158 43.7371 228.658 43.7371C225.458 43.7371 223.658 46.6371 223.658 49.6371C223.658 52.5371 225.558 55.3371 228.658 55.3371C230.058 55.3371 231.558 54.6371 232.458 53.5371V57.5371C231.258 58.1371 229.958 58.5371 228.558 58.5371C223.758 58.5371 220.158 54.4371 220.158 49.6371C220.158 44.8371 223.558 40.5371 228.558 40.5371C229.858 40.5371 231.158 40.9371 232.358 41.5371V45.5371H232.458Z" fill="#858686"/>
<path d="M240.258 58.0371H236.958V43.9371H233.558V41.0371H243.758V43.9371H240.258V58.0371Z" fill="#858686"/>
<path d="M248.258 58.0371H244.958V41.0371H248.258V58.0371Z" fill="#858686"/>
<path d="M256.758 52.5371L260.558 41.0371H264.158L257.558 58.5371H255.658L249.158 41.0371H252.758L256.758 52.5371Z" fill="#858686"/>
<path d="M272.758 58.5371C267.558 58.5371 264.358 54.5371 264.358 49.5371C264.358 44.4371 267.758 40.5371 272.758 40.5371C277.758 40.5371 281.158 44.4371 281.158 49.5371C281.158 54.5371 277.958 58.5371 272.758 58.5371ZM272.758 43.8371C269.658 43.8371 267.758 46.6371 267.758 49.3371C267.758 51.9371 269.058 55.2371 272.758 55.2371C276.458 55.2371 277.758 52.0371 277.758 49.3371C277.758 46.6371 275.858 43.8371 272.758 43.8371Z" fill="#858686"/>
<path d="M290.858 44.7371C290.258 43.8371 289.458 43.3371 288.258 43.3371C287.158 43.3371 286.158 44.1371 286.158 45.2371C286.158 48.1371 292.958 46.9371 292.958 52.6371C292.958 56.0371 290.858 58.4371 287.358 58.4371C284.958 58.4371 283.258 57.0371 282.058 55.1371L284.258 53.0371C284.758 54.3371 285.958 55.5371 287.358 55.5371C288.758 55.5371 289.558 54.3371 289.558 53.0371C289.558 51.2371 287.958 50.7371 286.558 50.2371C284.358 49.3371 282.758 48.2371 282.758 45.5371C282.758 42.7371 284.858 40.4371 287.758 40.4371C289.258 40.4371 291.358 41.1371 292.458 42.3371L290.858 44.7371Z" fill="#858686"/>
</g>
<defs>
<clipPath id="clip0">
<rect width="292.7" height="60.8" fill="white" transform="translate(0.257996 0.237061)"/>
</clipPath>
</defs>
</svg>
