<svg width="243" height="59" viewBox="0 0 243 59" fill="none" xmlns="http://www.w3.org/2000/svg">
<g clip-path="url(#clip0)">
<path d="M1.80798 0.561768H3.30798C5.50798 0.561768 7.60798 1.16177 7.60798 3.76177C7.60798 4.66177 7.10798 5.66177 6.30798 5.96177C7.70798 6.26177 8.70798 7.56177 8.70798 8.96177C8.70798 11.3618 6.70798 12.2618 4.60798 12.2618H1.80798V0.561768ZM3.30798 5.76177H3.70798C5.10798 5.76177 6.20798 5.46177 6.20798 3.76177C6.20798 2.06177 5.10798 1.86177 3.70798 1.86177H3.30798V5.76177ZM3.30798 10.9618H4.40798C5.80798 10.9618 7.20798 10.5618 7.20798 8.86177C7.20798 7.16177 5.50798 6.86177 4.20798 6.86177H3.30798V10.9618Z" fill="#5B9CD6"/>
<path d="M11.808 10.9618H15.408V12.2618H10.308V0.561768H11.808V10.9618Z" fill="#5B9CD6"/>
<path d="M27.908 6.46172C27.908 9.96172 25.108 12.6617 21.708 12.6617C18.308 12.6617 15.508 10.0617 15.508 6.46172C15.508 3.06172 18.308 0.261719 21.708 0.261719C25.108 0.261719 27.908 3.06172 27.908 6.46172ZM26.408 6.46172C26.408 3.86172 24.508 1.66172 21.708 1.66172C18.908 1.66172 17.008 3.86172 17.008 6.46172C17.008 9.16172 19.208 11.2617 21.708 11.2617C24.208 11.2617 26.408 9.16172 26.408 6.46172Z" fill="#5B9CD6"/>
<path d="M39.108 12.5617L38.108 11.5617C37.108 12.2617 35.908 12.5617 34.708 12.5617C31.308 12.5617 28.508 9.96172 28.508 6.36172C28.508 3.06172 31.308 0.261719 34.708 0.261719C38.108 0.261719 40.908 3.06172 40.908 6.46172C40.908 8.16172 40.208 9.76172 39.108 10.8617L40.908 12.6617H39.108V12.5617ZM38.008 9.76172C38.908 8.96172 39.408 7.56172 39.408 6.46172C39.408 3.86172 37.508 1.66172 34.708 1.66172C31.908 1.66172 30.008 3.86172 30.008 6.46172C30.008 9.16172 32.208 11.2617 34.708 11.2617C35.408 11.2617 36.308 11.0617 37.008 10.5617L34.308 7.86172H36.108L38.008 9.76172Z" fill="#5B9CD6"/>
<path d="M43.608 0.561768V7.56177C43.608 9.46177 44.208 11.2618 46.508 11.2618C48.808 11.2618 49.308 9.46177 49.308 7.56177V0.561768H50.808V8.06177C50.808 10.6618 49.208 12.6618 46.508 12.6618C43.808 12.6618 42.208 10.6618 42.208 8.06177V0.561768H43.608Z" fill="#5B9CD6"/>
<path d="M52.808 0.561768H59.108V1.86177H54.308V5.16177H59.008V6.46177H54.308V10.9618H59.208V12.2618H52.908V0.561768H52.808Z" fill="#5B9CD6"/>
<path d="M29.308 40.5618C29.308 49.4618 25.008 58.9618 14.808 58.9618C4.60798 58.9618 0.307983 49.4618 0.307983 40.5618C0.307983 31.6618 4.60798 22.1618 14.808 22.1618C24.908 22.0618 29.308 31.6618 29.308 40.5618ZM9.10798 40.4618C9.10798 43.7618 10.208 51.0618 14.808 51.0618C19.408 51.0618 20.508 43.7618 20.508 40.4618C20.508 37.1618 19.408 29.8618 14.808 29.8618C10.208 29.9618 9.10798 37.1618 9.10798 40.4618Z" fill="#5B9CD6"/>
<path d="M57.508 31.8618C57.508 35.4618 55.208 38.5618 52.108 39.5618V39.6618C56.208 41.0618 58.908 44.1618 58.908 48.6618C58.908 55.7618 51.708 58.9618 45.908 58.9618C40.108 58.9618 32.908 55.6618 32.908 48.6618C32.908 44.1618 35.608 41.0618 39.708 39.6618V39.5618C36.608 38.5618 34.308 35.4618 34.308 31.8618C34.308 25.3618 40.108 22.1618 45.908 22.1618C51.708 22.0618 57.508 25.3618 57.508 31.8618ZM41.808 47.5618C41.808 49.8618 43.608 51.7618 45.908 51.7618C48.208 51.7618 50.008 49.8618 50.008 47.5618C50.008 45.1618 48.208 43.2618 45.908 43.2618C43.608 43.2618 41.808 45.1618 41.808 47.5618ZM42.108 32.1618C42.108 34.2618 43.808 36.0618 45.908 36.0618C48.008 36.0618 49.708 34.3618 49.708 32.1618C49.708 29.9618 48.008 28.2618 45.908 28.2618C43.808 28.2618 42.108 29.9618 42.108 32.1618Z" fill="#5B9CD6"/>
<path d="M69.008 20.6617V58.0617H105.508V57.1617C105.408 36.9617 89.108 20.6617 69.008 20.6617Z" fill="#C5C5C5"/>
<path d="M127.708 30.5616H124.408V13.5616H128.908C132.508 13.5616 134.808 14.9616 134.808 18.8616C134.808 22.4616 132.808 24.2616 129.308 24.2616H127.608V30.5616H127.708ZM127.708 21.4616H128.408C130.408 21.4616 131.408 21.0616 131.408 18.8616C131.408 16.6616 130.108 16.3616 128.308 16.3616H127.708V21.4616Z" fill="#858686"/>
<path d="M147.908 30.5616H143.908L139.808 23.6616V30.5616H136.308V13.5616H140.808C144.208 13.5616 146.508 15.0616 146.508 18.6616C146.508 20.8616 145.308 22.9616 143.008 23.3616L147.908 30.5616ZM139.708 21.3616H140.108C141.908 21.3616 143.208 20.8616 143.208 18.7616C143.208 16.6616 141.908 16.2616 140.108 16.2616H139.608V21.3616H139.708Z" fill="#858686"/>
<path d="M156.608 31.0616C151.408 31.0616 148.208 27.0616 148.208 22.0616C148.208 16.9616 151.608 13.0616 156.608 13.0616C161.608 13.0616 165.008 16.9616 165.008 22.0616C165.008 27.0616 161.808 31.0616 156.608 31.0616ZM156.608 16.3616C153.508 16.3616 151.608 19.1616 151.608 21.8616C151.608 24.4616 152.908 27.7616 156.608 27.7616C160.308 27.7616 161.608 24.5616 161.608 21.8616C161.608 19.1616 159.708 16.3616 156.608 16.3616Z" fill="#858686"/>
<path d="M165.108 13.5616H169.008L172.008 19.4616L175.308 13.5616H179.208L173.808 22.7616V30.5616H170.508V22.7616L165.108 13.5616Z" fill="#858686"/>
<path d="M183.308 16.3616V20.1616H188.608V23.0616H183.308V27.6616H188.808V30.5616H180.008V13.5616H188.808V16.4616H183.308V16.3616Z" fill="#858686"/>
<path d="M202.408 18.0616C201.508 16.9616 200.108 16.2616 198.608 16.2616C195.408 16.2616 193.608 19.1616 193.608 22.1616C193.608 25.0616 195.508 27.8616 198.608 27.8616C200.008 27.8616 201.508 27.1616 202.408 26.0616V30.0616C201.208 30.6616 199.908 31.0616 198.508 31.0616C193.708 31.0616 190.108 26.9616 190.108 22.1616C190.108 17.3616 193.508 13.0616 198.508 13.0616C199.808 13.0616 201.108 13.4616 202.308 14.0616V18.0616H202.408Z" fill="#858686"/>
<path d="M210.208 30.5617H206.908V16.3617H203.508V13.4617H213.708V16.3617H210.308V30.5617H210.208Z" fill="#858686"/>
<path d="M222.508 31.0616C217.308 31.0616 214.108 27.0616 214.108 22.0616C214.108 16.9616 217.508 13.0616 222.508 13.0616C227.508 13.0616 230.908 16.9616 230.908 22.0616C230.908 27.0616 227.708 31.0616 222.508 31.0616ZM222.508 16.3616C219.408 16.3616 217.508 19.1616 217.508 21.8616C217.508 24.4616 218.808 27.7616 222.508 27.7616C226.208 27.7616 227.508 24.5616 227.508 21.8616C227.508 19.1616 225.608 16.3616 222.508 16.3616Z" fill="#858686"/>
<path d="M240.608 17.2617C240.008 16.3617 239.208 15.8617 238.008 15.8617C236.908 15.8617 235.908 16.6617 235.908 17.7617C235.908 20.6617 242.708 19.4617 242.708 25.1617C242.708 28.5617 240.608 30.9617 237.108 30.9617C234.708 30.9617 233.008 29.5617 231.808 27.6617L234.008 25.5617C234.508 26.8617 235.708 28.0617 237.108 28.0617C238.508 28.0617 239.308 26.8617 239.308 25.5617C239.308 23.7617 237.708 23.2617 236.308 22.7617C234.108 21.8617 232.508 20.7617 232.508 18.0617C232.508 15.2617 234.608 12.9617 237.508 12.9617C239.008 12.9617 241.108 13.6617 242.208 14.8617L240.608 17.2617Z" fill="#858686"/>
<path d="M132.008 58.1617C126.808 58.1617 123.608 54.1617 123.608 49.1617C123.608 44.0617 127.008 40.1617 132.008 40.1617C137.008 40.1617 140.408 44.0617 140.408 49.1617C140.408 54.2617 137.208 58.1617 132.008 58.1617ZM132.008 43.5617C128.908 43.5617 127.008 46.3617 127.008 49.0617C127.008 51.6617 128.308 54.9617 132.008 54.9617C135.708 54.9617 137.008 51.7617 137.008 49.0617C137.008 46.2617 135.108 43.5617 132.008 43.5617Z" fill="#858686"/>
<path d="M145.408 43.5617V47.3617H150.208V50.2617H145.408V57.7617H142.108V40.6617H150.608V43.5617H145.408Z" fill="#858686"/>
<path d="M155.908 57.7617H152.608V40.6617H155.908V57.7617Z" fill="#858686"/>
<path d="M169.708 45.2617C168.808 44.1617 167.408 43.4617 165.908 43.4617C162.708 43.4617 160.908 46.3617 160.908 49.3617C160.908 52.2617 162.808 55.0617 165.908 55.0617C167.308 55.0617 168.808 54.3617 169.708 53.2617V57.2617C168.508 57.8617 167.208 58.2617 165.808 58.2617C161.008 58.2617 157.408 54.1617 157.408 49.3617C157.408 44.5617 160.808 40.2617 165.808 40.2617C167.108 40.2617 168.408 40.6617 169.608 41.2617V45.2617H169.708Z" fill="#858686"/>
<path d="M175.308 57.7617H172.008V40.6617H175.308V57.7617Z" fill="#858686"/>
<path d="M177.708 40.2617H180.108L189.108 52.1617V40.6617H192.408V58.0617H190.008L181.008 46.1617V57.7617H177.708V40.2617Z" fill="#858686"/>
<path d="M198.408 54.1617L197.008 57.7617H193.508L200.208 40.2617H202.808L209.308 57.7617H205.708L204.408 54.1617H198.408ZM201.208 45.2617L199.308 51.4617H203.408L201.208 45.2617Z" fill="#858686"/>
<path d="M218.208 44.4617C217.608 43.5617 216.808 43.0617 215.608 43.0617C214.508 43.0617 213.508 43.8617 213.508 44.9617C213.508 47.8617 220.308 46.6617 220.308 52.3617C220.308 55.7617 218.208 58.1617 214.708 58.1617C212.308 58.1617 210.608 56.7617 209.408 54.8617L211.608 52.7617C212.108 54.0617 213.308 55.2617 214.708 55.2617C216.108 55.2617 216.908 54.0617 216.908 52.7617C216.908 50.9617 215.308 50.4617 213.908 49.9617C211.708 49.0617 210.108 47.9617 210.108 45.2617C210.108 42.4617 212.208 40.1617 215.108 40.1617C216.608 40.1617 218.708 40.8617 219.808 42.0617L218.208 44.4617Z" fill="#858686"/>
</g>
<defs>
<clipPath id="clip0">
<rect width="242.4" height="58.7" fill="white" transform="translate(0.307983 0.261719)"/>
</clipPath>
</defs>
</svg>
