<svg width="275" height="62" viewBox="0 0 275 62" fill="none" xmlns="http://www.w3.org/2000/svg">
<g clip-path="url(#clip0)">
<path d="M2.20801 1.23706H3.70801C5.90801 1.23706 8.00801 1.83706 8.00801 4.43706C8.00801 5.33706 7.50801 6.33706 6.70801 6.63706C8.10801 6.93706 9.10801 8.23706 9.10801 9.63706C9.10801 12.0371 7.10801 12.9371 5.00801 12.9371H2.20801V1.23706ZM3.70801 6.43706H4.10801C5.50801 6.43706 6.60801 6.13706 6.60801 4.43706C6.60801 2.73706 5.50801 2.53706 4.10801 2.53706H3.70801V6.43706ZM3.70801 11.6371H4.80801C6.20801 11.6371 7.60801 11.2371 7.60801 9.53706C7.60801 7.83706 5.90801 7.53706 4.60801 7.53706H3.70801V11.6371Z" fill="#5B9CD6"/>
<path d="M12.208 11.6371H15.808V12.9371H10.708V1.23706H12.208V11.6371Z" fill="#5B9CD6"/>
<path d="M28.308 7.13701C28.308 10.637 25.508 13.337 22.108 13.337C18.708 13.337 15.908 10.737 15.908 7.13701C15.908 3.73701 18.708 0.937012 22.108 0.937012C25.508 0.937012 28.308 3.73701 28.308 7.13701ZM26.808 7.13701C26.808 4.53701 24.908 2.33701 22.108 2.33701C19.308 2.33701 17.408 4.53701 17.408 7.13701C17.408 9.83701 19.608 11.937 22.108 11.937C24.608 11.937 26.808 9.83701 26.808 7.13701Z" fill="#5B9CD6"/>
<path d="M39.508 13.237L38.508 12.237C37.508 12.937 36.308 13.237 35.108 13.237C31.708 13.237 28.908 10.637 28.908 7.03701C28.908 3.73701 31.708 0.937012 35.108 0.937012C38.508 0.937012 41.308 3.73701 41.308 7.13701C41.308 8.83701 40.608 10.437 39.508 11.537L41.308 13.337H39.508V13.237ZM38.408 10.437C39.308 9.63701 39.808 8.23701 39.808 7.13701C39.808 4.53701 37.908 2.33701 35.108 2.33701C32.308 2.33701 30.408 4.53701 30.408 7.13701C30.408 9.83701 32.608 11.937 35.108 11.937C35.808 11.937 36.708 11.737 37.408 11.237L34.708 8.53701H36.508L38.408 10.437Z" fill="#5B9CD6"/>
<path d="M44.008 1.23706V8.23706C44.008 10.1371 44.608 11.9371 46.908 11.9371C49.208 11.9371 49.708 10.1371 49.708 8.23706V1.23706H51.208V8.73706C51.208 11.3371 49.608 13.3371 46.908 13.3371C44.208 13.3371 42.608 11.3371 42.608 8.73706V1.23706H44.008Z" fill="#5B9CD6"/>
<path d="M53.208 1.23706H59.508V2.53706H54.708V5.83706H59.408V7.13706H54.708V11.6371H59.608V12.9371H53.308V1.23706H53.208Z" fill="#5B9CD6"/>
<path d="M29.708 41.237C29.708 50.137 25.408 59.637 15.208 59.637C5.00801 59.637 0.708008 50.137 0.708008 41.237C0.708008 32.337 5.00801 22.837 15.208 22.837C25.308 22.737 29.708 32.337 29.708 41.237ZM9.50801 41.137C9.50801 44.437 10.608 51.737 15.208 51.737C19.808 51.737 20.908 44.437 20.908 41.137C20.908 37.837 19.808 30.537 15.208 30.537C10.608 30.637 9.50801 37.837 9.50801 41.137Z" fill="#5B9CD6"/>
<path d="M44.408 31.637L43.808 35.537L46.608 35.337C53.608 34.837 58.708 40.537 58.708 47.537C58.708 51.137 57.108 54.437 54.308 56.737C51.608 58.937 47.708 59.637 44.308 59.637C40.408 59.637 36.508 58.637 33.208 56.537L34.508 48.137C37.108 50.537 40.508 52.037 44.008 52.037C46.808 52.037 49.408 50.037 49.408 47.037C49.408 42.937 45.508 41.237 41.908 41.237C39.608 41.237 37.408 41.737 35.408 42.637L38.408 24.137H56.208V31.637H44.408Z" fill="#5B9CD6"/>
<path d="M107.108 42.2371C107.108 52.9371 98.408 61.6371 87.708 61.6371C77.008 61.6371 68.208 52.9371 68.208 42.2371C68.208 31.5371 76.908 22.7371 87.708 22.7371C98.308 22.8371 107.108 31.5371 107.108 42.2371Z" fill="#9CB5C9"/>
<path d="M128.108 30.137H124.808V13.037H129.308C132.908 13.037 135.208 14.437 135.208 18.337C135.208 21.937 133.208 23.737 129.708 23.737H128.008V30.137H128.108ZM128.108 20.937H128.808C130.808 20.937 131.808 20.537 131.808 18.337C131.808 16.137 130.508 15.837 128.708 15.837H128.108V20.937Z" fill="#858686"/>
<path d="M148.308 30.137H144.308L140.208 23.237V30.137H136.708V13.037H141.208C144.608 13.037 146.908 14.537 146.908 18.137C146.908 20.337 145.708 22.437 143.408 22.837L148.308 30.137ZM140.108 20.937H140.508C142.308 20.937 143.608 20.437 143.608 18.337C143.608 16.237 142.308 15.837 140.508 15.837H140.008V20.937H140.108Z" fill="#858686"/>
<path d="M157.008 30.537C151.808 30.537 148.608 26.537 148.608 21.537C148.608 16.437 152.008 12.537 157.008 12.537C162.008 12.537 165.408 16.437 165.408 21.537C165.408 26.537 162.208 30.537 157.008 30.537ZM157.008 15.837C153.908 15.837 152.008 18.637 152.008 21.337C152.008 23.937 153.308 27.237 157.008 27.237C160.708 27.237 162.008 24.037 162.008 21.337C162.008 18.637 160.108 15.837 157.008 15.837Z" fill="#858686"/>
<path d="M165.508 13.037H169.408L172.408 18.937L175.708 13.037H179.608L174.208 22.237V30.037H170.908V22.237L165.508 13.037Z" fill="#858686"/>
<path d="M183.708 15.937V19.737H189.008V22.637H183.708V27.237H189.208V30.137H180.408V13.037H189.208V15.937H183.708Z" fill="#858686"/>
<path d="M202.808 17.537C201.908 16.437 200.508 15.737 199.008 15.737C195.808 15.737 194.008 18.637 194.008 21.637C194.008 24.537 195.908 27.337 199.008 27.337C200.408 27.337 201.908 26.637 202.808 25.537V29.537C201.608 30.137 200.308 30.537 198.908 30.537C194.108 30.537 190.508 26.437 190.508 21.637C190.508 16.837 193.908 12.537 198.908 12.537C200.208 12.537 201.508 12.937 202.708 13.537V17.537H202.808Z" fill="#858686"/>
<path d="M210.608 30.137H207.308V15.937H203.908V13.037H214.108V15.937H210.708V30.137H210.608Z" fill="#858686"/>
<path d="M222.908 30.537C217.708 30.537 214.508 26.537 214.508 21.537C214.508 16.437 217.908 12.537 222.908 12.537C227.908 12.537 231.308 16.437 231.308 21.537C231.308 26.537 228.108 30.537 222.908 30.537ZM222.908 15.837C219.808 15.837 217.908 18.637 217.908 21.337C217.908 23.937 219.208 27.237 222.908 27.237C226.608 27.237 227.908 24.037 227.908 21.337C227.908 18.637 226.008 15.837 222.908 15.837Z" fill="#858686"/>
<path d="M241.008 16.837C240.408 15.937 239.608 15.437 238.408 15.437C237.308 15.437 236.308 16.237 236.308 17.337C236.308 20.237 243.108 19.037 243.108 24.737C243.108 28.137 241.008 30.537 237.508 30.537C235.108 30.537 233.408 29.137 232.208 27.237L234.408 25.137C234.908 26.437 236.108 27.637 237.508 27.637C238.908 27.637 239.708 26.437 239.708 25.137C239.708 23.337 238.108 22.837 236.708 22.337C234.508 21.437 232.908 20.337 232.908 17.637C232.908 14.837 235.008 12.537 237.908 12.537C239.408 12.537 241.508 13.237 242.608 14.437L241.008 16.837Z" fill="#858686"/>
<path d="M136.308 57.2369H132.308L128.208 50.3369V57.2369H124.908V40.2369H129.408C132.808 40.2369 135.108 41.7369 135.108 45.3369C135.108 47.5369 133.908 49.6369 131.608 50.0369L136.308 57.2369ZM128.108 48.0369H128.508C130.308 48.0369 131.608 47.5369 131.608 45.4369C131.608 43.3369 130.308 42.9369 128.508 42.9369H128.008V48.0369H128.108Z" fill="#858686"/>
<path d="M140.708 43.1369V46.9369H146.008V49.8369H140.708V54.4369H146.208V57.3369H137.408V40.2369H146.208V43.1369H140.708Z" fill="#858686"/>
<path d="M156.508 43.937C155.908 43.037 155.108 42.537 153.908 42.537C152.808 42.537 151.808 43.337 151.808 44.437C151.808 47.337 158.608 46.137 158.608 51.837C158.608 55.237 156.508 57.637 153.008 57.637C150.608 57.637 148.908 56.237 147.708 54.337L149.908 52.237C150.408 53.537 151.608 54.737 153.008 54.737C154.408 54.737 155.208 53.537 155.208 52.237C155.208 50.437 153.608 49.937 152.208 49.437C150.008 48.537 148.408 47.437 148.408 44.737C148.408 41.937 150.508 39.637 153.408 39.637C154.908 39.637 157.008 40.337 158.108 41.537L156.508 43.937Z" fill="#858686"/>
<path d="M163.708 57.2369H160.408V40.2369H163.708V57.2369Z" fill="#858686"/>
<path d="M166.108 40.2369H170.908C175.808 40.2369 179.108 43.9369 179.108 48.8369C179.108 53.6369 175.708 57.3369 170.808 57.3369H166.108V40.2369ZM169.408 54.3369H169.908C174.008 54.3369 175.608 52.0369 175.608 48.7369C175.608 45.0369 173.708 43.1369 169.908 43.1369H169.408V54.3369Z" fill="#858686"/>
<path d="M184.108 43.1369V46.9369H189.408V49.8369H184.108V54.4369H189.608V57.3369H180.708V40.2369H189.508V43.1369H184.108Z" fill="#858686"/>
<path d="M191.808 39.7369H194.208L203.208 51.6369V40.2369H206.508V57.6369H204.108L195.108 45.7369V57.3369H191.808V39.7369Z" fill="#858686"/>
<path d="M220.408 44.7369C219.508 43.6369 218.108 42.9369 216.608 42.9369C213.408 42.9369 211.608 45.8369 211.608 48.8369C211.608 51.7369 213.508 54.5369 216.608 54.5369C218.008 54.5369 219.508 53.8369 220.408 52.7369V56.7369C219.208 57.3369 217.908 57.7369 216.508 57.7369C211.708 57.7369 208.108 53.6369 208.108 48.8369C208.108 44.0369 211.508 39.7369 216.508 39.7369C217.808 39.7369 219.108 40.1369 220.308 40.7369V44.7369H220.408Z" fill="#858686"/>
<path d="M225.908 57.2369H222.608V40.2369H225.908V57.2369Z" fill="#858686"/>
<path d="M231.808 53.6369L230.408 57.2369H226.908L233.608 39.7369H236.208L242.708 57.2369H239.108L237.808 53.6369H231.808ZM234.708 44.7369L232.808 50.9369H236.908L234.708 44.7369Z" fill="#858686"/>
<path d="M247.008 54.3369H251.708V57.2369H243.708V40.2369H247.008V54.3369Z" fill="#858686"/>
<path d="M256.108 43.1369V46.9369H261.408V49.8369H256.108V54.4369H261.608V57.3369H252.808V40.2369H261.608V43.1369H256.108Z" fill="#858686"/>
<path d="M271.908 43.937C271.308 43.037 270.508 42.537 269.308 42.537C268.208 42.537 267.208 43.337 267.208 44.437C267.208 47.337 274.008 46.137 274.008 51.837C274.008 55.237 271.908 57.637 268.408 57.637C266.008 57.637 264.308 56.237 263.108 54.337L265.308 52.237C265.808 53.537 267.008 54.737 268.408 54.737C269.808 54.737 270.608 53.537 270.608 52.237C270.608 50.437 269.008 49.937 267.608 49.437C265.408 48.537 263.808 47.437 263.808 44.737C263.808 41.937 265.908 39.637 268.808 39.637C270.308 39.637 272.408 40.337 273.508 41.537L271.908 43.937Z" fill="#858686"/>
</g>
<defs>
<clipPath id="clip0">
<rect width="273.3" height="60.8" fill="white" transform="translate(0.708008 0.937012)"/>
</clipPath>
</defs>
</svg>
