<svg width="240" height="61" viewBox="0 0 240 61" fill="none" xmlns="http://www.w3.org/2000/svg">
<g clip-path="url(#clip0)">
<path d="M0.0919189 1.12061H1.49192C3.69192 1.12061 5.79192 1.72061 5.79192 4.32061C5.79192 5.22061 5.29192 6.2206 4.49192 6.52061C5.89192 6.82061 6.89192 8.1206 6.89192 9.52061C6.89192 11.9206 4.89192 12.8206 2.79192 12.8206H0.0919189V1.12061ZM1.59192 6.32061H1.99192C3.39192 6.32061 4.49192 6.02061 4.49192 4.32061C4.49192 2.62061 3.39192 2.42061 1.99192 2.42061H1.59192V6.32061ZM1.59192 11.5206H2.69192C4.09192 11.5206 5.49192 11.1206 5.49192 9.42061C5.49192 7.72061 3.79192 7.42061 2.49192 7.42061H1.59192V11.5206Z" fill="#5B9CD6"/>
<path d="M10.0919 11.5206H13.6919V12.8206H8.59192V1.12061H10.0919V11.5206Z" fill="#5B9CD6"/>
<path d="M26.1919 7.02056C26.1919 10.5206 23.3919 13.2206 19.9919 13.2206C16.5919 13.2206 13.7919 10.6206 13.7919 7.02056C13.7919 3.62056 16.5919 0.820557 19.9919 0.820557C23.3919 0.820557 26.1919 3.62056 26.1919 7.02056ZM24.6919 7.02056C24.6919 4.42056 22.7919 2.22056 19.9919 2.22056C17.1919 2.22056 15.2919 4.42056 15.2919 7.02056C15.2919 9.72056 17.4919 11.8206 19.9919 11.8206C22.4919 11.8206 24.6919 9.72056 24.6919 7.02056Z" fill="#5B9CD6"/>
<path d="M37.2919 13.1206L36.2919 12.1206C35.2919 12.8206 34.0919 13.1206 32.8919 13.1206C29.4919 13.1206 26.6919 10.5206 26.6919 6.92058C26.6919 3.52058 29.4919 0.720581 32.8919 0.720581C36.2919 0.720581 39.0919 3.52058 39.0919 6.92058C39.0919 8.62058 38.3919 10.2206 37.1919 11.3206L38.9919 13.1206H37.2919ZM36.2919 10.3206C37.1919 9.52058 37.6919 8.12058 37.6919 7.02058C37.6919 4.42058 35.7919 2.22058 32.9919 2.22058C30.1919 2.22058 28.2919 4.42058 28.2919 7.02058C28.2919 9.72058 30.4919 11.8206 32.9919 11.8206C33.6919 11.8206 34.5919 11.6206 35.2919 11.1206L32.5919 8.52058H34.3919L36.2919 10.3206Z" fill="#5B9CD6"/>
<path d="M41.7919 1.12061V8.1206C41.7919 10.0206 42.3919 11.8206 44.5919 11.8206C46.8919 11.8206 47.4919 10.0206 47.4919 8.1206V1.12061H48.9919V8.6206C48.9919 11.2206 47.3919 13.2206 44.6919 13.2206C41.9919 13.2206 40.3919 11.2206 40.3919 8.6206V1.12061H41.7919Z" fill="#5B9CD6"/>
<path d="M51.0919 1.12061H57.3919V2.42061H52.4919V5.72061H57.1919V7.02061H52.4919V11.5206H57.3919V12.8206H51.0919V1.12061Z" fill="#5B9CD6"/>
<path d="M4.79193 31.5206V24.0206H18.5919V58.2206H9.69193V31.5206H4.79193Z" fill="#5B9CD6"/>
<path d="M35.7919 58.2206L45.4919 46.7206L45.3919 46.6206C43.8919 47.3206 42.3919 47.6206 40.5919 47.6206C33.8919 47.6206 29.5919 41.8206 29.5919 35.6206C29.5919 27.2206 36.4919 22.7206 44.2919 22.7206C47.5919 22.7206 51.3919 23.5206 53.9919 25.6206C56.7919 27.8206 58.5919 31.4206 58.5919 35.0206C58.5919 39.9206 56.0919 44.7206 53.0919 48.6206L45.7919 58.2206H35.7919ZM38.8919 35.3206C38.8919 38.4206 41.2919 40.9206 44.3919 40.9206C47.4919 40.9206 50.0919 38.4206 50.0919 35.3206C50.0919 32.2206 47.5919 29.7206 44.3919 29.7206C41.1919 29.7206 38.8919 32.2206 38.8919 35.3206Z" fill="#5B9CD6"/>
<path d="M67.1919 23.4205V60.8205H103.692V59.9205C103.692 39.8205 87.3919 23.4205 67.1919 23.4205Z" fill="#9CB5C9"/>
<path d="M131.492 32.6206C130.892 31.7206 130.092 31.2206 128.892 31.2206C127.792 31.2206 126.792 32.0206 126.792 33.1206C126.792 36.0206 133.592 34.8206 133.592 40.5206C133.592 43.9206 131.492 46.3206 127.992 46.3206C125.592 46.3206 123.892 44.9206 122.692 43.0206L124.892 40.9206C125.392 42.2206 126.592 43.4206 127.992 43.4206C129.392 43.4206 130.192 42.2206 130.192 40.9206C130.192 39.1206 128.592 38.6206 127.192 38.1206C124.992 37.2206 123.392 36.1206 123.392 33.4206C123.392 30.6206 125.492 28.3206 128.392 28.3206C129.892 28.3206 131.992 29.0206 133.092 30.2206L131.492 32.6206Z" fill="#858686"/>
<path d="M138.692 31.8205V35.6205H143.992V38.5205H138.692V43.1205H144.192V46.0205H135.392V28.9205H144.192V31.8205H138.692Z" fill="#858686"/>
<path d="M161.492 36.9205V37.3205C161.492 42.1205 158.992 46.4205 153.692 46.4205C148.692 46.4205 145.592 42.2205 145.592 37.5205C145.592 32.6205 148.792 28.4205 153.892 28.4205C156.792 28.4205 159.292 29.9205 160.592 32.5205L157.692 34.1205C156.992 32.6205 155.592 31.4205 153.792 31.4205C150.592 31.4205 148.992 34.7205 148.992 37.5205C148.992 40.3205 150.592 43.5205 153.792 43.5205C155.892 43.5205 157.592 41.7205 157.692 39.6205H154.092V36.9205H161.492Z" fill="#858686"/>
<path d="M163.092 28.9205H166.392V38.5205C166.392 40.6205 166.592 43.6205 169.392 43.6205C172.192 43.6205 172.392 40.6205 172.392 38.5205V28.9205H175.692V39.1205C175.692 43.3205 173.892 46.4205 169.392 46.4205C164.792 46.4205 163.092 43.3205 163.092 39.1205V28.9205Z" fill="#858686"/>
<path d="M189.692 45.9205H185.692L181.592 39.0205V45.9205H178.092V28.9205H182.592C185.992 28.9205 188.292 30.4205 188.292 34.0205C188.292 36.2205 187.092 38.3205 184.792 38.7205L189.692 45.9205ZM181.492 36.7205H181.892C183.692 36.7205 184.992 36.2205 184.992 34.1205C184.992 32.0205 183.692 31.6205 181.892 31.6205H181.392V36.7205H181.492Z" fill="#858686"/>
<path d="M194.092 45.9205H190.792V28.9205H194.092V45.9205Z" fill="#858686"/>
<path d="M196.492 28.9205H201.292C206.192 28.9205 209.492 32.6205 209.492 37.5205C209.492 42.3205 206.092 46.0205 201.192 46.0205H196.492V28.9205ZM199.892 43.1205H200.392C204.492 43.1205 206.092 40.8205 206.092 37.5205C206.092 33.8205 204.192 31.9205 200.392 31.9205H199.892V43.1205Z" fill="#858686"/>
<path d="M214.692 42.3205L213.292 45.9205H209.792L216.492 28.4205H219.092L225.592 45.9205H221.992L220.692 42.3205H214.692ZM217.492 33.4205L215.592 39.6205H219.692L217.492 33.4205Z" fill="#858686"/>
<path d="M226.492 28.9205H231.292C236.192 28.9205 239.492 32.6205 239.492 37.5205C239.492 42.3205 236.092 46.0205 231.192 46.0205H226.492V28.9205ZM229.792 43.1205H230.292C234.392 43.1205 235.992 40.8205 235.992 37.5205C235.992 33.8205 234.092 31.9205 230.292 31.9205H229.792V43.1205Z" fill="#858686"/>
</g>
<defs>
<clipPath id="clip0">
<rect width="239.4" height="60" fill="white" transform="translate(0.0919189 0.820557)"/>
</clipPath>
</defs>
</svg>
