<svg width="331" height="59" viewBox="0 0 331 59" fill="none" xmlns="http://www.w3.org/2000/svg">
<g clip-path="url(#clip0)">
<path d="M0.682251 0.588379H2.08225C4.28225 0.588379 6.38225 1.18838 6.38225 3.78838C6.38225 4.68838 5.88225 5.68838 5.08225 5.98838C6.48225 6.28838 7.48225 7.58838 7.48225 8.98838C7.48225 11.3884 5.48225 12.2884 3.38225 12.2884H0.682251V0.588379ZM2.18225 5.78838H2.58225C3.98225 5.78838 5.08225 5.48838 5.08225 3.78838C5.08225 2.08838 3.98225 1.88838 2.58225 1.88838H2.18225V5.78838ZM2.18225 10.9884H3.28225C4.68225 10.9884 6.08225 10.5884 6.08225 8.88838C6.08225 7.18838 4.38225 6.88838 3.08225 6.88838H2.18225V10.9884Z" fill="#5B9CD6"/>
<path d="M10.6823 10.9884H14.2823V12.2884H9.18225V0.588379H10.6823V10.9884Z" fill="#5B9CD6"/>
<path d="M26.7823 6.48857C26.7823 9.98857 23.9823 12.6886 20.5823 12.6886C17.1823 12.6886 14.3823 10.0886 14.3823 6.48857C14.3823 3.08857 17.1823 0.288574 20.5823 0.288574C23.9823 0.288574 26.7823 3.08857 26.7823 6.48857ZM25.2823 6.48857C25.2823 3.88857 23.3823 1.68857 20.5823 1.68857C17.7823 1.68857 15.8823 3.88857 15.8823 6.48857C15.8823 9.18857 18.0823 11.2886 20.5823 11.2886C23.0823 11.2886 25.2823 9.18857 25.2823 6.48857Z" fill="#5B9CD6"/>
<path d="M37.8822 12.5885L36.8822 11.5885C35.8822 12.2885 34.6822 12.5885 33.4822 12.5885C30.0822 12.5885 27.2822 9.98848 27.2822 6.38848C27.2822 2.98848 30.0822 0.188477 33.4822 0.188477C36.8822 0.188477 39.6822 2.98848 39.6822 6.38848C39.6822 8.08848 38.9822 9.68848 37.8822 10.7885L39.6822 12.5885H37.8822ZM36.8822 9.78848C37.7822 8.98848 38.2822 7.58848 38.2822 6.48848C38.2822 3.88848 36.3822 1.68848 33.5822 1.68848C30.7822 1.68848 28.8822 3.88848 28.8822 6.48848C28.8822 9.18848 31.0822 11.2885 33.5822 11.2885C34.2822 11.2885 35.1822 11.0885 35.8822 10.5885L33.1822 7.98848H34.9822L36.8822 9.78848Z" fill="#5B9CD6"/>
<path d="M42.3822 0.588379V7.58838C42.3822 9.48838 42.9822 11.2884 45.2822 11.2884C47.5822 11.2884 48.0822 9.48838 48.0822 7.58838V0.588379H49.5822V8.08838C49.5822 10.6884 47.9822 12.6884 45.2822 12.6884C42.5822 12.6884 40.9822 10.6884 40.9822 8.08838V0.588379H42.3822Z" fill="#5B9CD6"/>
<path d="M51.6823 0.588379H57.9823V1.88838H53.0823V5.18838H57.7822V6.48838H53.0823V10.9884H57.9823V12.2884H51.6823V0.588379Z" fill="#5B9CD6"/>
<path d="M5.38226 30.9883V23.4883H19.1823V57.6883H10.2823V30.9883H5.38226Z" fill="#5B9CD6"/>
<path d="M59.1823 40.5884C59.1823 49.4884 54.8823 58.9884 44.6823 58.9884C34.4823 58.9884 30.1823 49.3884 30.1823 40.5884C30.1823 31.7884 34.5823 22.0884 44.6823 22.0884C54.8823 22.0884 59.1823 31.6884 59.1823 40.5884ZM39.0823 40.4884C39.0823 43.7884 40.1822 51.0884 44.7822 51.0884C49.3822 51.0884 50.4823 43.7884 50.4823 40.4884C50.4823 37.1884 49.2823 29.9884 44.6823 29.9884C40.1823 29.9884 39.0823 37.1884 39.0823 40.4884Z" fill="#5B9CD6"/>
<path d="M67.7822 20.6885V58.0885H104.282V57.1885C104.282 36.9885 87.9822 20.6885 67.7822 20.6885Z" fill="#A9C5DC"/>
<path d="M126.582 29.9884H123.282V12.8884H127.782C131.382 12.8884 133.682 14.2884 133.682 18.1884C133.682 21.7884 131.682 23.5884 128.182 23.5884H126.482V29.9884H126.582ZM126.582 20.8884H127.282C129.282 20.8884 130.282 20.4884 130.282 18.2884C130.282 16.0884 128.982 15.7884 127.182 15.7884H126.582V20.8884Z" fill="#858686"/>
<path d="M146.682 29.9884H142.682L138.582 23.0884V29.9884H135.282V12.8884H139.782C143.182 12.8884 145.482 14.3884 145.482 17.9884C145.482 20.1884 144.282 22.2884 141.982 22.6884L146.682 29.9884ZM138.482 20.7884H138.882C140.682 20.7884 141.982 20.2884 141.982 18.1884C141.982 16.0884 140.682 15.6884 138.882 15.6884H138.382V20.7884H138.482Z" fill="#858686"/>
<path d="M155.482 30.4885C150.282 30.4885 147.082 26.4885 147.082 21.4885C147.082 16.3885 150.482 12.4885 155.482 12.4885C160.482 12.4885 163.882 16.3885 163.882 21.4885C163.882 26.4885 160.682 30.4885 155.482 30.4885ZM155.482 15.7885C152.382 15.7885 150.482 18.5885 150.482 21.2885C150.482 23.8885 151.782 27.1885 155.482 27.1885C159.182 27.1885 160.482 23.9885 160.482 21.2885C160.482 18.5885 158.582 15.7885 155.482 15.7885Z" fill="#858686"/>
<path d="M163.982 12.8884H167.882L170.882 18.7884L174.182 12.8884H178.082L172.682 22.0884V29.8884H169.382V22.0884L163.982 12.8884Z" fill="#858686"/>
<path d="M182.182 15.7884V19.5884H187.482V22.4884H182.182V27.0884H187.682V29.9884H178.882V12.8884H187.682V15.7884H182.182Z" fill="#858686"/>
<path d="M201.282 17.4885C200.382 16.3885 198.982 15.6885 197.482 15.6885C194.282 15.6885 192.482 18.5885 192.482 21.5885C192.482 24.4885 194.382 27.2885 197.482 27.2885C198.882 27.2885 200.382 26.5885 201.282 25.4885V29.4885C200.082 30.0885 198.782 30.4885 197.382 30.4885C192.582 30.4885 188.982 26.3885 188.982 21.5885C188.982 16.7885 192.382 12.4885 197.382 12.4885C198.682 12.4885 199.982 12.8885 201.182 13.4885V17.4885H201.282Z" fill="#858686"/>
<path d="M208.982 29.9884H205.682V15.7884H202.282V12.8884H212.482V15.7884H209.082V29.9884H208.982Z" fill="#858686"/>
<path d="M221.282 30.4885C216.082 30.4885 212.882 26.4885 212.882 21.4885C212.882 16.3885 216.282 12.4885 221.282 12.4885C226.282 12.4885 229.682 16.3885 229.682 21.4885C229.782 26.4885 226.482 30.4885 221.282 30.4885ZM221.282 15.7885C218.182 15.7885 216.282 18.5885 216.282 21.2885C216.282 23.8885 217.582 27.1885 221.282 27.1885C224.982 27.1885 226.282 23.9885 226.282 21.2885C226.282 18.5885 224.482 15.7885 221.282 15.7885Z" fill="#858686"/>
<path d="M239.482 16.6884C238.882 15.7884 238.082 15.2884 236.882 15.2884C235.782 15.2884 234.782 16.0884 234.782 17.1884C234.782 20.0884 241.582 18.8884 241.582 24.5884C241.582 27.9884 239.482 30.3884 235.982 30.3884C233.582 30.3884 231.882 28.9884 230.682 27.0884L232.882 24.9884C233.382 26.2884 234.582 27.4884 235.982 27.4884C237.382 27.4884 238.182 26.2884 238.182 24.9884C238.182 23.1884 236.582 22.6884 235.182 22.1884C232.982 21.2884 231.382 20.1884 231.382 17.4884C231.382 14.6884 233.482 12.3884 236.382 12.3884C237.882 12.3884 239.982 13.0884 241.082 14.2884L239.482 16.6884Z" fill="#858686"/>
<path d="M134.582 44.5884C133.682 43.4884 132.282 42.7884 130.782 42.7884C127.582 42.7884 125.782 45.6884 125.782 48.6884C125.782 51.5884 127.682 54.3884 130.782 54.3884C132.182 54.3884 133.682 53.6884 134.582 52.5884V56.5884C133.382 57.1884 132.082 57.5884 130.682 57.5884C125.882 57.5884 122.282 53.4884 122.282 48.6884C122.282 43.8884 125.682 39.5884 130.682 39.5884C131.982 39.5884 133.282 39.9884 134.482 40.5884V44.5884H134.582Z" fill="#858686"/>
<path d="M144.482 57.5884C139.282 57.5884 136.082 53.5884 136.082 48.5884C136.082 43.4884 139.482 39.5884 144.482 39.5884C149.582 39.5884 152.882 43.4884 152.882 48.5884C152.882 53.6884 149.682 57.5884 144.482 57.5884ZM144.482 42.9884C141.382 42.9884 139.482 45.7884 139.482 48.4884C139.482 51.0884 140.782 54.3884 144.482 54.3884C148.182 54.3884 149.482 51.1884 149.482 48.4884C149.482 45.6884 147.582 42.9884 144.482 42.9884Z" fill="#858686"/>
<path d="M167.282 46.5885L163.382 57.3885H162.182L158.482 46.5885L156.982 57.1885H153.582L156.482 39.6885H158.882L163.082 50.8885L167.082 39.6885H169.482L172.082 57.1885H168.682L167.282 46.5885Z" fill="#858686"/>
<path d="M176.782 42.9884V46.7884H182.082V49.6884H176.782V54.2884H182.282V57.1884H173.482V40.0884H182.282V42.9884H176.782Z" fill="#858686"/>
<path d="M196.082 57.1884H192.082L187.982 50.2884V57.1884H184.682V40.0884H189.182C192.582 40.0884 194.882 41.5884 194.882 45.1884C194.882 47.3884 193.682 49.4884 191.382 49.8884L196.082 57.1884ZM187.882 47.9884H188.282C190.082 47.9884 191.382 47.4884 191.382 45.3884C191.382 43.2884 190.082 42.8884 188.282 42.8884H187.782V47.9884H187.882Z" fill="#858686"/>
<path d="M208.582 44.5884C207.682 43.4884 206.282 42.7884 204.782 42.7884C201.582 42.7884 199.782 45.6884 199.782 48.6884C199.782 51.5884 201.682 54.3884 204.782 54.3884C206.182 54.3884 207.682 53.6884 208.582 52.5884V56.5884C207.382 57.1884 206.082 57.5884 204.682 57.5884C199.882 57.5884 196.282 53.4884 196.282 48.6884C196.282 43.8884 199.682 39.5884 204.682 39.5884C205.982 39.5884 207.282 39.9884 208.482 40.5884V44.5884H208.582Z" fill="#858686"/>
<path d="M214.082 57.1884H210.782V40.0884H214.082V57.1884Z" fill="#858686"/>
<path d="M219.982 53.5885L218.582 57.1885H215.082L221.782 39.6885H224.382L230.882 57.1885H227.282L225.982 53.5885H219.982ZM222.882 44.6885L220.982 50.8885H225.082L222.882 44.6885Z" fill="#858686"/>
<path d="M235.182 54.2884H239.882V57.1884H231.882V40.0884H235.182V54.2884Z" fill="#858686"/>
<path d="M244.282 42.9884V46.7884H249.582V49.6884H244.282V54.2884H249.782V57.1884H240.982V40.0884H249.782V42.9884H244.282Z" fill="#858686"/>
<path d="M259.982 43.8884C259.382 42.9884 258.582 42.4884 257.382 42.4884C256.282 42.4884 255.282 43.2884 255.282 44.3884C255.282 47.2884 262.082 46.0884 262.082 51.7884C262.082 55.1884 259.982 57.5884 256.482 57.5884C254.082 57.5884 252.382 56.1884 251.182 54.2884L253.382 52.1884C253.882 53.4884 255.082 54.6884 256.482 54.6884C257.882 54.6884 258.682 53.4884 258.682 52.1884C258.682 50.3884 257.082 49.8884 255.682 49.3884C253.482 48.4884 251.882 47.3884 251.882 44.6884C251.882 41.8884 253.982 39.5884 256.882 39.5884C258.382 39.5884 260.482 40.2884 261.582 41.4884L259.982 43.8884Z" fill="#858686"/>
</g>
<circle cx="315.62" cy="39.0102" r="13.2082" fill="#009DE0"/>
<path d="M312.457 22.4216C312.457 22.1476 312.566 21.8848 312.76 21.691C312.953 21.4973 313.216 21.3884 313.49 21.3884H317.623C317.897 21.3884 318.16 21.4973 318.354 21.691C318.547 21.8848 318.656 22.1476 318.656 22.4216C318.656 22.6956 318.547 22.9584 318.354 23.1522C318.16 23.346 317.897 23.4548 317.623 23.4548V24.6326C320.433 25.0377 322.983 26.2444 325.029 28.0215C325.037 28.0125 325.045 28.0035 325.054 27.9947L325.785 27.2632L325.054 26.5337C324.86 26.34 324.751 26.0771 324.75 25.8029C324.75 25.5288 324.859 25.2658 325.053 25.0718C325.246 24.8777 325.509 24.7686 325.783 24.7685C326.058 24.7683 326.321 24.877 326.515 25.0707L329.437 27.9947C329.535 28.09 329.614 28.204 329.668 28.33C329.722 28.4561 329.751 28.5916 329.752 28.7288C329.753 28.866 329.727 29.0021 329.675 29.129C329.623 29.256 329.546 29.3714 329.449 29.4684C329.352 29.5654 329.237 29.6421 329.11 29.6941C328.983 29.746 328.847 29.7722 328.71 29.771C328.573 29.7698 328.437 29.7413 328.311 29.6871C328.185 29.633 328.071 29.5543 327.976 29.4556L327.246 28.7241L326.515 29.4556C326.506 29.464 326.497 29.4723 326.488 29.4804C328.592 31.9091 329.827 34.9693 329.999 38.178C330.171 41.3867 329.269 44.5612 327.437 47.2007C325.604 49.8402 322.945 51.7943 319.878 52.7548C316.812 53.7152 313.513 53.6272 310.502 52.5047C307.491 51.3822 304.94 49.2891 303.25 46.5557C301.561 43.8223 300.83 40.6042 301.173 37.4092C301.515 34.2142 302.912 31.2242 305.142 28.9111C307.373 26.598 310.31 25.0934 313.49 24.6347V23.4548C313.216 23.4548 312.953 23.346 312.76 23.1522C312.566 22.9584 312.457 22.6956 312.457 22.4216ZM315.557 26.5544C313.928 26.5545 312.316 26.8753 310.812 27.4985C309.308 28.1217 307.941 29.0351 306.79 30.1865C304.465 32.5118 303.159 35.6655 303.159 38.9537C303.16 42.2419 304.466 45.3954 306.792 47.7203C309.117 50.0453 312.27 51.3512 315.559 51.351C318.847 51.3507 322 50.0442 324.325 47.7189C326.65 45.3935 327.956 42.2399 327.956 38.9516C327.956 35.6634 326.649 32.51 324.324 30.185C321.999 27.8601 318.845 26.5541 315.557 26.5544Z" fill="#009DE0"/>
<path d="M313.183 42.332V43.802H307.037V42.332H309.221V35.906L307.191 37.124V35.514L309.963 33.834H311.013V42.332H313.183ZM318.596 37.432C319.221 37.432 319.772 37.5673 320.248 37.838C320.724 38.0993 321.092 38.4727 321.354 38.958C321.615 39.434 321.746 39.9847 321.746 40.61C321.746 41.2633 321.596 41.842 321.298 42.346C320.999 42.8407 320.57 43.228 320.01 43.508C319.45 43.7787 318.801 43.914 318.064 43.914C317.438 43.914 316.822 43.8113 316.216 43.606C315.609 43.3913 315.11 43.1067 314.718 42.752L315.32 41.436C316.225 42.1267 317.149 42.472 318.092 42.472C318.717 42.472 319.193 42.318 319.52 42.01C319.856 41.6927 320.024 41.2447 320.024 40.666C320.024 40.1153 319.851 39.6767 319.506 39.35C319.17 39.014 318.717 38.846 318.148 38.846C317.756 38.846 317.387 38.9207 317.042 39.07C316.696 39.21 316.393 39.42 316.132 39.7H315.04V33.834H321.284V35.234H316.804V37.95C317.308 37.6047 317.905 37.432 318.596 37.432ZM324.988 33.834V35.122C324.988 35.6167 324.904 36.0647 324.736 36.466C324.568 36.858 324.283 37.2547 323.882 37.656L323.168 37.096C323.588 36.648 323.84 36.214 323.924 35.794H323.028V33.834H324.988Z" fill="white"/>
<defs>
<clipPath id="clip0">
<rect width="261.5" height="58.7" fill="white" transform="translate(0.682251 0.288574)"/>
</clipPath>
</defs>
</svg>
