<svg width="230" height="59" viewBox="0 0 230 59" fill="none" xmlns="http://www.w3.org/2000/svg">
<g clip-path="url(#clip0)">
<path d="M0.0919189 0.66626H1.49192C3.69192 0.66626 5.79192 1.26626 5.79192 3.86626C5.79192 4.76626 5.29192 5.76626 4.49192 6.06626C5.89192 6.36626 6.89192 7.66626 6.89192 9.06626C6.89192 11.4663 4.89192 12.3663 2.79192 12.3663H0.0919189V0.66626ZM1.59192 5.86626H1.99192C3.39192 5.86626 4.49192 5.56626 4.49192 3.86626C4.49192 2.16626 3.39192 1.96626 1.99192 1.96626H1.59192V5.86626ZM1.59192 11.0663H2.69192C4.09192 11.0663 5.49192 10.6663 5.49192 8.96626C5.49192 7.26626 3.79192 6.96626 2.49192 6.96626H1.59192V11.0663Z" fill="#5B9CD6"/>
<path d="M10.0919 11.0663H13.6919V12.3663H8.59192V0.66626H10.0919V11.0663Z" fill="#5B9CD6"/>
<path d="M26.1919 6.56621C26.1919 10.0662 23.3919 12.7662 19.9919 12.7662C16.5919 12.7662 13.7919 10.1662 13.7919 6.56621C13.7919 3.16621 16.5919 0.366211 19.9919 0.366211C23.3919 0.366211 26.1919 3.16621 26.1919 6.56621ZM24.6919 6.56621C24.6919 3.96621 22.7919 1.76621 19.9919 1.76621C17.1919 1.76621 15.2919 3.96621 15.2919 6.56621C15.2919 9.26621 17.4919 11.3662 19.9919 11.3662C22.4919 11.3662 24.6919 9.26621 24.6919 6.56621Z" fill="#5B9CD6"/>
<path d="M37.2919 12.6662L36.2919 11.6662C35.2919 12.3662 34.0919 12.6662 32.8919 12.6662C29.4919 12.6662 26.6919 10.0662 26.6919 6.46624C26.6919 3.06624 29.4919 0.266235 32.8919 0.266235C36.2919 0.266235 39.0919 3.06624 39.0919 6.46624C39.0919 8.16623 38.3919 9.76624 37.1919 10.8662L38.9919 12.6662H37.2919ZM36.2919 9.86624C37.1919 9.06624 37.6919 7.66623 37.6919 6.56624C37.6919 3.96624 35.7919 1.76624 32.9919 1.76624C30.1919 1.76624 28.2919 3.96624 28.2919 6.56624C28.2919 9.26624 30.4919 11.3662 32.9919 11.3662C33.6919 11.3662 34.5919 11.1662 35.2919 10.6662L32.5919 8.06624H34.3919L36.2919 9.86624Z" fill="#5B9CD6"/>
<path d="M41.7919 0.66626V7.66626C41.7919 9.56626 42.3919 11.3663 44.5919 11.3663C46.8919 11.3663 47.4919 9.56626 47.4919 7.66626V0.66626H48.9919V8.16626C48.9919 10.7663 47.3919 12.7663 44.6919 12.7663C41.9919 12.7663 40.3919 10.7663 40.3919 8.16626V0.66626H41.7919Z" fill="#5B9CD6"/>
<path d="M51.0919 0.66626H57.3919V1.96626H52.4919V5.26626H57.1919V6.56626H52.4919V11.0663H57.3919V12.3663H51.0919V0.66626Z" fill="#5B9CD6"/>
<path d="M4.79193 31.0663V23.5663H18.5919V57.7663H9.69193V31.0663H4.79193Z" fill="#5B9CD6"/>
<path d="M31.7919 31.0663V23.5663H59.7919L40.1919 57.7663H30.4919L46.0919 31.0663H31.7919Z" fill="#5B9CD6"/>
<path d="M97.3919 8.26624V58.9662H73.4919V32.1662C73.4919 18.9662 84.1919 8.26624 97.3919 8.26624Z" fill="#5797D3"/>
<path d="M130.692 13.8663C130.092 12.9663 129.292 12.4663 128.092 12.4663C126.992 12.4663 125.992 13.2663 125.992 14.3663C125.992 17.2663 132.792 16.0663 132.792 21.7663C132.792 25.1663 130.692 27.5663 127.192 27.5663C124.792 27.5663 123.092 26.1663 121.892 24.2663L124.092 22.1663C124.592 23.4663 125.792 24.6663 127.192 24.6663C128.592 24.6663 129.392 23.4663 129.392 22.1663C129.392 20.3663 127.792 19.8663 126.392 19.3663C124.192 18.4663 122.592 17.3663 122.592 14.6663C122.592 11.8663 124.692 9.56628 127.592 9.56628C129.092 9.56628 131.192 10.2663 132.292 11.4663L130.692 13.8663Z" fill="#858686"/>
<path d="M137.892 27.1663H134.592V10.0663H137.892V27.1663Z" fill="#858686"/>
<path d="M148.392 13.8663C147.792 12.9663 146.992 12.4663 145.792 12.4663C144.692 12.4663 143.692 13.2663 143.692 14.3663C143.692 17.2663 150.492 16.0663 150.492 21.7663C150.492 25.1663 148.392 27.5663 144.892 27.5663C142.492 27.5663 140.792 26.1663 139.592 24.2663L141.792 22.1663C142.292 23.4663 143.492 24.6663 144.892 24.6663C146.292 24.6663 147.092 23.4663 147.092 22.1663C147.092 20.3663 145.492 19.8663 144.092 19.3663C141.892 18.4663 140.292 17.3663 140.292 14.6663C140.292 11.8663 142.392 9.56628 145.292 9.56628C146.792 9.56628 148.892 10.2663 149.992 11.4663L148.392 13.8663Z" fill="#858686"/>
<path d="M157.792 27.1663H154.492V12.9663H151.092V10.0663H161.292V12.9663H157.892V27.1663H157.792Z" fill="#858686"/>
<path d="M165.792 12.9663V16.7663H171.092V19.6663H165.792V24.2663H171.292V27.1663H162.492V10.0663H171.292V12.9663H165.792Z" fill="#858686"/>
<path d="M186.292 16.5663L182.392 27.3663H181.192L177.492 16.5663L175.992 27.1663H172.592L175.492 9.66626H177.892L182.092 20.8663L186.092 9.66626H188.492L191.092 27.1663H187.692L186.292 16.5663Z" fill="#858686"/>
<path d="M195.992 23.5663L194.592 27.1663H191.092L197.792 9.66626H200.392L206.892 27.1663H203.292L201.992 23.5663H195.992ZM198.792 14.6663L196.892 20.8663H200.992L198.792 14.6663Z" fill="#858686"/>
<path d="M215.792 13.8663C215.192 12.9663 214.392 12.4663 213.192 12.4663C212.092 12.4663 211.092 13.2663 211.092 14.3663C211.092 17.2663 217.892 16.0663 217.892 21.7663C217.892 25.1663 215.792 27.5663 212.292 27.5663C209.892 27.5663 208.192 26.1663 206.992 24.2663L209.192 22.1663C209.692 23.4663 210.892 24.6663 212.292 24.6663C213.692 24.6663 214.492 23.4663 214.492 22.1663C214.492 20.3663 212.892 19.8663 211.492 19.3663C209.292 18.4663 207.692 17.3663 207.692 14.6663C207.692 11.8663 209.792 9.56628 212.692 9.56628C214.192 9.56628 216.292 10.2663 217.392 11.4663L215.792 13.8663Z" fill="#858686"/>
<path d="M122.692 37.2662H127.492C132.392 37.2662 135.692 40.9662 135.692 45.8662C135.692 50.6662 132.292 54.3662 127.392 54.3662H122.692V37.2662ZM125.992 51.4662H126.492C130.592 51.4662 132.192 49.1662 132.192 45.8662C132.192 42.1662 130.292 40.2662 126.492 40.2662H125.992V51.4662Z" fill="#858686"/>
<path d="M140.692 40.1662V43.9662H145.992V46.8662H140.692V51.4662H146.192V54.3662H137.392V37.2662H146.192V40.1662H140.692Z" fill="#858686"/>
<path d="M162.992 40.9663C162.392 40.0663 161.592 39.5663 160.392 39.5663C159.292 39.5663 158.292 40.3663 158.292 41.4663C158.292 44.3663 165.092 43.1663 165.092 48.8663C165.092 52.2663 162.992 54.6663 159.492 54.6663C157.092 54.6663 155.392 53.2663 154.192 51.3663L156.392 49.2663C156.892 50.5663 158.092 51.7663 159.492 51.7663C160.892 51.7663 161.692 50.5663 161.692 49.2663C161.692 47.4663 160.092 46.9663 158.692 46.4663C156.492 45.5663 154.892 44.4663 154.892 41.7663C154.892 38.9663 156.992 36.6663 159.892 36.6663C161.392 36.6663 163.492 37.3663 164.592 38.5663L162.992 40.9663Z" fill="#858686"/>
<path d="M166.792 37.2662H170.092V46.8662C170.092 48.9662 170.292 51.9662 173.092 51.9662C175.892 51.9662 176.092 48.9662 176.092 46.8662V37.2662H179.392V47.4662C179.392 51.6662 177.592 54.7662 173.092 54.7662C168.492 54.7662 166.792 51.6662 166.792 47.4662V37.2662Z" fill="#858686"/>
<path d="M185.092 40.1662V43.9662H190.392V46.8662H185.092V51.4662H190.592V54.3662H181.792V37.2662H190.592V40.1662H185.092Z" fill="#858686"/>
<path d="M196.192 51.4662H200.892V54.3662H192.892V37.2662H196.192V51.4662Z" fill="#858686"/>
<path d="M209.592 54.7662C204.392 54.7662 201.192 50.7662 201.192 45.7662C201.192 40.6662 204.592 36.7662 209.592 36.7662C214.592 36.7662 217.992 40.6662 217.992 45.7662C217.992 50.7662 214.792 54.7662 209.592 54.7662ZM209.592 40.0662C206.492 40.0662 204.592 42.8662 204.592 45.5662C204.592 48.1662 205.892 51.4662 209.592 51.4662C213.292 51.4662 214.592 48.2662 214.592 45.5662C214.592 42.8662 212.692 40.0662 209.592 40.0662Z" fill="#858686"/>
<path d="M227.692 40.9662C227.092 40.0662 226.292 39.5662 225.092 39.5662C223.992 39.5662 222.992 40.3662 222.992 41.4662C222.992 44.3662 229.792 43.1662 229.792 48.8662C229.792 52.2662 227.692 54.6662 224.192 54.6662C221.792 54.6662 220.092 53.2662 218.892 51.3662L221.092 49.3662C221.592 50.6662 222.792 51.8662 224.192 51.8662C225.592 51.8662 226.392 50.6662 226.392 49.3662C226.392 47.5662 224.792 47.0662 223.392 46.5662C221.192 45.6662 219.592 44.5662 219.592 41.8662C219.592 39.0662 221.692 36.7662 224.592 36.7662C226.092 36.7662 228.192 37.4662 229.292 38.6662L227.692 40.9662Z" fill="#858686"/>
</g>
<defs>
<clipPath id="clip0">
<rect width="229.7" height="58.5" fill="white" transform="translate(0.0919189 0.366211)"/>
</clipPath>
</defs>
</svg>
