<svg width="339" height="59" viewBox="0 0 339 59" fill="none" xmlns="http://www.w3.org/2000/svg">
<g clip-path="url(#clip0)">
<path d="M0.914307 0.555176H2.31431C4.51431 0.555176 6.61431 1.15518 6.61431 3.75518C6.61431 4.65518 6.11431 5.65518 5.31431 5.95518C6.71431 6.25518 7.71431 7.55518 7.71431 8.95518C7.71431 11.3552 5.71431 12.2552 3.61431 12.2552H0.914307V0.555176ZM2.41431 5.75518H2.81431C4.21431 5.75518 5.31431 5.45518 5.31431 3.75518C5.31431 2.05518 4.21431 1.85518 2.81431 1.85518H2.41431V5.75518ZM2.41431 10.9552H3.51431C4.91431 10.9552 6.31431 10.5552 6.31431 8.85518C6.31431 7.15518 4.61431 6.85518 3.31431 6.85518H2.41431V10.9552Z" fill="#5B9CD6"/>
<path d="M10.9143 10.9552H14.5143V12.2552H9.41431V0.555176H10.9143V10.9552Z" fill="#5B9CD6"/>
<path d="M27.0143 6.45537C27.0143 9.95537 24.2143 12.6554 20.8143 12.6554C17.4143 12.6554 14.6143 10.0554 14.6143 6.45537C14.6143 3.05537 17.4143 0.255371 20.8143 0.255371C24.2143 0.255371 27.0143 3.05537 27.0143 6.45537ZM25.5143 6.45537C25.5143 3.85537 23.6143 1.65537 20.8143 1.65537C18.0143 1.65537 16.1143 3.85537 16.1143 6.45537C16.1143 9.15537 18.3143 11.2554 20.8143 11.2554C23.3143 11.2554 25.5143 9.15537 25.5143 6.45537Z" fill="#5B9CD6"/>
<path d="M38.1143 12.5553L37.1143 11.5553C36.1143 12.2553 34.9143 12.5553 33.7143 12.5553C30.3143 12.5553 27.5143 9.95527 27.5143 6.35527C27.5143 2.95527 30.3143 0.155273 33.7143 0.155273C37.1143 0.155273 39.9143 2.95527 39.9143 6.35527C39.9143 8.05527 39.2143 9.65527 38.0143 10.7553L39.8143 12.5553H38.1143ZM37.1143 9.75527C38.0143 8.95527 38.5143 7.55527 38.5143 6.45527C38.5143 3.85527 36.6143 1.65527 33.8143 1.65527C31.0143 1.65527 29.1143 3.85527 29.1143 6.45527C29.1143 9.15527 31.3143 11.2553 33.8143 11.2553C34.5143 11.2553 35.4143 11.0553 36.1143 10.5553L33.4143 7.95527H35.2143L37.1143 9.75527Z" fill="#5B9CD6"/>
<path d="M42.6144 0.555176V7.55518C42.6144 9.45518 43.2144 11.2552 45.4144 11.2552C47.7144 11.2552 48.3144 9.45518 48.3144 7.55518V0.555176H49.8144V8.05518C49.8144 10.6552 48.2144 12.6552 45.5144 12.6552C42.8144 12.6552 41.2144 10.6552 41.2144 8.05518V0.555176H42.6144Z" fill="#5B9CD6"/>
<path d="M51.9143 0.555176H58.2143V1.85518H53.3143V5.15518H58.0143V6.45518H53.3143V10.9552H58.2143V12.2552H51.9143V0.555176Z" fill="#5B9CD6"/>
<path d="M5.61426 30.9553V23.4553H19.4143V57.6553H10.5143V30.9553H5.61426Z" fill="#5B9CD6"/>
<path d="M32.6142 30.9553V23.4553H60.6142L41.0142 57.6553H31.3142L46.9142 30.9553H32.6142Z" fill="#5B9CD6"/>
<path d="M98.2143 8.15527V58.8553H74.3143V32.0553C74.3143 18.8553 85.0143 8.15527 98.2143 8.15527Z" fill="#5797D3"/>
<path d="M131.514 13.7553C130.914 12.8553 130.114 12.3553 128.914 12.3553C127.814 12.3553 126.814 13.1553 126.814 14.2553C126.814 17.1553 133.614 15.9553 133.614 21.6553C133.614 25.0553 131.514 27.4553 128.014 27.4553C125.614 27.4553 123.914 26.0553 122.714 24.1553L124.914 22.0553C125.414 23.3553 126.614 24.5553 128.014 24.5553C129.414 24.5553 130.214 23.3553 130.214 22.0553C130.214 20.2553 128.614 19.7553 127.214 19.2553C125.014 18.3553 123.414 17.2553 123.414 14.5553C123.414 11.7553 125.514 9.45532 128.414 9.45532C129.914 9.45532 132.014 10.1553 133.114 11.3553L131.514 13.7553Z" fill="#858686"/>
<path d="M138.714 27.0553H135.414V9.95532H138.714V27.0553Z" fill="#858686"/>
<path d="M149.214 13.7553C148.614 12.8553 147.814 12.3553 146.614 12.3553C145.514 12.3553 144.514 13.1553 144.514 14.2553C144.514 17.1553 151.314 15.9553 151.314 21.6553C151.314 25.0553 149.214 27.4553 145.714 27.4553C143.314 27.4553 141.614 26.0553 140.414 24.1553L142.614 22.0553C143.114 23.3553 144.314 24.5553 145.714 24.5553C147.114 24.5553 147.914 23.3553 147.914 22.0553C147.914 20.2553 146.314 19.7553 144.914 19.2553C142.714 18.3553 141.114 17.2553 141.114 14.5553C141.114 11.7553 143.214 9.45532 146.114 9.45532C147.614 9.45532 149.714 10.1553 150.814 11.3553L149.214 13.7553Z" fill="#858686"/>
<path d="M158.614 27.0553H155.314V12.8553H151.914V9.95532H162.114V12.8553H158.714V27.0553H158.614Z" fill="#858686"/>
<path d="M166.614 12.8553V16.6553H171.914V19.5553H166.614V24.1553H172.114V27.0553H163.314V9.95532H172.114V12.8553H166.614Z" fill="#858686"/>
<path d="M187.114 16.4554L183.214 27.2554H182.014L178.314 16.4554L176.814 27.0554H173.414L176.314 9.55542H178.714L182.914 20.7554L186.914 9.55542H189.314L191.914 27.0554H188.514L187.114 16.4554Z" fill="#858686"/>
<path d="M196.814 23.4554L195.414 27.0554H191.914L198.614 9.55542H201.214L207.714 27.0554H204.114L202.814 23.4554H196.814ZM199.614 14.5554L197.714 20.7554H201.814L199.614 14.5554Z" fill="#858686"/>
<path d="M216.614 13.7553C216.014 12.8553 215.214 12.3553 214.014 12.3553C212.914 12.3553 211.914 13.1553 211.914 14.2553C211.914 17.1553 218.714 15.9553 218.714 21.6553C218.714 25.0553 216.614 27.4553 213.114 27.4553C210.714 27.4553 209.014 26.0553 207.814 24.1553L210.014 22.0553C210.514 23.3553 211.714 24.5553 213.114 24.5553C214.514 24.5553 215.314 23.3553 215.314 22.0553C215.314 20.2553 213.714 19.7553 212.314 19.2553C210.114 18.3553 208.514 17.2553 208.514 14.5553C208.514 11.7553 210.614 9.45532 213.514 9.45532C215.014 9.45532 217.114 10.1553 218.214 11.3553L216.614 13.7553Z" fill="#858686"/>
<path d="M123.514 37.1553H128.314C133.214 37.1553 136.514 40.8553 136.514 45.7553C136.514 50.5553 133.114 54.2553 128.214 54.2553H123.514V37.1553ZM126.814 51.3553H127.314C131.414 51.3553 133.014 49.0553 133.014 45.7553C133.014 42.0553 131.114 40.1553 127.314 40.1553H126.814V51.3553Z" fill="#858686"/>
<path d="M141.514 40.0553V43.8553H146.814V46.7553H141.514V51.3553H147.014V54.2553H138.214V37.1553H147.014V40.0553H141.514Z" fill="#858686"/>
<path d="M163.814 40.8552C163.214 39.9552 162.414 39.4552 161.214 39.4552C160.114 39.4552 159.114 40.2552 159.114 41.3552C159.114 44.2552 165.914 43.0552 165.914 48.7552C165.914 52.1552 163.814 54.5552 160.314 54.5552C157.914 54.5552 156.214 53.1552 155.014 51.2552L157.214 49.1552C157.714 50.4552 158.914 51.6552 160.314 51.6552C161.714 51.6552 162.514 50.4552 162.514 49.1552C162.514 47.3552 160.914 46.8552 159.514 46.3552C157.314 45.4552 155.714 44.3552 155.714 41.6552C155.714 38.8552 157.814 36.5552 160.714 36.5552C162.214 36.5552 164.314 37.2552 165.414 38.4552L163.814 40.8552Z" fill="#858686"/>
<path d="M167.614 37.1553H170.914V46.7553C170.914 48.8553 171.114 51.8553 173.914 51.8553C176.714 51.8553 176.914 48.8553 176.914 46.7553V37.1553H180.214V47.3553C180.214 51.5553 178.414 54.6553 173.914 54.6553C169.314 54.6553 167.614 51.5553 167.614 47.3553V37.1553Z" fill="#858686"/>
<path d="M185.914 40.0553V43.8553H191.214V46.7553H185.914V51.3553H191.414V54.2553H182.614V37.1553H191.414V40.0553H185.914Z" fill="#858686"/>
<path d="M197.014 51.3553H201.714V54.2553H193.714V37.1553H197.014V51.3553Z" fill="#858686"/>
<path d="M210.414 54.6553C205.214 54.6553 202.014 50.6553 202.014 45.6553C202.014 40.5553 205.414 36.6553 210.414 36.6553C215.414 36.6553 218.814 40.5553 218.814 45.6553C218.814 50.6553 215.614 54.6553 210.414 54.6553ZM210.414 39.9553C207.314 39.9553 205.414 42.7553 205.414 45.4553C205.414 48.0553 206.714 51.3553 210.414 51.3553C214.114 51.3553 215.414 48.1553 215.414 45.4553C215.414 42.7553 213.514 39.9553 210.414 39.9553Z" fill="#858686"/>
<path d="M228.514 40.8553C227.914 39.9553 227.114 39.4553 225.914 39.4553C224.814 39.4553 223.814 40.2553 223.814 41.3553C223.814 44.2553 230.614 43.0553 230.614 48.7553C230.614 52.1553 228.514 54.5553 225.014 54.5553C222.614 54.5553 220.914 53.1553 219.714 51.2553L221.914 49.2553C222.414 50.5553 223.614 51.7553 225.014 51.7553C226.414 51.7553 227.214 50.5553 227.214 49.2553C227.214 47.4553 225.614 46.9553 224.214 46.4553C222.014 45.5553 220.414 44.4553 220.414 41.7553C220.414 38.9553 222.514 36.6553 225.414 36.6553C226.914 36.6553 229.014 37.3553 230.114 38.5553L228.514 40.8553Z" fill="#858686"/>
</g>
<circle cx="323.583" cy="42.6828" r="13.2082" fill="#009DE0"/>
<path d="M320.42 26.0942C320.42 25.8202 320.528 25.5574 320.722 25.3636C320.916 25.1699 321.179 25.061 321.453 25.061H325.586C325.86 25.061 326.122 25.1699 326.316 25.3636C326.51 25.5574 326.619 25.8202 326.619 26.0942C326.619 26.3682 326.51 26.631 326.316 26.8248C326.122 27.0186 325.86 27.1274 325.586 27.1274V28.3053C328.396 28.7103 330.946 29.917 332.991 31.6941C333 31.6851 333.008 31.6761 333.016 31.6673L333.748 30.9358L333.016 30.2063C332.822 30.0126 332.713 29.7497 332.713 29.4756C332.713 29.2014 332.822 28.9384 333.015 28.7444C333.209 28.5504 333.472 28.4413 333.746 28.4411C334.02 28.4409 334.283 28.5496 334.477 28.7433L337.399 31.6673C337.498 31.7626 337.576 31.8766 337.631 32.0026C337.685 32.1287 337.713 32.2643 337.714 32.4014C337.716 32.5386 337.69 32.6747 337.638 32.8017C337.586 32.9286 337.509 33.044 337.412 33.141C337.315 33.238 337.2 33.3147 337.073 33.3667C336.946 33.4186 336.81 33.4448 336.672 33.4436C336.535 33.4424 336.4 33.4139 336.274 33.3597C336.147 33.3056 336.033 33.2269 335.938 33.1282L335.209 32.3967L334.477 33.1282C334.468 33.1366 334.459 33.1449 334.45 33.153C336.554 35.5817 337.79 38.6419 337.961 41.8506C338.133 45.0593 337.232 48.2338 335.399 50.8733C333.566 53.5128 330.907 55.4669 327.841 56.4274C324.774 57.3878 321.475 57.2998 318.465 56.1773C315.454 55.0548 312.902 52.9617 311.213 50.2283C309.524 47.4949 308.793 44.2768 309.135 41.0818C309.478 37.8868 310.874 34.8968 313.105 32.5837C315.335 30.2706 318.272 28.766 321.453 28.3073V27.1274C321.179 27.1274 320.916 27.0186 320.722 26.8248C320.528 26.631 320.42 26.3682 320.42 26.0942ZM323.519 30.227C321.891 30.2271 320.279 30.548 318.775 31.1711C317.27 31.7943 315.904 32.7077 314.753 33.8591C312.428 36.1844 311.122 39.3381 311.122 42.6263C311.122 45.9145 312.429 49.068 314.754 51.3929C317.079 53.7179 320.233 55.0238 323.521 55.0236C326.809 55.0233 329.963 53.7168 332.288 51.3915C334.613 49.0661 335.919 45.9125 335.919 42.6242C335.918 39.336 334.612 36.1826 332.286 33.8576C329.961 31.5327 326.807 30.2267 323.519 30.227Z" fill="#009DE0"/>
<path d="M321.145 46.0046V47.4746H314.999V46.0046H317.183V39.5786L315.153 40.7966V39.1866L317.925 37.5066H318.975V46.0046H321.145ZM326.558 41.1046C327.183 41.1046 327.734 41.2399 328.21 41.5106C328.686 41.7719 329.055 42.1453 329.316 42.6306C329.577 43.1066 329.708 43.6573 329.708 44.2826C329.708 44.9359 329.559 45.5146 329.26 46.0186C328.961 46.5133 328.532 46.9006 327.972 47.1806C327.412 47.4513 326.763 47.5866 326.026 47.5866C325.401 47.5866 324.785 47.4839 324.178 47.2786C323.571 47.0639 323.072 46.7793 322.68 46.4246L323.282 45.1086C324.187 45.7993 325.111 46.1446 326.054 46.1446C326.679 46.1446 327.155 45.9906 327.482 45.6826C327.818 45.3653 327.986 44.9173 327.986 44.3386C327.986 43.7879 327.813 43.3493 327.468 43.0226C327.132 42.6866 326.679 42.5186 326.11 42.5186C325.718 42.5186 325.349 42.5933 325.004 42.7426C324.659 42.8826 324.355 43.0926 324.094 43.3726H323.002V37.5066H329.246V38.9066H324.766V41.6226C325.27 41.2773 325.867 41.1046 326.558 41.1046ZM332.951 37.5066V38.7946C332.951 39.2893 332.867 39.7373 332.699 40.1386C332.531 40.5306 332.246 40.9273 331.845 41.3286L331.131 40.7686C331.551 40.3206 331.803 39.8866 331.887 39.4666H330.991V37.5066H332.951Z" fill="white"/>
<defs>
<clipPath id="clip0">
<rect width="229.7" height="58.5" fill="white" transform="translate(0.914307 0.255371)"/>
</clipPath>
</defs>
</svg>
