<svg width="236" height="60" viewBox="0 0 236 60" fill="none" xmlns="http://www.w3.org/2000/svg">
<g clip-path="url(#clip0)">
<path d="M0.0919189 0.839111H1.49192C3.69192 0.839111 5.79192 1.43911 5.79192 4.03911C5.79192 4.93911 5.29192 5.93911 4.49192 6.23911C5.89192 6.53911 6.89192 7.83911 6.89192 9.23911C6.89192 11.6391 4.89192 12.5391 2.79192 12.5391H0.0919189V0.839111ZM1.59192 6.03911H1.99192C3.39192 6.03911 4.49192 5.73911 4.49192 4.03911C4.49192 2.33911 3.39192 2.13911 1.99192 2.13911H1.59192V6.03911ZM1.59192 11.2391H2.69192C4.09192 11.2391 5.49192 10.8391 5.49192 9.13911C5.49192 7.43911 3.79192 7.13911 2.49192 7.13911H1.59192V11.2391Z" fill="#5B9CD6"/>
<path d="M10.0919 11.2391H13.6919V12.5391H8.59192V0.839111H10.0919V11.2391Z" fill="#5B9CD6"/>
<path d="M26.1919 6.73906C26.1919 10.2391 23.3919 12.9391 19.9919 12.9391C16.5919 12.9391 13.7919 10.3391 13.7919 6.73906C13.7919 3.33906 16.5919 0.539062 19.9919 0.539062C23.3919 0.539062 26.1919 3.33906 26.1919 6.73906ZM24.6919 6.73906C24.6919 4.13906 22.7919 1.93906 19.9919 1.93906C17.1919 1.93906 15.2919 4.13906 15.2919 6.73906C15.2919 9.43905 17.4919 11.5391 19.9919 11.5391C22.4919 11.5391 24.6919 9.43905 24.6919 6.73906Z" fill="#5B9CD6"/>
<path d="M37.2919 12.8391L36.2919 11.8391C35.2919 12.5391 34.0919 12.8391 32.8919 12.8391C29.4919 12.8391 26.6919 10.2391 26.6919 6.63908C26.6919 3.23908 29.4919 0.439087 32.8919 0.439087C36.2919 0.439087 39.0919 3.23908 39.0919 6.63908C39.0919 8.33908 38.3919 9.93908 37.2919 11.0391L39.0919 12.8391H37.2919ZM36.2919 10.0391C37.1919 9.23908 37.6919 7.83908 37.6919 6.73908C37.6919 4.13908 35.7919 1.93909 32.9919 1.93909C30.1919 1.93909 28.2919 4.13908 28.2919 6.73908C28.2919 9.43908 30.4919 11.5391 32.9919 11.5391C33.6919 11.5391 34.5919 11.3391 35.2919 10.8391L32.5919 8.23908H34.3919L36.2919 10.0391Z" fill="#5B9CD6"/>
<path d="M41.7919 0.839111V7.83911C41.7919 9.7391 42.3919 11.5391 44.6919 11.5391C46.9919 11.5391 47.4919 9.7391 47.4919 7.83911V0.839111H48.9919V8.3391C48.9919 10.9391 47.3919 12.9391 44.6919 12.9391C41.9919 12.9391 40.3919 10.9391 40.3919 8.3391V0.839111H41.7919Z" fill="#5B9CD6"/>
<path d="M51.0919 0.839111H57.3919V2.13911H52.4919V5.43911H57.1919V6.73911H52.4919V11.2391H57.3919V12.5391H51.0919V0.839111Z" fill="#5B9CD6"/>
<path d="M4.79193 31.239V23.739H18.5919V57.939H9.69193V31.239H4.79193Z" fill="#5B9CD6"/>
<path d="M52.4919 23.739L42.7919 35.339L42.8919 35.439C44.3919 34.739 45.8919 34.439 47.6919 34.439C54.3919 34.439 58.6919 40.239 58.6919 46.439C58.6919 54.839 51.7919 59.339 43.9919 59.339C40.6919 59.339 36.8919 58.439 34.2919 56.439C31.5919 54.139 29.6919 50.639 29.6919 47.039C29.6919 42.139 32.1919 37.339 35.1919 33.439L42.4919 23.839H52.4919V23.739ZM49.3919 46.639C49.3919 43.539 46.9919 41.039 43.8919 41.039C40.7919 41.039 38.2919 43.539 38.2919 46.639C38.2919 49.739 40.7919 52.339 43.8919 52.339C46.9919 52.239 49.3919 49.739 49.3919 46.639Z" fill="#5B9CD6"/>
<path d="M100.292 36.2391C100.292 42.2391 97.8919 47.7391 93.8919 51.6391C89.9919 55.5391 84.4919 58.0391 78.4919 58.0391H70.6919V14.3391H78.4919C90.4919 14.3391 100.292 24.1391 100.292 36.2391Z" fill="#5797D3"/>
<path d="M128.292 28.6391H124.992V14.4391H121.592V11.5391H131.792V14.4391H128.392V28.6391H128.292Z" fill="#858686"/>
<path d="M136.292 14.4391V18.2391H141.592V21.1391H136.292V25.7391H141.792V28.6391H132.992V11.5391H141.792V14.4391H136.292Z" fill="#858686"/>
<path d="M155.392 16.0391C154.492 14.9391 153.092 14.2391 151.592 14.2391C148.392 14.2391 146.592 17.1391 146.592 20.1391C146.592 23.0391 148.492 25.839 151.592 25.839C152.992 25.839 154.492 25.1391 155.392 24.0391V28.039C154.192 28.639 152.892 29.039 151.492 29.039C146.692 29.039 143.092 24.9391 143.092 20.1391C143.092 15.3391 146.492 11.0391 151.492 11.0391C152.792 11.0391 154.092 11.4391 155.292 12.0391V16.0391H155.392Z" fill="#858686"/>
<path d="M167.092 18.2391V11.5391H170.392V28.6391H167.092V21.0391H160.892V28.6391H157.592V11.5391H160.892V18.2391H167.092Z" fill="#858686"/>
<path d="M180.492 29.039C175.292 29.039 172.092 25.0391 172.092 20.0391C172.092 14.9391 175.492 11.0391 180.492 11.0391C185.492 11.0391 188.892 14.9391 188.892 20.0391C188.892 25.1391 185.692 29.039 180.492 29.039ZM180.492 14.3391C177.392 14.3391 175.492 17.1391 175.492 19.8391C175.492 22.4391 176.792 25.7391 180.492 25.7391C184.192 25.7391 185.492 22.5391 185.492 19.8391C185.492 17.1391 183.592 14.3391 180.492 14.3391Z" fill="#858686"/>
<path d="M198.592 15.3391C197.992 14.4391 197.192 13.9391 195.992 13.9391C194.892 13.9391 193.892 14.7391 193.892 15.8391C193.892 18.7391 200.692 17.5391 200.692 23.2391C200.692 26.6391 198.592 29.039 195.092 29.039C192.692 29.039 190.992 27.639 189.792 25.7391L191.992 23.6391C192.492 24.9391 193.692 26.1391 195.092 26.1391C196.492 26.1391 197.292 24.9391 197.292 23.6391C197.292 21.8391 195.692 21.3391 194.292 20.8391C192.092 19.9391 190.492 18.8391 190.492 16.1391C190.492 13.3391 192.592 11.0391 195.492 11.0391C196.992 11.0391 199.092 11.7391 200.192 12.9391L198.592 15.3391Z" fill="#858686"/>
<path d="M126.192 52.2391L124.792 55.8391H121.292L127.992 38.3391H130.592L137.092 55.8391H133.492L132.192 52.2391H126.192ZM129.092 43.2391L127.192 49.4391H131.292L129.092 43.2391Z" fill="#858686"/>
<path d="M149.392 43.239C148.492 42.139 147.092 41.439 145.592 41.439C142.392 41.439 140.592 44.339 140.592 47.339C140.592 50.239 142.492 53.039 145.592 53.039C146.992 53.039 148.492 52.339 149.392 51.239V55.239C148.192 55.839 146.892 56.239 145.492 56.239C140.692 56.239 137.092 52.139 137.092 47.339C137.092 42.539 140.492 38.239 145.492 38.239C146.792 38.239 148.092 38.639 149.292 39.239V43.239H149.392Z" fill="#858686"/>
<path d="M151.492 38.739H154.792V48.339C154.792 50.439 154.992 53.439 157.792 53.439C160.592 53.439 160.792 50.439 160.792 48.339V38.739H164.092V48.939C164.092 53.139 162.292 56.239 157.792 56.239C153.192 56.239 151.492 53.139 151.492 48.939V38.739ZM161.492 34.539L158.092 37.939L156.492 36.939L159.192 33.139L161.492 34.539Z" fill="#858686"/>
<path d="M174.592 42.439C173.992 41.539 173.192 41.039 171.992 41.039C170.892 41.039 169.892 41.839 169.892 42.939C169.892 45.839 176.692 44.639 176.692 50.339C176.692 53.739 174.592 56.139 171.092 56.139C168.692 56.139 166.992 54.739 165.792 52.839L167.992 50.739C168.492 52.039 169.692 53.239 171.092 53.239C172.492 53.239 173.292 52.039 173.292 50.739C173.292 48.939 171.692 48.439 170.292 47.939C168.092 47.039 166.492 45.939 166.492 43.239C166.492 40.439 168.592 38.139 171.492 38.139C172.992 38.139 175.092 38.839 176.192 40.039L174.592 42.439Z" fill="#858686"/>
<path d="M183.992 55.839H180.692V41.639H177.292V38.739H187.492V41.639H184.092V55.839H183.992Z" fill="#858686"/>
<path d="M191.992 55.839H188.692V38.739H191.992V55.839Z" fill="#858686"/>
<path d="M205.892 43.239C204.992 42.139 203.592 41.439 202.092 41.439C198.892 41.439 197.092 44.339 197.092 47.339C197.092 50.239 198.992 53.039 202.092 53.039C203.492 53.039 204.992 52.339 205.892 51.239V55.239C204.692 55.839 203.392 56.239 201.992 56.239C197.192 56.239 193.592 52.139 193.592 47.339C193.592 42.539 196.992 38.239 201.992 38.239C203.292 38.239 204.592 38.639 205.792 39.239V43.239H205.892Z" fill="#858686"/>
<path d="M215.692 56.239C210.492 56.239 207.292 52.239 207.292 47.239C207.292 42.139 210.692 38.239 215.692 38.239C220.692 38.239 224.092 42.139 224.092 47.239C224.092 52.239 220.892 56.239 215.692 56.239ZM215.692 41.539C212.592 41.539 210.692 44.339 210.692 47.039C210.692 49.639 211.992 52.939 215.692 52.939C219.392 52.939 220.692 49.739 220.692 47.039C220.692 44.339 218.792 41.539 215.692 41.539Z" fill="#858686"/>
<path d="M233.792 42.439C233.192 41.539 232.392 41.039 231.192 41.039C230.092 41.039 229.092 41.839 229.092 42.939C229.092 45.839 235.892 44.639 235.892 50.339C235.892 53.739 233.792 56.139 230.292 56.139C227.892 56.139 226.192 54.739 224.992 52.839L227.192 50.739C227.692 52.039 228.892 53.239 230.292 53.239C231.692 53.239 232.492 52.039 232.492 50.739C232.492 48.939 230.892 48.439 229.492 47.939C227.292 47.039 225.692 45.939 225.692 43.239C225.692 40.439 227.792 38.139 230.692 38.139C232.192 38.139 234.292 38.839 235.392 40.039L233.792 42.439Z" fill="#858686"/>
</g>
<defs>
<clipPath id="clip0">
<rect width="235.8" height="58.7" fill="white" transform="translate(0.0919189 0.539062)"/>
</clipPath>
</defs>
</svg>
