<svg width="246" height="62" viewBox="0 0 246 62" fill="none" xmlns="http://www.w3.org/2000/svg">
<g clip-path="url(#clip0)">
<path d="M2.35797 1.0061H3.85797C6.05797 1.0061 8.15797 1.6061 8.15797 4.20611C8.15797 5.10611 7.65797 6.10611 6.85797 6.40611C8.25797 6.70611 9.25797 8.00611 9.25797 9.40611C9.25797 11.8061 7.25797 12.7061 5.15797 12.7061H2.35797V1.0061ZM3.85797 6.20611H4.25797C5.65797 6.20611 6.75797 5.90611 6.75797 4.20611C6.75797 2.50611 5.65797 2.30611 4.25797 2.30611H3.85797V6.20611ZM3.85797 11.4061H4.95797C6.35797 11.4061 7.75797 11.0061 7.75797 9.30611C7.75797 7.60611 6.05797 7.30611 4.75797 7.30611H3.85797V11.4061Z" fill="#5B9CD6"/>
<path d="M12.358 11.4061H15.958V12.7061H10.858V1.0061H12.358V11.4061Z" fill="#5B9CD6"/>
<path d="M28.458 6.90606C28.458 10.4061 25.658 13.1061 22.258 13.1061C18.858 13.1061 16.058 10.5061 16.058 6.90606C16.058 3.50606 18.858 0.706055 22.258 0.706055C25.658 0.706055 28.458 3.50606 28.458 6.90606ZM26.958 6.90606C26.958 4.30606 25.058 2.10606 22.258 2.10606C19.458 2.10606 17.558 4.30606 17.558 6.90606C17.558 9.60606 19.758 11.7061 22.258 11.7061C24.758 11.7061 26.958 9.60606 26.958 6.90606Z" fill="#5B9CD6"/>
<path d="M39.658 13.0061L38.658 12.0061C37.658 12.7061 36.458 13.0061 35.258 13.0061C31.858 13.0061 29.058 10.4061 29.058 6.80606C29.058 3.50606 31.858 0.706055 35.258 0.706055C38.658 0.706055 41.458 3.50606 41.458 6.90606C41.458 8.60606 40.758 10.2061 39.558 11.3061L41.358 13.1061H39.658V13.0061ZM38.558 10.2061C39.458 9.40606 39.958 8.00606 39.958 6.90606C39.958 4.30606 38.058 2.10606 35.258 2.10606C32.458 2.10606 30.558 4.30606 30.558 6.90606C30.558 9.60606 32.758 11.7061 35.258 11.7061C35.958 11.7061 36.858 11.5061 37.558 11.0061L34.858 8.30606H36.658L38.558 10.2061Z" fill="#5B9CD6"/>
<path d="M44.158 1.0061V8.00611C44.158 9.90611 44.758 11.7061 46.958 11.7061C49.258 11.7061 49.858 9.90611 49.858 8.00611V1.0061H51.358V8.50611C51.358 11.1061 49.758 13.1061 47.058 13.1061C44.358 13.1061 42.758 11.1061 42.758 8.50611V1.0061H44.158Z" fill="#5B9CD6"/>
<path d="M53.358 1.0061H59.658V2.30611H54.858V5.60611H59.558V6.90611H54.858V11.4061H59.758V12.7061H53.458V1.0061H53.358Z" fill="#5B9CD6"/>
<path d="M29.858 41.006C29.858 49.906 25.558 59.406 15.358 59.406C5.15797 59.406 0.857971 49.906 0.857971 41.006C0.857971 32.106 5.15797 22.606 15.358 22.606C25.458 22.506 29.858 32.106 29.858 41.006ZM9.65797 40.906C9.65797 44.206 10.758 51.506 15.358 51.506C19.958 51.506 21.058 44.206 21.058 40.906C21.058 37.606 19.958 30.306 15.358 30.306C10.758 30.406 9.65797 37.606 9.65797 40.906Z" fill="#5B9CD6"/>
<path d="M54.7579 23.906L45.0579 35.506L45.1579 35.606C46.6579 34.906 48.1579 34.606 49.9579 34.606C56.6579 34.606 60.9579 40.406 60.9579 46.606C60.9579 55.006 54.058 59.506 46.2579 59.506C42.9579 59.506 39.1579 58.606 36.5579 56.606C33.8579 54.306 31.9579 50.806 31.9579 47.206C31.9579 42.306 34.4579 37.506 37.4579 33.606L44.7579 24.006H54.7579V23.906ZM51.6579 46.806C51.6579 43.706 49.2579 41.206 46.1579 41.206C43.0579 41.206 40.5579 43.706 40.5579 46.806C40.5579 49.906 43.0579 52.506 46.1579 52.506C49.3579 52.406 51.6579 49.906 51.6579 46.806Z" fill="#5B9CD6"/>
<path d="M99.658 39.5061C99.658 45.5061 97.258 51.0061 93.258 54.9061C89.358 58.8061 83.858 61.3061 77.858 61.3061H70.058V17.7061H77.858C89.958 17.7061 99.658 27.5061 99.658 39.5061Z" fill="#5797D3"/>
<path d="M128.258 26.006H124.958V8.90601H129.458C133.058 8.90601 135.358 10.306 135.358 14.206C135.358 17.806 133.358 19.606 129.858 19.606H128.158V26.006H128.258ZM128.258 16.806H128.958C130.958 16.806 131.958 16.406 131.958 14.206C131.958 12.006 130.658 11.706 128.858 11.706H128.258V16.806Z" fill="#858686"/>
<path d="M148.458 26.006H144.458L140.358 19.106V26.006H136.858V8.90601H141.358C144.758 8.90601 147.058 10.406 147.058 14.006C147.058 16.206 145.858 18.306 143.558 18.706L148.458 26.006ZM140.258 16.806H140.658C142.458 16.806 143.758 16.306 143.758 14.206C143.758 12.106 142.458 11.706 140.658 11.706H140.158V16.806H140.258Z" fill="#858686"/>
<path d="M157.158 26.406C151.958 26.406 148.758 22.406 148.758 17.406C148.758 12.306 152.158 8.40601 157.158 8.40601C162.158 8.40601 165.558 12.306 165.558 17.406C165.558 22.406 162.358 26.406 157.158 26.406ZM157.158 11.706C154.058 11.706 152.158 14.506 152.158 17.206C152.158 19.806 153.458 23.106 157.158 23.106C160.858 23.106 162.158 19.906 162.158 17.206C162.158 14.506 160.258 11.706 157.158 11.706Z" fill="#858686"/>
<path d="M165.658 8.90601H169.558L172.558 14.806L175.858 8.90601H179.758L174.358 18.106V25.906H171.058V18.106L165.658 8.90601Z" fill="#858686"/>
<path d="M183.858 11.806V15.606H189.158V18.506H183.858V23.106H189.358V26.006H180.558V8.90601H189.358V11.806H183.858Z" fill="#858686"/>
<path d="M202.958 13.406C202.058 12.306 200.658 11.606 199.158 11.606C195.958 11.606 194.158 14.506 194.158 17.506C194.158 20.406 196.058 23.206 199.158 23.206C200.558 23.206 202.058 22.506 202.958 21.406V25.406C201.758 26.006 200.458 26.406 199.058 26.406C194.258 26.406 190.658 22.306 190.658 17.506C190.658 12.706 194.058 8.40601 199.058 8.40601C200.358 8.40601 201.658 8.80601 202.858 9.40601V13.406H202.958Z" fill="#858686"/>
<path d="M210.758 26.006H207.458V11.806H204.058V8.90601H214.258V11.806H210.858V26.006H210.758Z" fill="#858686"/>
<path d="M223.058 26.406C217.858 26.406 214.658 22.406 214.658 17.406C214.658 12.306 218.058 8.40601 223.058 8.40601C228.058 8.40601 231.458 12.306 231.458 17.406C231.458 22.406 228.258 26.406 223.058 26.406ZM223.058 11.706C219.958 11.706 218.058 14.506 218.058 17.206C218.058 19.806 219.358 23.106 223.058 23.106C226.758 23.106 228.058 19.906 228.058 17.206C228.058 14.506 226.158 11.706 223.058 11.706Z" fill="#858686"/>
<path d="M241.158 12.706C240.558 11.806 239.758 11.306 238.558 11.306C237.458 11.306 236.458 12.106 236.458 13.206C236.458 16.106 243.258 14.906 243.258 20.606C243.258 24.006 241.158 26.406 237.658 26.406C235.258 26.406 233.558 25.006 232.358 23.106L234.558 21.006C235.058 22.306 236.258 23.506 237.658 23.506C239.058 23.506 239.858 22.306 239.858 21.006C239.858 19.206 238.258 18.706 236.858 18.206C234.658 17.306 233.058 16.206 233.058 13.506C233.058 10.706 235.158 8.40601 238.058 8.40601C239.558 8.40601 241.658 9.10601 242.758 10.306L241.158 12.706Z" fill="#858686"/>
<path d="M132.958 39.8061C132.358 38.9061 131.558 38.4061 130.358 38.4061C129.258 38.4061 128.258 39.2061 128.258 40.3061C128.258 43.2061 135.058 42.0061 135.058 47.7061C135.058 51.1061 132.958 53.5061 129.458 53.5061C127.058 53.5061 125.358 52.1061 124.158 50.2061L126.358 48.1061C126.858 49.4061 128.058 50.6061 129.458 50.6061C130.858 50.6061 131.658 49.4061 131.658 48.1061C131.658 46.3061 130.058 45.8061 128.658 45.3061C126.458 44.4061 124.858 43.3061 124.858 40.6061C124.858 37.8061 126.958 35.5061 129.858 35.5061C131.358 35.5061 133.458 36.2061 134.558 37.4061L132.958 39.8061Z" fill="#858686"/>
<path d="M140.358 49.6061L138.958 53.2061H135.458L142.158 35.7061H144.758L151.258 53.2061H147.658L146.358 49.6061H140.358ZM143.158 40.6061L141.258 46.8061H145.358L143.158 40.6061Z" fill="#858686"/>
<path d="M152.158 35.6061H154.558L163.558 47.5061V36.1061H166.858V53.5061H164.458L155.458 41.6061V53.2061H152.158V35.6061Z" fill="#858686"/>
<path d="M172.658 53.2061H169.358V36.1061H172.658V53.2061Z" fill="#858686"/>
<path d="M180.658 53.2061H177.358V39.0061H173.858V36.1061H184.058V39.0061H180.658V53.2061Z" fill="#858686"/>
<path d="M186.958 49.6061L185.558 53.2061H182.058L188.758 35.7061H191.358L197.858 53.2061H194.258L192.958 49.6061H186.958ZM189.858 40.6061L187.958 46.8061H192.058L189.858 40.6061Z" fill="#858686"/>
<path d="M210.358 53.2061H206.358L202.258 46.3061V53.2061H198.858V36.1061H203.358C206.758 36.1061 209.058 37.6061 209.058 41.2061C209.058 43.4061 207.858 45.5061 205.558 45.9061L210.358 53.2061ZM202.158 43.9061H202.558C204.358 43.9061 205.658 43.4061 205.658 41.3061C205.658 39.2061 204.358 38.8061 202.558 38.8061H202.058V43.9061H202.158Z" fill="#858686"/>
<path d="M214.758 53.2061H211.458V36.1061H214.758V53.2061Z" fill="#858686"/>
<path d="M224.858 53.6061C219.658 53.6061 216.458 49.6061 216.458 44.6061C216.458 39.5061 219.858 35.6061 224.858 35.6061C229.858 35.6061 233.258 39.5061 233.258 44.6061C233.258 49.6061 230.058 53.6061 224.858 53.6061ZM224.858 38.9061C221.758 38.9061 219.858 41.7061 219.858 44.4061C219.858 47.0061 221.158 50.3061 224.858 50.3061C228.558 50.3061 229.858 47.1061 229.858 44.4061C229.858 41.7061 227.958 38.9061 224.858 38.9061Z" fill="#858686"/>
<path d="M242.958 39.8061C242.358 38.9061 241.558 38.4061 240.358 38.4061C239.258 38.4061 238.258 39.2061 238.258 40.3061C238.258 43.2061 245.058 42.0061 245.058 47.7061C245.058 51.1061 242.958 53.5061 239.458 53.5061C237.058 53.5061 235.358 52.1061 234.158 50.2061L236.358 48.1061C236.858 49.4061 238.058 50.6061 239.458 50.6061C240.858 50.6061 241.658 49.4061 241.658 48.1061C241.658 46.3061 240.058 45.8061 238.658 45.3061C236.458 44.4061 234.858 43.3061 234.858 40.6061C234.858 37.8061 236.958 35.5061 239.858 35.5061C241.358 35.5061 243.458 36.2061 244.558 37.4061L242.958 39.8061Z" fill="#858686"/>
</g>
<defs>
<clipPath id="clip0">
<rect width="244.2" height="60.7001" fill="white" transform="translate(0.857971 0.706055)"/>
</clipPath>
</defs>
</svg>
