<svg width="339" height="61" viewBox="0 0 339 61" fill="none" xmlns="http://www.w3.org/2000/svg">
<g clip-path="url(#clip0)">
<path d="M0.914307 1.00952H2.31431C4.51431 1.00952 6.61431 1.60952 6.61431 4.20952C6.61431 5.10952 6.11431 6.10952 5.31431 6.40952C6.71431 6.70952 7.71431 8.00952 7.71431 9.40952C7.71431 11.8095 5.71431 12.7095 3.61431 12.7095H0.914307V1.00952ZM2.41431 6.20952H2.81431C4.21431 6.20952 5.31431 5.90952 5.31431 4.20952C5.31431 2.50952 4.21431 2.30952 2.81431 2.30952H2.41431V6.20952ZM2.41431 11.4095H3.51431C4.91431 11.4095 6.31431 11.0095 6.31431 9.30952C6.31431 7.60952 4.61431 7.30952 3.31431 7.30952H2.41431V11.4095Z" fill="#5B9CD6"/>
<path d="M10.9143 11.4095H14.5143V12.7095H9.41431V1.00952H10.9143V11.4095Z" fill="#5B9CD6"/>
<path d="M27.0143 6.90972C27.0143 10.4097 24.2143 13.1097 20.8143 13.1097C17.4143 13.1097 14.6143 10.5097 14.6143 6.90972C14.6143 3.50972 17.4143 0.709717 20.8143 0.709717C24.2143 0.709717 27.0143 3.50972 27.0143 6.90972ZM25.5143 6.90972C25.5143 4.30972 23.6143 2.10972 20.8143 2.10972C18.0143 2.10972 16.1143 4.30972 16.1143 6.90972C16.1143 9.60972 18.3143 11.7097 20.8143 11.7097C23.3143 11.7097 25.5143 9.60972 25.5143 6.90972Z" fill="#5B9CD6"/>
<path d="M38.1143 13.0096L37.1143 12.0096C36.1143 12.7096 34.9143 13.0096 33.7143 13.0096C30.3143 13.0096 27.5143 10.4096 27.5143 6.80962C27.5143 3.40962 30.3143 0.609619 33.7143 0.609619C37.1143 0.609619 39.9143 3.40962 39.9143 6.80962C39.9143 8.50962 39.2143 10.1096 38.0143 11.2096L39.8143 13.0096H38.1143ZM37.1143 10.2096C38.0143 9.40962 38.5143 8.00962 38.5143 6.90962C38.5143 4.30962 36.6143 2.10962 33.8143 2.10962C31.0143 2.10962 29.1143 4.30962 29.1143 6.90962C29.1143 9.60962 31.3143 11.7096 33.8143 11.7096C34.5143 11.7096 35.4143 11.5096 36.1143 11.0096L33.4143 8.40962H35.2143L37.1143 10.2096Z" fill="#5B9CD6"/>
<path d="M42.6144 1.00952V8.00952C42.6144 9.90952 43.2144 11.7095 45.4144 11.7095C47.7144 11.7095 48.3144 9.90952 48.3144 8.00952V1.00952H49.8144V8.50952C49.8144 11.1095 48.2144 13.1095 45.5144 13.1095C42.8144 13.1095 41.2144 11.1095 41.2144 8.50952V1.00952H42.6144Z" fill="#5B9CD6"/>
<path d="M51.9143 1.00952H58.2143V2.30952H53.3143V5.60952H58.0143V6.90952H53.3143V11.4095H58.2143V12.7095H51.9143V1.00952Z" fill="#5B9CD6"/>
<path d="M5.61426 31.4097V23.9097H19.4143V58.1097H10.5143V31.4097H5.61426Z" fill="#5B9CD6"/>
<path d="M36.6143 58.1096L46.3143 46.6096L46.2143 46.5096C44.7143 47.2096 43.2143 47.5096 41.4143 47.5096C34.7143 47.5096 30.4143 41.7096 30.4143 35.5096C30.4143 27.1096 37.3143 22.6096 45.1143 22.6096C48.4143 22.6096 52.2143 23.4096 54.8143 25.5096C57.6143 27.7096 59.4143 31.3096 59.4143 34.9096C59.4143 39.8096 56.9143 44.6096 53.9143 48.5096L46.6143 58.1096H36.6143ZM39.7143 35.2096C39.7143 38.3096 42.1143 40.8096 45.2143 40.8096C48.3143 40.8096 50.9143 38.3096 50.9143 35.2096C50.9143 32.1096 48.4143 29.6096 45.2143 29.6096C42.0143 29.6096 39.7143 32.1096 39.7143 35.2096Z" fill="#5B9CD6"/>
<path d="M68.0143 23.3096V60.7096H104.514V59.8096C104.514 39.7096 88.2143 23.3096 68.0143 23.3096Z" fill="#9CB5C9"/>
<path d="M132.314 32.5097C131.714 31.6097 130.914 31.1097 129.714 31.1097C128.614 31.1097 127.614 31.9097 127.614 33.0097C127.614 35.9097 134.414 34.7097 134.414 40.4097C134.414 43.8097 132.314 46.2097 128.814 46.2097C126.414 46.2097 124.714 44.8097 123.514 42.9097L125.714 40.8097C126.214 42.1097 127.414 43.3097 128.814 43.3097C130.214 43.3097 131.014 42.1097 131.014 40.8097C131.014 39.0097 129.414 38.5097 128.014 38.0097C125.814 37.1097 124.214 36.0097 124.214 33.3097C124.214 30.5097 126.314 28.2097 129.214 28.2097C130.714 28.2097 132.814 28.9097 133.914 30.1097L132.314 32.5097Z" fill="#858686"/>
<path d="M139.514 31.7098V35.5098H144.814V38.4098H139.514V43.0098H145.014V45.9098H136.214V28.8098H145.014V31.7098H139.514Z" fill="#858686"/>
<path d="M162.314 36.8098V37.2098C162.314 42.0098 159.814 46.3098 154.514 46.3098C149.514 46.3098 146.414 42.1098 146.414 37.4098C146.414 32.5098 149.614 28.3098 154.714 28.3098C157.614 28.3098 160.114 29.8098 161.414 32.4098L158.514 34.0098C157.814 32.5098 156.414 31.3098 154.614 31.3098C151.414 31.3098 149.814 34.6098 149.814 37.4098C149.814 40.2098 151.414 43.4098 154.614 43.4098C156.714 43.4098 158.414 41.6098 158.514 39.5098H154.914V36.8098H162.314Z" fill="#858686"/>
<path d="M163.914 28.8098H167.214V38.4098C167.214 40.5098 167.414 43.5098 170.214 43.5098C173.014 43.5098 173.214 40.5098 173.214 38.4098V28.8098H176.514V39.0098C176.514 43.2098 174.714 46.3098 170.214 46.3098C165.614 46.3098 163.914 43.2098 163.914 39.0098V28.8098Z" fill="#858686"/>
<path d="M190.514 45.8098H186.514L182.414 38.9098V45.8098H178.914V28.8098H183.414C186.814 28.8098 189.114 30.3098 189.114 33.9098C189.114 36.1098 187.914 38.2098 185.614 38.6098L190.514 45.8098ZM182.314 36.6098H182.714C184.514 36.6098 185.814 36.1098 185.814 34.0098C185.814 31.9098 184.514 31.5098 182.714 31.5098H182.214V36.6098H182.314Z" fill="#858686"/>
<path d="M194.914 45.8098H191.614V28.8098H194.914V45.8098Z" fill="#858686"/>
<path d="M197.314 28.8098H202.114C207.014 28.8098 210.314 32.5098 210.314 37.4098C210.314 42.2098 206.914 45.9098 202.014 45.9098H197.314V28.8098ZM200.714 43.0098H201.214C205.314 43.0098 206.914 40.7098 206.914 37.4098C206.914 33.7098 205.014 31.8098 201.214 31.8098H200.714V43.0098Z" fill="#858686"/>
<path d="M215.514 42.2098L214.114 45.8098H210.614L217.314 28.3098H219.914L226.414 45.8098H222.814L221.514 42.2098H215.514ZM218.314 33.3098L216.414 39.5098H220.514L218.314 33.3098Z" fill="#858686"/>
<path d="M227.314 28.8098H232.114C237.014 28.8098 240.314 32.5098 240.314 37.4098C240.314 42.2098 236.914 45.9098 232.014 45.9098H227.314V28.8098ZM230.614 43.0098H231.114C235.214 43.0098 236.814 40.7098 236.814 37.4098C236.814 33.7098 234.914 31.8098 231.114 31.8098H230.614V43.0098Z" fill="#858686"/>
</g>
<circle cx="323.583" cy="40.9314" r="13.2082" fill="#009DE0"/>
<path d="M320.42 24.3428C320.42 24.0687 320.528 23.8059 320.722 23.6122C320.916 23.4184 321.179 23.3096 321.453 23.3096H325.586C325.86 23.3096 326.122 23.4184 326.316 23.6122C326.51 23.8059 326.619 24.0687 326.619 24.3428C326.619 24.6168 326.51 24.8796 326.316 25.0733C326.122 25.2671 325.86 25.376 325.586 25.376V26.5538C328.396 26.9588 330.946 28.1656 332.991 29.9427C333 29.9336 333.008 29.9246 333.016 29.9158L333.748 29.1843L333.016 28.4549C332.822 28.2611 332.713 27.9983 332.713 27.7241C332.713 27.4499 332.822 27.1869 333.015 26.9929C333.209 26.7989 333.472 26.6898 333.746 26.6896C334.02 26.6894 334.283 26.7981 334.477 26.9919L337.399 29.9158C337.498 30.0111 337.576 30.1251 337.631 30.2512C337.685 30.3772 337.713 30.5128 337.714 30.65C337.716 30.7872 337.69 30.9232 337.638 31.0502C337.586 31.1772 337.509 31.2925 337.412 31.3895C337.315 31.4865 337.2 31.5633 337.073 31.6152C336.946 31.6672 336.81 31.6933 336.672 31.6921C336.535 31.6909 336.4 31.6624 336.274 31.6083C336.147 31.5541 336.033 31.4754 335.938 31.3767L335.209 30.6452L334.477 31.3767C334.468 31.3851 334.459 31.3934 334.45 31.4015C336.554 33.8303 337.79 36.8904 337.961 40.0991C338.133 43.3078 337.232 46.4824 335.399 49.1219C333.566 51.7614 330.907 53.7155 327.841 54.6759C324.774 55.6363 321.475 55.5483 318.465 54.4258C315.454 53.3033 312.902 51.2102 311.213 48.4768C309.524 45.7434 308.793 42.5253 309.135 39.3303C309.478 36.1353 310.874 33.1454 313.105 30.8322C315.335 28.5191 318.272 27.0145 321.453 26.5559V25.376C321.179 25.376 320.916 25.2671 320.722 25.0733C320.528 24.8796 320.42 24.6168 320.42 24.3428ZM323.519 28.4755C321.891 28.4757 320.279 28.7965 318.775 29.4197C317.27 30.0429 315.904 30.9562 314.753 32.1076C312.428 34.433 311.122 37.5866 311.122 40.8748C311.122 44.1631 312.429 47.3165 314.754 49.6415C317.079 51.9664 320.233 53.2724 323.521 53.2721C326.809 53.2718 329.963 51.9653 332.288 49.64C334.613 47.3147 335.919 44.161 335.919 40.8728C335.918 37.5846 334.612 34.4311 332.286 32.1062C329.961 29.7812 326.807 28.4753 323.519 28.4755Z" fill="#009DE0"/>
<path d="M321.145 44.2531V45.7231H314.999V44.2531H317.183V37.8271L315.153 39.0451V37.4351L317.925 35.7551H318.975V44.2531H321.145ZM326.558 39.3531C327.183 39.3531 327.734 39.4885 328.21 39.7591C328.686 40.0205 329.055 40.3938 329.316 40.8791C329.577 41.3551 329.708 41.9058 329.708 42.5311C329.708 43.1845 329.559 43.7631 329.26 44.2671C328.961 44.7618 328.532 45.1491 327.972 45.4291C327.412 45.6998 326.763 45.8351 326.026 45.8351C325.401 45.8351 324.785 45.7325 324.178 45.5271C323.571 45.3125 323.072 45.0278 322.68 44.6731L323.282 43.3571C324.187 44.0478 325.111 44.3931 326.054 44.3931C326.679 44.3931 327.155 44.2391 327.482 43.9311C327.818 43.6138 327.986 43.1658 327.986 42.5871C327.986 42.0365 327.813 41.5978 327.468 41.2711C327.132 40.9351 326.679 40.7671 326.11 40.7671C325.718 40.7671 325.349 40.8418 325.004 40.9911C324.659 41.1311 324.355 41.3411 324.094 41.6211H323.002V35.7551H329.246V37.1551H324.766V39.8711C325.27 39.5258 325.867 39.3531 326.558 39.3531ZM332.951 35.7551V37.0431C332.951 37.5378 332.867 37.9858 332.699 38.3871C332.531 38.7791 332.246 39.1758 331.845 39.5771L331.131 39.0171C331.551 38.5691 331.803 38.1351 331.887 37.7151H330.991V35.7551H332.951Z" fill="white"/>
<defs>
<clipPath id="clip0">
<rect width="239.4" height="60" fill="white" transform="translate(0.914307 0.709717)"/>
</clipPath>
</defs>
</svg>
