<svg width="367" height="58" viewBox="0 0 367 58" fill="none" xmlns="http://www.w3.org/2000/svg">
<g clip-path="url(#clip0)">
<path d="M0.0822754 0.657227H1.48228C3.68228 0.657227 5.78228 1.25723 5.78228 3.85723C5.78228 4.75723 5.28228 5.75723 4.48228 6.05723C5.88228 6.35723 6.88228 7.65723 6.88228 9.05723C6.88228 11.4572 4.88228 12.3572 2.78228 12.3572H0.0822754V0.657227ZM1.58228 5.85723H1.98228C3.38228 5.85723 4.48228 5.55723 4.48228 3.85723C4.48228 2.15723 3.38228 1.95723 1.98228 1.95723H1.58228V5.85723ZM1.58228 11.0572H2.68228C4.08228 11.0572 5.48228 10.6572 5.48228 8.95723C5.48228 7.25723 3.78228 6.95723 2.48228 6.95723H1.58228V11.0572Z" fill="#5B9CD6"/>
<path d="M10.0823 11.0572H13.6823V12.3572H8.58228V0.657227H10.0823V11.0572Z" fill="#5B9CD6"/>
<path d="M26.1823 6.55742C26.1823 10.0574 23.3823 12.7574 19.9823 12.7574C16.5823 12.7574 13.7823 10.1574 13.7823 6.55742C13.7823 3.15742 16.5823 0.357422 19.9823 0.357422C23.3823 0.357422 26.1823 3.15742 26.1823 6.55742ZM24.6823 6.55742C24.6823 3.95742 22.7823 1.75742 19.9823 1.75742C17.1823 1.75742 15.2823 3.95742 15.2823 6.55742C15.2823 9.25742 17.4823 11.3574 19.9823 11.3574C22.4823 11.3574 24.6823 9.25742 24.6823 6.55742Z" fill="#5B9CD6"/>
<path d="M37.2823 12.6573L36.2823 11.5573C35.2823 12.2573 34.0822 12.6573 32.8822 12.6573C29.4822 12.6573 26.6823 10.0573 26.6823 6.45732C26.6823 3.05732 29.4822 0.257324 32.8822 0.257324C36.2822 0.257324 39.0823 3.05732 39.0823 6.45732C39.0823 8.15732 38.3823 9.75732 37.2823 10.8573L39.0823 12.6573H37.2823ZM36.2823 9.85732C37.1823 9.05732 37.6822 7.65732 37.6822 6.55732C37.6822 3.95732 35.7823 1.75732 32.9823 1.75732C30.1823 1.75732 28.2823 3.95732 28.2823 6.55732C28.2823 9.25732 30.4823 11.3573 32.9823 11.3573C33.6823 11.3573 34.5823 11.1573 35.2823 10.6573L32.5823 8.05732H34.3822L36.2823 9.85732Z" fill="#5B9CD6"/>
<path d="M41.7823 0.657227V7.65723C41.7823 9.55723 42.3823 11.3572 44.6823 11.3572C46.9823 11.3572 47.4823 9.55723 47.4823 7.65723V0.657227H48.9823V8.15723C48.9823 10.7572 47.3823 12.7572 44.6823 12.7572C41.9823 12.7572 40.3823 10.7572 40.3823 8.15723V0.657227H41.7823Z" fill="#5B9CD6"/>
<path d="M51.0823 0.657227H57.3823V1.95723H52.4823V5.25723H57.1823V6.55723H52.4823V11.0572H57.3823V12.3572H51.0823V0.657227Z" fill="#5B9CD6"/>
<path d="M4.78229 31.0574V23.5574H18.5823V57.7574H9.68229V31.0574H4.78229Z" fill="#5B9CD6"/>
<path d="M35.8823 31.0574V23.5574H49.6823V57.7574H40.7823V31.0574H35.8823Z" fill="#5B9CD6"/>
<path d="M73.4823 57.2572V6.65723H97.3823V33.3572C97.3823 46.5572 86.6823 57.2572 73.4823 57.2572Z" fill="#5797D3"/>
<path d="M125.982 44.9574H122.682V27.8574H125.982V44.9574Z" fill="#858686"/>
<path d="M128.482 27.3574H130.882L139.882 39.2574V27.8574H143.182V45.2574H140.782L131.782 33.3574V44.9574H128.482V27.3574Z" fill="#858686"/>
<path d="M145.582 27.8574H150.382C155.282 27.8574 158.582 31.5574 158.582 36.4574C158.582 41.2574 155.182 44.9574 150.282 44.9574H145.582V27.8574ZM148.982 42.0574H149.482C153.582 42.0574 155.182 39.7574 155.182 36.4574C155.182 32.7574 153.282 30.8574 149.482 30.8574H148.982V42.0574Z" fill="#858686"/>
<path d="M160.182 27.8573H163.482V37.3573C163.482 39.4573 163.682 42.4573 166.482 42.4573C169.282 42.4573 169.482 39.4573 169.482 37.3573V27.7573H172.782V37.9573C172.782 42.1573 170.982 45.2573 166.482 45.2573C161.882 45.2573 160.182 42.1573 160.182 37.9573V27.8573Z" fill="#858686"/>
<path d="M183.282 31.5573C182.682 30.6573 181.882 30.1573 180.682 30.1573C179.582 30.1573 178.582 30.9573 178.582 32.0573C178.582 34.9573 185.382 33.7573 185.382 39.4573C185.382 42.8573 183.282 45.2573 179.782 45.2573C177.382 45.2573 175.682 43.8573 174.482 41.9573L176.682 39.8573C177.182 41.1573 178.382 42.3573 179.782 42.3573C181.182 42.3573 181.982 41.1573 181.982 39.8573C181.982 38.0573 180.382 37.5573 178.982 37.0573C176.782 36.1573 175.182 35.0573 175.182 32.3573C175.182 29.5573 177.282 27.2573 180.182 27.2573C181.682 27.2573 183.782 27.9573 184.882 29.1573L183.282 31.5573Z" fill="#858686"/>
<path d="M192.682 44.9574H189.382V30.7574H185.982V27.8574H196.082V30.7574H192.682V44.9574Z" fill="#858686"/>
<path d="M208.882 44.9574H204.882L200.782 38.0574V44.9574H197.482V27.8574H201.982C205.382 27.8574 207.682 29.3574 207.682 32.9574C207.682 35.1574 206.482 37.2574 204.182 37.6574L208.882 44.9574ZM200.682 35.6574H201.082C202.882 35.6574 204.182 35.1574 204.182 33.0574C204.182 30.9574 202.882 30.5574 201.082 30.5574H200.582V35.6574H200.682Z" fill="#858686"/>
<path d="M213.282 44.9574H209.982V27.8574H213.282V44.9574Z" fill="#858686"/>
<path d="M219.182 41.3573L217.782 44.9573H214.282L220.982 27.4573H223.582L230.082 44.9573H226.482L225.082 41.3573H219.182ZM222.082 32.3573L220.182 38.5573H224.282L222.082 32.3573Z" fill="#858686"/>
<path d="M234.382 42.0574H239.082V44.9574H231.082V27.8574H234.382V42.0574Z" fill="#858686"/>
<path d="M243.482 44.9574H240.082V27.8574H243.382V44.9574H243.482Z" fill="#858686"/>
<path d="M257.182 42.0574V44.9574H244.782L252.282 30.7574H245.882V27.8574H257.482L250.082 42.0574H257.182Z" fill="#858686"/>
<path d="M262.382 41.3573L260.982 44.9573H257.482L264.182 27.4573H266.782L273.282 44.9573H269.682L268.382 41.3573H262.382ZM265.282 32.3573L263.382 38.5573H267.482L265.282 32.3573Z" fill="#858686"/>
<path d="M285.582 32.3574C284.682 31.2574 283.282 30.5574 281.782 30.5574C278.582 30.5574 276.782 33.4574 276.782 36.4574C276.782 39.3574 278.682 42.1574 281.782 42.1574C283.182 42.1574 284.682 41.4574 285.582 40.3574V44.3574C284.382 44.9574 283.082 45.3574 281.682 45.3574C276.882 45.3574 273.282 41.2574 273.282 36.4574C273.282 31.6574 276.682 27.3574 281.682 27.3574C282.982 27.3574 284.282 27.7574 285.482 28.3574V32.3574H285.582Z" fill="#858686"/>
<path d="M291.182 44.9574H287.882V27.8574H291.182V44.9574Z" fill="#858686"/>
<path d="M301.182 45.3573C295.982 45.3573 292.782 41.3573 292.782 36.3573C292.782 31.2573 296.182 27.3573 301.182 27.3573C306.182 27.3573 309.582 31.2573 309.582 36.3573C309.682 41.3573 306.382 45.3573 301.182 45.3573ZM301.182 30.6573C298.082 30.6573 296.182 33.4573 296.182 36.1573C296.182 38.7573 297.482 42.0573 301.182 42.0573C304.882 42.0573 306.182 38.8573 306.182 36.1573C306.182 33.4573 304.382 30.6573 301.182 30.6573ZM304.382 23.6573L300.982 27.0573L299.382 26.0573L302.082 22.2573L304.382 23.6573Z" fill="#858686"/>
<path d="M311.282 27.3574H313.682L322.682 39.2574V27.8574H325.982V45.2574H323.582L314.582 33.3574V44.9574H311.282V27.3574Z" fill="#858686"/>
</g>
<circle cx="351.647" cy="35.7097" r="13.2082" fill="#009DE0"/>
<path d="M348.484 19.1211C348.484 18.8471 348.593 18.5843 348.786 18.3905C348.98 18.1967 349.243 18.0879 349.517 18.0879H353.65C353.924 18.0879 354.186 18.1967 354.38 18.3905C354.574 18.5843 354.683 18.8471 354.683 19.1211C354.683 19.3951 354.574 19.6579 354.38 19.8517C354.186 20.0454 353.924 20.1543 353.65 20.1543V21.3321C356.46 21.7371 359.01 22.9439 361.056 24.721C361.064 24.7119 361.072 24.703 361.08 24.6941L361.812 23.9626L361.08 23.2332C360.886 23.0395 360.777 22.7766 360.777 22.5024C360.777 22.2282 360.886 21.9652 361.079 21.7712C361.273 21.5772 361.536 21.4681 361.81 21.4679C362.084 21.4677 362.347 21.5765 362.541 21.7702L365.463 24.6941C365.562 24.7894 365.641 24.9034 365.695 25.0295C365.749 25.1555 365.777 25.2911 365.779 25.4283C365.78 25.5655 365.754 25.7015 365.702 25.8285C365.65 25.9555 365.573 26.0708 365.476 26.1679C365.379 26.2649 365.264 26.3416 365.137 26.3935C365.01 26.4455 364.874 26.4716 364.736 26.4704C364.599 26.4692 364.464 26.4407 364.338 26.3866C364.212 26.3324 364.098 26.2537 364.002 26.155L363.273 25.4235L362.541 26.155C362.532 26.1635 362.524 26.1717 362.514 26.1798C364.618 28.6086 365.854 31.6687 366.025 34.8774C366.197 38.0861 365.296 41.2607 363.463 43.9002C361.631 46.5397 358.971 48.4938 355.905 49.4542C352.838 50.4146 349.539 50.3266 346.529 49.2042C343.518 48.0817 340.966 45.9886 339.277 43.2552C337.588 40.5217 336.857 37.3036 337.199 34.1086C337.542 30.9137 338.939 27.9237 341.169 25.6106C343.399 23.2974 346.336 21.7928 349.517 21.3342V20.1543C349.243 20.1543 348.98 20.0454 348.786 19.8517C348.593 19.6579 348.484 19.3951 348.484 19.1211ZM351.583 23.2538C349.955 23.254 348.343 23.5748 346.839 24.198C345.335 24.8212 343.968 25.7346 342.817 26.886C340.492 29.2113 339.186 32.3649 339.186 35.6532C339.186 38.9414 340.493 42.0948 342.818 44.4198C345.143 46.7447 348.297 48.0507 351.585 48.0504C354.874 48.0502 358.027 46.7436 360.352 44.4183C362.677 42.093 363.983 38.9393 363.983 35.6511C363.982 32.3629 362.676 29.2094 360.35 26.8845C358.025 24.5596 354.872 23.2536 351.583 23.2538Z" fill="#009DE0"/>
<path d="M349.21 39.0315V40.5015H343.064V39.0315H345.248V32.6055L343.218 33.8235V32.2135L345.99 30.5335H347.04V39.0315H349.21ZM354.622 34.1315C355.247 34.1315 355.798 34.2668 356.274 34.5375C356.75 34.7988 357.119 35.1721 357.38 35.6575C357.641 36.1335 357.772 36.6841 357.772 37.3095C357.772 37.9628 357.623 38.5415 357.324 39.0455C357.025 39.5401 356.596 39.9275 356.036 40.2075C355.476 40.4781 354.827 40.6135 354.09 40.6135C353.465 40.6135 352.849 40.5108 352.242 40.3055C351.635 40.0908 351.136 39.8061 350.744 39.4515L351.346 38.1355C352.251 38.8261 353.175 39.1715 354.118 39.1715C354.743 39.1715 355.219 39.0175 355.546 38.7095C355.882 38.3921 356.05 37.9441 356.05 37.3655C356.05 36.8148 355.877 36.3761 355.532 36.0495C355.196 35.7135 354.743 35.5455 354.174 35.5455C353.782 35.5455 353.413 35.6201 353.068 35.7695C352.723 35.9095 352.419 36.1195 352.158 36.3995H351.066V30.5335H357.31V31.9335H352.83V34.6495C353.334 34.3041 353.931 34.1315 354.622 34.1315ZM361.015 30.5335V31.8215C361.015 32.3161 360.931 32.7641 360.763 33.1655C360.595 33.5575 360.31 33.9541 359.909 34.3555L359.195 33.7955C359.615 33.3475 359.867 32.9135 359.951 32.4935H359.055V30.5335H361.015Z" fill="white"/>
<defs>
<clipPath id="clip0">
<rect width="326" height="57.4" fill="white" transform="translate(0.0822754 0.357422)"/>
</clipPath>
</defs>
</svg>
