<svg width="340" height="65" viewBox="0 0 340 65" fill="none" xmlns="http://www.w3.org/2000/svg">
<g clip-path="url(#clip0)">
<path d="M0.432251 0.594971H1.83225C4.03225 0.594971 6.13225 1.19497 6.13225 3.79497C6.13225 4.69497 5.63225 5.69497 4.83225 5.99497C6.23225 6.29497 7.23225 7.59497 7.23225 8.99497C7.23225 11.395 5.23225 12.295 3.13225 12.295H0.432251V0.594971ZM1.93225 5.79497H2.33225C3.73225 5.79497 4.83225 5.49497 4.83225 3.79497C4.83225 2.09497 3.73225 1.89497 2.33225 1.89497H1.93225V5.79497ZM1.93225 10.995H3.03225C4.43225 10.995 5.83225 10.595 5.83225 8.89497C5.83225 7.19497 4.13225 6.89497 2.83225 6.89497H1.93225V10.995Z" fill="#5B9CD6"/>
<path d="M10.4323 10.995H14.0323V12.295H8.93225V0.594971H10.4323V10.995Z" fill="#5B9CD6"/>
<path d="M26.5323 6.49517C26.5323 9.99517 23.7323 12.6952 20.3323 12.6952C16.9323 12.6952 14.1323 10.0952 14.1323 6.49517C14.1323 3.09517 16.9323 0.295166 20.3323 0.295166C23.7323 0.295166 26.5323 3.09517 26.5323 6.49517ZM25.0323 6.49517C25.0323 3.89517 23.1323 1.69517 20.3323 1.69517C17.5323 1.69517 15.6323 3.89517 15.6323 6.49517C15.6323 9.19517 17.8323 11.2952 20.3323 11.2952C22.8323 11.2952 25.0323 9.19517 25.0323 6.49517Z" fill="#5B9CD6"/>
<path d="M37.6322 12.5951L36.6322 11.5951C35.6322 12.2951 34.4322 12.5951 33.2322 12.5951C29.8322 12.5951 27.0322 9.99507 27.0322 6.39507C27.0322 2.99507 29.8322 0.195068 33.2322 0.195068C36.6322 0.195068 39.4322 2.99507 39.4322 6.39507C39.4322 8.09507 38.7322 9.69507 37.5322 10.7951L39.3322 12.5951H37.6322ZM36.6322 9.79507C37.5322 8.99507 38.0322 7.59507 38.0322 6.49507C38.0322 3.89507 36.1322 1.69507 33.3322 1.69507C30.5322 1.69507 28.6322 3.89507 28.6322 6.49507C28.6322 9.19507 30.8322 11.2951 33.3322 11.2951C34.0322 11.2951 34.9322 11.0951 35.6322 10.5951L32.9322 7.99507H34.7322L36.6322 9.79507Z" fill="#5B9CD6"/>
<path d="M42.1322 0.594971V7.59497C42.1322 9.49497 42.7322 11.295 44.9322 11.295C47.2322 11.295 47.8322 9.49497 47.8322 7.59497V0.594971H49.3322V8.09497C49.3322 10.695 47.7322 12.695 45.0322 12.695C42.3322 12.695 40.7322 10.695 40.7322 8.09497V0.594971H42.1322Z" fill="#5B9CD6"/>
<path d="M51.4323 0.594971H57.7323V1.89497H52.8323V5.19497H57.5322V6.49497H52.8323V10.995H57.7323V12.295H51.4323V0.594971Z" fill="#5B9CD6"/>
<path d="M5.13226 30.9951V23.4951H18.9323V57.6951H10.0323V30.9951H5.13226Z" fill="#5B9CD6"/>
<path d="M32.2322 33.2951C32.6322 29.6951 34.0322 26.9951 36.2322 25.0951C38.4322 23.1951 41.4323 22.1951 44.9323 22.1951C51.0322 22.1951 55.8323 25.6951 55.8323 32.0951C55.8323 34.7951 54.7323 37.6951 52.2323 39.0951C55.8323 40.0951 57.8323 44.1951 57.8323 47.6951C57.8323 55.1951 51.3322 58.9951 44.5322 58.9951C40.6322 58.9951 37.1323 57.9951 34.3323 55.0951C32.3323 52.9951 30.3323 49.4951 30.4323 46.4951H39.5322C39.5322 49.1951 41.4323 51.2951 44.3323 51.2951C47.0323 51.2951 49.1323 49.4951 49.1323 46.6951C49.1323 44.0951 46.9323 42.0951 44.4323 42.0951C43.9323 42.0951 43.4323 42.1951 42.9323 42.3951V36.4951H43.8323C46.1323 36.4951 47.7323 35.0951 47.7323 32.6951C47.7323 30.5951 46.2322 29.2951 44.2322 29.2951C41.9322 29.2951 40.5323 30.9951 40.6323 33.1951H32.2322V33.2951Z" fill="#5B9CD6"/>
<path d="M73.8323 64.4952V13.7952H97.7323V40.4952C97.7323 53.7952 87.0323 64.4952 73.8323 64.4952Z" fill="#A9C5DC"/>
<path d="M126.332 18.8951V22.6951H131.632V25.5951H126.332V30.1951H131.832V33.0951H123.032V15.9951H131.832V18.8951H126.332Z" fill="#858686"/>
<path d="M140.032 27.1951C140.032 28.7951 140.032 30.0951 139.032 31.4951C138.132 32.7951 136.732 33.3951 135.232 33.3951C134.032 33.3951 132.732 32.6951 131.932 31.7951L134.032 29.3951C134.232 29.8951 134.732 30.4951 135.332 30.4951C136.932 30.4951 136.732 27.6951 136.732 26.5951V15.9951H140.032V27.1951Z" fill="#858686"/>
<path d="M145.332 18.8951V22.6951H150.632V25.5951H145.332V30.1951H150.832V33.0951H142.032V15.9951H150.832V18.8951H145.332Z" fill="#858686"/>
<path d="M164.032 20.4951C163.132 19.3951 161.732 18.6951 160.232 18.6951C157.032 18.6951 155.232 21.5951 155.232 24.5951C155.232 27.4951 157.132 30.2951 160.232 30.2951C161.632 30.2951 163.132 29.5951 164.032 28.4951V32.4951C162.832 33.0951 161.532 33.4951 160.132 33.4951C155.332 33.4951 151.732 29.3951 151.732 24.5951C151.732 19.7951 155.132 15.4951 160.132 15.4951C161.432 15.4951 162.732 15.8951 163.932 16.4951V20.4951H164.032Z" fill="#858686"/>
<path d="M165.632 15.9951H168.932V25.5951C168.932 27.6951 169.132 30.6951 171.932 30.6951C174.732 30.6951 174.932 27.6951 174.932 25.5951V15.9951H178.232V26.1951C178.232 30.3951 176.432 33.4951 171.932 33.4951C167.332 33.4951 165.632 30.3951 165.632 26.1951V15.9951Z" fill="#858686"/>
<path d="M191.632 20.4951C190.732 19.3951 189.332 18.6951 187.832 18.6951C184.632 18.6951 182.832 21.5951 182.832 24.5951C182.832 27.4951 184.732 30.2951 187.832 30.2951C189.232 30.2951 190.732 29.5951 191.632 28.4951V32.4951C190.432 33.0951 189.132 33.4951 187.732 33.4951C182.932 33.4951 179.332 29.3951 179.332 24.5951C179.332 19.7951 182.732 15.4951 187.732 15.4951C189.032 15.4951 190.332 15.8951 191.532 16.4951V20.4951H191.632Z" fill="#858686"/>
<path d="M196.732 32.9951H193.432V15.9951H196.732V32.9951Z" fill="#858686"/>
<path d="M206.332 33.495C201.132 33.495 197.932 29.495 197.932 24.495C197.932 19.395 201.332 15.495 206.332 15.495C211.332 15.495 214.732 19.395 214.732 24.495C214.732 29.495 211.532 33.495 206.332 33.495ZM206.332 18.795C203.232 18.795 201.332 21.595 201.332 24.295C201.332 26.895 202.632 30.195 206.332 30.195C210.032 30.195 211.332 26.995 211.332 24.295C211.332 21.595 209.432 18.795 206.332 18.795ZM209.532 11.795L206.132 15.195L204.532 14.195L207.232 10.395L209.532 11.795Z" fill="#858686"/>
<path d="M215.932 15.4951H218.332L227.332 27.3951V15.9951H230.632V33.3951H228.232L219.232 21.4951V33.0951H215.932V15.4951Z" fill="#858686"/>
<path d="M131.032 46.895C130.432 45.995 129.632 45.495 128.432 45.495C127.332 45.495 126.332 46.295 126.332 47.395C126.332 50.295 133.132 49.095 133.132 54.795C133.132 58.195 131.032 60.595 127.532 60.595C125.132 60.595 123.432 59.195 122.232 57.295L124.432 55.195C124.932 56.495 126.132 57.695 127.532 57.695C128.932 57.695 129.732 56.495 129.732 55.195C129.732 53.395 128.132 52.895 126.732 52.395C124.532 51.495 122.932 50.395 122.932 47.695C122.932 44.895 125.032 42.595 127.932 42.595C129.432 42.595 131.532 43.295 132.632 44.495L131.032 46.895Z" fill="#858686"/>
<path d="M137.832 60.1951H134.532V43.1951H137.832V60.1951Z" fill="#858686"/>
<path d="M147.832 46.895C147.232 45.995 146.432 45.495 145.232 45.495C144.132 45.495 143.132 46.295 143.132 47.395C143.132 50.295 149.932 49.095 149.932 54.795C149.932 58.195 147.832 60.595 144.332 60.595C141.932 60.595 140.232 59.195 139.032 57.295L141.232 55.195C141.732 56.495 142.932 57.695 144.332 57.695C145.732 57.695 146.532 56.495 146.532 55.195C146.532 53.395 144.932 52.895 143.532 52.395C141.332 51.495 139.732 50.395 139.732 47.695C139.732 44.895 141.832 42.595 144.732 42.595C146.232 42.595 148.332 43.295 149.432 44.495L147.832 46.895Z" fill="#858686"/>
<path d="M156.832 60.1951H153.432V46.0951H150.032V43.1951H160.232V46.0951H156.832V60.1951Z" fill="#858686"/>
<path d="M164.332 46.0951V49.8951H169.632V52.7951H164.332V57.2951H169.832V60.1951H161.032V43.1951H169.832V46.0951H164.332Z" fill="#858686"/>
<path d="M184.332 49.5951L180.432 60.3951H179.232L175.532 49.5951L174.032 60.1951H170.632L173.532 42.6951H175.932L180.132 53.8951L184.132 42.6951H186.532L189.132 60.1951H185.732L184.332 49.5951Z" fill="#858686"/>
<path d="M193.532 56.5951L192.132 60.1951H188.632L195.332 42.6951H197.932L204.432 60.1951H200.832L199.532 56.5951H193.532ZM196.432 47.6951L194.532 53.8951H198.632L196.432 47.6951Z" fill="#858686"/>
<path d="M212.932 46.895C212.332 45.995 211.532 45.495 210.332 45.495C209.232 45.495 208.232 46.295 208.232 47.395C208.232 50.295 215.032 49.095 215.032 54.795C215.032 58.195 212.932 60.595 209.432 60.595C207.032 60.595 205.332 59.195 204.132 57.295L206.332 55.195C206.832 56.495 208.032 57.695 209.432 57.695C210.832 57.695 211.632 56.495 211.632 55.195C211.632 53.395 210.032 52.895 208.632 52.395C206.432 51.495 204.832 50.395 204.832 47.695C204.832 44.895 206.932 42.595 209.832 42.595C211.332 42.595 213.432 43.295 214.532 44.495L212.932 46.895Z" fill="#858686"/>
<path d="M231.132 43.1951H235.232L228.732 51.0951L235.532 60.2951H231.232L225.732 52.5951V60.2951H222.432V43.1951H225.732V50.2951L231.132 43.1951Z" fill="#858686"/>
<path d="M236.132 42.6951H238.532L247.532 54.5951V43.1951H250.832V60.5951H248.432L239.432 48.6951V60.2951H236.132V42.6951Z" fill="#858686"/>
<path d="M256.332 56.5951L254.932 60.1951H251.432L258.132 42.6951H260.732L267.232 60.1951H263.632L262.332 56.5951H256.332ZM259.132 47.6951L257.232 53.8951H261.332L259.132 47.6951Z" fill="#858686"/>
<path d="M267.632 43.1951H270.932V52.7951C270.932 54.8951 271.132 57.8951 273.932 57.8951C276.732 57.8951 276.932 54.8951 276.932 52.7951V43.1951H280.232V53.3951C280.232 57.5951 278.432 60.6951 273.932 60.6951C269.432 60.6951 267.632 57.5951 267.632 53.3951V43.1951Z" fill="#858686"/>
<path d="M285.532 46.0951V49.8951H290.332V52.7951H285.532V60.2951H282.232V43.1951H290.732V46.0951H285.532Z" fill="#858686"/>
</g>
<circle cx="324.874" cy="45.7893" r="13.2082" fill="#009DE0"/>
<path d="M321.711 29.2007C321.711 28.9267 321.82 28.6639 322.013 28.4701C322.207 28.2763 322.47 28.1675 322.744 28.1675H326.877C327.151 28.1675 327.414 28.2763 327.607 28.4701C327.801 28.6639 327.91 28.9267 327.91 29.2007C327.91 29.4747 327.801 29.7375 327.607 29.9312C327.414 30.125 327.151 30.2339 326.877 30.2339V31.4117C329.687 31.8167 332.237 33.0235 334.283 34.8006C334.291 34.7915 334.299 34.7826 334.307 34.7737L335.039 34.0422L334.307 33.3128C334.113 33.119 334.004 32.8562 334.004 32.582C334.004 32.3078 334.113 32.0448 334.306 31.8508C334.5 31.6568 334.763 31.5477 335.037 31.5475C335.311 31.5473 335.574 31.656 335.768 31.8498L338.69 34.7737C338.789 34.869 338.868 34.983 338.922 35.1091C338.976 35.2351 339.004 35.3707 339.006 35.5079C339.007 35.6451 338.981 35.7811 338.929 35.9081C338.877 36.0351 338.8 36.1504 338.703 36.2474C338.606 36.3445 338.491 36.4212 338.364 36.4731C338.237 36.5251 338.101 36.5512 337.963 36.55C337.826 36.5488 337.691 36.5203 337.565 36.4662C337.439 36.412 337.325 36.3333 337.229 36.2346L336.5 35.5031L335.768 36.2346C335.76 36.2431 335.751 36.2513 335.741 36.2594C337.845 38.6882 339.081 41.7483 339.253 44.957C339.424 48.1657 338.523 51.3403 336.69 53.9798C334.858 56.6193 332.198 58.5734 329.132 59.5338C326.065 60.4942 322.767 60.4062 319.756 59.2837C316.745 58.1613 314.193 56.0682 312.504 53.3347C310.815 50.6013 310.084 47.3832 310.426 44.1882C310.769 40.9932 312.166 38.0033 314.396 35.6902C316.626 33.377 319.564 31.8724 322.744 31.4138V30.2339C322.47 30.2339 322.207 30.125 322.013 29.9312C321.82 29.7375 321.711 29.4747 321.711 29.2007ZM324.81 33.3334C323.182 33.3336 321.57 33.6544 320.066 34.2776C318.562 34.9008 317.195 35.8142 316.044 36.9655C313.719 39.2909 312.413 42.4445 312.413 45.7328C312.413 49.021 313.72 52.1744 316.045 54.4994C318.37 56.8243 321.524 58.1303 324.812 58.13C328.101 58.1297 331.254 56.8232 333.579 54.4979C335.904 52.1726 337.21 49.0189 337.21 45.7307C337.209 42.4425 335.903 39.289 333.578 36.9641C331.252 34.6391 328.099 33.3332 324.81 33.3334Z" fill="#009DE0"/>
<path d="M320.463 45.4571C321.051 45.6157 321.499 45.9051 321.807 46.3251C322.124 46.7451 322.283 47.2631 322.283 47.8791C322.283 48.7471 321.961 49.4331 321.317 49.9371C320.682 50.4411 319.823 50.6931 318.741 50.6931C318.069 50.6931 317.42 50.5904 316.795 50.3851C316.179 50.1797 315.67 49.8951 315.269 49.5311L315.885 48.2151C316.771 48.9057 317.7 49.2511 318.671 49.2511C319.305 49.2511 319.777 49.1251 320.085 48.8731C320.402 48.6211 320.561 48.2384 320.561 47.7251C320.561 47.2211 320.402 46.8524 320.085 46.6191C319.767 46.3764 319.277 46.2551 318.615 46.2551H317.299V44.8131H318.377C319.665 44.8131 320.309 44.3231 320.309 43.3431C320.309 42.8857 320.169 42.5357 319.889 42.2931C319.609 42.0504 319.217 41.9291 318.713 41.9291C317.817 41.9291 316.921 42.2744 316.025 42.9651L315.423 41.6491C315.824 41.2944 316.328 41.0144 316.935 40.8091C317.551 40.5944 318.181 40.4871 318.825 40.4871C319.805 40.4871 320.584 40.7297 321.163 41.2151C321.751 41.6911 322.045 42.3304 322.045 43.1331C322.035 43.6837 321.891 44.1644 321.611 44.5751C321.34 44.9764 320.957 45.2704 320.463 45.4571ZM327.317 50.7071C326.132 50.7071 325.226 50.2731 324.601 49.4051C323.985 48.5277 323.677 47.2537 323.677 45.5831C323.677 43.9404 323.985 42.6851 324.601 41.8171C325.226 40.9491 326.132 40.5151 327.317 40.5151C328.503 40.5151 329.403 40.9491 330.019 41.8171C330.645 42.6757 330.957 43.9311 330.957 45.5831C330.957 47.2444 330.645 48.5137 330.019 49.3911C329.403 50.2684 328.503 50.7071 327.317 50.7071ZM327.317 49.2931C327.961 49.2931 328.428 48.9991 328.717 48.4111C329.016 47.8137 329.165 46.8711 329.165 45.5831C329.165 44.3137 329.016 43.3897 328.717 42.8111C328.428 42.2231 327.961 41.9291 327.317 41.9291C326.673 41.9291 326.202 42.2231 325.903 42.8111C325.614 43.3897 325.469 44.3137 325.469 45.5831C325.469 46.8711 325.614 47.8137 325.903 48.4111C326.202 48.9991 326.673 49.2931 327.317 49.2931ZM334.242 40.6131V41.9011C334.242 42.3957 334.158 42.8437 333.99 43.2451C333.822 43.6371 333.537 44.0337 333.136 44.4351L332.422 43.8751C332.842 43.4271 333.094 42.9931 333.178 42.5731H332.282V40.6131H334.242Z" fill="white"/>
<defs>
<clipPath id="clip0">
<rect width="290.2" height="64.2" fill="white" transform="translate(0.432251 0.295166)"/>
</clipPath>
</defs>
</svg>
