<svg width="272" height="60" viewBox="0 0 272 60" fill="none" xmlns="http://www.w3.org/2000/svg">
<g clip-path="url(#clip0)">
<path d="M1.80798 0.630615H3.30798C5.50798 0.630615 7.60798 1.23062 7.60798 3.83062C7.60798 4.73062 7.10798 5.73061 6.30798 6.03061C7.70798 6.33062 8.70798 7.63061 8.70798 9.03061C8.70798 11.4306 6.70798 12.3306 4.60798 12.3306H1.80798V0.630615ZM3.30798 5.83062H3.70798C5.10798 5.83062 6.20798 5.53062 6.20798 3.83062C6.20798 2.13062 5.10798 1.93062 3.70798 1.93062H3.30798V5.83062ZM3.30798 11.0306H4.40798C5.80798 11.0306 7.20798 10.6306 7.20798 8.93062C7.20798 7.23062 5.50798 6.93061 4.20798 6.93061H3.30798V11.0306Z" fill="#5B9CD6"/>
<path d="M11.808 11.0306H15.408V12.3306H10.308V0.630615H11.808V11.0306Z" fill="#5B9CD6"/>
<path d="M27.908 6.53057C27.908 10.0306 25.108 12.7306 21.708 12.7306C18.308 12.7306 15.508 10.1306 15.508 6.53057C15.508 3.13057 18.308 0.330566 21.708 0.330566C25.108 0.330566 27.908 3.13057 27.908 6.53057ZM26.408 6.53057C26.408 3.93057 24.508 1.73057 21.708 1.73057C18.908 1.73057 17.008 3.93057 17.008 6.53057C17.008 9.23057 19.208 11.3306 21.708 11.3306C24.208 11.3306 26.408 9.23057 26.408 6.53057Z" fill="#5B9CD6"/>
<path d="M39.108 12.6306L38.108 11.6306C37.108 12.3306 35.908 12.6306 34.708 12.6306C31.308 12.6306 28.508 10.0306 28.508 6.43057C28.508 3.13057 31.308 0.330566 34.708 0.330566C38.108 0.330566 40.908 3.13057 40.908 6.53057C40.908 8.23057 40.208 9.83057 39.108 10.9306L40.908 12.7306H39.108V12.6306ZM38.008 9.83057C38.908 9.03057 39.408 7.63057 39.408 6.53057C39.408 3.93057 37.508 1.73057 34.708 1.73057C31.908 1.73057 30.008 3.93057 30.008 6.53057C30.008 9.23057 32.208 11.3306 34.708 11.3306C35.408 11.3306 36.308 11.1306 37.008 10.6306L34.308 7.93057H36.108L38.008 9.83057Z" fill="#5B9CD6"/>
<path d="M43.608 0.630615V7.63062C43.608 9.53061 44.208 11.3306 46.508 11.3306C48.808 11.3306 49.308 9.53061 49.308 7.63062V0.630615H50.808V8.13062C50.808 10.7306 49.208 12.7306 46.508 12.7306C43.808 12.7306 42.208 10.7306 42.208 8.13062V0.630615H43.608Z" fill="#5B9CD6"/>
<path d="M52.808 0.630615H59.108V1.93062H54.308V5.23062H59.008V6.53061H54.308V11.0306H59.208V12.3306H52.908V0.630615H52.808Z" fill="#5B9CD6"/>
<path d="M29.308 40.6305C29.308 49.5305 25.008 59.0305 14.808 59.0305C4.60798 59.0305 0.307983 49.5305 0.307983 40.6305C0.307983 31.7305 4.60798 22.2305 14.808 22.2305C24.908 22.1305 29.308 31.7305 29.308 40.6305ZM9.10798 40.5305C9.10798 43.8305 10.208 51.1305 14.808 51.1305C19.408 51.1305 20.508 43.8305 20.508 40.5305C20.508 37.2305 19.408 29.9305 14.808 29.9305C10.208 30.0305 9.10798 37.2305 9.10798 40.5305Z" fill="#5B9CD6"/>
<path d="M37.508 57.7305L47.208 46.2305L47.108 46.1305C45.608 46.8305 44.108 47.1305 42.308 47.1305C35.608 47.1305 31.308 41.3305 31.308 35.1305C31.308 26.7305 38.208 22.2305 46.008 22.2305C49.308 22.2305 53.108 23.0305 55.708 25.1305C58.508 27.3305 60.308 30.9305 60.308 34.5305C60.308 39.4305 57.808 44.2305 54.808 48.1305L47.508 57.7305H37.508ZM40.608 34.8305C40.608 37.9305 43.008 40.4305 46.108 40.4305C49.208 40.4305 51.808 37.9305 51.808 34.8305C51.808 31.7305 49.308 29.2305 46.108 29.2305C42.908 29.2305 40.608 31.7305 40.608 34.8305Z" fill="#5B9CD6"/>
<path d="M108.408 35.6306C108.408 46.3306 99.708 55.0306 89.008 55.0306C78.308 55.0306 69.508 46.3306 69.508 35.6306C69.508 24.9306 78.208 16.2306 89.008 16.2306C99.708 16.2306 108.408 24.9306 108.408 35.6306Z" fill="#9CB5C9"/>
<path d="M127.708 30.8306H124.408V13.7306H128.908C132.508 13.7306 134.808 15.1306 134.808 19.0306C134.808 22.6306 132.808 24.4306 129.308 24.4306H127.608V30.8306H127.708ZM127.708 21.6306H128.408C130.408 21.6306 131.408 21.2306 131.408 19.0306C131.408 16.8306 130.108 16.5306 128.308 16.5306H127.708V21.6306Z" fill="#858686"/>
<path d="M147.908 30.8306H143.908L139.808 23.9306V30.8306H136.308V13.7306H140.808C144.208 13.7306 146.508 15.2306 146.508 18.8306C146.508 21.0306 145.308 23.1306 143.008 23.5306L147.908 30.8306ZM139.708 21.6306H140.108C141.908 21.6306 143.208 21.1306 143.208 19.0306C143.208 16.9306 141.908 16.5306 140.108 16.5306H139.608V21.6306H139.708Z" fill="#858686"/>
<path d="M156.608 31.2306C151.408 31.2306 148.208 27.2306 148.208 22.2306C148.208 17.1306 151.608 13.2306 156.608 13.2306C161.608 13.2306 165.008 17.1306 165.008 22.2306C165.008 27.3306 161.808 31.2306 156.608 31.2306ZM156.608 16.6306C153.508 16.6306 151.608 19.4306 151.608 22.1306C151.608 24.7306 152.908 28.0306 156.608 28.0306C160.308 28.0306 161.608 24.8306 161.608 22.1306C161.608 19.3306 159.708 16.6306 156.608 16.6306Z" fill="#858686"/>
<path d="M165.108 13.7306H169.008L172.008 19.6306L175.308 13.7306H179.208L173.808 22.9306V30.7306H170.508V22.9306L165.108 13.7306Z" fill="#858686"/>
<path d="M183.308 16.6306V20.4306H188.608V23.3306H183.308V27.9306H188.808V30.8306H180.008V13.7306H188.808V16.6306H183.308Z" fill="#858686"/>
<path d="M202.408 18.3306C201.508 17.2306 200.108 16.5306 198.608 16.5306C195.408 16.5306 193.608 19.4306 193.608 22.4306C193.608 25.3306 195.508 28.1306 198.608 28.1306C200.008 28.1306 201.508 27.4306 202.408 26.3306V30.3306C201.208 30.9306 199.908 31.3306 198.508 31.3306C193.708 31.3306 190.108 27.2306 190.108 22.4306C190.108 17.6306 193.508 13.3306 198.508 13.3306C199.808 13.3306 201.108 13.7306 202.308 14.3306V18.3306H202.408Z" fill="#858686"/>
<path d="M210.208 30.8306H206.908V16.6306H203.508V13.7306H213.708V16.6306H210.308V30.8306H210.208Z" fill="#858686"/>
<path d="M222.508 31.2306C217.308 31.2306 214.108 27.2306 214.108 22.2306C214.108 17.1306 217.508 13.2306 222.508 13.2306C227.508 13.2306 230.908 17.1306 230.908 22.2306C230.908 27.3306 227.708 31.2306 222.508 31.2306ZM222.508 16.6306C219.408 16.6306 217.508 19.4306 217.508 22.1306C217.508 24.7306 218.808 28.0306 222.508 28.0306C226.208 28.0306 227.508 24.8306 227.508 22.1306C227.508 19.3306 225.608 16.6306 222.508 16.6306Z" fill="#858686"/>
<path d="M240.608 17.5306C240.008 16.6306 239.208 16.1306 238.008 16.1306C236.908 16.1306 235.908 16.9306 235.908 18.0306C235.908 20.9306 242.708 19.7306 242.708 25.4306C242.708 28.8306 240.608 31.2306 237.108 31.2306C234.708 31.2306 233.008 29.8306 231.808 27.9306L234.008 25.8306C234.508 27.1306 235.708 28.3306 237.108 28.3306C238.508 28.3306 239.308 27.1306 239.308 25.8306C239.308 24.0306 237.708 23.5306 236.308 23.0306C234.108 22.1306 232.508 21.0306 232.508 18.3306C232.508 15.5306 234.608 13.2306 237.508 13.2306C239.008 13.2306 241.108 13.9306 242.208 15.1306L240.608 17.5306Z" fill="#858686"/>
<path d="M127.708 43.8305V47.6305H133.008V50.5305H127.708V55.1305H133.208V58.0305H124.408V40.9305H133.208V43.8305H127.708Z" fill="#858686"/>
<path d="M135.408 40.9305H140.208C145.108 40.9305 148.408 44.6305 148.408 49.5305C148.408 54.3305 145.008 58.0305 140.108 58.0305H135.408V40.9305ZM138.708 55.1305H139.208C143.308 55.1305 144.908 52.8305 144.908 49.5305C144.908 45.8305 143.008 43.9305 139.208 43.9305H138.708V55.1305Z" fill="#858686"/>
<path d="M150.008 40.9305H153.308V50.5305C153.308 52.6305 153.508 55.6305 156.308 55.6305C159.108 55.6305 159.308 52.6305 159.308 50.5305V40.9305H162.608V51.1305C162.608 55.3305 160.808 58.4305 156.308 58.4305C151.708 58.4305 150.008 55.3305 150.008 51.1305V40.9305Z" fill="#858686"/>
<path d="M176.408 45.4305C175.508 44.3305 174.108 43.6305 172.608 43.6305C169.408 43.6305 167.608 46.5305 167.608 49.5305C167.608 52.4305 169.508 55.2305 172.608 55.2305C174.008 55.2305 175.508 54.5305 176.408 53.4305V57.4305C175.208 58.0305 173.908 58.4305 172.508 58.4305C167.708 58.4305 164.108 54.3305 164.108 49.5305C164.108 44.7305 167.508 40.4305 172.508 40.4305C173.808 40.4305 175.108 40.8305 176.308 41.4305V45.4305H176.408Z" fill="#858686"/>
<path d="M182.108 54.4305L180.708 58.0305H177.208L183.908 40.5305H186.508L193.008 58.0305H189.308L188.008 54.4305H182.108ZM185.008 45.5305L183.108 51.7305H187.208L185.008 45.5305Z" fill="#858686"/>
<path d="M205.308 45.4305C204.408 44.3305 203.008 43.6305 201.508 43.6305C198.308 43.6305 196.508 46.5305 196.508 49.5305C196.508 52.4305 198.408 55.2305 201.508 55.2305C202.908 55.2305 204.408 54.5305 205.308 53.4305V57.4305C204.108 58.0305 202.808 58.4305 201.408 58.4305C196.608 58.4305 193.008 54.3305 193.008 49.5305C193.008 44.7305 196.408 40.4305 201.408 40.4305C202.708 40.4305 204.008 40.8305 205.208 41.4305V45.4305H205.308Z" fill="#858686"/>
<path d="M210.908 58.0305H207.608V40.9305H210.908V58.0305Z" fill="#858686"/>
<path d="M220.908 58.4305C215.708 58.4305 212.508 54.4305 212.508 49.4305C212.508 44.3305 215.908 40.4305 220.908 40.4305C225.908 40.4305 229.308 44.3305 229.308 49.4305C229.408 54.4305 226.108 58.4305 220.908 58.4305ZM220.908 43.7305C217.808 43.7305 215.908 46.5305 215.908 49.2305C215.908 51.8305 217.208 55.1305 220.908 55.1305C224.608 55.1305 225.908 51.9305 225.908 49.2305C225.908 46.5305 224.108 43.7305 220.908 43.7305Z" fill="#858686"/>
<path d="M231.008 40.4305H233.408L242.408 52.3305V40.9305H245.708V58.3305H243.308L234.308 46.4305V58.0305H231.008V40.4305Z" fill="#858686"/>
<path d="M251.708 54.4305L250.308 58.0305H246.808L253.508 40.5305H256.108L262.608 58.0305H259.008L257.708 54.4305H251.708ZM254.508 45.5305L252.608 51.7305H256.708L254.508 45.5305Z" fill="#858686"/>
<path d="M266.808 55.1305H271.508V58.0305H263.508V40.9305H266.808V55.1305Z" fill="#858686"/>
</g>
<defs>
<clipPath id="clip0">
<rect width="271.2" height="58.7" fill="white" transform="translate(0.307983 0.330566)"/>
</clipPath>
</defs>
</svg>
