<svg width="339" height="62" viewBox="0 0 339 62" fill="none" xmlns="http://www.w3.org/2000/svg">
<g clip-path="url(#clip0)">
<path d="M2.01428 1.13696H3.41428C5.61428 1.13696 7.71428 1.73696 7.71428 4.33695C7.71428 5.23694 7.21428 6.23694 6.41428 6.53694C7.91428 6.83694 8.81428 8.23693 8.81428 9.63692C8.81428 12.0369 6.81428 12.9369 4.71428 12.9369H2.01428V1.13696ZM3.51428 6.33694H3.91428C5.31428 6.33694 6.41428 6.03694 6.41428 4.33695C6.41428 2.63696 5.31428 2.43696 3.91428 2.43696H3.51428V6.33694ZM3.51428 11.5369H4.61428C6.01428 11.5369 7.41428 11.1369 7.41428 9.43693C7.41428 7.73693 5.71428 7.43693 4.41428 7.43693H3.51428V11.5369Z" fill="#5B9CD6"/>
<path d="M12.0143 11.5369H15.6143V12.8369H10.5143V1.13696H12.0143V11.5369Z" fill="#5B9CD6"/>
<path d="M28.1142 7.03713C28.1142 10.5371 25.3142 13.2371 21.9142 13.2371C18.5142 13.2371 15.7142 10.6371 15.7142 7.03713C15.7142 3.63715 18.5142 0.837158 21.9142 0.837158C25.3142 0.837158 28.1142 3.63715 28.1142 7.03713ZM26.6142 7.03713C26.6142 4.43714 24.7142 2.23715 21.9142 2.23715C19.1142 2.23715 17.2142 4.43714 17.2142 7.03713C17.2142 9.73712 19.4142 11.8371 21.9142 11.8371C24.4142 11.8371 26.6142 9.73712 26.6142 7.03713Z" fill="#5B9CD6"/>
<path d="M39.2143 13.137L38.2143 12.037C37.2143 12.737 36.0143 13.137 34.8143 13.137C31.4143 13.137 28.6143 10.537 28.6143 6.93703C28.6143 3.53705 31.4143 0.737061 34.8143 0.737061C38.2143 0.737061 41.0143 3.53705 41.0143 6.93703C41.0143 8.63702 40.3143 10.237 39.2143 11.337L41.0143 13.137H39.2143ZM38.2143 10.337C39.1143 9.53702 39.6143 8.13703 39.6143 7.03703C39.6143 4.43704 37.7143 2.23705 34.9143 2.23705C32.1143 2.23705 30.2143 4.43704 30.2143 7.03703C30.2143 9.73702 32.4143 11.837 34.9143 11.837C35.6143 11.837 36.5143 11.637 37.2143 11.137L34.5143 8.53703H36.3143L38.2143 10.337Z" fill="#5B9CD6"/>
<path d="M43.7143 1.13696V8.13693C43.7143 10.0369 44.3143 11.8369 46.6143 11.8369C48.9143 11.8369 49.4143 10.0369 49.4143 8.13693V1.13696H50.9143V8.63693C50.9143 11.2369 49.3143 13.2369 46.6143 13.2369C43.9143 13.2369 42.3143 11.2369 42.3143 8.63693V1.13696H43.7143Z" fill="#5B9CD6"/>
<path d="M52.9143 1.13696H59.2143V2.43696H54.3143V5.73694H59.0143V7.03694H54.3143V11.5369H59.2143V12.8369H52.9143V1.13696Z" fill="#5B9CD6"/>
<path d="M28.4143 50.6368V58.1368H0.914307L14.9143 42.9369C16.9143 40.7369 18.8143 37.6369 18.8143 34.5369C18.8143 32.3369 17.3143 30.1369 14.9143 30.1369C12.5143 30.1369 11.2143 32.0369 11.2143 34.3369C11.2143 34.8369 11.2143 35.3369 11.3143 35.7369H1.51431C1.81431 27.9369 6.81431 22.637 14.8143 22.637C22.0143 22.637 28.0143 27.3369 28.0143 34.7369C28.0143 39.6369 26.0143 42.4369 22.5143 45.6369L17.2143 50.5368H28.4143V50.6368Z" fill="#5B9CD6"/>
<path d="M60.5143 41.1369C60.5143 50.0368 56.2143 59.5368 46.0143 59.5368C35.8143 59.5368 31.5143 49.9369 31.5143 41.1369C31.5143 32.3369 35.9143 22.637 46.0143 22.637C56.2143 22.637 60.5143 32.2369 60.5143 41.1369ZM40.4143 41.0369C40.4143 44.3369 41.5143 51.6368 46.1143 51.6368C50.7143 51.6368 51.8143 44.3369 51.8143 41.0369C51.8143 37.7369 50.7143 30.4369 46.1143 30.4369C41.4143 30.5369 40.4143 37.7369 40.4143 41.0369Z" fill="#5B9CD6"/>
<path d="M102.214 39.6368C102.214 45.6368 99.8144 51.1368 95.8144 55.0367C91.9144 58.9367 86.4144 61.4367 80.4144 61.4367H72.6144V17.8369H80.4144C92.4144 17.8369 102.214 27.6369 102.214 39.6368Z" fill="#5797D3"/>
<path d="M128.914 30.2369L127.514 33.8368H124.014L130.714 16.3369H133.314L139.814 33.8368H136.214L134.914 30.2369H128.914ZM131.714 21.2369L129.814 27.4369H133.914L131.714 21.2369Z" fill="#858686"/>
<path d="M144.014 30.937H148.714V33.837H140.714V16.7371H144.014V30.937Z" fill="#858686"/>
<path d="M154.714 33.837H151.414V19.637H147.914V16.7371H158.114V19.637H154.714V33.837Z" fill="#858686"/>
<path d="M161.014 30.2369L159.614 33.8368H156.114L162.814 16.3369H165.414L171.914 33.8368H168.314L167.014 30.2369H161.014ZM163.914 21.2369L162.014 27.4369H166.114L163.914 21.2369Z" fill="#858686"/>
<path d="M180.914 20.4369C180.314 19.5369 179.514 19.0369 178.314 19.0369C177.214 19.0369 176.214 19.8369 176.214 20.9369C176.214 23.8369 183.014 22.6369 183.014 28.3369C183.014 31.7369 180.914 34.1369 177.414 34.1369C175.014 34.1369 173.314 32.7369 172.114 30.8369L174.314 28.7369C174.814 30.0369 176.014 31.2369 177.414 31.2369C178.814 31.2369 179.614 30.0369 179.614 28.7369C179.614 26.9369 178.014 26.4369 176.614 25.9369C174.414 25.0369 172.814 23.9369 172.814 21.2369C172.814 18.437 174.914 16.137 177.814 16.137C179.314 16.137 181.414 16.837 182.514 18.037L180.914 20.4369Z" fill="#858686"/>
<path d="M128.714 60.9369H125.414V43.937H129.914C133.514 43.937 135.814 45.337 135.814 49.237C135.814 52.837 133.814 54.637 130.314 54.637H128.614V60.9369H128.714ZM128.714 51.837H129.414C131.414 51.837 132.414 51.437 132.414 49.237C132.414 47.037 131.114 46.737 129.314 46.737H128.714V51.837Z" fill="#858686"/>
<path d="M148.914 60.9369H144.914L140.814 54.037V60.9369H137.514V43.937H142.014C145.414 43.937 147.714 45.437 147.714 49.037C147.714 51.237 146.514 53.337 144.214 53.737L148.914 60.9369ZM140.714 51.737H141.114C142.914 51.737 144.214 51.237 144.214 49.137C144.214 47.037 142.914 46.637 141.114 46.637H140.614V51.737H140.714Z" fill="#858686"/>
<path d="M153.314 46.837V50.637H158.614V53.537H153.314V58.137H158.814V61.0369H150.014V43.937H158.814V46.837H153.314Z" fill="#858686"/>
<path d="M169.114 47.6369C168.514 46.7369 167.714 46.2369 166.514 46.2369C165.414 46.2369 164.414 47.0369 164.414 48.1369C164.414 51.0369 171.214 49.8369 171.214 55.5369C171.214 58.9368 169.114 61.3368 165.614 61.3368C163.214 61.3368 161.514 59.9368 160.314 58.0369L162.514 55.9369C163.014 57.2369 164.214 58.4368 165.614 58.4368C167.014 58.4368 167.814 57.2369 167.814 55.9369C167.814 54.1369 166.214 53.6369 164.814 53.1369C162.614 52.2369 161.014 51.1369 161.014 48.4369C161.014 45.6369 163.114 43.3369 166.014 43.3369C167.514 43.3369 169.614 44.0369 170.714 45.2369L169.114 47.6369Z" fill="#858686"/>
<path d="M178.514 60.9369H175.214V46.837H171.814V43.937H181.914V46.837H178.514V60.9369Z" fill="#858686"/>
<path d="M184.914 57.337L183.514 60.9369H179.914L186.614 43.437H189.214L195.714 60.9369H192.114L190.814 57.337H184.914ZM187.714 48.437L185.814 54.637H189.914L187.714 48.437Z" fill="#858686"/>
<path d="M208.114 48.437C207.214 47.337 205.814 46.637 204.314 46.637C201.114 46.637 199.314 49.537 199.314 52.537C199.314 55.437 201.214 58.2369 204.314 58.2369C205.714 58.2369 207.214 57.5369 208.114 56.437V60.4369C206.914 61.0369 205.614 61.4369 204.214 61.4369C199.414 61.4369 195.814 57.337 195.814 52.537C195.814 47.737 199.214 43.437 204.214 43.437C205.514 43.437 206.814 43.837 208.014 44.437V48.437H208.114Z" fill="#858686"/>
<path d="M213.614 60.9369H210.314V43.937H213.614V60.9369Z" fill="#858686"/>
<path d="M223.714 61.4369C218.514 61.4369 215.314 57.4369 215.314 52.437C215.314 47.337 218.714 43.437 223.714 43.437C228.714 43.437 232.114 47.337 232.114 52.437C232.114 57.4369 228.914 61.4369 223.714 61.4369ZM223.714 46.737C220.614 46.737 218.714 49.537 218.714 52.237C218.714 54.837 220.014 58.1369 223.714 58.1369C227.414 58.1369 228.714 54.937 228.714 52.237C228.714 49.537 226.814 46.737 223.714 46.737Z" fill="#858686"/>
<path d="M233.814 43.437H236.214L245.214 55.337V43.937H248.514V61.3369H246.114L237.114 49.437V61.0369H233.814V43.437Z" fill="#858686"/>
<path d="M254.314 46.837V50.637H259.614V53.537H254.314V58.137H259.814V61.0369H250.914V43.937H259.714V46.837H254.314Z" fill="#858686"/>
<path d="M270.014 47.6369C269.414 46.7369 268.614 46.2369 267.414 46.2369C266.314 46.2369 265.314 47.0369 265.314 48.1369C265.314 51.0369 272.114 49.8369 272.114 55.5369C272.114 58.9368 270.014 61.3368 266.514 61.3368C264.114 61.3368 262.414 59.9368 261.214 58.0369L263.414 55.9369C263.914 57.2369 265.114 58.4368 266.514 58.4368C267.914 58.4368 268.714 57.2369 268.714 55.9369C268.714 54.1369 267.114 53.6369 265.714 53.1369C263.514 52.2369 261.914 51.1369 261.914 48.4369C261.914 45.6369 264.014 43.3369 266.914 43.3369C268.414 43.3369 270.514 44.0369 271.614 45.2369L270.014 47.6369Z" fill="#858686"/>
</g>
<circle cx="323.583" cy="45.9895" r="13.2082" fill="#009DE0"/>
<path d="M320.42 29.4009C320.42 29.1268 320.528 28.8641 320.722 28.6703C320.916 28.4765 321.179 28.3677 321.453 28.3677H325.586C325.86 28.3677 326.122 28.4765 326.316 28.6703C326.51 28.8641 326.619 29.1268 326.619 29.4009C326.619 29.6749 326.51 29.9377 326.316 30.1314C326.122 30.3252 325.86 30.4341 325.586 30.4341V31.6119C328.396 32.0169 330.946 33.2237 332.991 35.0008C333 34.9917 333.008 34.9828 333.016 34.9739L333.748 34.2424L333.016 33.513C332.822 33.3192 332.713 33.0564 332.713 32.7822C332.713 32.508 332.822 32.245 333.015 32.051C333.209 31.857 333.472 31.7479 333.746 31.7477C334.02 31.7475 334.283 31.8562 334.477 32.05L337.399 34.9739C337.498 35.0692 337.576 35.1832 337.631 35.3093C337.685 35.4353 337.713 35.5709 337.714 35.7081C337.716 35.8453 337.69 35.9813 337.638 36.1083C337.586 36.2353 337.509 36.3506 337.412 36.4476C337.315 36.5446 337.2 36.6214 337.073 36.6733C336.946 36.7253 336.81 36.7514 336.672 36.7502C336.535 36.749 336.4 36.7205 336.274 36.6664C336.147 36.6122 336.033 36.5335 335.938 36.4348L335.209 35.7033L334.477 36.4348C334.468 36.4432 334.459 36.4515 334.45 36.4596C336.554 38.8884 337.79 41.9485 337.961 45.1572C338.133 48.3659 337.232 51.5405 335.399 54.18C333.566 56.8195 330.907 58.7736 327.841 59.734C324.774 60.6944 321.475 60.6064 318.465 59.4839C315.454 58.3614 312.902 56.2684 311.213 53.5349C309.524 50.8015 308.793 47.5834 309.135 44.3884C309.478 41.1934 310.874 38.2035 313.105 35.8904C315.335 33.5772 318.272 32.0726 321.453 31.614V30.4341C321.179 30.4341 320.916 30.3252 320.722 30.1314C320.528 29.9377 320.42 29.6749 320.42 29.4009ZM323.519 33.5336C321.891 33.5338 320.279 33.8546 318.775 34.4778C317.27 35.101 315.904 36.0144 314.753 37.1657C312.428 39.4911 311.122 42.6447 311.122 45.933C311.122 49.2212 312.429 52.3746 314.754 54.6996C317.079 57.0245 320.233 58.3305 323.521 58.3302C326.809 58.3299 329.963 57.0234 332.288 54.6981C334.613 52.3728 335.919 49.2191 335.919 45.9309C335.918 42.6427 334.612 39.4892 332.286 37.1643C329.961 34.8393 326.807 33.5334 323.519 33.5336Z" fill="#009DE0"/>
<path d="M321.145 49.3112V50.7812H314.999V49.3112H317.183V42.8852L315.153 44.1032V42.4932L317.925 40.8132H318.975V49.3112H321.145ZM326.558 44.4112C327.183 44.4112 327.734 44.5466 328.21 44.8172C328.686 45.0786 329.055 45.4519 329.316 45.9372C329.577 46.4132 329.708 46.9639 329.708 47.5892C329.708 48.2426 329.559 48.8212 329.26 49.3252C328.961 49.8199 328.532 50.2072 327.972 50.4872C327.412 50.7579 326.763 50.8933 326.026 50.8933C325.401 50.8933 324.785 50.7906 324.178 50.5852C323.571 50.3706 323.072 50.0859 322.68 49.7312L323.282 48.4152C324.187 49.1059 325.111 49.4512 326.054 49.4512C326.679 49.4512 327.155 49.2972 327.482 48.9892C327.818 48.6719 327.986 48.2239 327.986 47.6452C327.986 47.0946 327.813 46.6559 327.468 46.3292C327.132 45.9932 326.679 45.8252 326.11 45.8252C325.718 45.8252 325.349 45.8999 325.004 46.0492C324.659 46.1892 324.355 46.3992 324.094 46.6792H323.002V40.8132H329.246V42.2132H324.766V44.9292C325.27 44.5839 325.867 44.4112 326.558 44.4112ZM332.951 40.8132V42.1012C332.951 42.5959 332.867 43.0439 332.699 43.4452C332.531 43.8372 332.246 44.2339 331.845 44.6352L331.131 44.0752C331.551 43.6272 331.803 43.1932 331.887 42.7732H330.991V40.8132H332.951Z" fill="white"/>
<defs>
<clipPath id="clip0">
<rect width="271.3" height="60.5997" fill="white" transform="translate(0.914307 0.837158)"/>
</clipPath>
</defs>
</svg>
