<svg width="291" height="65" viewBox="0 0 291 65" fill="none" xmlns="http://www.w3.org/2000/svg">
<g clip-path="url(#clip0)">
<path d="M0.0579834 0.706055H1.45798C3.65798 0.706055 5.75798 1.30605 5.75798 3.90605C5.75798 4.80605 5.25798 5.80605 4.45798 6.10605C5.85798 6.40605 6.85798 7.70605 6.85798 9.10605C6.85798 11.5061 4.85798 12.4061 2.75798 12.4061H0.0579834V0.706055ZM1.55798 5.90605H1.95798C3.35798 5.90605 4.45798 5.60605 4.45798 3.90605C4.45798 2.20605 3.35798 2.00605 1.95798 2.00605H1.55798V5.90605ZM1.55798 11.1061H2.65798C4.05798 11.1061 5.45798 10.7061 5.45798 9.00605C5.45798 7.30606 3.75798 7.00605 2.45798 7.00605H1.55798V11.1061Z" fill="#5B9CD6"/>
<path d="M10.058 11.1061H13.658V12.4061H8.55798V0.706055H10.058V11.1061Z" fill="#5B9CD6"/>
<path d="M26.158 6.60601C26.158 10.106 23.358 12.806 19.958 12.806C16.558 12.806 13.758 10.206 13.758 6.60601C13.758 3.20601 16.558 0.406006 19.958 0.406006C23.358 0.406006 26.158 3.20601 26.158 6.60601ZM24.658 6.60601C24.658 4.00601 22.758 1.80601 19.958 1.80601C17.158 1.80601 15.258 4.00601 15.258 6.60601C15.258 9.30601 17.458 11.406 19.958 11.406C22.458 11.406 24.658 9.30601 24.658 6.60601Z" fill="#5B9CD6"/>
<path d="M37.258 12.706L36.258 11.706C35.258 12.406 34.058 12.706 32.858 12.706C29.458 12.706 26.658 10.106 26.658 6.50603C26.658 3.10603 29.458 0.30603 32.858 0.30603C36.258 0.30603 39.058 3.10603 39.058 6.50603C39.058 8.20603 38.358 9.80603 37.158 10.906L38.958 12.706H37.258ZM36.258 9.90603C37.158 9.10603 37.658 7.70603 37.658 6.60603C37.658 4.00603 35.758 1.80603 32.958 1.80603C30.158 1.80603 28.258 4.00603 28.258 6.60603C28.258 9.30603 30.458 11.406 32.958 11.406C33.658 11.406 34.558 11.206 35.258 10.706L32.558 8.10603H34.358L36.258 9.90603Z" fill="#5B9CD6"/>
<path d="M41.758 0.706055V7.70605C41.758 9.60605 42.358 11.4061 44.558 11.4061C46.858 11.4061 47.458 9.60605 47.458 7.70605V0.706055H48.958V8.20605C48.958 10.8061 47.358 12.8061 44.658 12.8061C41.958 12.8061 40.358 10.8061 40.358 8.20605V0.706055H41.758Z" fill="#5B9CD6"/>
<path d="M51.058 0.706055H57.358V2.00605H52.458V5.30605H57.158V6.60605H52.458V11.1061H57.358V12.4061H51.058V0.706055Z" fill="#5B9CD6"/>
<path d="M4.75798 31.1061V23.6061H18.558V57.8061H9.65798V31.1061H4.75798Z" fill="#5B9CD6"/>
<path d="M31.858 33.406C32.258 29.806 33.658 27.106 35.858 25.206C38.058 23.306 41.058 22.306 44.558 22.306C50.658 22.306 55.458 25.806 55.458 32.206C55.458 34.906 54.358 37.806 51.858 39.206C55.458 40.206 57.458 44.306 57.458 47.806C57.458 55.306 50.958 59.106 44.158 59.106C40.258 59.106 36.758 58.106 33.958 55.206C31.958 53.106 29.958 49.606 30.058 46.606H39.158C39.158 49.306 41.058 51.406 43.958 51.406C46.658 51.406 48.758 49.606 48.758 46.806C48.758 44.206 46.558 42.206 44.058 42.206C43.558 42.206 43.058 42.306 42.558 42.506V36.606H43.458C45.758 36.606 47.358 35.206 47.358 32.806C47.358 30.706 45.858 29.406 43.858 29.406C41.558 29.406 40.158 31.106 40.258 33.306H31.858V33.406Z" fill="#5B9CD6"/>
<path d="M73.458 64.606V13.906H97.358V40.606C97.358 53.906 86.658 64.606 73.458 64.606Z" fill="#A9C5DC"/>
<path d="M125.958 19.006V22.806H131.258V25.706H125.958V30.306H131.458V33.206H122.658V16.106H131.458V19.006H125.958Z" fill="#858686"/>
<path d="M139.658 27.306C139.658 28.906 139.658 30.206 138.658 31.606C137.758 32.906 136.358 33.506 134.858 33.506C133.658 33.506 132.358 32.806 131.558 31.906L133.658 29.506C133.858 30.006 134.358 30.606 134.958 30.606C136.558 30.606 136.358 27.806 136.358 26.706V16.106H139.658V27.306Z" fill="#858686"/>
<path d="M144.958 19.006V22.806H150.258V25.706H144.958V30.306H150.458V33.206H141.658V16.106H150.458V19.006H144.958Z" fill="#858686"/>
<path d="M163.658 20.606C162.758 19.506 161.358 18.806 159.858 18.806C156.658 18.806 154.858 21.706 154.858 24.706C154.858 27.606 156.758 30.406 159.858 30.406C161.258 30.406 162.758 29.706 163.658 28.606V32.606C162.458 33.206 161.158 33.606 159.758 33.606C154.958 33.606 151.358 29.506 151.358 24.706C151.358 19.906 154.758 15.606 159.758 15.606C161.058 15.606 162.358 16.006 163.558 16.606V20.606H163.658Z" fill="#858686"/>
<path d="M165.258 16.106H168.558V25.706C168.558 27.806 168.758 30.806 171.558 30.806C174.358 30.806 174.558 27.806 174.558 25.706V16.106H177.858V26.306C177.858 30.506 176.058 33.606 171.558 33.606C166.958 33.606 165.258 30.506 165.258 26.306V16.106Z" fill="#858686"/>
<path d="M191.258 20.606C190.358 19.506 188.958 18.806 187.458 18.806C184.258 18.806 182.458 21.706 182.458 24.706C182.458 27.606 184.358 30.406 187.458 30.406C188.858 30.406 190.358 29.706 191.258 28.606V32.606C190.058 33.206 188.758 33.606 187.358 33.606C182.558 33.606 178.958 29.506 178.958 24.706C178.958 19.906 182.358 15.606 187.358 15.606C188.658 15.606 189.958 16.006 191.158 16.606V20.606H191.258Z" fill="#858686"/>
<path d="M196.358 33.106H193.058V16.106H196.358V33.106Z" fill="#858686"/>
<path d="M205.958 33.606C200.758 33.606 197.558 29.606 197.558 24.606C197.558 19.506 200.958 15.606 205.958 15.606C210.958 15.606 214.358 19.506 214.358 24.606C214.358 29.606 211.158 33.606 205.958 33.606ZM205.958 18.906C202.858 18.906 200.958 21.706 200.958 24.406C200.958 27.006 202.258 30.306 205.958 30.306C209.658 30.306 210.958 27.106 210.958 24.406C210.958 21.706 209.058 18.906 205.958 18.906ZM209.158 11.906L205.758 15.306L204.158 14.306L206.858 10.506L209.158 11.906Z" fill="#858686"/>
<path d="M215.558 15.606H217.958L226.958 27.506V16.106H230.258V33.506H227.858L218.858 21.606V33.206H215.558V15.606Z" fill="#858686"/>
<path d="M130.658 47.0061C130.058 46.1061 129.258 45.6061 128.058 45.6061C126.958 45.6061 125.958 46.4061 125.958 47.5061C125.958 50.4061 132.758 49.2061 132.758 54.9061C132.758 58.3061 130.658 60.7061 127.158 60.7061C124.758 60.7061 123.058 59.3061 121.858 57.4061L124.058 55.3061C124.558 56.6061 125.758 57.8061 127.158 57.8061C128.558 57.8061 129.358 56.6061 129.358 55.3061C129.358 53.5061 127.758 53.0061 126.358 52.5061C124.158 51.6061 122.558 50.5061 122.558 47.8061C122.558 45.0061 124.658 42.7061 127.558 42.7061C129.058 42.7061 131.158 43.4061 132.258 44.6061L130.658 47.0061Z" fill="#858686"/>
<path d="M137.458 60.306H134.158V43.306H137.458V60.306Z" fill="#858686"/>
<path d="M147.458 47.0061C146.858 46.1061 146.058 45.6061 144.858 45.6061C143.758 45.6061 142.758 46.4061 142.758 47.5061C142.758 50.4061 149.558 49.2061 149.558 54.9061C149.558 58.3061 147.458 60.7061 143.958 60.7061C141.558 60.7061 139.858 59.3061 138.658 57.4061L140.858 55.3061C141.358 56.6061 142.558 57.8061 143.958 57.8061C145.358 57.8061 146.158 56.6061 146.158 55.3061C146.158 53.5061 144.558 53.0061 143.158 52.5061C140.958 51.6061 139.358 50.5061 139.358 47.8061C139.358 45.0061 141.458 42.7061 144.358 42.7061C145.858 42.7061 147.958 43.4061 149.058 44.6061L147.458 47.0061Z" fill="#858686"/>
<path d="M156.458 60.306H153.058V46.206H149.658V43.306H159.858V46.206H156.458V60.306Z" fill="#858686"/>
<path d="M163.958 46.206V50.006H169.258V52.906H163.958V57.406H169.458V60.306H160.658V43.306H169.458V46.206H163.958Z" fill="#858686"/>
<path d="M183.958 49.706L180.058 60.506H178.858L175.158 49.706L173.658 60.306H170.258L173.158 42.806H175.558L179.758 54.006L183.758 42.806H186.158L188.758 60.306H185.358L183.958 49.706Z" fill="#858686"/>
<path d="M193.158 56.706L191.758 60.306H188.258L194.958 42.806H197.558L204.058 60.306H200.458L199.158 56.706H193.158ZM196.058 47.806L194.158 54.006H198.258L196.058 47.806Z" fill="#858686"/>
<path d="M212.558 47.0061C211.958 46.1061 211.158 45.6061 209.958 45.6061C208.858 45.6061 207.858 46.4061 207.858 47.5061C207.858 50.4061 214.658 49.2061 214.658 54.9061C214.658 58.3061 212.558 60.7061 209.058 60.7061C206.658 60.7061 204.958 59.3061 203.758 57.4061L205.958 55.3061C206.458 56.6061 207.658 57.8061 209.058 57.8061C210.458 57.8061 211.258 56.6061 211.258 55.3061C211.258 53.5061 209.658 53.0061 208.258 52.5061C206.058 51.6061 204.458 50.5061 204.458 47.8061C204.458 45.0061 206.558 42.7061 209.458 42.7061C210.958 42.7061 213.058 43.4061 214.158 44.6061L212.558 47.0061Z" fill="#858686"/>
<path d="M230.758 43.306H234.858L228.358 51.206L235.158 60.406H230.858L225.358 52.706V60.406H222.058V43.306H225.358V50.406L230.758 43.306Z" fill="#858686"/>
<path d="M235.758 42.806H238.158L247.158 54.706V43.306H250.458V60.706H248.058L239.058 48.806V60.406H235.758V42.806Z" fill="#858686"/>
<path d="M255.958 56.706L254.558 60.306H251.058L257.758 42.806H260.358L266.858 60.306H263.258L261.958 56.706H255.958ZM258.758 47.806L256.858 54.006H260.958L258.758 47.806Z" fill="#858686"/>
<path d="M267.258 43.306H270.558V52.906C270.558 55.006 270.758 58.006 273.558 58.006C276.358 58.006 276.558 55.006 276.558 52.906V43.306H279.858V53.506C279.858 57.706 278.058 60.806 273.558 60.806C269.058 60.806 267.258 57.706 267.258 53.506V43.306Z" fill="#858686"/>
<path d="M285.158 46.206V50.006H289.958V52.906H285.158V60.406H281.858V43.306H290.358V46.206H285.158Z" fill="#858686"/>
</g>
<defs>
<clipPath id="clip0">
<rect width="290.2" height="64.2" fill="white" transform="translate(0.0579834 0.406006)"/>
</clipPath>
</defs>
</svg>
