<svg width="226" height="59" viewBox="0 0 226 59" fill="none" xmlns="http://www.w3.org/2000/svg">
<g clip-path="url(#clip0)">
<path d="M2.30798 0.568359H3.80798C6.00798 0.568359 8.10798 1.16836 8.10798 3.76836C8.10798 4.66836 7.60798 5.66836 6.80798 5.96836C8.20798 6.26836 9.20798 7.56836 9.20798 8.96836C9.20798 11.3684 7.20798 12.2684 5.10798 12.2684H2.30798V0.568359ZM3.80798 5.76836H4.20798C5.60798 5.76836 6.70798 5.46836 6.70798 3.76836C6.70798 2.06836 5.60798 1.86836 4.20798 1.86836H3.80798V5.76836ZM3.80798 10.9684H4.90798C6.30798 10.9684 7.70798 10.5684 7.70798 8.86836C7.70798 7.16836 6.00798 6.86836 4.70798 6.86836H3.80798V10.9684Z" fill="#5B9CD6"/>
<path d="M12.308 10.9684H15.908V12.2684H10.808V0.568359H12.308V10.9684Z" fill="#5B9CD6"/>
<path d="M28.408 6.46831C28.408 9.96831 25.608 12.6683 22.208 12.6683C18.808 12.6683 16.008 10.0683 16.008 6.46831C16.008 3.06831 18.808 0.268311 22.208 0.268311C25.608 0.268311 28.408 3.06831 28.408 6.46831ZM26.908 6.46831C26.908 3.86831 25.008 1.66831 22.208 1.66831C19.408 1.66831 17.508 3.86831 17.508 6.46831C17.508 9.16831 19.708 11.2683 22.208 11.2683C24.708 11.2683 26.908 9.16831 26.908 6.46831Z" fill="#5B9CD6"/>
<path d="M39.608 12.5683L38.608 11.5683C37.608 12.2683 36.408 12.5683 35.208 12.5683C31.808 12.5683 29.008 9.96831 29.008 6.36831C29.008 3.06831 31.808 0.268311 35.208 0.268311C38.608 0.268311 41.408 3.06831 41.408 6.46831C41.408 8.16831 40.708 9.76831 39.608 10.8683L41.408 12.6683H39.608V12.5683ZM38.508 9.76831C39.408 8.96831 39.908 7.56831 39.908 6.46831C39.908 3.86831 38.008 1.66831 35.208 1.66831C32.408 1.66831 30.508 3.86831 30.508 6.46831C30.508 9.16831 32.708 11.2683 35.208 11.2683C35.908 11.2683 36.808 11.0683 37.508 10.5683L34.808 7.86831H36.608L38.508 9.76831Z" fill="#5B9CD6"/>
<path d="M44.108 0.568359V7.56836C44.108 9.46836 44.708 11.2684 47.008 11.2684C49.308 11.2684 49.808 9.46836 49.808 7.56836V0.568359H51.308V8.06836C51.308 10.6684 49.708 12.6684 47.008 12.6684C44.308 12.6684 42.708 10.6684 42.708 8.06836V0.568359H44.108Z" fill="#5B9CD6"/>
<path d="M53.308 0.568359H59.608V1.86836H54.808V5.16836H59.508V6.46836H54.808V10.9684H59.708V12.2684H53.408V0.568359H53.308Z" fill="#5B9CD6"/>
<path d="M29.808 40.5683C29.808 49.4683 25.508 58.9683 15.308 58.9683C5.10798 58.9683 0.807983 49.4683 0.807983 40.5683C0.807983 31.6683 5.10798 22.1683 15.308 22.1683C25.408 22.0683 29.808 31.6683 29.808 40.5683ZM9.60798 40.4683C9.60798 43.7683 10.708 51.0683 15.308 51.0683C19.908 51.0683 21.008 43.7683 21.008 40.4683C21.008 37.1683 19.908 29.8683 15.308 29.8683C10.708 29.9683 9.60798 37.1683 9.60798 40.4683Z" fill="#5B9CD6"/>
<path d="M60.508 43.7683V50.5683H56.408V57.6683H48.208V50.5683H31.608V44.8683L44.808 23.4683H56.408V43.7683H60.508ZM48.108 30.6683L40.008 43.7683H48.108V30.6683Z" fill="#5B9CD6"/>
<path d="M69.508 20.6683V58.0683H106.008V57.1683C105.908 36.9683 89.608 20.6683 69.508 20.6683Z" fill="#9CB5C9"/>
<path d="M134.708 30.3683C133.808 29.2683 132.408 28.5683 130.908 28.5683C127.708 28.5683 125.908 31.4683 125.908 34.4683C125.908 37.3683 127.808 40.1683 130.908 40.1683C132.308 40.1683 133.808 39.4683 134.708 38.3683V42.3683C133.508 42.9683 132.208 43.3683 130.808 43.3683C126.008 43.3683 122.408 39.2683 122.408 34.4683C122.408 29.6683 125.808 25.3683 130.808 25.3683C132.108 25.3683 133.408 25.7683 134.608 26.3683V30.3683H134.708Z" fill="#858686"/>
<path d="M142.408 42.8683H139.108V28.6683H135.708V25.7683H145.908V28.6683H142.508V42.8683H142.408Z" fill="#858686"/>
<path d="M150.408 28.6683V32.4683H155.708V35.3683H150.408V39.9683H155.908V42.8683H147.108V25.7683H155.908V28.6683H150.408Z" fill="#858686"/>
<path d="M163.408 34.2683V36.8683H157.908V34.2683H163.408Z" fill="#858686"/>
<path d="M165.608 25.7683H170.408C175.308 25.7683 178.608 29.4683 178.608 34.3683C178.608 39.1683 175.208 42.8683 170.308 42.8683H165.608V25.7683ZM168.908 39.9683H169.408C173.508 39.9683 175.108 37.6683 175.108 34.3683C175.108 30.6683 173.208 28.7683 169.408 28.7683H168.908V39.9683Z" fill="#858686"/>
<path d="M180.208 25.7683H184.308C187.508 25.7683 189.408 26.9683 189.408 30.3683C189.408 31.5683 189.008 32.9683 187.908 33.6683C189.908 34.0683 190.808 36.0683 190.808 37.9683C190.808 41.2683 188.408 42.7683 185.308 42.7683H180.108V25.7683H180.208ZM183.608 32.8683H184.008C185.608 32.8683 186.408 32.3683 186.408 30.6683C186.408 28.9683 185.408 28.4683 184.008 28.4683H183.608V32.8683ZM183.608 40.1683H184.308C186.108 40.1683 187.608 39.9683 187.608 37.7683C187.608 35.5683 185.808 35.4683 184.108 35.4683H183.608V40.1683Z" fill="#858686"/>
<path d="M198.008 34.2683V36.8683H192.508V34.2683H198.008Z" fill="#858686"/>
<path d="M209.708 32.5683V25.8683H213.008V42.9683H209.708V35.2683H203.508V42.8683H200.208V25.7683H203.508V32.4683H209.708V32.5683Z" fill="#858686"/>
<path d="M223.508 29.5683C222.908 28.6683 222.108 28.1683 220.908 28.1683C219.808 28.1683 218.808 28.9683 218.808 30.0683C218.808 32.9683 225.608 31.7683 225.608 37.4683C225.608 40.8683 223.508 43.2683 220.008 43.2683C217.608 43.2683 215.908 41.8683 214.708 39.9683L216.908 37.8683C217.408 39.1683 218.608 40.3683 220.008 40.3683C221.408 40.3683 222.208 39.1683 222.208 37.8683C222.208 36.0683 220.608 35.5683 219.208 35.0683C217.008 34.1683 215.408 33.0683 215.408 30.3683C215.408 27.5683 217.508 25.2683 220.408 25.2683C221.908 25.2683 224.008 25.9683 225.108 27.1683L223.508 29.5683Z" fill="#858686"/>
</g>
<defs>
<clipPath id="clip0">
<rect width="224.9" height="58.7" fill="white" transform="translate(0.807983 0.268311)"/>
</clipPath>
</defs>
</svg>
