<svg width="272" height="62" viewBox="0 0 272 62" fill="none" xmlns="http://www.w3.org/2000/svg">
<g clip-path="url(#clip0)">
<path d="M1.19193 1.24805H2.59193C4.79193 1.24805 6.89193 1.84804 6.89193 4.44803C6.89193 5.34803 6.39193 6.34802 5.59193 6.64802C7.09193 6.94802 7.99193 8.34802 7.99193 9.74801C7.99193 12.148 5.99193 13.048 3.89193 13.048H1.19193V1.24805ZM2.69193 6.44802H3.09193C4.49193 6.44802 5.59193 6.14803 5.59193 4.44803C5.59193 2.74804 4.49193 2.54804 3.09193 2.54804H2.69193V6.44802ZM2.69193 11.648H3.79193C5.19193 11.648 6.59193 11.248 6.59193 9.54801C6.59193 7.84802 4.89193 7.54802 3.59193 7.54802H2.69193V11.648Z" fill="#5B9CD6"/>
<path d="M11.1919 11.648H14.7919V12.948H9.69193V1.24805H11.1919V11.648Z" fill="#5B9CD6"/>
<path d="M27.2919 7.14797C27.2919 10.648 24.4919 13.3479 21.0919 13.3479C17.6919 13.3479 14.8919 10.748 14.8919 7.14797C14.8919 3.74799 17.6919 0.947998 21.0919 0.947998C24.4919 0.947998 27.2919 3.74799 27.2919 7.14797ZM25.7919 7.14797C25.7919 4.54798 23.8919 2.34799 21.0919 2.34799C18.2919 2.34799 16.3919 4.54798 16.3919 7.14797C16.3919 9.84796 18.5919 11.9479 21.0919 11.9479C23.5919 11.9479 25.7919 9.84796 25.7919 7.14797Z" fill="#5B9CD6"/>
<path d="M38.3919 13.248L37.3919 12.148C36.3919 12.848 35.1919 13.248 33.9919 13.248C30.5919 13.248 27.7919 10.648 27.7919 7.04799C27.7919 3.64801 30.5919 0.848022 33.9919 0.848022C37.3919 0.848022 40.1919 3.64801 40.1919 7.04799C40.1919 8.74799 39.4919 10.348 38.3919 11.448L40.1919 13.248H38.3919ZM37.3919 10.448C38.2919 9.64798 38.7919 8.24799 38.7919 7.14799C38.7919 4.54801 36.8919 2.34802 34.0919 2.34802C31.2919 2.34802 29.3919 4.54801 29.3919 7.14799C29.3919 9.84798 31.5919 11.948 34.0919 11.948C34.7919 11.948 35.6919 11.748 36.3919 11.248L33.6919 8.64799H35.4919L37.3919 10.448Z" fill="#5B9CD6"/>
<path d="M42.8919 1.24805V8.24802C42.8919 10.148 43.4919 11.948 45.7919 11.948C48.0919 11.948 48.5919 10.148 48.5919 8.24802V1.24805H50.0919V8.74801C50.0919 11.348 48.4919 13.348 45.7919 13.348C43.0919 13.348 41.4919 11.348 41.4919 8.74801V1.24805H42.8919Z" fill="#5B9CD6"/>
<path d="M52.0919 1.24805H58.3919V2.54804H53.492V5.84803H58.1919V7.14802H53.492V11.648H58.3919V12.948H52.0919V1.24805Z" fill="#5B9CD6"/>
<path d="M27.5919 50.7478V58.2478H0.0919189L14.0919 43.0478C16.0919 40.8478 17.9919 37.7479 17.9919 34.6479C17.9919 32.4479 16.4919 30.2479 14.0919 30.2479C11.6919 30.2479 10.3919 32.1479 10.3919 34.4479C10.3919 34.9479 10.3919 35.4479 10.4919 35.8479H0.691919C0.991919 28.0479 5.99192 22.7479 13.9919 22.7479C21.1919 22.7479 27.1919 27.4479 27.1919 34.8479C27.1919 39.7479 25.1919 42.5478 21.6919 45.7478L16.3919 50.6478H27.5919V50.7478Z" fill="#5B9CD6"/>
<path d="M59.6919 41.2478C59.6919 50.1478 55.3919 59.6478 45.1919 59.6478C34.9919 59.6478 30.6919 50.0478 30.6919 41.2478C30.6919 32.4479 35.0919 22.7479 45.1919 22.7479C55.3919 22.7479 59.6919 32.3479 59.6919 41.2478ZM39.5919 41.1479C39.5919 44.4478 40.6919 51.7478 45.2919 51.7478C49.8919 51.7478 50.9919 44.4478 50.9919 41.1479C50.9919 37.8479 49.8919 30.5479 45.2919 30.5479C40.5919 30.6479 39.5919 37.8479 39.5919 41.1479Z" fill="#5B9CD6"/>
<path d="M101.392 39.7479C101.392 45.7479 98.9919 51.2478 94.9919 55.1478C91.0919 59.0478 85.5919 61.5478 79.5919 61.5478H71.7919V17.948H79.5919C91.5919 17.948 101.392 27.748 101.392 39.7479Z" fill="#5797D3"/>
<path d="M128.092 30.3478L126.692 33.9478H123.192L129.892 16.4479H132.492L138.992 33.9478H135.392L134.092 30.3478H128.092ZM130.892 21.3479L128.992 27.5478H133.092L130.892 21.3479Z" fill="#858686"/>
<path d="M143.192 31.0478H147.892V33.9478H139.892V16.8479H143.192V31.0478Z" fill="#858686"/>
<path d="M153.892 33.9478H150.592V19.7479H147.092V16.8479H157.292V19.7479H153.892V33.9478Z" fill="#858686"/>
<path d="M160.192 30.3478L158.792 33.9478H155.292L161.992 16.4479H164.592L171.092 33.9478H167.492L166.192 30.3478H160.192ZM163.092 21.3479L161.192 27.5478H165.292L163.092 21.3479Z" fill="#858686"/>
<path d="M180.092 20.5479C179.492 19.6479 178.692 19.1479 177.492 19.1479C176.392 19.1479 175.392 19.9479 175.392 21.0479C175.392 23.9479 182.192 22.7479 182.192 28.4479C182.192 31.8479 180.092 34.2478 176.592 34.2478C174.192 34.2478 172.492 32.8478 171.292 30.9479L173.492 28.8479C173.992 30.1479 175.192 31.3479 176.592 31.3479C177.992 31.3479 178.792 30.1479 178.792 28.8479C178.792 27.0479 177.192 26.5479 175.792 26.0479C173.592 25.1479 171.992 24.0479 171.992 21.3479C171.992 18.5479 174.092 16.2479 176.992 16.2479C178.492 16.2479 180.592 16.9479 181.692 18.1479L180.092 20.5479Z" fill="#858686"/>
<path d="M127.892 61.0478H124.592V44.0479H129.092C132.692 44.0479 134.992 45.4478 134.992 49.3478C134.992 52.9478 132.992 54.7478 129.492 54.7478H127.792V61.0478H127.892ZM127.892 51.9478H128.592C130.592 51.9478 131.592 51.5478 131.592 49.3478C131.592 47.1478 130.292 46.8478 128.492 46.8478H127.892V51.9478Z" fill="#858686"/>
<path d="M148.092 61.0478H144.092L139.992 54.1478V61.0478H136.692V44.0479H141.192C144.592 44.0479 146.892 45.5478 146.892 49.1478C146.892 51.3478 145.692 53.4478 143.392 53.8478L148.092 61.0478ZM139.892 51.8478H140.292C142.092 51.8478 143.392 51.3478 143.392 49.2478C143.392 47.1478 142.092 46.7478 140.292 46.7478H139.792V51.8478H139.892Z" fill="#858686"/>
<path d="M152.492 46.9478V50.7478H157.792V53.6478H152.492V58.2478H157.992V61.1478H149.192V44.0479H157.992V46.9478H152.492Z" fill="#858686"/>
<path d="M168.292 47.7479C167.692 46.8479 166.892 46.3479 165.692 46.3479C164.592 46.3479 163.592 47.1479 163.592 48.2479C163.592 51.1478 170.392 49.9478 170.392 55.6478C170.392 59.0478 168.292 61.4478 164.792 61.4478C162.392 61.4478 160.692 60.0478 159.492 58.1478L161.692 56.0478C162.192 57.3478 163.392 58.5478 164.792 58.5478C166.192 58.5478 166.992 57.3478 166.992 56.0478C166.992 54.2478 165.392 53.7478 163.992 53.2478C161.792 52.3478 160.192 51.2478 160.192 48.5479C160.192 45.7479 162.292 43.4479 165.192 43.4479C166.692 43.4479 168.792 44.1479 169.892 45.3479L168.292 47.7479Z" fill="#858686"/>
<path d="M177.692 61.0478H174.392V46.9478H170.992V44.0479H181.092V46.9478H177.692V61.0478Z" fill="#858686"/>
<path d="M184.092 57.4478L182.692 61.0478H179.092L185.792 43.5479H188.392L194.892 61.0478H191.292L189.992 57.4478H184.092ZM186.892 48.5478L184.992 54.7478H189.092L186.892 48.5478Z" fill="#858686"/>
<path d="M207.292 48.5478C206.392 47.4478 204.992 46.7478 203.492 46.7478C200.292 46.7478 198.492 49.6478 198.492 52.6478C198.492 55.5478 200.392 58.3478 203.492 58.3478C204.892 58.3478 206.392 57.6478 207.292 56.5478V60.5478C206.092 61.1478 204.792 61.5478 203.392 61.5478C198.592 61.5478 194.992 57.4478 194.992 52.6478C194.992 47.8478 198.392 43.5479 203.392 43.5479C204.692 43.5479 205.992 43.9478 207.192 44.5478V48.5478H207.292Z" fill="#858686"/>
<path d="M212.792 61.0478H209.492V44.0479H212.792V61.0478Z" fill="#858686"/>
<path d="M222.892 61.5478C217.692 61.5478 214.492 57.5478 214.492 52.5478C214.492 47.4478 217.892 43.5479 222.892 43.5479C227.892 43.5479 231.292 47.4478 231.292 52.5478C231.292 57.5478 228.092 61.5478 222.892 61.5478ZM222.892 46.8478C219.792 46.8478 217.892 49.6478 217.892 52.3478C217.892 54.9478 219.192 58.2478 222.892 58.2478C226.592 58.2478 227.892 55.0478 227.892 52.3478C227.892 49.6478 225.992 46.8478 222.892 46.8478Z" fill="#858686"/>
<path d="M232.992 43.5479H235.392L244.392 55.4478V44.0478H247.692V61.4478H245.292L236.292 49.5478V61.1478H232.992V43.5479Z" fill="#858686"/>
<path d="M253.492 46.9478V50.7478H258.792V53.6478H253.492V58.2478H258.992V61.1478H250.092V44.0479H258.892V46.9478H253.492Z" fill="#858686"/>
<path d="M269.192 47.7479C268.592 46.8479 267.792 46.3479 266.592 46.3479C265.492 46.3479 264.492 47.1479 264.492 48.2479C264.492 51.1478 271.292 49.9478 271.292 55.6478C271.292 59.0478 269.192 61.4478 265.692 61.4478C263.292 61.4478 261.592 60.0478 260.392 58.1478L262.592 56.0478C263.092 57.3478 264.292 58.5478 265.692 58.5478C267.092 58.5478 267.892 57.3478 267.892 56.0478C267.892 54.2478 266.292 53.7478 264.892 53.2478C262.692 52.3478 261.092 51.2478 261.092 48.5479C261.092 45.7479 263.192 43.4479 266.092 43.4479C267.592 43.4479 269.692 44.1479 270.792 45.3479L269.192 47.7479Z" fill="#858686"/>
</g>
<defs>
<clipPath id="clip0">
<rect width="271.3" height="60.5997" fill="white" transform="translate(0.0919189 0.947998)"/>
</clipPath>
</defs>
</svg>
