<svg width="327" height="58" viewBox="0 0 327 58" fill="none" xmlns="http://www.w3.org/2000/svg">
<g clip-path="url(#clip0)">
<path d="M0.708008 0.768311H2.10801C4.30801 0.768311 6.40801 1.36831 6.40801 3.96831C6.40801 4.86831 5.90801 5.86831 5.10801 6.16831C6.50801 6.46831 7.50801 7.76831 7.50801 9.16831C7.50801 11.5683 5.50801 12.4683 3.40801 12.4683H0.708008V0.768311ZM2.20801 5.96831H2.60801C4.00801 5.96831 5.10801 5.66831 5.10801 3.96831C5.10801 2.26831 4.00801 2.06831 2.60801 2.06831H2.20801V5.96831ZM2.20801 11.1683H3.30801C4.70801 11.1683 6.10801 10.7683 6.10801 9.06831C6.10801 7.36831 4.40801 7.06831 3.10801 7.06831H2.20801V11.1683Z" fill="#5B9CD6"/>
<path d="M10.708 11.1683H14.308V12.4683H9.20801V0.768311H10.708V11.1683Z" fill="#5B9CD6"/>
<path d="M26.808 6.66826C26.808 10.1683 24.008 12.8683 20.608 12.8683C17.208 12.8683 14.408 10.2683 14.408 6.66826C14.408 3.26826 17.208 0.468262 20.608 0.468262C24.008 0.468262 26.808 3.26826 26.808 6.66826ZM25.308 6.66826C25.308 4.06826 23.408 1.86826 20.608 1.86826C17.808 1.86826 15.908 4.06826 15.908 6.66826C15.908 9.36826 18.108 11.4683 20.608 11.4683C23.108 11.4683 25.308 9.36826 25.308 6.66826Z" fill="#5B9CD6"/>
<path d="M37.908 12.7683L36.908 11.6683C35.908 12.3683 34.708 12.7683 33.508 12.7683C30.108 12.7683 27.308 10.1683 27.308 6.56829C27.308 3.16829 30.108 0.368286 33.508 0.368286C36.908 0.368286 39.708 3.16829 39.708 6.56829C39.708 8.26829 39.008 9.86829 37.908 10.9683L39.708 12.7683H37.908ZM36.908 9.96829C37.808 9.16829 38.308 7.76829 38.308 6.66829C38.308 4.06829 36.408 1.86829 33.608 1.86829C30.808 1.86829 28.908 4.06829 28.908 6.66829C28.908 9.36829 31.108 11.4683 33.608 11.4683C34.308 11.4683 35.208 11.2683 35.908 10.7683L33.208 8.16829H35.008L36.908 9.96829Z" fill="#5B9CD6"/>
<path d="M42.408 0.768311V7.76831C42.408 9.66831 43.008 11.4683 45.308 11.4683C47.608 11.4683 48.108 9.66831 48.108 7.76831V0.768311H49.608V8.26831C49.608 10.8683 48.008 12.8683 45.308 12.8683C42.608 12.8683 41.008 10.8683 41.008 8.26831V0.768311H42.408Z" fill="#5B9CD6"/>
<path d="M51.708 0.768311H58.008V2.06831H53.108V5.36831H57.808V6.66831H53.108V11.1683H58.008V12.4683H51.708V0.768311Z" fill="#5B9CD6"/>
<path d="M5.408 31.1683V23.6683H19.208V57.8683H10.308V31.1683H5.408Z" fill="#5B9CD6"/>
<path d="M36.508 31.1683V23.6683H50.308V57.8683H41.408V31.1683H36.508Z" fill="#5B9CD6"/>
<path d="M74.108 57.3683V6.76831H98.008V33.4683C98.008 46.6683 87.308 57.3683 74.108 57.3683Z" fill="#5797D3"/>
<path d="M126.608 45.0683H123.308V27.9683H126.608V45.0683Z" fill="#858686"/>
<path d="M129.108 27.4683H131.508L140.508 39.3683V27.9683H143.808V45.3683H141.408L132.408 33.4683V45.0683H129.108V27.4683Z" fill="#858686"/>
<path d="M146.208 27.9683H151.008C155.908 27.9683 159.208 31.6683 159.208 36.5683C159.208 41.3683 155.808 45.0683 150.908 45.0683H146.208V27.9683ZM149.608 42.1683H150.108C154.208 42.1683 155.808 39.8683 155.808 36.5683C155.808 32.8683 153.908 30.9683 150.108 30.9683H149.608V42.1683Z" fill="#858686"/>
<path d="M160.808 27.9683H164.108V37.4683C164.108 39.5683 164.308 42.5683 167.108 42.5683C169.908 42.5683 170.108 39.5683 170.108 37.4683V27.8683H173.408V38.0683C173.408 42.2683 171.608 45.3683 167.108 45.3683C162.508 45.3683 160.808 42.2683 160.808 38.0683V27.9683Z" fill="#858686"/>
<path d="M183.908 31.6683C183.308 30.7683 182.508 30.2683 181.308 30.2683C180.208 30.2683 179.208 31.0683 179.208 32.1683C179.208 35.0683 186.008 33.8683 186.008 39.5683C186.008 42.9683 183.908 45.3683 180.408 45.3683C178.008 45.3683 176.308 43.9683 175.108 42.0683L177.308 39.9683C177.808 41.2683 179.008 42.4683 180.408 42.4683C181.808 42.4683 182.608 41.2683 182.608 39.9683C182.608 38.1683 181.008 37.6683 179.608 37.1683C177.408 36.2683 175.808 35.1683 175.808 32.4683C175.808 29.6683 177.908 27.3683 180.808 27.3683C182.308 27.3683 184.408 28.0683 185.508 29.2683L183.908 31.6683Z" fill="#858686"/>
<path d="M193.308 45.0683H190.008V30.8683H186.608V27.9683H196.708V30.8683H193.308V45.0683Z" fill="#858686"/>
<path d="M209.508 45.0683H205.508L201.408 38.1683V45.0683H198.108V27.9683H202.608C206.008 27.9683 208.308 29.4683 208.308 33.0683C208.308 35.2683 207.108 37.3683 204.808 37.7683L209.508 45.0683ZM201.308 35.7683H201.708C203.508 35.7683 204.808 35.2683 204.808 33.1683C204.808 31.0683 203.508 30.6683 201.708 30.6683H201.208V35.7683H201.308Z" fill="#858686"/>
<path d="M213.908 45.0683H210.608V27.9683H213.908V45.0683Z" fill="#858686"/>
<path d="M219.808 41.4682L218.408 45.0682H214.908L221.608 27.5682H224.208L230.708 45.0682H227.108L225.708 41.4682H219.808ZM222.708 32.4682L220.808 38.6682H224.908L222.708 32.4682Z" fill="#858686"/>
<path d="M235.008 42.1683H239.708V45.0683H231.708V27.9683H235.008V42.1683Z" fill="#858686"/>
<path d="M244.108 45.0683H240.708V27.9683H244.008V45.0683H244.108Z" fill="#858686"/>
<path d="M257.808 42.1683V45.0683H245.408L252.908 30.8683H246.508V27.9683H258.108L250.708 42.1683H257.808Z" fill="#858686"/>
<path d="M263.008 41.4682L261.608 45.0682H258.108L264.808 27.5682H267.408L273.908 45.0682H270.308L269.008 41.4682H263.008ZM265.908 32.4682L264.008 38.6682H268.108L265.908 32.4682Z" fill="#858686"/>
<path d="M286.208 32.4683C285.308 31.3683 283.908 30.6683 282.408 30.6683C279.208 30.6683 277.408 33.5683 277.408 36.5683C277.408 39.4683 279.308 42.2683 282.408 42.2683C283.808 42.2683 285.308 41.5683 286.208 40.4683V44.4683C285.008 45.0683 283.708 45.4683 282.308 45.4683C277.508 45.4683 273.908 41.3683 273.908 36.5683C273.908 31.7683 277.308 27.4683 282.308 27.4683C283.608 27.4683 284.908 27.8683 286.108 28.4683V32.4683H286.208Z" fill="#858686"/>
<path d="M291.808 45.0683H288.508V27.9683H291.808V45.0683Z" fill="#858686"/>
<path d="M301.808 45.4683C296.608 45.4683 293.408 41.4683 293.408 36.4683C293.408 31.3683 296.808 27.4683 301.808 27.4683C306.808 27.4683 310.208 31.3683 310.208 36.4683C310.308 41.4683 307.008 45.4683 301.808 45.4683ZM301.808 30.7683C298.708 30.7683 296.808 33.5683 296.808 36.2683C296.808 38.8683 298.108 42.1683 301.808 42.1683C305.508 42.1683 306.808 38.9683 306.808 36.2683C306.808 33.5683 305.008 30.7683 301.808 30.7683ZM305.008 23.7683L301.608 27.1683L300.008 26.1683L302.708 22.3683L305.008 23.7683Z" fill="#858686"/>
<path d="M311.908 27.4683H314.308L323.308 39.3683V27.9683H326.608V45.3683H324.208L315.208 33.4683V45.0683H311.908V27.4683Z" fill="#858686"/>
</g>
<defs>
<clipPath id="clip0">
<rect width="326" height="57.4" fill="white" transform="translate(0.708008 0.468262)"/>
</clipPath>
</defs>
</svg>
