<svg width="266" height="60" viewBox="0 0 266 60" fill="none" xmlns="http://www.w3.org/2000/svg">
<g clip-path="url(#clip0)">
<path d="M0.0919189 1.01172H1.49192C3.69192 1.01172 5.79192 1.61172 5.79192 4.21172C5.79192 5.11172 5.29192 6.11172 4.49192 6.41172C5.89192 6.71172 6.89192 8.01172 6.89192 9.41172C6.89192 11.8117 4.89192 12.7117 2.79192 12.7117H0.0919189V1.01172ZM1.59192 6.21172H1.99192C3.39192 6.21172 4.49192 5.91172 4.49192 4.21172C4.49192 2.51172 3.39192 2.31172 1.99192 2.31172H1.59192V6.21172ZM1.59192 11.4117H2.69192C4.09192 11.4117 5.49192 11.0117 5.49192 9.31172C5.49192 7.61172 3.79192 7.31172 2.49192 7.31172H1.59192V11.4117Z" fill="#5B9CD6"/>
<path d="M10.0919 11.4117H13.6919V12.7117H8.59192V1.01172H10.0919V11.4117Z" fill="#5B9CD6"/>
<path d="M26.1919 6.91167C26.1919 10.4117 23.3919 13.1117 19.9919 13.1117C16.5919 13.1117 13.7919 10.5117 13.7919 6.91167C13.7919 3.51167 16.5919 0.71167 19.9919 0.71167C23.3919 0.71167 26.1919 3.51167 26.1919 6.91167ZM24.6919 6.91167C24.6919 4.31167 22.7919 2.11167 19.9919 2.11167C17.1919 2.11167 15.2919 4.31167 15.2919 6.91167C15.2919 9.61167 17.4919 11.7117 19.9919 11.7117C22.4919 11.7117 24.6919 9.61167 24.6919 6.91167Z" fill="#5B9CD6"/>
<path d="M37.2919 13.0117L36.2919 12.0117C35.2919 12.7117 34.0919 13.0117 32.8919 13.0117C29.4919 13.0117 26.6919 10.4117 26.6919 6.81169C26.6919 3.41169 29.4919 0.611694 32.8919 0.611694C36.2919 0.611694 39.0919 3.41169 39.0919 6.81169C39.0919 8.51169 38.3919 10.1117 37.2919 11.2117L39.0919 13.0117H37.2919ZM36.2919 10.2117C37.1919 9.41169 37.6919 8.01169 37.6919 6.91169C37.6919 4.31169 35.7919 2.11169 32.9919 2.11169C30.1919 2.11169 28.2919 4.31169 28.2919 6.91169C28.2919 9.61169 30.4919 11.7117 32.9919 11.7117C33.6919 11.7117 34.5919 11.5117 35.2919 11.0117L32.5919 8.41169H34.3919L36.2919 10.2117Z" fill="#5B9CD6"/>
<path d="M41.7919 1.01172V8.01172C41.7919 9.91172 42.3919 11.7117 44.6919 11.7117C46.9919 11.7117 47.4919 9.91172 47.4919 8.01172V1.01172H48.9919V8.51172C48.9919 11.1117 47.3919 13.1117 44.6919 13.1117C41.9919 13.1117 40.3919 11.1117 40.3919 8.51172V1.01172H41.7919Z" fill="#5B9CD6"/>
<path d="M51.0919 1.01172H57.3919V2.31172H52.4919V5.61172H57.1919V6.91172H52.4919V11.4117H57.3919V12.7117H51.0919V1.01172Z" fill="#5B9CD6"/>
<path d="M4.79193 31.4117V23.9117H18.5919V58.1117H9.69193V31.4117H4.79193Z" fill="#5B9CD6"/>
<path d="M42.2919 31.4117L41.6919 35.3117L44.4919 35.1117C51.4919 34.6117 56.5919 40.3117 56.5919 47.3117C56.5919 50.9117 54.9919 54.2117 52.1919 56.5117C49.4919 58.7117 45.5919 59.4117 42.1919 59.4117C38.2919 59.4117 34.3919 58.4117 31.0919 56.3117L32.3919 47.9117C34.9919 50.3117 38.3919 51.8117 41.8919 51.8117C44.6919 51.8117 47.2919 49.8117 47.2919 46.8117C47.2919 42.7117 43.3919 41.0117 39.7919 41.0117C37.4919 41.0117 35.2919 41.5117 33.2919 42.4117L36.2919 23.9117H54.0919V31.4117H42.2919Z" fill="#5B9CD6"/>
<path d="M67.1919 21.1117V58.5117H103.692V57.6117C103.692 37.4117 87.3919 21.1117 67.1919 21.1117Z" fill="#9CB5C9"/>
<path d="M128.792 23.3116L132.592 11.8116H136.192L129.592 29.3116H127.692L121.192 11.8116H124.792L128.792 23.3116Z" fill="#858686"/>
<path d="M140.492 14.7116V18.5116H145.792V21.4116H140.492V26.0116H145.992V28.9116H137.192V11.8116H145.992V14.7116H140.492Z" fill="#858686"/>
<path d="M148.192 11.4116H150.592L159.592 23.3116V11.8116H162.892V29.2116H160.492L151.492 17.3116V28.9116H148.192V11.4116Z" fill="#858686"/>
<path d="M170.992 28.9116H167.692V14.7116H164.292V11.8116H174.492V14.7116H171.092V28.9116H170.992Z" fill="#858686"/>
<path d="M179.092 25.3116L177.692 28.9116H174.192L180.892 11.4116H183.492L189.992 28.9116H186.392L185.092 25.3116H179.092ZM181.992 16.4116L180.092 22.6116H184.192L181.992 16.4116Z" fill="#858686"/>
<path d="M197.392 23.1116C197.392 24.7116 197.392 26.0116 196.392 27.4116C195.492 28.7116 194.092 29.3116 192.592 29.3116C191.392 29.3116 190.092 28.6116 189.292 27.7116L191.392 25.3116C191.592 25.8116 192.092 26.4116 192.692 26.4116C194.292 26.4116 194.092 23.6116 194.092 22.5116V11.8116H197.392V23.1116Z" fill="#858686"/>
<path d="M203.192 25.3116L201.792 28.9116H198.292L204.992 11.4116H207.592L214.092 28.9116H210.492L209.192 25.3116H203.192ZM206.092 16.4116L204.192 22.6116H208.292L206.092 16.4116Z" fill="#858686"/>
<path d="M223.092 15.6116C222.492 14.7116 221.692 14.2116 220.492 14.2116C219.392 14.2116 218.392 15.0116 218.392 16.1116C218.392 19.0116 225.192 17.8116 225.192 23.5116C225.192 26.9116 223.092 29.3116 219.592 29.3116C217.192 29.3116 215.492 27.9116 214.292 26.0116L216.492 23.9116C216.992 25.2116 218.192 26.4116 219.592 26.4116C220.992 26.4116 221.792 25.2116 221.792 23.9116C221.792 22.1116 220.192 21.6116 218.792 21.1116C216.592 20.2116 214.992 19.1116 214.992 16.4116C214.992 13.6116 217.092 11.3116 219.992 11.3116C221.492 11.3116 223.592 12.0116 224.692 13.2116L223.092 15.6116Z" fill="#858686"/>
<path d="M126.192 52.5117L124.792 56.1117H121.292L127.992 38.6117H130.592L137.092 56.1117H133.492L132.192 52.5117H126.192ZM129.092 43.6117L127.192 49.8117H131.292L129.092 43.6117Z" fill="#858686"/>
<path d="M151.092 56.8117L149.892 55.4117C148.692 56.2117 147.192 56.6117 145.692 56.6117C140.692 56.6117 137.292 52.5117 137.292 47.6117C137.292 42.8117 140.792 38.6117 145.692 38.6117C150.592 38.6117 154.092 42.8117 154.092 47.6117C154.092 49.9117 153.392 52.1117 152.092 53.8117L154.392 56.6117L151.092 56.8117ZM149.592 51.0117C150.292 50.1117 150.692 48.6117 150.692 47.5117C150.692 44.7117 148.692 41.8117 145.692 41.8117C142.492 41.8117 140.692 44.9117 140.692 47.8117C140.692 50.6117 142.392 53.4117 145.692 53.4117C146.292 53.4117 146.992 53.1117 147.492 52.8117L144.692 49.6117L148.092 49.3117L149.592 51.0117Z" fill="#858686"/>
<path d="M155.592 39.0117H158.892V48.6117C158.892 50.7117 159.092 53.7117 161.892 53.7117C164.692 53.7117 164.892 50.7117 164.892 48.6117V39.0117H168.192V49.2117C168.192 53.4117 166.392 56.5117 161.892 56.5117C157.392 56.5117 155.592 53.4117 155.592 49.2117V39.0117Z" fill="#858686"/>
<path d="M174.192 52.5117L172.792 56.1117H169.292L175.992 38.6117H178.592L185.092 56.1117H181.492L180.192 52.5117H174.192ZM176.992 43.6117L175.092 49.8117H179.192L176.992 43.6117Z" fill="#858686"/>
<path d="M189.292 56.1117H185.992V39.0117H190.492C194.092 39.0117 196.392 40.4117 196.392 44.3117C196.392 47.9117 194.392 49.7117 190.892 49.7117H189.192V56.1117H189.292ZM189.292 46.9117H189.992C191.992 46.9117 192.992 46.5117 192.992 44.3117C192.992 42.1117 191.692 41.8117 189.892 41.8117H189.292V46.9117Z" fill="#858686"/>
<path d="M199.592 52.5117L198.192 56.1117H194.692L201.392 38.6117H203.992L210.492 56.1117H206.892L205.592 52.5117H199.592ZM202.492 43.6117L200.592 49.8117H204.692L202.492 43.6117Z" fill="#858686"/>
<path d="M211.492 38.6117H213.892L222.892 50.5117V39.0117H226.192V56.4117H223.792L214.792 44.5117V56.1117H211.492V38.6117Z" fill="#858686"/>
<path d="M231.992 41.9117V45.7117H237.292V48.6117H231.992V53.2117H237.492V56.1117H228.692V39.0117H237.492V41.9117H231.992Z" fill="#858686"/>
<path d="M242.992 53.2117H247.692V56.1117H239.692V39.0117H242.992V53.2117Z" fill="#858686"/>
<path d="M247.692 47.5117C247.692 42.5117 251.592 38.5117 256.592 38.5117C261.592 38.5117 265.492 42.5117 265.492 47.5117C265.492 52.5117 261.592 56.5117 256.592 56.5117C251.692 56.5117 247.692 52.5117 247.692 47.5117ZM249.692 47.5117C249.692 51.5117 252.792 54.5117 256.692 54.5117C260.492 54.5117 263.692 51.5117 263.692 47.5117C263.692 43.5117 260.592 40.5117 256.692 40.5117C252.792 40.5117 249.692 43.5117 249.692 47.5117ZM260.792 52.2117H258.692L256.492 48.5117H254.892V52.2117H252.992V42.9117H257.492C259.692 42.9117 261.092 43.3117 261.092 45.8117C261.092 47.5117 260.192 48.4117 258.592 48.6117L260.792 52.2117ZM257.492 46.8117C258.492 46.8117 259.192 46.6117 259.192 45.6117C259.192 44.6117 257.992 44.6117 256.992 44.6117H254.792V46.9117H257.492V46.8117Z" fill="#858686"/>
</g>
<defs>
<clipPath id="clip0">
<rect width="265.5" height="58.7" fill="white" transform="translate(0.0919189 0.71167)"/>
</clipPath>
</defs>
</svg>
