<svg width="327" height="61" viewBox="0 0 327 61" fill="none" xmlns="http://www.w3.org/2000/svg">
<g clip-path="url(#clip0)">
<path d="M1.66962 0.750732H3.16962C5.36962 0.750732 7.46962 1.35073 7.46962 3.95073C7.46962 4.85073 6.96962 5.85073 6.16962 6.15073C7.56962 6.45073 8.56962 7.75073 8.56962 9.15073C8.56962 11.5507 6.56962 12.4507 4.46962 12.4507H1.66962V0.750732ZM3.16962 5.95073H3.56962C4.96962 5.95073 6.06962 5.65073 6.06962 3.95073C6.06962 2.25073 4.96962 2.05073 3.56962 2.05073H3.16962V5.95073ZM3.16962 11.1507H4.26962C5.66962 11.1507 7.06962 10.7507 7.06962 9.05073C7.06962 7.35073 5.36962 7.05073 4.06962 7.05073H3.16962V11.1507Z" fill="#5B9CD6"/>
<path d="M11.6696 11.1507H15.2696V12.4507H10.1696V0.750732H11.6696V11.1507Z" fill="#5B9CD6"/>
<path d="M27.7696 6.65068C27.7696 10.1507 24.9696 12.8507 21.5696 12.8507C18.1696 12.8507 15.3696 10.2507 15.3696 6.65068C15.3696 3.25068 18.1696 0.450684 21.5696 0.450684C24.9696 0.450684 27.7696 3.25068 27.7696 6.65068ZM26.2696 6.65068C26.2696 4.05068 24.3696 1.85068 21.5696 1.85068C18.7696 1.85068 16.8696 4.05068 16.8696 6.65068C16.8696 9.35068 19.0696 11.4507 21.5696 11.4507C24.0696 11.4507 26.2696 9.35068 26.2696 6.65068Z" fill="#5B9CD6"/>
<path d="M38.9696 12.7507L37.9696 11.7507C36.9696 12.4507 35.7696 12.7507 34.5696 12.7507C31.1696 12.7507 28.3696 10.1507 28.3696 6.55068C28.3696 3.25068 31.1696 0.450684 34.5696 0.450684C37.9696 0.450684 40.7696 3.25068 40.7696 6.65068C40.7696 8.35068 40.0696 9.95068 38.9696 11.0507L40.7696 12.8507H38.9696V12.7507ZM37.8696 9.95068C38.7696 9.15068 39.2696 7.75068 39.2696 6.65068C39.2696 4.05068 37.3696 1.85068 34.5696 1.85068C31.7696 1.85068 29.8696 4.05068 29.8696 6.65068C29.8696 9.35068 32.0696 11.4507 34.5696 11.4507C35.2696 11.4507 36.1696 11.2507 36.8696 10.7507L34.1696 8.05068H35.9696L37.8696 9.95068Z" fill="#5B9CD6"/>
<path d="M43.4696 0.750732V7.75073C43.4696 9.65073 44.0696 11.4507 46.3696 11.4507C48.6696 11.4507 49.1696 9.65073 49.1696 7.75073V0.750732H50.6696V8.25073C50.6696 10.8507 49.0696 12.8507 46.3696 12.8507C43.6696 12.8507 42.0696 10.8507 42.0696 8.25073V0.750732H43.4696Z" fill="#5B9CD6"/>
<path d="M52.6696 0.750732H58.9696V2.05073H54.1696V5.35073H58.8696V6.65073H54.1696V11.1507H59.0696V12.4507H52.7696V0.750732H52.6696Z" fill="#5B9CD6"/>
<path d="M29.1696 40.7506C29.1696 49.6506 24.8696 59.1506 14.6696 59.1506C4.46962 59.1506 0.169617 49.6506 0.169617 40.7506C0.169617 31.8506 4.46962 22.3506 14.6696 22.3506C24.7696 22.2506 29.1696 31.8506 29.1696 40.7506ZM8.96962 40.6506C8.96962 43.9506 10.0696 51.2506 14.6696 51.2506C19.2696 51.2506 20.3696 43.9506 20.3696 40.6506C20.3696 37.3506 19.2696 30.0506 14.6696 30.0506C10.0696 30.1506 8.96962 37.3506 8.96962 40.6506Z" fill="#5B9CD6"/>
<path d="M37.4696 31.1506V23.6506H51.2696V57.8506H42.3696V31.1506H37.4696Z" fill="#5B9CD6"/>
<path d="M106.57 41.3507C106.57 52.0507 97.8696 60.7507 87.1696 60.7507C76.4696 60.7507 67.6696 52.0507 67.6696 41.3507C67.6696 30.6507 76.3696 21.9507 87.1696 21.9507C97.7696 21.9507 106.57 30.6507 106.57 41.3507Z" fill="#9CB5C9"/>
<path d="M125.97 47.9507H122.67V30.9507H125.97V47.9507Z" fill="#858686"/>
<path d="M128.37 30.4507H130.77L139.77 42.3507V30.9507H143.07V48.3507H140.67L131.67 36.4507V48.0507H128.37V30.4507Z" fill="#858686"/>
<path d="M151.07 47.9507H147.77V33.8507H144.37V30.9507H154.57V33.8507H151.17V47.9507H151.07Z" fill="#858686"/>
<path d="M167.37 47.9507H163.37L159.27 41.0507V47.9507H155.97V30.9507H160.47C163.87 30.9507 166.17 32.4507 166.17 36.0507C166.17 38.2507 164.97 40.3507 162.67 40.7507L167.37 47.9507ZM159.07 38.7507H159.47C161.27 38.7507 162.57 38.2507 162.57 36.1507C162.57 34.0507 161.27 33.6507 159.47 33.6507H158.97V38.7507H159.07Z" fill="#858686"/>
<path d="M176.07 48.4507C170.87 48.4507 167.67 44.4507 167.67 39.4507C167.67 34.3507 171.07 30.4507 176.07 30.4507C181.07 30.4507 184.47 34.3507 184.47 39.4507C184.47 44.4507 181.27 48.4507 176.07 48.4507ZM176.07 33.7507C172.97 33.7507 171.07 36.5507 171.07 39.2507C171.07 41.8507 172.37 45.1507 176.07 45.1507C179.77 45.1507 181.07 41.9507 181.07 39.2507C181.07 36.5507 179.17 33.7507 176.07 33.7507Z" fill="#858686"/>
<path d="M186.17 30.9507H190.97C195.87 30.9507 199.17 34.6507 199.17 39.5507C199.17 44.3507 195.77 48.0507 190.87 48.0507H186.17V30.9507ZM189.47 45.0507H189.97C194.07 45.0507 195.67 42.7507 195.67 39.4507C195.67 35.7507 193.77 33.8507 189.97 33.8507H189.47V45.0507Z" fill="#858686"/>
<path d="M200.67 30.9508H203.97V40.4508C203.97 42.5508 204.17 45.5508 206.97 45.5508C209.77 45.5508 209.97 42.5508 209.97 40.4508V30.8508H213.27V41.0508C213.27 45.2508 211.47 48.3508 206.97 48.3508C202.37 48.3508 200.67 45.2508 200.67 41.0508V30.9508Z" fill="#858686"/>
<path d="M227.07 35.4507C226.17 34.3507 224.77 33.6507 223.27 33.6507C220.07 33.6507 218.27 36.5507 218.27 39.5507C218.27 42.4507 220.17 45.2507 223.27 45.2507C224.67 45.2507 226.17 44.5507 227.07 43.4507V47.4507C225.87 48.0507 224.57 48.4507 223.17 48.4507C218.37 48.4507 214.77 44.3507 214.77 39.5507C214.77 34.7507 218.17 30.4507 223.17 30.4507C224.47 30.4507 225.77 30.8507 226.97 31.4507V35.4507H227.07Z" fill="#858686"/>
<path d="M240.77 35.4507C239.87 34.3507 238.47 33.6507 236.97 33.6507C233.77 33.6507 231.97 36.5507 231.97 39.5507C231.97 42.4507 233.87 45.2507 236.97 45.2507C238.37 45.2507 239.87 44.5507 240.77 43.4507V47.4507C239.57 48.0507 238.27 48.4507 236.87 48.4507C232.07 48.4507 228.47 44.3507 228.47 39.5507C228.47 34.7507 231.87 30.4507 236.87 30.4507C238.17 30.4507 239.47 30.8507 240.67 31.4507V35.4507H240.77Z" fill="#858686"/>
<path d="M246.27 47.9507H242.97V30.9507H246.27V47.9507Z" fill="#858686"/>
<path d="M256.27 48.4507C251.07 48.4507 247.87 44.4507 247.87 39.4507C247.87 34.3507 251.27 30.4507 256.27 30.4507C261.27 30.4507 264.67 34.3507 264.67 39.4507C264.77 44.4507 261.47 48.4507 256.27 48.4507ZM256.27 33.7507C253.17 33.7507 251.27 36.5507 251.27 39.2507C251.27 41.8507 252.57 45.1507 256.27 45.1507C259.97 45.1507 261.27 41.9507 261.27 39.2507C261.27 36.5507 259.47 33.7507 256.27 33.7507ZM259.47 26.6507L256.07 30.0507L254.47 29.0507L257.17 25.2507L259.47 26.6507Z" fill="#858686"/>
<path d="M266.37 30.4507H268.77L277.77 42.3507V30.9507H281.07V48.3507H278.67L269.67 36.4507V48.0507H266.37V30.4507Z" fill="#858686"/>
</g>
<circle cx="312.307" cy="40.1721" r="13.2082" fill="#009DE0"/>
<path d="M309.144 23.5835C309.144 23.3095 309.253 23.0467 309.446 22.8529C309.64 22.6591 309.903 22.5503 310.177 22.5503H314.31C314.584 22.5503 314.847 22.6591 315.04 22.8529C315.234 23.0467 315.343 23.3095 315.343 23.5835C315.343 23.8575 315.234 24.1203 315.04 24.3141C314.847 24.5078 314.584 24.6167 314.31 24.6167V25.7945C317.12 26.1995 319.67 27.4063 321.716 29.1834C321.724 29.1743 321.732 29.1654 321.741 29.1565L322.472 28.425L321.741 27.6956C321.547 27.5019 321.437 27.239 321.437 26.9648C321.437 26.6906 321.546 26.4276 321.739 26.2336C321.933 26.0396 322.196 25.9305 322.47 25.9303C322.744 25.9301 323.007 26.0389 323.201 26.2326L326.123 29.1565C326.222 29.2518 326.301 29.3658 326.355 29.4919C326.409 29.6179 326.438 29.7535 326.439 29.8907C326.44 30.0279 326.414 30.1639 326.362 30.2909C326.31 30.4179 326.233 30.5332 326.136 30.6303C326.039 30.7273 325.924 30.804 325.797 30.8559C325.67 30.9079 325.534 30.934 325.397 30.9328C325.259 30.9316 325.124 30.9031 324.998 30.849C324.872 30.7948 324.758 30.7161 324.662 30.6174L323.933 29.8859L323.201 30.6174C323.193 30.6259 323.184 30.6341 323.175 30.6422C325.279 33.071 326.514 36.1311 326.686 39.3398C326.857 42.5485 325.956 45.7231 324.123 48.3626C322.291 51.0021 319.631 52.9562 316.565 53.9166C313.499 54.877 310.2 54.7891 307.189 53.6666C304.178 52.5441 301.627 50.451 299.937 47.7176C298.248 44.9841 297.517 41.766 297.859 38.5711C298.202 35.3761 299.599 32.3861 301.829 30.073C304.06 27.7598 306.997 26.2552 310.177 25.7966V24.6167C309.903 24.6167 309.64 24.5078 309.446 24.3141C309.253 24.1203 309.144 23.8575 309.144 23.5835ZM312.243 27.7162C310.615 27.7164 309.003 28.0372 307.499 28.6604C305.995 29.2836 304.628 30.197 303.477 31.3484C301.152 33.6737 299.846 36.8273 299.846 40.1156C299.846 43.4038 301.153 46.5572 303.478 48.8822C305.804 51.2071 308.957 52.5131 312.245 52.5128C315.534 52.5126 318.687 51.206 321.012 48.8807C323.337 46.5554 324.643 43.4017 324.643 40.1135C324.642 36.8253 323.336 33.6718 321.011 31.3469C318.685 29.022 315.532 27.716 312.243 27.7162Z" fill="#009DE0"/>
<path d="M309.87 43.4939V44.9639H303.724V43.4939H305.908V37.0679L303.878 38.2859V36.6759L306.65 34.9959H307.7V43.4939H309.87ZM315.282 38.5939C315.908 38.5939 316.458 38.7292 316.934 38.9999C317.41 39.2612 317.779 39.6345 318.04 40.1199C318.302 40.5959 318.432 41.1465 318.432 41.7719C318.432 42.4252 318.283 43.0039 317.984 43.5079C317.686 44.0025 317.256 44.3899 316.696 44.6699C316.136 44.9405 315.488 45.0759 314.75 45.0759C314.125 45.0759 313.509 44.9732 312.902 44.7679C312.296 44.5532 311.796 44.2685 311.404 43.9139L312.006 42.5979C312.912 43.2885 313.836 43.6339 314.778 43.6339C315.404 43.6339 315.88 43.4799 316.206 43.1719C316.542 42.8545 316.71 42.4065 316.71 41.8279C316.71 41.2772 316.538 40.8385 316.192 40.5119C315.856 40.1759 315.404 40.0079 314.834 40.0079C314.442 40.0079 314.074 40.0825 313.728 40.2319C313.383 40.3719 313.08 40.5819 312.818 40.8619H311.726V34.9959H317.97V36.3959H313.49V39.1119C313.994 38.7665 314.592 38.5939 315.282 38.5939ZM321.675 34.9959V36.2839C321.675 36.7785 321.591 37.2265 321.423 37.6279C321.255 38.0199 320.97 38.4165 320.569 38.8179L319.855 38.2579C320.275 37.8099 320.527 37.3759 320.611 36.9559H319.715V34.9959H321.675Z" fill="white"/>
<defs>
<clipPath id="clip0">
<rect width="281" height="60.4" fill="white" transform="translate(0.169617 0.450684)"/>
</clipPath>
</defs>
</svg>
