<svg width="281" height="62" viewBox="0 0 281 62" fill="none" xmlns="http://www.w3.org/2000/svg">
<g clip-path="url(#clip0)">
<path d="M1.2919 0.975098H2.6919C4.8919 0.975098 6.9919 1.5751 6.9919 4.1751C6.9919 5.0751 6.4919 6.0751 5.6919 6.3751C7.1919 6.6751 8.0919 8.0751 8.0919 9.4751C8.0919 11.8751 6.0919 12.7751 3.9919 12.7751H1.2919V0.975098ZM2.7919 6.1751H3.1919C4.5919 6.1751 5.6919 5.8751 5.6919 4.1751C5.6919 2.4751 4.5919 2.2751 3.1919 2.2751H2.7919V6.1751ZM2.7919 11.3751H3.8919C5.2919 11.3751 6.6919 10.9751 6.6919 9.2751C6.6919 7.5751 4.9919 7.2751 3.6919 7.2751H2.7919V11.3751Z" fill="#5B9CD6"/>
<path d="M11.2919 11.3751H14.8919V12.6751H9.7919V0.975098H11.2919V11.3751Z" fill="#5B9CD6"/>
<path d="M27.3919 6.87505C27.3919 10.375 24.5919 13.075 21.1919 13.075C17.7919 13.075 14.9919 10.475 14.9919 6.87505C14.9919 3.47505 17.7919 0.675049 21.1919 0.675049C24.5919 0.675049 27.3919 3.47505 27.3919 6.87505ZM25.8919 6.87505C25.8919 4.27505 23.9919 2.07505 21.1919 2.07505C18.3919 2.07505 16.4919 4.27505 16.4919 6.87505C16.4919 9.57505 18.6919 11.675 21.1919 11.675C23.6919 11.675 25.8919 9.57505 25.8919 6.87505Z" fill="#5B9CD6"/>
<path d="M38.4919 12.9751L37.4919 11.9751C36.4919 12.6751 35.2919 12.9751 34.0919 12.9751C30.6919 12.9751 27.8919 10.3751 27.8919 6.77507C27.8919 3.37507 30.6919 0.575073 34.0919 0.575073C37.4919 0.575073 40.2919 3.37507 40.2919 6.77507C40.2919 8.47507 39.5919 10.0751 38.4919 11.1751L40.2919 12.9751H38.4919ZM37.4919 10.1751C38.3919 9.37507 38.8919 7.97507 38.8919 6.87507C38.8919 4.27507 36.9919 2.07507 34.1919 2.07507C31.3919 2.07507 29.4919 4.27507 29.4919 6.87507C29.4919 9.57507 31.6919 11.6751 34.1919 11.6751C34.8919 11.6751 35.7919 11.4751 36.4919 10.9751L33.7919 8.37507H35.5919L37.4919 10.1751Z" fill="#5B9CD6"/>
<path d="M42.9919 0.975098V7.9751C42.9919 9.8751 43.5919 11.6751 45.8919 11.6751C48.1919 11.6751 48.6919 9.8751 48.6919 7.9751V0.975098H50.1919V8.4751C50.1919 11.0751 48.5919 13.0751 45.8919 13.0751C43.1919 13.0751 41.5919 11.0751 41.5919 8.4751V0.975098H42.9919Z" fill="#5B9CD6"/>
<path d="M52.1919 0.975098H58.4919V2.2751H53.5919V5.5751H58.2919V6.8751H53.5919V11.3751H58.4919V12.6751H52.1919V0.975098Z" fill="#5B9CD6"/>
<path d="M27.6919 50.4751V57.9751H0.191895L14.1919 42.7751C16.1919 40.5751 18.0919 37.4751 18.0919 34.3751C18.0919 32.1751 16.5919 29.9751 14.1919 29.9751C11.7919 29.9751 10.4919 31.8751 10.4919 34.1751C10.4919 34.6751 10.4919 35.1751 10.5919 35.5751H0.791895C1.09189 27.7751 6.09189 22.4751 14.0919 22.4751C21.2919 22.4751 27.2919 27.1751 27.2919 34.5751C27.2919 39.4751 25.2919 42.2751 21.7919 45.4751L16.4919 50.3751H27.6919V50.4751Z" fill="#5B9CD6"/>
<path d="M37.0919 31.3751V23.8751H50.8919V58.0751H41.9919V31.3751H37.0919Z" fill="#5B9CD6"/>
<path d="M106.092 41.8751C106.092 52.5751 97.3919 61.2751 86.5919 61.2751C75.8919 61.3751 67.1919 52.6751 67.1919 41.8751C67.1919 31.1751 75.8919 22.3751 86.6919 22.3751C97.3919 22.4751 106.092 31.1751 106.092 41.8751Z" fill="#A9C5DC"/>
<path d="M124.992 14.275H129.092C132.292 14.275 134.192 15.475 134.192 18.875C134.192 20.075 133.792 21.475 132.692 22.175C134.692 22.575 135.592 24.575 135.592 26.475C135.592 29.775 133.192 31.275 130.092 31.275H124.892V14.275H124.992ZM128.292 21.375H128.692C130.292 21.375 131.092 20.875 131.092 19.175C131.092 17.475 130.092 16.975 128.692 16.975H128.292V21.375ZM128.292 28.675H128.992C130.792 28.675 132.292 28.475 132.292 26.275C132.292 24.075 130.492 23.975 128.792 23.975H128.292V28.675Z" fill="#858686"/>
<path d="M140.792 31.275H137.492V14.275H140.792V31.275Z" fill="#858686"/>
<path d="M155.992 20.675L152.092 31.475H150.892L147.192 20.675L145.692 31.275H142.292L145.192 13.775H147.592L151.792 24.975L155.792 13.775H158.192L160.792 31.275H157.392L155.992 20.675Z" fill="#858686"/>
<path d="M178.092 29.575C176.692 30.775 175.092 31.775 173.192 31.775C170.292 31.775 168.192 29.675 168.192 26.775C168.192 24.875 169.092 23.375 170.692 22.375L171.692 21.675C170.892 20.575 170.292 19.475 170.292 18.075C170.292 15.575 172.192 13.875 174.592 13.875C177.092 13.875 178.992 15.575 178.992 18.075C178.992 19.975 177.592 21.275 176.192 22.175L178.592 25.275L180.292 23.075L182.392 25.075L180.592 27.575L183.492 31.475H179.392L178.092 29.575ZM173.492 23.775C172.592 24.475 171.592 25.275 171.592 26.475C171.592 27.575 172.492 28.775 173.592 28.775C174.592 28.775 175.392 27.975 176.092 27.275L173.492 23.775ZM174.692 20.175L175.292 19.675C175.892 19.175 176.292 18.675 176.292 17.775C176.292 16.975 175.792 16.075 174.992 16.075C174.092 16.075 173.592 16.875 173.592 17.675C173.592 18.175 173.692 18.575 173.992 18.975L174.692 20.175Z" fill="#858686"/>
<path d="M134.392 48.175V41.475H137.692V58.575H134.392V50.975H128.192V58.575H124.892V41.375H128.192V48.075H134.392V48.175Z" fill="#858686"/>
<path d="M143.492 44.275V48.075H148.792V50.975H143.492V55.575H148.992V58.475H140.192V41.375H148.992V44.275H143.492Z" fill="#858686"/>
<path d="M162.792 58.475H158.792L154.692 51.575V58.475H151.392V41.375H155.892C159.292 41.375 161.592 42.875 161.592 46.475C161.592 48.675 160.392 50.775 158.092 51.175L162.792 58.475ZM154.592 49.275H154.992C156.792 49.275 158.092 48.775 158.092 46.675C158.092 44.575 156.792 44.175 154.992 44.175H154.492V49.275H154.592Z" fill="#858686"/>
<path d="M175.392 58.475H171.392L167.292 51.575V58.475H163.992V41.375H168.492C171.892 41.375 174.192 42.875 174.192 46.475C174.192 48.675 172.992 50.775 170.692 51.175L175.392 58.475ZM167.192 49.275H167.592C169.392 49.275 170.692 48.775 170.692 46.675C170.692 44.575 169.392 44.175 167.592 44.175H167.192V49.275Z" fill="#858686"/>
<path d="M179.992 54.875L178.592 58.475H175.092L181.792 40.975H184.392L190.892 58.475H187.292L185.992 54.875H179.992ZM182.892 45.975L180.992 52.175H185.092L182.892 45.975Z" fill="#858686"/>
<path d="M204.592 47.875L200.692 58.675H199.492L195.792 47.875L194.192 58.475H190.792L193.692 40.975H196.092L200.292 52.175L204.292 40.975H206.692L209.292 58.475H205.892L204.592 47.875Z" fill="#858686"/>
<path d="M214.092 58.475H210.792V41.375H214.092V58.475Z" fill="#858686"/>
<path d="M219.892 44.275V48.075H225.192V50.975H219.892V55.575H225.392V58.475H216.592V41.375H225.392V44.275H219.892Z" fill="#858686"/>
<path d="M227.592 40.975H229.992L238.992 52.875V41.375H242.292V58.775H239.892L230.892 46.875V58.475H227.592V40.975Z" fill="#858686"/>
<path d="M250.292 58.475H246.992V44.275H243.592V41.375H253.792V44.275H250.392V58.475H250.292Z" fill="#858686"/>
<path d="M258.492 54.875L257.092 58.475H253.592L260.292 40.975H262.892L269.392 58.475H265.792L264.492 54.875H258.492ZM261.392 45.975L259.492 52.175H263.592L261.392 45.975Z" fill="#858686"/>
<path d="M278.292 45.175C277.692 44.275 276.892 43.775 275.692 43.775C274.592 43.775 273.592 44.575 273.592 45.675C273.592 48.575 280.392 47.375 280.392 53.075C280.392 56.475 278.292 58.875 274.792 58.875C272.392 58.875 270.692 57.475 269.492 55.575L271.692 53.475C272.192 54.775 273.392 55.975 274.792 55.975C276.192 55.975 276.992 54.775 276.992 53.475C276.992 51.675 275.392 51.175 273.992 50.675C271.792 49.775 270.192 48.675 270.192 45.975C270.192 43.175 272.292 40.875 275.192 40.875C276.692 40.875 278.792 41.575 279.892 42.775L278.292 45.175Z" fill="#858686"/>
</g>
<defs>
<clipPath id="clip0">
<rect width="280.3" height="60.7" fill="white" transform="translate(0.191895 0.675049)"/>
</clipPath>
</defs>
</svg>
