<svg width="337" height="62" viewBox="0 0 337 62" fill="none" xmlns="http://www.w3.org/2000/svg">
<g clip-path="url(#clip0)">
<path d="M1.11414 1.16382H2.51414C4.71414 1.16382 6.81414 1.76382 6.81414 4.36382C6.81414 5.26382 6.31414 6.26382 5.51414 6.56382C7.01414 6.86382 7.91414 8.26382 7.91414 9.66382C7.91414 12.0638 5.91414 12.9638 3.81414 12.9638H1.11414V1.16382ZM2.61414 6.36382H3.01414C4.41414 6.36382 5.51414 6.06382 5.51414 4.36382C5.51414 2.66382 4.41414 2.46382 3.01414 2.46382H2.61414V6.36382ZM2.61414 11.5638H3.71414C5.11414 11.5638 6.51414 11.1638 6.51414 9.46382C6.51414 7.76382 4.81414 7.46382 3.51414 7.46382H2.61414V11.5638Z" fill="#5B9CD6"/>
<path d="M11.1141 11.5638H14.7141V12.8638H9.61414V1.16382H11.1141V11.5638Z" fill="#5B9CD6"/>
<path d="M27.2141 7.06401C27.2141 10.564 24.4141 13.264 21.0141 13.264C17.6141 13.264 14.8141 10.664 14.8141 7.06401C14.8141 3.66401 17.6141 0.864014 21.0141 0.864014C24.4141 0.864014 27.2141 3.66401 27.2141 7.06401ZM25.7141 7.06401C25.7141 4.46401 23.8141 2.26401 21.0141 2.26401C18.2141 2.26401 16.3141 4.46401 16.3141 7.06401C16.3141 9.76401 18.5141 11.864 21.0141 11.864C23.5141 11.864 25.7141 9.76401 25.7141 7.06401Z" fill="#5B9CD6"/>
<path d="M38.3141 13.1639L37.3141 12.1639C36.3141 12.8639 35.1141 13.1639 33.9141 13.1639C30.5141 13.1639 27.7141 10.5639 27.7141 6.96392C27.7141 3.56392 30.5141 0.763916 33.9141 0.763916C37.3141 0.763916 40.1141 3.56392 40.1141 6.96392C40.1141 8.66392 39.4141 10.2639 38.3141 11.3639L40.1141 13.1639H38.3141ZM37.3141 10.3639C38.2141 9.56392 38.7141 8.16392 38.7141 7.06392C38.7141 4.46392 36.8141 2.26392 34.0141 2.26392C31.2141 2.26392 29.3141 4.46392 29.3141 7.06392C29.3141 9.76392 31.5141 11.8639 34.0141 11.8639C34.7141 11.8639 35.6141 11.6639 36.3141 11.1639L33.6141 8.56392H35.4141L37.3141 10.3639Z" fill="#5B9CD6"/>
<path d="M42.8142 1.16382V8.16382C42.8142 10.0638 43.4142 11.8638 45.7142 11.8638C48.0142 11.8638 48.5142 10.0638 48.5142 8.16382V1.16382H50.0142V8.66382C50.0142 11.2638 48.4142 13.2638 45.7142 13.2638C43.0142 13.2638 41.4142 11.2638 41.4142 8.66382V1.16382H42.8142Z" fill="#5B9CD6"/>
<path d="M52.0142 1.16382H58.3142V2.46382H53.4142V5.76382H58.1142V7.06382H53.4142V11.5638H58.3142V12.8638H52.0142V1.16382Z" fill="#5B9CD6"/>
<path d="M27.5142 50.6638V58.1638H0.0141602L14.0142 42.9638C16.0142 40.7638 17.9142 37.6638 17.9142 34.5638C17.9142 32.3638 16.4142 30.1638 14.0142 30.1638C11.6142 30.1638 10.3142 32.0638 10.3142 34.3638C10.3142 34.8638 10.3142 35.3638 10.4142 35.7638H0.61416C0.91416 27.9638 5.91416 22.6638 13.9142 22.6638C21.1142 22.6638 27.1142 27.3638 27.1142 34.7638C27.1142 39.6638 25.1142 42.4638 21.6142 45.6638L16.3142 50.5638H27.5142V50.6638Z" fill="#5B9CD6"/>
<path d="M36.9142 31.5637V24.0637H50.7142V58.2637H41.8142V31.5637H36.9142Z" fill="#5B9CD6"/>
<path d="M105.914 42.064C105.914 52.764 97.2142 61.464 86.4142 61.464C75.7142 61.564 67.0142 52.864 67.0142 42.064C67.0142 31.364 75.7142 22.564 86.5142 22.564C97.2142 22.664 105.914 31.364 105.914 42.064Z" fill="#A9C5DC"/>
<path d="M124.814 14.4639H128.914C132.114 14.4639 134.014 15.6639 134.014 19.0639C134.014 20.2639 133.614 21.6639 132.514 22.3639C134.514 22.7639 135.414 24.7639 135.414 26.6639C135.414 29.9639 133.014 31.4639 129.914 31.4639H124.714V14.4639H124.814ZM128.114 21.5639H128.514C130.114 21.5639 130.914 21.0639 130.914 19.3639C130.914 17.6639 129.914 17.1639 128.514 17.1639H128.114V21.5639ZM128.114 28.8639H128.814C130.614 28.8639 132.114 28.6639 132.114 26.4639C132.114 24.2639 130.314 24.1639 128.614 24.1639H128.114V28.8639Z" fill="#858686"/>
<path d="M140.614 31.4639H137.314V14.4639H140.614V31.4639Z" fill="#858686"/>
<path d="M155.814 20.8639L151.914 31.6639H150.714L147.014 20.8639L145.514 31.4639H142.114L145.014 13.9639H147.414L151.614 25.1639L155.614 13.9639H158.014L160.614 31.4639H157.214L155.814 20.8639Z" fill="#858686"/>
<path d="M177.914 29.764C176.514 30.964 174.914 31.964 173.014 31.964C170.114 31.964 168.014 29.864 168.014 26.964C168.014 25.064 168.914 23.564 170.514 22.564L171.514 21.864C170.714 20.764 170.114 19.664 170.114 18.264C170.114 15.764 172.014 14.064 174.414 14.064C176.914 14.064 178.814 15.764 178.814 18.264C178.814 20.164 177.414 21.464 176.014 22.364L178.414 25.464L180.114 23.264L182.214 25.264L180.414 27.764L183.314 31.664H179.214L177.914 29.764ZM173.314 23.964C172.414 24.664 171.414 25.464 171.414 26.664C171.414 27.764 172.314 28.964 173.414 28.964C174.414 28.964 175.214 28.164 175.914 27.464L173.314 23.964ZM174.514 20.364L175.114 19.864C175.714 19.364 176.114 18.864 176.114 17.964C176.114 17.164 175.614 16.264 174.814 16.264C173.914 16.264 173.414 17.064 173.414 17.864C173.414 18.364 173.514 18.764 173.814 19.164L174.514 20.364Z" fill="#858686"/>
<path d="M134.214 48.364V41.664H137.514V58.764H134.214V51.164H128.014V58.764H124.714V41.564H128.014V48.264H134.214V48.364Z" fill="#858686"/>
<path d="M143.314 44.464V48.264H148.614V51.164H143.314V55.764H148.814V58.664H140.014V41.564H148.814V44.464H143.314Z" fill="#858686"/>
<path d="M162.614 58.664H158.614L154.514 51.764V58.664H151.214V41.564H155.714C159.114 41.564 161.414 43.064 161.414 46.664C161.414 48.864 160.214 50.964 157.914 51.364L162.614 58.664ZM154.414 49.464H154.814C156.614 49.464 157.914 48.964 157.914 46.864C157.914 44.764 156.614 44.364 154.814 44.364H154.314V49.464H154.414Z" fill="#858686"/>
<path d="M175.214 58.664H171.214L167.114 51.764V58.664H163.814V41.564H168.314C171.714 41.564 174.014 43.064 174.014 46.664C174.014 48.864 172.814 50.964 170.514 51.364L175.214 58.664ZM167.014 49.464H167.414C169.214 49.464 170.514 48.964 170.514 46.864C170.514 44.764 169.214 44.364 167.414 44.364H167.014V49.464Z" fill="#858686"/>
<path d="M179.814 55.0638L178.414 58.6638H174.914L181.614 41.1638H184.214L190.714 58.6638H187.114L185.814 55.0638H179.814ZM182.714 46.1638L180.814 52.3638H184.914L182.714 46.1638Z" fill="#858686"/>
<path d="M204.414 48.0638L200.514 58.8638H199.314L195.614 48.0638L194.014 58.6638H190.614L193.514 41.1638H195.914L200.114 52.3638L204.114 41.1638H206.514L209.114 58.6638H205.714L204.414 48.0638Z" fill="#858686"/>
<path d="M213.914 58.664H210.614V41.564H213.914V58.664Z" fill="#858686"/>
<path d="M219.714 44.464V48.264H225.014V51.164H219.714V55.764H225.214V58.664H216.414V41.564H225.214V44.464H219.714Z" fill="#858686"/>
<path d="M227.414 41.1638H229.814L238.814 53.0638V41.5638H242.114V58.9638H239.714L230.714 47.0638V58.6638H227.414V41.1638Z" fill="#858686"/>
<path d="M250.114 58.664H246.814V44.464H243.414V41.564H253.614V44.464H250.214V58.664H250.114Z" fill="#858686"/>
<path d="M258.314 55.0638L256.914 58.6638H253.414L260.114 41.1638H262.714L269.214 58.6638H265.614L264.314 55.0638H258.314ZM261.214 46.1638L259.314 52.3638H263.414L261.214 46.1638Z" fill="#858686"/>
<path d="M278.114 45.364C277.514 44.464 276.714 43.964 275.514 43.964C274.414 43.964 273.414 44.764 273.414 45.864C273.414 48.764 280.214 47.564 280.214 53.264C280.214 56.664 278.114 59.064 274.614 59.064C272.214 59.064 270.514 57.664 269.314 55.764L271.514 53.664C272.014 54.964 273.214 56.164 274.614 56.164C276.014 56.164 276.814 54.964 276.814 53.664C276.814 51.864 275.214 51.364 273.814 50.864C271.614 49.964 270.014 48.864 270.014 46.164C270.014 43.364 272.114 41.064 275.014 41.064C276.514 41.064 278.614 41.764 279.714 42.964L278.114 45.364Z" fill="#858686"/>
</g>
<circle cx="321.583" cy="44.5581" r="13.2082" fill="#009DE0"/>
<path d="M318.42 27.9695C318.42 27.6955 318.528 27.4327 318.722 27.2389C318.916 27.0451 319.179 26.9363 319.453 26.9363H323.586C323.86 26.9363 324.122 27.0451 324.316 27.2389C324.51 27.4327 324.619 27.6955 324.619 27.9695C324.619 28.2435 324.51 28.5063 324.316 28.7C324.122 28.8938 323.86 29.0027 323.586 29.0027V30.1805C326.396 30.5855 328.946 31.7923 330.991 33.5694C331 33.5603 331.008 33.5514 331.016 33.5425L331.748 32.811L331.016 32.0816C330.822 31.8878 330.713 31.625 330.713 31.3508C330.713 31.0766 330.822 30.8136 331.015 30.6196C331.209 30.4256 331.472 30.3165 331.746 30.3163C332.02 30.3161 332.283 30.4248 332.477 30.6186L335.399 33.5425C335.498 33.6378 335.576 33.7518 335.631 33.8779C335.685 34.0039 335.713 34.1395 335.714 34.2767C335.716 34.4139 335.69 34.5499 335.638 34.6769C335.586 34.8039 335.509 34.9192 335.412 35.0162C335.315 35.1132 335.2 35.19 335.073 35.2419C334.946 35.2939 334.81 35.32 334.672 35.3188C334.535 35.3176 334.4 35.2891 334.274 35.235C334.147 35.1808 334.033 35.1021 333.938 35.0034L333.209 34.2719L332.477 35.0034C332.468 35.0119 332.459 35.0201 332.45 35.0282C334.554 37.457 335.79 40.5171 335.961 43.7258C336.133 46.9345 335.232 50.1091 333.399 52.7486C331.566 55.3881 328.907 57.3422 325.841 58.3026C322.774 59.263 319.475 59.175 316.465 58.0525C313.454 56.9301 310.902 54.837 309.213 52.1035C307.524 49.3701 306.793 46.152 307.135 42.957C307.478 39.762 308.874 36.7721 311.105 34.459C313.335 32.1458 316.272 30.6412 319.453 30.1826V29.0027C319.179 29.0027 318.916 28.8938 318.722 28.7C318.528 28.5063 318.42 28.2435 318.42 27.9695ZM321.519 32.1022C319.891 32.1024 318.279 32.4232 316.775 33.0464C315.27 33.6696 313.904 34.583 312.753 35.7343C310.428 38.0597 309.122 41.2133 309.122 44.5016C309.122 47.7898 310.429 50.9432 312.754 53.2682C315.079 55.5931 318.233 56.8991 321.521 56.8988C324.809 56.8985 327.963 55.592 330.288 53.2667C332.613 50.9414 333.919 47.7877 333.919 44.4995C333.918 41.2113 332.612 38.0578 330.286 35.7329C327.961 33.4079 324.807 32.102 321.519 32.1022Z" fill="#009DE0"/>
<path d="M317.171 44.2259C317.759 44.3845 318.207 44.6739 318.515 45.0939C318.833 45.5139 318.991 46.0319 318.991 46.6479C318.991 47.5159 318.669 48.2019 318.025 48.7059C317.391 49.2099 316.532 49.4619 315.449 49.4619C314.777 49.4619 314.129 49.3592 313.503 49.1539C312.887 48.9485 312.379 48.6639 311.977 48.2999L312.593 46.9839C313.48 47.6745 314.409 48.0199 315.379 48.0199C316.014 48.0199 316.485 47.8939 316.793 47.6419C317.111 47.3899 317.269 47.0072 317.269 46.4939C317.269 45.9899 317.111 45.6212 316.793 45.3879C316.476 45.1452 315.986 45.0239 315.323 45.0239H314.007V43.5819H315.085C316.373 43.5819 317.017 43.0919 317.017 42.1119C317.017 41.6545 316.877 41.3045 316.597 41.0619C316.317 40.8192 315.925 40.6979 315.421 40.6979C314.525 40.6979 313.629 41.0432 312.733 41.7339L312.131 40.4179C312.533 40.0632 313.037 39.7832 313.643 39.5779C314.259 39.3632 314.889 39.2559 315.533 39.2559C316.513 39.2559 317.293 39.4985 317.871 39.9839C318.459 40.4599 318.753 41.0992 318.753 41.9019C318.744 42.4525 318.599 42.9332 318.319 43.3439C318.049 43.7452 317.666 44.0392 317.171 44.2259ZM324.026 49.4759C322.841 49.4759 321.935 49.0419 321.31 48.1739C320.694 47.2965 320.386 46.0225 320.386 44.3519C320.386 42.7092 320.694 41.4539 321.31 40.5859C321.935 39.7179 322.841 39.2839 324.026 39.2839C325.211 39.2839 326.112 39.7179 326.728 40.5859C327.353 41.4445 327.666 42.6999 327.666 44.3519C327.666 46.0132 327.353 47.2825 326.728 48.1599C326.112 49.0372 325.211 49.4759 324.026 49.4759ZM324.026 48.0619C324.67 48.0619 325.137 47.7679 325.426 47.1799C325.725 46.5825 325.874 45.6399 325.874 44.3519C325.874 43.0825 325.725 42.1585 325.426 41.5799C325.137 40.9919 324.67 40.6979 324.026 40.6979C323.382 40.6979 322.911 40.9919 322.612 41.5799C322.323 42.1585 322.178 43.0825 322.178 44.3519C322.178 45.6399 322.323 46.5825 322.612 47.1799C322.911 47.7679 323.382 48.0619 324.026 48.0619ZM330.951 39.3819V40.6699C330.951 41.1645 330.867 41.6125 330.699 42.0139C330.531 42.4059 330.246 42.8025 329.845 43.2039L329.131 42.6439C329.551 42.1959 329.803 41.7619 329.887 41.3419H328.991V39.3819H330.951Z" fill="white"/>
<defs>
<clipPath id="clip0">
<rect width="280.3" height="60.7" fill="white" transform="translate(0.0141602 0.864014)"/>
</clipPath>
</defs>
</svg>
