<svg width="342" height="60" viewBox="0 0 342 60" fill="none" xmlns="http://www.w3.org/2000/svg">
<g clip-path="url(#clip0)">
<path d="M0.582275 1.16382H1.98228C4.18228 1.16382 6.28228 1.76382 6.28228 4.36382C6.28228 5.26382 5.78228 6.26382 4.98228 6.56382C6.38228 6.86382 7.38228 8.16382 7.38228 9.56382C7.38228 11.9638 5.38228 12.8638 3.28228 12.8638H0.582275V1.16382ZM2.08228 6.36382H2.48228C3.88228 6.36382 4.98228 6.06382 4.98228 4.36382C4.98228 2.66382 3.88228 2.46382 2.48228 2.46382H2.08228V6.36382ZM2.08228 11.5638H3.18228C4.58228 11.5638 5.98228 11.1638 5.98228 9.46382C5.98228 7.76382 4.28228 7.46382 2.98228 7.46382H2.08228V11.5638Z" fill="#5B9CD6"/>
<path d="M10.5823 11.5638H14.1823V12.8638H9.08228V1.16382H10.5823V11.5638Z" fill="#5B9CD6"/>
<path d="M26.6823 7.06401C26.6823 10.564 23.8823 13.264 20.4823 13.264C17.0823 13.264 14.2823 10.664 14.2823 7.06401C14.2823 3.66401 17.0823 0.864014 20.4823 0.864014C23.8823 0.864014 26.6823 3.66401 26.6823 7.06401ZM25.1823 7.06401C25.1823 4.46401 23.2823 2.26401 20.4823 2.26401C17.6823 2.26401 15.7823 4.46401 15.7823 7.06401C15.7823 9.76401 17.9823 11.864 20.4823 11.864C22.9823 11.864 25.1823 9.76401 25.1823 7.06401Z" fill="#5B9CD6"/>
<path d="M37.7823 13.1639L36.7823 12.1639C35.7823 12.8639 34.5822 13.1639 33.3822 13.1639C29.9822 13.1639 27.1823 10.5639 27.1823 6.96392C27.1823 3.56392 29.9822 0.763916 33.3822 0.763916C36.7822 0.763916 39.5823 3.56392 39.5823 6.96392C39.5823 8.66392 38.8822 10.2639 37.6822 11.3639L39.4823 13.1639H37.7823ZM36.7823 10.3639C37.6823 9.56392 38.1822 8.16392 38.1822 7.06392C38.1822 4.46392 36.2823 2.26392 33.4823 2.26392C30.6823 2.26392 28.7823 4.46392 28.7823 7.06392C28.7823 9.76392 30.9823 11.8639 33.4823 11.8639C34.1823 11.8639 35.0823 11.6639 35.7823 11.1639L33.0823 8.56392H34.8822L36.7823 10.3639Z" fill="#5B9CD6"/>
<path d="M42.2823 1.16382V8.16382C42.2823 10.0638 42.8823 11.8638 45.0823 11.8638C47.3823 11.8638 47.9823 10.0638 47.9823 8.16382V1.16382H49.4823V8.66382C49.4823 11.2638 47.8823 13.2638 45.1823 13.2638C42.4823 13.2638 40.8823 11.2638 40.8823 8.66382V1.16382H42.2823Z" fill="#5B9CD6"/>
<path d="M51.5823 1.16382H57.8823V2.46382H52.9823V5.76382H57.6823V7.06382H52.9823V11.5638H57.8823V12.8638H51.5823V1.16382Z" fill="#5B9CD6"/>
<path d="M5.28229 31.564V24.064H19.0823V58.264H10.1823V31.564H5.28229Z" fill="#5B9CD6"/>
<path d="M58.7823 44.364V51.164H54.5823V58.264H46.3823V51.164H29.7823V45.464L42.9823 24.064H54.5823V44.364H58.7823ZM46.3823 31.264L38.2823 44.364H46.3823V31.264Z" fill="#5B9CD6"/>
<path d="M100.782 37.864C100.782 43.864 98.3823 49.364 94.3823 53.264C90.4823 57.164 84.9823 59.664 78.9823 59.664H71.1823V16.064H78.9823C90.9823 16.064 100.782 25.764 100.782 37.864Z" fill="#5797D3"/>
<path d="M126.682 43.264L125.282 46.864H121.782L128.482 29.364H131.082L137.582 46.864H133.982L132.682 43.264H126.682ZM129.582 34.364L127.682 40.564H131.782L129.582 34.364Z" fill="#858686"/>
<path d="M151.482 47.6641L150.282 46.2641C149.082 47.0641 147.582 47.4641 146.082 47.4641C141.082 47.4641 137.682 43.3641 137.682 38.4641C137.682 33.6641 141.182 29.4641 146.082 29.4641C150.982 29.4641 154.482 33.6641 154.482 38.4641C154.482 40.7641 153.782 42.9641 152.482 44.6641L154.782 47.4641L151.482 47.6641ZM150.082 41.7641C150.782 40.8641 151.182 39.3641 151.182 38.2641C151.182 35.4641 149.182 32.5641 146.182 32.5641C142.982 32.5641 141.182 35.6641 141.182 38.5641C141.182 41.3641 142.882 44.1641 146.182 44.1641C146.782 44.1641 147.482 43.8641 147.982 43.5641L145.182 40.3641L148.582 40.0641L150.082 41.7641Z" fill="#858686"/>
<path d="M156.082 29.864H159.382V39.464C159.382 41.564 159.582 44.564 162.382 44.564C165.182 44.564 165.382 41.564 165.382 39.464V29.864H168.682V40.064C168.682 44.264 166.882 47.364 162.382 47.364C157.782 47.364 156.082 44.264 156.082 40.064V29.864Z" fill="#858686"/>
<path d="M174.682 43.264L173.282 46.864H169.782L176.482 29.364H179.082L185.582 46.864H181.982L180.682 43.264H174.682ZM177.482 34.364L175.582 40.564H179.682L177.482 34.364Z" fill="#858686"/>
<path d="M189.782 46.864H186.482V29.864H190.982C194.582 29.864 196.882 31.264 196.882 35.164C196.882 38.764 194.882 40.564 191.382 40.564H189.682V46.864H189.782ZM189.782 37.764H190.482C192.482 37.764 193.482 37.364 193.482 35.164C193.482 32.964 192.182 32.664 190.382 32.664H189.782V37.764Z" fill="#858686"/>
<path d="M200.082 43.264L198.682 46.864H195.182L201.882 29.364H204.482L210.982 46.864H207.382L206.082 43.264H200.082ZM202.982 34.364L201.082 40.564H205.182L202.982 34.364Z" fill="#858686"/>
<path d="M211.882 29.364H214.282L223.282 41.264V29.864H226.582V47.264H224.182L215.182 35.364V46.864H211.882V29.364Z" fill="#858686"/>
<path d="M232.382 32.764V36.564H237.682V39.464H232.382V44.064H237.882V46.864H229.082V29.864H237.882V32.764H232.382Z" fill="#858686"/>
<path d="M243.482 44.064H248.182V46.864H240.182V29.864H243.482V44.064Z" fill="#858686"/>
<path d="M248.182 38.364C248.182 33.364 252.082 29.364 257.082 29.364C262.082 29.364 265.982 33.364 265.982 38.364C265.982 43.364 262.082 47.364 257.082 47.364C252.082 47.364 248.182 43.364 248.182 38.364ZM250.082 38.364C250.082 42.364 253.182 45.364 257.082 45.364C260.882 45.364 264.082 42.364 264.082 38.364C264.082 34.364 260.982 31.364 257.082 31.364C253.282 31.364 250.082 34.364 250.082 38.364ZM261.182 42.964H259.082L256.882 39.264H255.282V42.964H253.382V33.664H257.882C260.082 33.664 261.482 34.064 261.482 36.564C261.482 38.264 260.582 39.164 258.982 39.364L261.182 42.964ZM257.882 37.564C258.882 37.564 259.582 37.364 259.582 36.364C259.582 35.364 258.382 35.364 257.382 35.364H255.182V37.664H257.882V37.564Z" fill="#858686"/>
</g>
<circle cx="326.874" cy="37.1826" r="13.2082" fill="#009DE0"/>
<path d="M323.711 20.594C323.711 20.32 323.82 20.0572 324.013 19.8634C324.207 19.6696 324.47 19.5608 324.744 19.5608H328.877C329.151 19.5608 329.414 19.6696 329.607 19.8634C329.801 20.0572 329.91 20.32 329.91 20.594C329.91 20.868 329.801 21.1308 329.607 21.3246C329.414 21.5183 329.151 21.6272 328.877 21.6272V22.805C331.687 23.21 334.237 24.4168 336.283 26.1939C336.291 26.1848 336.299 26.1759 336.307 26.167L337.039 25.4355L336.307 24.7061C336.113 24.5124 336.004 24.2495 336.004 23.9753C336.004 23.7011 336.113 23.4381 336.306 23.2441C336.5 23.0501 336.763 22.941 337.037 22.9408C337.311 22.9406 337.574 23.0494 337.768 23.2431L340.69 26.167C340.789 26.2623 340.868 26.3763 340.922 26.5024C340.976 26.6284 341.004 26.764 341.006 26.9012C341.007 27.0384 340.981 27.1744 340.929 27.3014C340.877 27.4284 340.8 27.5437 340.703 27.6408C340.606 27.7378 340.491 27.8145 340.364 27.8664C340.237 27.9184 340.101 27.9445 339.963 27.9433C339.826 27.9421 339.691 27.9136 339.565 27.8595C339.439 27.8053 339.325 27.7266 339.229 27.6279L338.5 26.8964L337.768 27.6279C337.76 27.6364 337.751 27.6446 337.741 27.6527C339.845 30.0815 341.081 33.1416 341.253 36.3503C341.424 39.559 340.523 42.7336 338.69 45.3731C336.858 48.0126 334.198 49.9667 331.132 50.9271C328.065 51.8875 324.767 51.7995 321.756 50.6771C318.745 49.5546 316.193 47.4615 314.504 44.7281C312.815 41.9946 312.084 38.7765 312.426 35.5815C312.769 32.3866 314.166 29.3966 316.396 27.0835C318.626 24.7703 321.564 23.2657 324.744 22.8071V21.6272C324.47 21.6272 324.207 21.5183 324.013 21.3246C323.82 21.1308 323.711 20.868 323.711 20.594ZM326.81 24.7267C325.182 24.7269 323.57 25.0477 322.066 25.6709C320.562 26.2941 319.195 27.2075 318.044 28.3589C315.719 30.6842 314.413 33.8378 314.413 37.1261C314.413 40.4143 315.72 43.5677 318.045 45.8927C320.37 48.2176 323.524 49.5236 326.812 49.5233C330.101 49.5231 333.254 48.2165 335.579 45.8912C337.904 43.5659 339.21 40.4122 339.21 37.124C339.209 33.8358 337.903 30.6823 335.578 28.3574C333.252 26.0325 330.099 24.7265 326.81 24.7267Z" fill="#009DE0"/>
<path d="M324.437 40.5044V41.9744H318.291V40.5044H320.475V34.0784L318.445 35.2964V33.6864L321.217 32.0064H322.267V40.5044H324.437ZM329.849 35.6044C330.475 35.6044 331.025 35.7397 331.501 36.0104C331.977 36.2717 332.346 36.645 332.607 37.1304C332.869 37.6064 332.999 38.157 332.999 38.7824C332.999 39.4357 332.85 40.0144 332.551 40.5184C332.253 41.013 331.823 41.4004 331.263 41.6804C330.703 41.951 330.054 42.0864 329.317 42.0864C328.692 42.0864 328.076 41.9837 327.469 41.7784C326.862 41.5637 326.363 41.279 325.971 40.9244L326.573 39.6084C327.478 40.299 328.402 40.6444 329.345 40.6444C329.971 40.6444 330.447 40.4904 330.773 40.1824C331.109 39.865 331.277 39.417 331.277 38.8384C331.277 38.2877 331.105 37.849 330.759 37.5224C330.423 37.1864 329.971 37.0184 329.401 37.0184C329.009 37.0184 328.64 37.093 328.295 37.2424C327.95 37.3824 327.646 37.5924 327.385 37.8724H326.293V32.0064H332.537V33.4064H328.057V36.1224C328.561 35.777 329.158 35.6044 329.849 35.6044ZM336.242 32.0064V33.2944C336.242 33.789 336.158 34.237 335.99 34.6384C335.822 35.0304 335.537 35.427 335.136 35.8284L334.422 35.2684C334.842 34.8204 335.094 34.3864 335.178 33.9664H334.282V32.0064H336.242Z" fill="white"/>
<defs>
<clipPath id="clip0">
<rect width="265.4" height="58.8" fill="white" transform="translate(0.582275 0.864014)"/>
</clipPath>
</defs>
</svg>
