<svg width="339" height="60" viewBox="0 0 339 60" fill="none" xmlns="http://www.w3.org/2000/svg">
<g clip-path="url(#clip0)">
<path d="M0.914307 0.900635H2.31431C4.51431 0.900635 6.61431 1.50063 6.61431 4.10063C6.61431 5.00063 6.11431 6.00063 5.31431 6.30063C6.71431 6.60063 7.71431 7.90063 7.71431 9.30063C7.71431 11.7006 5.71431 12.6006 3.61431 12.6006H0.914307V0.900635ZM2.41431 6.10063H2.81431C4.21431 6.10063 5.31431 5.80063 5.31431 4.10063C5.31431 2.40063 4.21431 2.20063 2.81431 2.20063H2.41431V6.10063ZM2.41431 11.3006H3.51431C4.91431 11.3006 6.31431 10.9006 6.31431 9.20063C6.31431 7.50064 4.61431 7.20063 3.31431 7.20063H2.41431V11.3006Z" fill="#5B9CD6"/>
<path d="M10.9143 11.3006H14.5143V12.6006H9.41431V0.900635H10.9143V11.3006Z" fill="#5B9CD6"/>
<path d="M27.0143 6.80083C27.0143 10.3008 24.2143 13.0008 20.8143 13.0008C17.4143 13.0008 14.6143 10.4008 14.6143 6.80083C14.6143 3.40083 17.4143 0.60083 20.8143 0.60083C24.2143 0.60083 27.0143 3.40083 27.0143 6.80083ZM25.5143 6.80083C25.5143 4.20083 23.6143 2.00083 20.8143 2.00083C18.0143 2.00083 16.1143 4.20083 16.1143 6.80083C16.1143 9.50083 18.3143 11.6008 20.8143 11.6008C23.3143 11.6008 25.5143 9.50083 25.5143 6.80083Z" fill="#5B9CD6"/>
<path d="M38.1143 12.9007L37.1143 11.9007C36.1143 12.6007 34.9143 12.9007 33.7143 12.9007C30.3143 12.9007 27.5143 10.3007 27.5143 6.70073C27.5143 3.30073 30.3143 0.500732 33.7143 0.500732C37.1143 0.500732 39.9143 3.30073 39.9143 6.70073C39.9143 8.40073 39.2143 10.0007 38.1143 11.1007L39.9143 12.9007H38.1143ZM37.1143 10.1007C38.0143 9.30073 38.5143 7.90073 38.5143 6.80073C38.5143 4.20073 36.6143 2.00073 33.8143 2.00073C31.0143 2.00073 29.1143 4.20073 29.1143 6.80073C29.1143 9.50073 31.3143 11.6007 33.8143 11.6007C34.5143 11.6007 35.4143 11.4007 36.1143 10.9007L33.4143 8.30073H35.2143L37.1143 10.1007Z" fill="#5B9CD6"/>
<path d="M42.6144 0.900635V7.90063C42.6144 9.80063 43.2144 11.6006 45.5144 11.6006C47.8144 11.6006 48.3144 9.80063 48.3144 7.90063V0.900635H49.8144V8.40063C49.8144 11.0006 48.2144 13.0006 45.5144 13.0006C42.8144 13.0006 41.2144 11.0006 41.2144 8.40063V0.900635H42.6144Z" fill="#5B9CD6"/>
<path d="M51.9143 0.900635H58.2143V2.20063H53.3143V5.50063H58.0143V6.80063H53.3143V11.3006H58.2143V12.6006H51.9143V0.900635Z" fill="#5B9CD6"/>
<path d="M5.61426 31.3008V23.8008H19.4143V58.0008H10.5143V31.3008H5.61426Z" fill="#5B9CD6"/>
<path d="M43.1143 31.3008L42.5143 35.2008L45.3143 35.0008C52.3143 34.5008 57.4143 40.2008 57.4143 47.2008C57.4143 50.8008 55.8143 54.1008 53.0143 56.4008C50.3143 58.6008 46.4143 59.3008 43.0143 59.3008C39.1143 59.3008 35.2143 58.3008 31.9143 56.2008L33.2143 47.8008C35.8143 50.2008 39.2143 51.7008 42.7143 51.7008C45.5143 51.7008 48.1143 49.7008 48.1143 46.7008C48.1143 42.6008 44.2143 40.9008 40.6143 40.9008C38.3143 40.9008 36.1143 41.4008 34.1143 42.3008L37.1143 23.8008H54.9143V31.3008H43.1143Z" fill="#5B9CD6"/>
<path d="M68.0143 21.0007V58.4007H104.514V57.5007C104.514 37.3007 88.2143 21.0007 68.0143 21.0007Z" fill="#9CB5C9"/>
<path d="M129.614 23.2007L133.414 11.7007H137.014L130.414 29.2007H128.514L122.014 11.7007H125.614L129.614 23.2007Z" fill="#858686"/>
<path d="M141.314 14.6007V18.4007H146.614V21.3007H141.314V25.9007H146.814V28.8007H138.014V11.7007H146.814V14.6007H141.314Z" fill="#858686"/>
<path d="M149.014 11.3008H151.414L160.414 23.2008V11.7008H163.714V29.1008H161.314L152.314 17.2008V28.8008H149.014V11.3008Z" fill="#858686"/>
<path d="M171.814 28.8007H168.514V14.6007H165.114V11.7007H175.314V14.6007H171.914V28.8007H171.814Z" fill="#858686"/>
<path d="M179.914 25.2008L178.514 28.8008H175.014L181.714 11.3008H184.314L190.814 28.8008H187.214L185.914 25.2008H179.914ZM182.814 16.3008L180.914 22.5008H185.014L182.814 16.3008Z" fill="#858686"/>
<path d="M198.214 23.0007C198.214 24.6007 198.214 25.9007 197.214 27.3007C196.314 28.6007 194.914 29.2007 193.414 29.2007C192.214 29.2007 190.914 28.5007 190.114 27.6007L192.214 25.2007C192.414 25.7007 192.914 26.3007 193.514 26.3007C195.114 26.3007 194.914 23.5007 194.914 22.4007V11.7007H198.214V23.0007Z" fill="#858686"/>
<path d="M204.014 25.2008L202.614 28.8008H199.114L205.814 11.3008H208.414L214.914 28.8008H211.314L210.014 25.2008H204.014ZM206.914 16.3008L205.014 22.5008H209.114L206.914 16.3008Z" fill="#858686"/>
<path d="M223.914 15.5007C223.314 14.6007 222.514 14.1007 221.314 14.1007C220.214 14.1007 219.214 14.9007 219.214 16.0007C219.214 18.9007 226.014 17.7007 226.014 23.4007C226.014 26.8007 223.914 29.2007 220.414 29.2007C218.014 29.2007 216.314 27.8007 215.114 25.9007L217.314 23.8007C217.814 25.1007 219.014 26.3007 220.414 26.3007C221.814 26.3007 222.614 25.1007 222.614 23.8007C222.614 22.0007 221.014 21.5007 219.614 21.0007C217.414 20.1007 215.814 19.0007 215.814 16.3007C215.814 13.5007 217.914 11.2007 220.814 11.2007C222.314 11.2007 224.414 11.9007 225.514 13.1007L223.914 15.5007Z" fill="#858686"/>
<path d="M127.014 52.4007L125.614 56.0007H122.114L128.814 38.5007H131.414L137.914 56.0007H134.314L133.014 52.4007H127.014ZM129.914 43.5007L128.014 49.7007H132.114L129.914 43.5007Z" fill="#858686"/>
<path d="M151.914 56.7007L150.714 55.3007C149.514 56.1007 148.014 56.5007 146.514 56.5007C141.514 56.5007 138.114 52.4007 138.114 47.5007C138.114 42.7007 141.614 38.5007 146.514 38.5007C151.414 38.5007 154.914 42.7007 154.914 47.5007C154.914 49.8007 154.214 52.0007 152.914 53.7007L155.214 56.5007L151.914 56.7007ZM150.414 50.9007C151.114 50.0007 151.514 48.5007 151.514 47.4007C151.514 44.6007 149.514 41.7007 146.514 41.7007C143.314 41.7007 141.514 44.8007 141.514 47.7007C141.514 50.5007 143.214 53.3007 146.514 53.3007C147.114 53.3007 147.814 53.0007 148.314 52.7007L145.514 49.5007L148.914 49.2007L150.414 50.9007Z" fill="#858686"/>
<path d="M156.414 38.9006H159.714V48.5006C159.714 50.6006 159.914 53.6006 162.714 53.6006C165.514 53.6006 165.714 50.6006 165.714 48.5006V38.9006H169.014V49.1006C169.014 53.3006 167.214 56.4006 162.714 56.4006C158.214 56.4006 156.414 53.3006 156.414 49.1006V38.9006Z" fill="#858686"/>
<path d="M175.014 52.4007L173.614 56.0007H170.114L176.814 38.5007H179.414L185.914 56.0007H182.314L181.014 52.4007H175.014ZM177.814 43.5007L175.914 49.7007H180.014L177.814 43.5007Z" fill="#858686"/>
<path d="M190.114 56.0006H186.814V38.9006H191.314C194.914 38.9006 197.214 40.3006 197.214 44.2006C197.214 47.8006 195.214 49.6006 191.714 49.6006H190.014V56.0006H190.114ZM190.114 46.8006H190.814C192.814 46.8006 193.814 46.4006 193.814 44.2006C193.814 42.0006 192.514 41.7006 190.714 41.7006H190.114V46.8006Z" fill="#858686"/>
<path d="M200.414 52.4007L199.014 56.0007H195.514L202.214 38.5007H204.814L211.314 56.0007H207.714L206.414 52.4007H200.414ZM203.314 43.5007L201.414 49.7007H205.514L203.314 43.5007Z" fill="#858686"/>
<path d="M212.314 38.5007H214.714L223.714 50.4007V38.9007H227.014V56.3007H224.614L215.614 44.4007V56.0007H212.314V38.5007Z" fill="#858686"/>
<path d="M232.814 41.8006V45.6006H238.114V48.5006H232.814V53.1006H238.314V56.0006H229.514V38.9006H238.314V41.8006H232.814Z" fill="#858686"/>
<path d="M243.814 53.1006H248.514V56.0006H240.514V38.9006H243.814V53.1006Z" fill="#858686"/>
<path d="M248.514 47.4006C248.514 42.4006 252.414 38.4006 257.414 38.4006C262.414 38.4006 266.314 42.4006 266.314 47.4006C266.314 52.4006 262.414 56.4006 257.414 56.4006C252.514 56.4006 248.514 52.4006 248.514 47.4006ZM250.514 47.4006C250.514 51.4006 253.614 54.4006 257.514 54.4006C261.314 54.4006 264.514 51.4006 264.514 47.4006C264.514 43.4006 261.414 40.4006 257.514 40.4006C253.614 40.4006 250.514 43.4006 250.514 47.4006ZM261.614 52.1006H259.514L257.314 48.4006H255.714V52.1006H253.814V42.8006H258.314C260.514 42.8006 261.914 43.2006 261.914 45.7006C261.914 47.4006 261.014 48.3006 259.414 48.5006L261.614 52.1006ZM258.314 46.7006C259.314 46.7006 260.014 46.5006 260.014 45.5006C260.014 44.5006 258.814 44.5006 257.814 44.5006H255.614V46.8006H258.314V46.7006Z" fill="#858686"/>
</g>
<circle cx="323.583" cy="42.7451" r="13.2082" fill="#009DE0"/>
<path d="M320.42 26.1565C320.42 25.8825 320.528 25.6197 320.722 25.4259C320.916 25.2321 321.179 25.1233 321.453 25.1233H325.586C325.86 25.1233 326.122 25.2321 326.316 25.4259C326.51 25.6197 326.619 25.8825 326.619 26.1565C326.619 26.4305 326.51 26.6933 326.316 26.8871C326.122 27.0808 325.86 27.1897 325.586 27.1897V28.3675C328.396 28.7725 330.946 29.9793 332.991 31.7564C333 31.7473 333.008 31.7384 333.016 31.7295L333.748 30.998L333.016 30.2686C332.822 30.0749 332.713 29.812 332.713 29.5378C332.713 29.2636 332.822 29.0006 333.015 28.8066C333.209 28.6126 333.472 28.5035 333.746 28.5033C334.02 28.5031 334.283 28.6119 334.477 28.8056L337.399 31.7295C337.498 31.8248 337.576 31.9388 337.631 32.0649C337.685 32.1909 337.713 32.3265 337.714 32.4637C337.716 32.6009 337.69 32.7369 337.638 32.8639C337.586 32.9909 337.509 33.1062 337.412 33.2033C337.315 33.3003 337.2 33.377 337.073 33.4289C336.946 33.4809 336.81 33.507 336.672 33.5058C336.535 33.5046 336.4 33.4761 336.274 33.422C336.147 33.3678 336.033 33.2891 335.938 33.1904L335.209 32.4589L334.477 33.1904C334.468 33.1989 334.459 33.2071 334.45 33.2152C336.554 35.644 337.79 38.7041 337.961 41.9128C338.133 45.1215 337.232 48.2961 335.399 50.9356C333.566 53.5751 330.907 55.5292 327.841 56.4896C324.774 57.45 321.475 57.362 318.465 56.2396C315.454 55.1171 312.902 53.024 311.213 50.2906C309.524 47.5571 308.793 44.339 309.135 41.144C309.478 37.9491 310.874 34.9591 313.105 32.646C315.335 30.3328 318.272 28.8282 321.453 28.3696V27.1897C321.179 27.1897 320.916 27.0808 320.722 26.8871C320.528 26.6933 320.42 26.4305 320.42 26.1565ZM323.519 30.2892C321.891 30.2894 320.279 30.6102 318.775 31.2334C317.27 31.8566 315.904 32.77 314.753 33.9214C312.428 36.2467 311.122 39.4003 311.122 42.6886C311.122 45.9768 312.429 49.1302 314.754 51.4552C317.079 53.7801 320.233 55.0861 323.521 55.0858C326.809 55.0856 329.963 53.779 332.288 51.4537C334.613 49.1284 335.919 45.9747 335.919 42.6865C335.918 39.3983 334.612 36.2448 332.286 33.9199C329.961 31.595 326.807 30.289 323.519 30.2892Z" fill="#009DE0"/>
<path d="M321.145 46.0669V47.5369H314.999V46.0669H317.183V39.6409L315.153 40.8589V39.2489L317.925 37.5689H318.975V46.0669H321.145ZM326.558 41.1669C327.183 41.1669 327.734 41.3022 328.21 41.5729C328.686 41.8342 329.055 42.2075 329.316 42.6929C329.577 43.1689 329.708 43.7195 329.708 44.3449C329.708 44.9982 329.559 45.5769 329.26 46.0809C328.961 46.5755 328.532 46.9629 327.972 47.2429C327.412 47.5135 326.763 47.6489 326.026 47.6489C325.401 47.6489 324.785 47.5462 324.178 47.3409C323.571 47.1262 323.072 46.8415 322.68 46.4869L323.282 45.1709C324.187 45.8615 325.111 46.2069 326.054 46.2069C326.679 46.2069 327.155 46.0529 327.482 45.7449C327.818 45.4275 327.986 44.9795 327.986 44.4009C327.986 43.8502 327.813 43.4115 327.468 43.0849C327.132 42.7489 326.679 42.5809 326.11 42.5809C325.718 42.5809 325.349 42.6555 325.004 42.8049C324.659 42.9449 324.355 43.1549 324.094 43.4349H323.002V37.5689H329.246V38.9689H324.766V41.6849C325.27 41.3395 325.867 41.1669 326.558 41.1669ZM332.951 37.5689V38.8569C332.951 39.3515 332.867 39.7995 332.699 40.2009C332.531 40.5929 332.246 40.9895 331.845 41.3909L331.131 40.8309C331.551 40.3829 331.803 39.9489 331.887 39.5289H330.991V37.5689H332.951Z" fill="white"/>
<defs>
<clipPath id="clip0">
<rect width="265.5" height="58.7" fill="white" transform="translate(0.914307 0.60083)"/>
</clipPath>
</defs>
</svg>
