<svg width="266" height="60" viewBox="0 0 266 60" fill="none" xmlns="http://www.w3.org/2000/svg">
<g clip-path="url(#clip0)">
<path d="M0.208008 1.2749H1.60801C3.80801 1.2749 5.90801 1.8749 5.90801 4.4749C5.90801 5.3749 5.40801 6.3749 4.60801 6.6749C6.00801 6.9749 7.00801 8.2749 7.00801 9.6749C7.00801 12.0749 5.00801 12.9749 2.90801 12.9749H0.208008V1.2749ZM1.70801 6.4749H2.10801C3.50801 6.4749 4.60801 6.1749 4.60801 4.4749C4.60801 2.7749 3.50801 2.5749 2.10801 2.5749H1.70801V6.4749ZM1.70801 11.6749H2.80801C4.20801 11.6749 5.60801 11.2749 5.60801 9.5749C5.60801 7.8749 3.90801 7.5749 2.60801 7.5749H1.70801V11.6749Z" fill="#5B9CD6"/>
<path d="M10.208 11.6749H13.808V12.9749H8.70801V1.2749H10.208V11.6749Z" fill="#5B9CD6"/>
<path d="M26.308 7.17485C26.308 10.6749 23.508 13.3749 20.108 13.3749C16.708 13.3749 13.908 10.7749 13.908 7.17485C13.908 3.77485 16.708 0.974854 20.108 0.974854C23.508 0.974854 26.308 3.77485 26.308 7.17485ZM24.808 7.17485C24.808 4.57485 22.908 2.37485 20.108 2.37485C17.308 2.37485 15.408 4.57485 15.408 7.17485C15.408 9.87485 17.608 11.9749 20.108 11.9749C22.608 11.9749 24.808 9.87485 24.808 7.17485Z" fill="#5B9CD6"/>
<path d="M37.408 13.2749L36.408 12.2749C35.408 12.9749 34.208 13.2749 33.008 13.2749C29.608 13.2749 26.808 10.6749 26.808 7.07488C26.808 3.67488 29.608 0.874878 33.008 0.874878C36.408 0.874878 39.208 3.67488 39.208 7.07488C39.208 8.77488 38.508 10.3749 37.308 11.4749L39.108 13.2749H37.408ZM36.408 10.4749C37.308 9.67488 37.808 8.27488 37.808 7.17488C37.808 4.57488 35.908 2.37488 33.108 2.37488C30.308 2.37488 28.408 4.57488 28.408 7.17488C28.408 9.87488 30.608 11.9749 33.108 11.9749C33.808 11.9749 34.708 11.7749 35.408 11.2749L32.708 8.67488H34.508L36.408 10.4749Z" fill="#5B9CD6"/>
<path d="M41.908 1.2749V8.2749C41.908 10.1749 42.508 11.9749 44.708 11.9749C47.008 11.9749 47.608 10.1749 47.608 8.2749V1.2749H49.108V8.7749C49.108 11.3749 47.508 13.3749 44.808 13.3749C42.108 13.3749 40.508 11.3749 40.508 8.7749V1.2749H41.908Z" fill="#5B9CD6"/>
<path d="M51.208 1.2749H57.508V2.5749H52.608V5.8749H57.308V7.1749H52.608V11.6749H57.508V12.9749H51.208V1.2749Z" fill="#5B9CD6"/>
<path d="M4.908 31.6749V24.1749H18.708V58.3749H9.80801V31.6749H4.908Z" fill="#5B9CD6"/>
<path d="M58.408 44.4749V51.2749H54.208V58.3749H46.008V51.2749H29.408V45.5749L42.608 24.1749H54.208V44.4749H58.408ZM46.008 31.3749L37.908 44.4749H46.008V31.3749Z" fill="#5B9CD6"/>
<path d="M100.408 37.9749C100.408 43.9749 98.008 49.4749 94.008 53.3749C90.108 57.2749 84.608 59.7749 78.608 59.7749H70.808V16.1749H78.608C90.608 16.1749 100.408 25.8749 100.408 37.9749Z" fill="#5797D3"/>
<path d="M126.308 43.3749L124.908 46.9749H121.408L128.108 29.4749H130.708L137.208 46.9749H133.608L132.308 43.3749H126.308ZM129.208 34.4749L127.308 40.6749H131.408L129.208 34.4749Z" fill="#858686"/>
<path d="M151.108 47.7748L149.908 46.3748C148.708 47.1748 147.208 47.5748 145.708 47.5748C140.708 47.5748 137.308 43.4748 137.308 38.5748C137.308 33.7748 140.808 29.5748 145.708 29.5748C150.608 29.5748 154.108 33.7748 154.108 38.5748C154.108 40.8748 153.408 43.0748 152.108 44.7748L154.408 47.5748L151.108 47.7748ZM149.708 41.8748C150.408 40.9748 150.808 39.4748 150.808 38.3748C150.808 35.5748 148.808 32.6748 145.808 32.6748C142.608 32.6748 140.808 35.7748 140.808 38.6748C140.808 41.4748 142.508 44.2748 145.808 44.2748C146.408 44.2748 147.108 43.9748 147.608 43.6748L144.808 40.4748L148.208 40.1748L149.708 41.8748Z" fill="#858686"/>
<path d="M155.708 29.9749H159.008V39.5749C159.008 41.6749 159.208 44.6749 162.008 44.6749C164.808 44.6749 165.008 41.6749 165.008 39.5749V29.9749H168.308V40.1749C168.308 44.3749 166.508 47.4749 162.008 47.4749C157.408 47.4749 155.708 44.3749 155.708 40.1749V29.9749Z" fill="#858686"/>
<path d="M174.308 43.3749L172.908 46.9749H169.408L176.108 29.4749H178.708L185.208 46.9749H181.608L180.308 43.3749H174.308ZM177.108 34.4749L175.208 40.6749H179.308L177.108 34.4749Z" fill="#858686"/>
<path d="M189.408 46.9749H186.108V29.9749H190.608C194.208 29.9749 196.508 31.3749 196.508 35.2749C196.508 38.8749 194.508 40.6749 191.008 40.6749H189.308V46.9749H189.408ZM189.408 37.8749H190.108C192.108 37.8749 193.108 37.4749 193.108 35.2749C193.108 33.0749 191.808 32.7749 190.008 32.7749H189.408V37.8749Z" fill="#858686"/>
<path d="M199.708 43.3749L198.308 46.9749H194.808L201.508 29.4749H204.108L210.608 46.9749H207.008L205.708 43.3749H199.708ZM202.608 34.4749L200.708 40.6749H204.808L202.608 34.4749Z" fill="#858686"/>
<path d="M211.508 29.4749H213.908L222.908 41.3749V29.9749H226.208V47.3749H223.808L214.808 35.4749V46.9749H211.508V29.4749Z" fill="#858686"/>
<path d="M232.008 32.8749V36.6749H237.308V39.5749H232.008V44.1749H237.508V46.9749H228.708V29.9749H237.508V32.8749H232.008Z" fill="#858686"/>
<path d="M243.108 44.1749H247.808V46.9749H239.808V29.9749H243.108V44.1749Z" fill="#858686"/>
<path d="M247.808 38.4749C247.808 33.4749 251.708 29.4749 256.708 29.4749C261.708 29.4749 265.608 33.4749 265.608 38.4749C265.608 43.4749 261.708 47.4749 256.708 47.4749C251.708 47.4749 247.808 43.4749 247.808 38.4749ZM249.708 38.4749C249.708 42.4749 252.808 45.4749 256.708 45.4749C260.508 45.4749 263.708 42.4749 263.708 38.4749C263.708 34.4749 260.608 31.4749 256.708 31.4749C252.908 31.4749 249.708 34.4749 249.708 38.4749ZM260.808 43.0749H258.708L256.508 39.3749H254.908V43.0749H253.008V33.7749H257.508C259.708 33.7749 261.108 34.1749 261.108 36.6749C261.108 38.3749 260.208 39.2749 258.608 39.4749L260.808 43.0749ZM257.508 37.6749C258.508 37.6749 259.208 37.4749 259.208 36.4749C259.208 35.4749 258.008 35.4749 257.008 35.4749H254.808V37.7749H257.508V37.6749Z" fill="#858686"/>
</g>
<defs>
<clipPath id="clip0">
<rect width="265.4" height="58.8" fill="white" transform="translate(0.208008 0.974854)"/>
</clipPath>
</defs>
</svg>
