<svg width="218" height="60" viewBox="0 0 218 60" fill="none" xmlns="http://www.w3.org/2000/svg">
<g clip-path="url(#clip0)">
<path d="M2.30798 1.23071H3.80798C6.00798 1.23071 8.10798 1.83071 8.10798 4.43071C8.10798 5.33071 7.60798 6.33071 6.80798 6.63071C8.20798 6.93071 9.20798 8.23071 9.20798 9.63071C9.20798 12.0307 7.20798 12.9307 5.10798 12.9307H2.30798V1.23071ZM3.80798 6.43071H4.20798C5.60798 6.43071 6.70798 6.13071 6.70798 4.43071C6.70798 2.73071 5.60798 2.53071 4.20798 2.53071H3.80798V6.43071ZM3.80798 11.6307H4.90798C6.30798 11.6307 7.70798 11.2307 7.70798 9.53071C7.70798 7.83071 6.00798 7.53071 4.70798 7.53071H3.80798V11.6307Z" fill="#5B9CD6"/>
<path d="M12.308 11.6307H15.908V12.9307H10.808V1.23071H12.308V11.6307Z" fill="#5B9CD6"/>
<path d="M28.408 7.13066C28.408 10.6307 25.608 13.3307 22.208 13.3307C18.808 13.3307 16.008 10.7307 16.008 7.13066C16.008 3.73066 18.808 0.930664 22.208 0.930664C25.608 0.930664 28.408 3.73066 28.408 7.13066ZM26.908 7.13066C26.908 4.53066 25.008 2.33066 22.208 2.33066C19.408 2.33066 17.508 4.53066 17.508 7.13066C17.508 9.83066 19.708 11.9307 22.208 11.9307C24.708 11.9307 26.908 9.83066 26.908 7.13066Z" fill="#5B9CD6"/>
<path d="M39.608 13.2307L38.608 12.2307C37.608 12.9307 36.408 13.2307 35.208 13.2307C31.808 13.2307 29.008 10.6307 29.008 7.03066C29.008 3.73066 31.808 0.930664 35.208 0.930664C38.608 0.930664 41.408 3.73066 41.408 7.13066C41.408 8.83066 40.708 10.4307 39.608 11.5307L41.408 13.3307H39.608V13.2307ZM38.508 10.4307C39.408 9.63066 39.908 8.23066 39.908 7.13066C39.908 4.53066 38.008 2.33066 35.208 2.33066C32.408 2.33066 30.508 4.53066 30.508 7.13066C30.508 9.83066 32.708 11.9307 35.208 11.9307C35.908 11.9307 36.808 11.7307 37.508 11.2307L34.808 8.53066H36.608L38.508 10.4307Z" fill="#5B9CD6"/>
<path d="M44.108 1.23071V8.23071C44.108 10.1307 44.708 11.9307 47.008 11.9307C49.308 11.9307 49.808 10.1307 49.808 8.23071V1.23071H51.308V8.73071C51.308 11.3307 49.708 13.3307 47.008 13.3307C44.308 13.3307 42.708 11.3307 42.708 8.73071V1.23071H44.108Z" fill="#5B9CD6"/>
<path d="M53.308 1.23071H59.608V2.53071H54.808V5.83071H59.508V7.13071H54.808V11.6307H59.708V12.9307H53.408V1.23071H53.308Z" fill="#5B9CD6"/>
<path d="M29.808 41.2307C29.808 50.1307 25.508 59.6307 15.308 59.6307C5.10798 59.6307 0.807983 50.1307 0.807983 41.2307C0.807983 32.3307 5.10798 22.8307 15.308 22.8307C25.408 22.7307 29.808 32.3307 29.808 41.2307ZM9.60798 41.1307C9.60798 44.4307 10.708 51.7307 15.308 51.7307C19.908 51.7307 21.008 44.4307 21.008 41.1307C21.008 37.8307 19.908 30.5307 15.308 30.5307C10.708 30.6307 9.60798 37.8307 9.60798 41.1307Z" fill="#5B9CD6"/>
<path d="M59.808 50.7307V58.2307H32.308L46.308 43.0307C48.308 40.8307 50.208 37.7307 50.208 34.6307C50.208 32.4307 48.708 30.2307 46.308 30.2307C43.908 30.2307 42.608 32.1307 42.608 34.4307C42.608 34.9307 42.608 35.4307 42.708 35.8307H32.908C33.208 28.0307 38.208 22.7307 46.208 22.7307C53.408 22.7307 59.408 27.4307 59.408 34.8307C59.408 39.7307 57.408 42.5307 53.908 45.7307L48.608 50.6307H59.808V50.7307Z" fill="#5B9CD6"/>
<path d="M69.508 21.3307V58.7307H106.008V57.8307C105.908 37.6307 89.608 21.3307 69.508 21.3307Z" fill="#C5C5C5"/>
<path d="M136.308 34.4307C135.408 33.3307 134.008 32.6307 132.508 32.6307C129.308 32.6307 127.508 35.5307 127.508 38.5307C127.508 41.4307 129.408 44.2307 132.508 44.2307C133.908 44.2307 135.408 43.5307 136.308 42.4307V46.4307C135.108 47.0307 133.808 47.4307 132.408 47.4307C127.608 47.4307 124.008 43.3307 124.008 38.5307C124.008 33.7307 127.408 29.4307 132.408 29.4307C133.708 29.4307 135.008 29.8307 136.208 30.4307V34.4307H136.308Z" fill="#858686"/>
<path d="M144.008 46.9307H140.708V32.7307H137.308V29.9307H147.508V32.8307H144.108V46.9307H144.008Z" fill="#858686"/>
<path d="M152.008 32.7307V36.5307H157.308V39.4307H152.008V44.0307H157.508V46.9307H148.708V29.9307H157.508V32.8307H152.008V32.7307Z" fill="#858686"/>
<path d="M165.008 38.4307V41.0307H159.508V38.4307H165.008Z" fill="#858686"/>
<path d="M167.208 29.9307H172.008C176.908 29.9307 180.208 33.6307 180.208 38.5307C180.208 43.3307 176.808 47.0307 171.908 47.0307H167.208V29.9307ZM170.508 44.0307H171.008C175.108 44.0307 176.708 41.7307 176.708 38.4307C176.708 34.7307 174.808 32.8307 171.008 32.8307H170.508V44.0307Z" fill="#858686"/>
<path d="M181.808 29.9307H185.908C189.108 29.9307 191.008 31.1307 191.008 34.5307C191.008 35.7307 190.608 37.1307 189.508 37.8307C191.508 38.2307 192.408 40.2307 192.408 42.1307C192.408 45.4307 190.008 46.9307 186.908 46.9307H181.808V29.9307ZM185.208 37.0307H185.608C187.208 37.0307 188.008 36.5307 188.008 34.8307C188.008 33.1307 187.008 32.6307 185.608 32.6307H185.208V37.0307ZM185.208 44.2307H185.908C187.708 44.2307 189.208 44.0307 189.208 41.8307C189.208 39.6307 187.408 39.5307 185.708 39.5307H185.208V44.2307Z" fill="#858686"/>
<path d="M199.608 38.4307V41.0307H194.108V38.4307H199.608Z" fill="#858686"/>
<path d="M209.908 33.6307C209.308 32.7307 208.508 32.2307 207.308 32.2307C206.208 32.2307 205.208 33.0307 205.208 34.1307C205.208 37.0307 212.008 35.8307 212.008 41.5307C212.008 44.9307 209.908 47.3307 206.408 47.3307C204.008 47.3307 202.308 45.9307 201.108 44.0307L203.308 41.9307C203.808 43.2307 205.008 44.4307 206.408 44.4307C207.808 44.4307 208.608 43.2307 208.608 41.9307C208.608 40.1307 207.008 39.6307 205.608 39.1307C203.408 38.2307 201.808 37.1307 201.808 34.4307C201.808 31.6307 203.908 29.3307 206.808 29.3307C208.308 29.3307 210.408 30.0307 211.508 31.2307L209.908 33.6307Z" fill="#858686"/>
<path d="M217.108 46.9307H213.808V29.9307H217.108V46.9307Z" fill="#858686"/>
</g>
<defs>
<clipPath id="clip0">
<rect width="216.3" height="58.7" fill="white" transform="translate(0.807983 0.930664)"/>
</clipPath>
</defs>
</svg>
