<svg width="294" height="62" viewBox="0 0 294 62" fill="none" xmlns="http://www.w3.org/2000/svg">
<g clip-path="url(#clip0)">
<path d="M1.7196 0.895264H3.2196C5.41961 0.895264 7.51961 1.49526 7.51961 4.09527C7.51961 4.99527 7.01961 5.99527 6.2196 6.29527C7.61961 6.59527 8.61961 7.89527 8.61961 9.29527C8.61961 11.6953 6.61961 12.5953 4.5196 12.5953H1.7196V0.895264ZM3.2196 6.09527H3.6196C5.0196 6.09527 6.11961 5.79527 6.11961 4.09527C6.11961 2.39527 5.0196 2.19527 3.6196 2.19527H3.2196V6.09527ZM3.2196 11.2953H4.3196C5.7196 11.2953 7.11961 10.8953 7.11961 9.19527C7.11961 7.49527 5.41961 7.19527 4.1196 7.19527H3.2196V11.2953Z" fill="#5B9CD6"/>
<path d="M11.7196 11.2953H15.3196V12.5953H10.2196V0.895264H11.7196V11.2953Z" fill="#5B9CD6"/>
<path d="M27.8196 6.79522C27.8196 10.2952 25.0196 12.9952 21.6196 12.9952C18.2196 12.9952 15.4196 10.3952 15.4196 6.79522C15.4196 3.39522 18.2196 0.595215 21.6196 0.595215C25.0196 0.595215 27.8196 3.39522 27.8196 6.79522ZM26.3196 6.79522C26.3196 4.19522 24.4196 1.99522 21.6196 1.99522C18.8196 1.99522 16.9196 4.19522 16.9196 6.79522C16.9196 9.49522 19.1196 11.5952 21.6196 11.5952C24.1196 11.5952 26.3196 9.49522 26.3196 6.79522Z" fill="#5B9CD6"/>
<path d="M39.0196 12.8952L38.0196 11.8952C37.0196 12.5952 35.8196 12.8952 34.6196 12.8952C31.2196 12.8952 28.4196 10.2952 28.4196 6.69522C28.4196 3.39522 31.2196 0.595215 34.6196 0.595215C38.0196 0.595215 40.8196 3.39522 40.8196 6.79522C40.8196 8.49522 40.1196 10.0952 38.9196 11.1952L40.7196 12.9952H39.0196V12.8952ZM37.9196 10.0952C38.8196 9.29523 39.3196 7.89522 39.3196 6.79522C39.3196 4.19522 37.4196 1.99522 34.6196 1.99522C31.8196 1.99522 29.9196 4.19522 29.9196 6.79522C29.9196 9.49522 32.1196 11.5952 34.6196 11.5952C35.3196 11.5952 36.2196 11.3952 36.9196 10.8952L34.2196 8.19522H36.0196L37.9196 10.0952Z" fill="#5B9CD6"/>
<path d="M43.5196 0.895264V7.89527C43.5196 9.79527 44.1196 11.5953 46.3196 11.5953C48.6196 11.5953 49.2196 9.79527 49.2196 7.89527V0.895264H50.7196V8.39527C50.7196 10.9953 49.1196 12.9953 46.4196 12.9953C43.7196 12.9953 42.1196 10.9953 42.1196 8.39527V0.895264H43.5196Z" fill="#5B9CD6"/>
<path d="M52.7196 0.895264H59.0196V2.19527H54.2196V5.49527H58.9196V6.79527H54.2196V11.2953H59.1196V12.5953H52.8196V0.895264H52.7196Z" fill="#5B9CD6"/>
<path d="M29.2196 40.8952C29.2196 49.7952 24.9196 59.2952 14.7196 59.2952C4.51961 59.2952 0.219604 49.7952 0.219604 40.8952C0.219604 31.9952 4.51961 22.4952 14.7196 22.4952C24.8196 22.3952 29.2196 31.9952 29.2196 40.8952ZM9.01961 40.7952C9.01961 44.0952 10.1196 51.3952 14.7196 51.3952C19.3196 51.3952 20.4196 44.0952 20.4196 40.7952C20.4196 37.4952 19.3196 30.1952 14.7196 30.1952C10.1196 30.2952 9.01961 37.4952 9.01961 40.7952Z" fill="#5B9CD6"/>
<path d="M54.1196 23.7952L44.4196 35.3952L44.5196 35.4952C46.0196 34.7952 47.5196 34.4952 49.3196 34.4952C56.0196 34.4952 60.3196 40.2952 60.3196 46.4952C60.3196 54.8952 53.4196 59.3952 45.6196 59.3952C42.3196 59.3952 38.5196 58.4952 35.9196 56.4952C33.2196 54.1952 31.3196 50.6952 31.3196 47.0952C31.3196 42.1952 33.8196 37.3952 36.8196 33.4952L44.1196 23.8952H54.1196V23.7952ZM51.0196 46.6952C51.0196 43.5952 48.6196 41.0952 45.5196 41.0952C42.4196 41.0952 39.9196 43.5952 39.9196 46.6952C39.9196 49.7952 42.4196 52.3952 45.5196 52.3952C48.7196 52.2952 51.0196 49.7952 51.0196 46.6952Z" fill="#5B9CD6"/>
<path d="M99.0196 39.3952C99.0196 45.3952 96.6196 50.8953 92.6196 54.7953C88.7196 58.6953 83.2196 61.1953 77.2196 61.1953H69.4196V17.5952H77.2196C89.3196 17.5952 99.0196 27.3952 99.0196 39.3952Z" fill="#5797D3"/>
<path d="M127.62 25.8952H124.32V8.79517H128.82C132.42 8.79517 134.72 10.1952 134.72 14.0952C134.72 17.6952 132.72 19.4952 129.22 19.4952H127.52V25.8952H127.62ZM127.62 16.6952H128.32C130.32 16.6952 131.32 16.2952 131.32 14.0952C131.32 11.8952 130.02 11.5952 128.22 11.5952H127.62V16.6952Z" fill="#858686"/>
<path d="M147.82 25.8952H143.82L139.72 18.9952V25.8952H136.22V8.79517H140.72C144.12 8.79517 146.42 10.2952 146.42 13.8952C146.42 16.0952 145.22 18.1952 142.92 18.5952L147.82 25.8952ZM139.62 16.6952H140.02C141.82 16.6952 143.12 16.1952 143.12 14.0952C143.12 11.9952 141.82 11.5952 140.02 11.5952H139.52V16.6952H139.62Z" fill="#858686"/>
<path d="M156.52 26.2952C151.32 26.2952 148.12 22.2952 148.12 17.2952C148.12 12.1952 151.52 8.29517 156.52 8.29517C161.52 8.29517 164.92 12.1952 164.92 17.2952C164.92 22.2952 161.72 26.2952 156.52 26.2952ZM156.52 11.5952C153.42 11.5952 151.52 14.3952 151.52 17.0952C151.52 19.6952 152.82 22.9952 156.52 22.9952C160.22 22.9952 161.52 19.7952 161.52 17.0952C161.52 14.3952 159.62 11.5952 156.52 11.5952Z" fill="#858686"/>
<path d="M165.02 8.79517H168.92L171.92 14.6952L175.22 8.79517H179.12L173.72 17.9952V25.7952H170.42V17.9952L165.02 8.79517Z" fill="#858686"/>
<path d="M183.22 11.6952V15.4952H188.52V18.3952H183.22V22.9952H188.72V25.8952H179.92V8.79517H188.72V11.6952H183.22Z" fill="#858686"/>
<path d="M202.32 13.2952C201.42 12.1952 200.02 11.4952 198.52 11.4952C195.32 11.4952 193.52 14.3952 193.52 17.3952C193.52 20.2952 195.42 23.0952 198.52 23.0952C199.92 23.0952 201.42 22.3952 202.32 21.2952V25.2952C201.12 25.8952 199.82 26.2952 198.42 26.2952C193.62 26.2952 190.02 22.1952 190.02 17.3952C190.02 12.5952 193.42 8.29517 198.42 8.29517C199.72 8.29517 201.02 8.69517 202.22 9.29517V13.2952H202.32Z" fill="#858686"/>
<path d="M210.12 25.8952H206.82V11.6952H203.42V8.79517H213.62V11.6952H210.22V25.8952H210.12Z" fill="#858686"/>
<path d="M222.42 26.2952C217.22 26.2952 214.02 22.2952 214.02 17.2952C214.02 12.1952 217.42 8.29517 222.42 8.29517C227.42 8.29517 230.82 12.1952 230.82 17.2952C230.82 22.2952 227.62 26.2952 222.42 26.2952ZM222.42 11.5952C219.32 11.5952 217.42 14.3952 217.42 17.0952C217.42 19.6952 218.72 22.9952 222.42 22.9952C226.12 22.9952 227.42 19.7952 227.42 17.0952C227.42 14.3952 225.52 11.5952 222.42 11.5952Z" fill="#858686"/>
<path d="M240.52 12.5952C239.92 11.6952 239.12 11.1952 237.92 11.1952C236.82 11.1952 235.82 11.9952 235.82 13.0952C235.82 15.9952 242.62 14.7952 242.62 20.4952C242.62 23.8952 240.52 26.2952 237.02 26.2952C234.62 26.2952 232.92 24.8952 231.72 22.9952L233.92 20.8952C234.42 22.1952 235.62 23.3952 237.02 23.3952C238.42 23.3952 239.22 22.1952 239.22 20.8952C239.22 19.0952 237.62 18.5952 236.22 18.0952C234.02 17.1952 232.42 16.0952 232.42 13.3952C232.42 10.5952 234.52 8.29517 237.42 8.29517C238.92 8.29517 241.02 8.99517 242.12 10.1952L240.52 12.5952Z" fill="#858686"/>
<path d="M132.32 39.6953C131.72 38.7953 130.92 38.2953 129.72 38.2953C128.62 38.2953 127.62 39.0953 127.62 40.1953C127.62 43.0953 134.42 41.8953 134.42 47.5953C134.42 50.9953 132.32 53.3953 128.82 53.3953C126.42 53.3953 124.72 51.9953 123.52 50.0953L125.72 47.9953C126.22 49.2953 127.42 50.4953 128.82 50.4953C130.22 50.4953 131.02 49.2953 131.02 47.9953C131.02 46.1953 129.42 45.6953 128.02 45.1953C125.82 44.2953 124.22 43.1953 124.22 40.4953C124.22 37.6953 126.32 35.3953 129.22 35.3953C130.72 35.3953 132.82 36.0953 133.92 37.2953L132.32 39.6953Z" fill="#858686"/>
<path d="M139.72 49.4952L138.32 53.0952H134.82L141.52 35.5952H144.12L150.62 53.0952H147.02L145.72 49.4952H139.72ZM142.52 40.4952L140.62 46.6952H144.72L142.52 40.4952Z" fill="#858686"/>
<path d="M151.52 35.4954H153.92L162.92 47.3954V35.9954H166.22V53.3954H163.82L154.82 41.4954V53.0954H151.52V35.4954Z" fill="#858686"/>
<path d="M172.02 53.0954H168.72V35.9954H172.02V53.0954Z" fill="#858686"/>
<path d="M180.02 53.0954H176.72V38.8954H173.22V35.9954H183.42V38.8954H180.02V53.0954Z" fill="#858686"/>
<path d="M186.32 49.4952L184.92 53.0952H181.42L188.12 35.5952H190.72L197.22 53.0952H193.62L192.32 49.4952H186.32ZM189.22 40.4952L187.32 46.6952H191.42L189.22 40.4952Z" fill="#858686"/>
<path d="M209.72 53.0954H205.72L201.62 46.1954V53.0954H198.22V35.9954H202.72C206.12 35.9954 208.42 37.4954 208.42 41.0954C208.42 43.2954 207.22 45.3954 204.92 45.7954L209.72 53.0954ZM201.52 43.7954H201.92C203.72 43.7954 205.02 43.2954 205.02 41.1954C205.02 39.0954 203.72 38.6954 201.92 38.6954H201.42V43.7954H201.52Z" fill="#858686"/>
<path d="M214.12 53.0954H210.82V35.9954H214.12V53.0954Z" fill="#858686"/>
<path d="M224.22 53.4954C219.02 53.4954 215.82 49.4954 215.82 44.4954C215.82 39.3954 219.22 35.4954 224.22 35.4954C229.22 35.4954 232.62 39.3954 232.62 44.4954C232.62 49.4954 229.42 53.4954 224.22 53.4954ZM224.22 38.7954C221.12 38.7954 219.22 41.5954 219.22 44.2954C219.22 46.8954 220.52 50.1954 224.22 50.1954C227.92 50.1954 229.22 46.9954 229.22 44.2954C229.22 41.5954 227.32 38.7954 224.22 38.7954Z" fill="#858686"/>
<path d="M242.32 39.6953C241.72 38.7953 240.92 38.2953 239.72 38.2953C238.62 38.2953 237.62 39.0953 237.62 40.1953C237.62 43.0953 244.42 41.8953 244.42 47.5953C244.42 50.9953 242.32 53.3953 238.82 53.3953C236.42 53.3953 234.72 51.9953 233.52 50.0953L235.72 47.9953C236.22 49.2953 237.42 50.4953 238.82 50.4953C240.22 50.4953 241.02 49.2953 241.02 47.9953C241.02 46.1953 239.42 45.6953 238.02 45.1953C235.82 44.2953 234.22 43.1953 234.22 40.4953C234.22 37.6953 236.32 35.3953 239.22 35.3953C240.72 35.3953 242.82 36.0953 243.92 37.2953L242.32 39.6953Z" fill="#858686"/>
</g>
<path d="M275.815 22.7007C275.815 22.4267 275.924 22.1639 276.118 21.9701C276.312 21.7763 276.575 21.6675 276.849 21.6675H280.981C281.255 21.6675 281.518 21.7763 281.712 21.9701C281.906 22.1639 282.015 22.4267 282.015 22.7007C282.015 22.9747 281.906 23.2375 281.712 23.4312C281.518 23.625 281.255 23.7339 280.981 23.7339V24.9117C283.792 25.3167 286.342 26.5235 288.387 28.3006C288.396 28.2915 288.404 28.2826 288.412 28.2737L289.144 27.5422L288.412 26.8128C288.218 26.619 288.109 26.3562 288.109 26.082C288.109 25.8078 288.217 25.5448 288.411 25.3508C288.605 25.1568 288.868 25.0477 289.142 25.0475C289.416 25.0473 289.679 25.156 289.873 25.3498L292.795 28.2737C292.894 28.369 292.972 28.483 293.026 28.6091C293.081 28.7351 293.109 28.8707 293.11 29.0079C293.112 29.1451 293.085 29.2811 293.033 29.4081C292.981 29.5351 292.905 29.6504 292.808 29.7474C292.711 29.8445 292.595 29.9212 292.468 29.9731C292.341 30.0251 292.205 30.0512 292.068 30.05C291.931 30.0488 291.795 30.0203 291.669 29.9662C291.543 29.912 291.429 29.8333 291.334 29.7346L290.605 29.0031L289.873 29.7346C289.864 29.7431 289.855 29.7513 289.846 29.7594C291.95 32.1882 293.185 35.2483 293.357 38.457C293.529 41.6657 292.628 44.8403 290.795 47.4798C288.962 50.1193 286.303 52.0734 283.237 53.0338C280.17 53.9942 276.871 53.9062 273.86 52.7837C270.85 51.6613 268.298 49.5682 266.609 46.8347C264.92 44.1013 264.188 40.8832 264.531 37.6882C264.874 34.4932 266.27 31.5033 268.501 29.1902C270.731 26.877 273.668 25.3724 276.849 24.9138V23.7339C276.575 23.7339 276.312 23.625 276.118 23.4312C275.924 23.2375 275.815 22.9747 275.815 22.7007ZM278.915 26.8334C277.287 26.8336 275.675 27.1544 274.171 27.7776C272.666 28.4008 271.3 29.3142 270.148 30.4655C267.824 32.7909 266.518 35.9445 266.518 39.2328C266.518 42.521 267.825 45.6744 270.15 47.9994C272.475 50.3243 275.629 51.6303 278.917 51.63C282.205 51.6297 285.359 50.3232 287.684 47.9979C290.009 45.6726 291.315 42.5189 291.314 39.2307C291.314 35.9425 290.008 32.789 287.682 30.4641C285.357 28.1391 282.203 26.8332 278.915 26.8334Z" fill="#009DE0"/>
<circle cx="278.979" cy="39.2893" r="13.2082" fill="#009DE0"/>
<path d="M276.541 42.6111V44.0811H270.395V42.6111H272.579V36.1851L270.549 37.4031V35.7931L273.321 34.1131H274.371V42.6111H276.541ZM281.954 37.7111C282.579 37.7111 283.13 37.8464 283.606 38.1171C284.082 38.3784 284.451 38.7517 284.712 39.2371C284.973 39.7131 285.104 40.2637 285.104 40.8891C285.104 41.5424 284.955 42.1211 284.656 42.6251C284.357 43.1197 283.928 43.5071 283.368 43.7871C282.808 44.0577 282.159 44.1931 281.422 44.1931C280.797 44.1931 280.181 44.0904 279.574 43.8851C278.967 43.6704 278.468 43.3857 278.076 43.0311L278.678 41.7151C279.583 42.4057 280.507 42.7511 281.45 42.7511C282.075 42.7511 282.551 42.5971 282.878 42.2891C283.214 41.9717 283.382 41.5237 283.382 40.9451C283.382 40.3944 283.209 39.9557 282.864 39.6291C282.528 39.2931 282.075 39.1251 281.506 39.1251C281.114 39.1251 280.745 39.1997 280.4 39.3491C280.055 39.4891 279.751 39.6991 279.49 39.9791H278.398V34.1131H284.642V35.5131H280.162V38.2291C280.666 37.8837 281.263 37.7111 281.954 37.7111ZM288.346 34.1131V35.4011C288.346 35.8957 288.262 36.3437 288.094 36.7451C287.926 37.1371 287.642 37.5337 287.24 37.9351L286.526 37.3751C286.946 36.9271 287.198 36.4931 287.282 36.0731H286.386V34.1131H288.346Z" fill="white"/>
<defs>
<clipPath id="clip0">
<rect width="244.2" height="60.7001" fill="white" transform="translate(0.219604 0.595215)"/>
</clipPath>
</defs>
</svg>
