<svg width="243" height="60" viewBox="0 0 243 60" fill="none" xmlns="http://www.w3.org/2000/svg">
<g clip-path="url(#clip0)">
<path d="M1.70801 0.674805H3.20801C5.40801 0.674805 7.50801 1.2748 7.50801 3.8748C7.50801 4.7748 7.00801 5.7748 6.20801 6.0748C7.60801 6.3748 8.60801 7.6748 8.60801 9.0748C8.60801 11.4748 6.60801 12.3748 4.50801 12.3748H1.70801V0.674805ZM3.20801 5.8748H3.60801C5.00801 5.8748 6.10801 5.5748 6.10801 3.8748C6.10801 2.1748 5.00801 1.9748 3.60801 1.9748H3.20801V5.8748ZM3.20801 11.0748H4.30801C5.70801 11.0748 7.10801 10.6748 7.10801 8.9748C7.10801 7.27481 5.40801 6.9748 4.10801 6.9748H3.20801V11.0748Z" fill="#5B9CD6"/>
<path d="M11.708 11.0748H15.308V12.3748H10.208V0.674805H11.708V11.0748Z" fill="#5B9CD6"/>
<path d="M27.808 6.57476C27.808 10.0748 25.008 12.7748 21.608 12.7748C18.208 12.7748 15.408 10.1748 15.408 6.57476C15.408 3.17476 18.208 0.374756 21.608 0.374756C25.008 0.374756 27.808 3.17476 27.808 6.57476ZM26.308 6.57476C26.308 3.97476 24.408 1.77476 21.608 1.77476C18.808 1.77476 16.908 3.97476 16.908 6.57476C16.908 9.27476 19.108 11.3748 21.608 11.3748C24.108 11.3748 26.308 9.27476 26.308 6.57476Z" fill="#5B9CD6"/>
<path d="M39.008 12.6748L38.008 11.6748C37.008 12.3748 35.808 12.6748 34.608 12.6748C31.208 12.6748 28.408 10.0748 28.408 6.47476C28.408 3.17476 31.208 0.374756 34.608 0.374756C38.008 0.374756 40.808 3.17476 40.808 6.57476C40.808 8.27476 40.108 9.87476 39.008 10.9748L40.808 12.7748H39.008V12.6748ZM37.908 9.87476C38.808 9.07476 39.308 7.67476 39.308 6.57476C39.308 3.97476 37.408 1.77476 34.608 1.77476C31.808 1.77476 29.908 3.97476 29.908 6.57476C29.908 9.27476 32.108 11.3748 34.608 11.3748C35.308 11.3748 36.208 11.1748 36.908 10.6748L34.208 7.97476H36.008L37.908 9.87476Z" fill="#5B9CD6"/>
<path d="M43.508 0.674805V7.6748C43.508 9.5748 44.108 11.3748 46.408 11.3748C48.708 11.3748 49.208 9.5748 49.208 7.6748V0.674805H50.708V8.1748C50.708 10.7748 49.108 12.7748 46.408 12.7748C43.708 12.7748 42.108 10.7748 42.108 8.1748V0.674805H43.508Z" fill="#5B9CD6"/>
<path d="M52.708 0.674805H59.008V1.9748H54.208V5.2748H58.908V6.5748H54.208V11.0748H59.108V12.3748H52.808V0.674805H52.708Z" fill="#5B9CD6"/>
<path d="M29.208 40.6747C29.208 49.5747 24.908 59.0747 14.708 59.0747C4.50801 59.0747 0.208008 49.5747 0.208008 40.6747C0.208008 31.7747 4.50801 22.2747 14.708 22.2747C24.808 22.1747 29.208 31.7747 29.208 40.6747ZM9.00801 40.5747C9.00801 43.8747 10.108 51.1747 14.708 51.1747C19.308 51.1747 20.408 43.8747 20.408 40.5747C20.408 37.2747 19.308 29.9747 14.708 29.9747C10.108 30.0747 9.00801 37.2747 9.00801 40.5747Z" fill="#5B9CD6"/>
<path d="M33.408 31.0747V23.5747H61.408L41.908 57.7747H32.208L47.808 31.1747H33.408V31.0747Z" fill="#5B9CD6"/>
<path d="M93.308 8.77478V59.3748H69.408V32.6748C69.408 19.4748 80.108 8.77478 93.308 8.77478Z" fill="#D9D9D9"/>
<path d="M127.608 31.2748H124.308V14.1748H128.808C132.408 14.1748 134.708 15.5748 134.708 19.4748C134.708 23.0748 132.708 24.8748 129.208 24.8748H127.508V31.2748H127.608ZM127.608 22.0748H128.308C130.308 22.0748 131.308 21.6748 131.308 19.4748C131.308 17.2748 130.008 16.9748 128.208 16.9748H127.608V22.0748Z" fill="#858686"/>
<path d="M147.808 31.2748H143.808L139.708 24.3748V31.2748H136.208V14.1748H140.708C144.108 14.1748 146.408 15.6748 146.408 19.2748C146.408 21.4748 145.208 23.5748 142.908 23.9748L147.808 31.2748ZM139.608 22.0748H140.008C141.808 22.0748 143.108 21.5748 143.108 19.4748C143.108 17.3748 141.808 16.9748 140.008 16.9748H139.508V22.0748H139.608Z" fill="#858686"/>
<path d="M156.508 31.6748C151.308 31.6748 148.108 27.6748 148.108 22.6748C148.108 17.5748 151.508 13.6748 156.508 13.6748C161.508 13.6748 164.908 17.5748 164.908 22.6748C164.908 27.7748 161.708 31.6748 156.508 31.6748ZM156.508 17.0748C153.408 17.0748 151.508 19.8748 151.508 22.5748C151.508 25.1748 152.808 28.4748 156.508 28.4748C160.208 28.4748 161.508 25.2748 161.508 22.5748C161.508 19.7748 159.608 17.0748 156.508 17.0748Z" fill="#858686"/>
<path d="M165.008 14.1748H168.908L171.908 20.0748L175.208 14.1748H179.108L173.708 23.3748V31.1748H170.408V23.3748L165.008 14.1748Z" fill="#858686"/>
<path d="M183.208 17.0748V20.8748H188.508V23.7748H183.208V28.3748H188.708V31.2748H179.908V14.1748H188.708V17.0748H183.208Z" fill="#858686"/>
<path d="M202.308 18.6748C201.408 17.5748 200.008 16.8748 198.508 16.8748C195.308 16.8748 193.508 19.7748 193.508 22.7748C193.508 25.6748 195.408 28.4748 198.508 28.4748C199.908 28.4748 201.408 27.7748 202.308 26.6748V30.6748C201.108 31.2748 199.808 31.6748 198.408 31.6748C193.608 31.6748 190.008 27.5748 190.008 22.7748C190.008 17.9748 193.408 13.6748 198.408 13.6748C199.708 13.6748 201.008 14.0748 202.208 14.6748V18.6748H202.308Z" fill="#858686"/>
<path d="M210.108 31.2748H206.808V17.0748H203.408V14.1748H213.608V17.0748H210.208V31.2748H210.108Z" fill="#858686"/>
<path d="M222.408 31.6748C217.208 31.6748 214.008 27.6748 214.008 22.6748C214.008 17.5748 217.408 13.6748 222.408 13.6748C227.408 13.6748 230.808 17.5748 230.808 22.6748C230.808 27.7748 227.608 31.6748 222.408 31.6748ZM222.408 17.0748C219.308 17.0748 217.408 19.8748 217.408 22.5748C217.408 25.1748 218.708 28.4748 222.408 28.4748C226.108 28.4748 227.408 25.2748 227.408 22.5748C227.408 19.7748 225.508 17.0748 222.408 17.0748Z" fill="#858686"/>
<path d="M240.508 17.9748C239.908 17.0748 239.108 16.5748 237.908 16.5748C236.808 16.5748 235.808 17.3748 235.808 18.4748C235.808 21.3748 242.608 20.1748 242.608 25.8748C242.608 29.2748 240.508 31.6748 237.008 31.6748C234.608 31.6748 232.908 30.2748 231.708 28.3748L233.908 26.2748C234.408 27.5748 235.608 28.7748 237.008 28.7748C238.408 28.7748 239.208 27.5748 239.208 26.2748C239.208 24.4748 237.608 23.9748 236.208 23.4748C234.008 22.5748 232.408 21.4748 232.408 18.7748C232.408 15.9748 234.508 13.6748 237.408 13.6748C238.908 13.6748 241.008 14.3748 242.108 15.5748L240.508 17.9748Z" fill="#858686"/>
<path d="M133.708 48.0748V41.3748H137.008V58.4748H133.708V50.8748H127.508V58.4748H124.208V41.3748H127.508V48.0748H133.708Z" fill="#858686"/>
<path d="M147.208 58.8748C142.008 58.8748 138.808 54.8748 138.808 49.8748C138.808 44.7748 142.208 40.8748 147.208 40.8748C152.208 40.8748 155.608 44.7748 155.608 49.8748C155.608 54.8748 152.408 58.8748 147.208 58.8748ZM147.208 44.1748C144.108 44.1748 142.208 46.9748 142.208 49.6748C142.208 52.2748 143.508 55.5748 147.208 55.5748C150.908 55.5748 152.208 52.3748 152.208 49.6748C152.208 46.9748 150.308 44.1748 147.208 44.1748Z" fill="#858686"/>
<path d="M162.808 58.4748H159.508V44.2748H156.108V41.3748H166.208V44.2748H162.808V58.4748Z" fill="#858686"/>
<path d="M170.808 44.2748V48.0748H176.108V50.9748H170.808V55.5748H176.308V58.4748H167.508V41.3748H176.308V44.2748H170.808Z" fill="#858686"/>
<path d="M181.808 55.5748H186.508V58.4748H178.508V41.3748H181.808V55.5748Z" fill="#858686"/>
<path d="M190.908 44.2748V48.0748H196.208V50.9748H190.908V55.5748H196.408V58.4748H187.608V41.3748H196.408V44.2748H190.908Z" fill="#858686"/>
<path d="M210.208 58.4748H206.208L202.108 51.5748V58.4748H198.808V41.3748H203.308C206.708 41.3748 209.008 42.8748 209.008 46.4748C209.008 48.6748 207.808 50.7748 205.508 51.1748L210.208 58.4748ZM202.008 49.2748H202.408C204.208 49.2748 205.508 48.7748 205.508 46.6748C205.508 44.5748 204.208 44.1748 202.408 44.1748H201.908V49.2748H202.008Z" fill="#858686"/>
<path d="M218.908 58.8748C213.708 58.8748 210.508 54.8748 210.508 49.8748C210.508 44.7748 213.908 40.8748 218.908 40.8748C223.908 40.8748 227.308 44.7748 227.308 49.8748C227.408 54.8748 224.108 58.8748 218.908 58.8748ZM218.908 44.1748C215.808 44.1748 213.908 46.9748 213.908 49.6748C213.908 52.2748 215.208 55.5748 218.908 55.5748C222.608 55.5748 223.908 52.3748 223.908 49.6748C223.908 46.9748 222.108 44.1748 218.908 44.1748Z" fill="#858686"/>
<path d="M237.008 45.1748C236.408 44.2748 235.608 43.7748 234.408 43.7748C233.308 43.7748 232.308 44.5748 232.308 45.6748C232.308 48.5748 239.108 47.3748 239.108 53.0748C239.108 56.4748 237.008 58.8748 233.508 58.8748C231.108 58.8748 229.408 57.4748 228.208 55.5748L230.408 53.4748C230.908 54.7748 232.108 55.9748 233.508 55.9748C234.908 55.9748 235.708 54.7748 235.708 53.4748C235.708 51.6748 234.108 51.1748 232.708 50.6748C230.508 49.7748 228.908 48.6748 228.908 45.9748C228.908 43.1748 231.008 40.8748 233.908 40.8748C235.408 40.8748 237.508 41.5748 238.608 42.7748L237.008 45.1748Z" fill="#858686"/>
</g>
<defs>
<clipPath id="clip0">
<rect width="242.4" height="59" fill="white" transform="translate(0.208008 0.374756)"/>
</clipPath>
</defs>
</svg>
