<svg width="329" height="59" viewBox="0 0 329 59" fill="none" xmlns="http://www.w3.org/2000/svg">
<circle cx="314.151" cy="41.4777" r="13.2082" fill="#009DE0"/>
<path d="M310.987 24.8891C310.987 24.6151 311.096 24.3523 311.29 24.1586C311.484 23.9648 311.747 23.856 312.021 23.856H316.153C316.427 23.856 316.69 23.9648 316.884 24.1586C317.078 24.3523 317.187 24.6151 317.187 24.8891C317.187 25.1632 317.078 25.426 316.884 25.6197C316.69 25.8135 316.427 25.9223 316.153 25.9223V27.1002C318.964 27.5052 321.514 28.712 323.559 30.489C323.567 30.48 323.576 30.471 323.584 30.4622L324.316 29.7307L323.584 29.0012C323.39 28.8075 323.281 28.5447 323.281 28.2705C323.281 27.9963 323.389 27.7333 323.583 27.5393C323.777 27.3453 324.04 27.2362 324.314 27.236C324.588 27.2358 324.851 27.3445 325.045 27.5382L327.967 30.4622C328.066 30.5575 328.144 30.6715 328.198 30.7975C328.253 30.9236 328.281 31.0592 328.282 31.1964C328.283 31.3336 328.257 31.4696 328.205 31.5966C328.153 31.7236 328.077 31.8389 327.98 31.9359C327.883 32.0329 327.767 32.1096 327.64 32.1616C327.513 32.2135 327.377 32.2397 327.24 32.2385C327.103 32.2373 326.967 32.2088 326.841 32.1547C326.715 32.1005 326.601 32.0218 326.506 31.9231L325.776 31.1916L325.045 31.9231C325.036 31.9315 325.027 31.9398 325.018 31.9479C327.122 34.3766 328.357 37.4368 328.529 40.6455C328.701 43.8542 327.799 47.0288 325.967 49.6683C324.134 52.3077 321.475 54.2619 318.408 55.2223C315.342 56.1827 312.043 56.0947 309.032 54.9722C306.021 53.8497 303.47 51.7566 301.781 49.0232C300.091 46.2898 299.36 43.0717 299.703 39.8767C300.046 36.6817 301.442 33.6918 303.673 31.3786C305.903 29.0655 308.84 27.5609 312.021 27.1022V25.9223C311.747 25.9223 311.484 25.8135 311.29 25.6197C311.096 25.426 310.987 25.1632 310.987 24.8891ZM314.087 29.0219C312.459 29.022 310.847 29.3429 309.342 29.9661C307.838 30.5893 306.472 31.5026 305.32 32.654C302.995 34.9793 301.689 38.133 301.69 41.4212C301.69 44.7095 302.996 47.8629 305.322 50.1879C307.647 52.5128 310.801 53.8188 314.089 53.8185C317.377 53.8182 320.531 52.5117 322.856 50.1864C325.181 47.8611 326.487 44.7074 326.486 41.4192C326.486 38.1309 325.179 34.9775 322.854 32.6526C320.529 30.3276 317.375 29.0216 314.087 29.0219Z" fill="#009DE0"/>
<g clip-path="url(#clip0)">
<path d="M2.18225 0.519775H3.68225C5.88225 0.519775 7.98225 1.11978 7.98225 3.71978C7.98225 4.61978 7.48225 5.61977 6.68225 5.91978C8.08225 6.21978 9.08225 7.51977 9.08225 8.91978C9.08225 11.3198 7.08225 12.2198 4.98225 12.2198H2.18225V0.519775ZM3.68225 5.71978H4.08225C5.48225 5.71978 6.58225 5.41978 6.58225 3.71978C6.58225 2.01978 5.48225 1.81978 4.08225 1.81978H3.68225V5.71978ZM3.68225 10.9198H4.78225C6.18225 10.9198 7.58225 10.5198 7.58225 8.81978C7.58225 7.11978 5.88225 6.81978 4.58225 6.81978H3.68225V10.9198Z" fill="#5B9CD6"/>
<path d="M12.1823 10.9198H15.7823V12.2198H10.6823V0.519775H12.1823V10.9198Z" fill="#5B9CD6"/>
<path d="M28.2823 6.41973C28.2823 9.91973 25.4823 12.6197 22.0823 12.6197C18.6823 12.6197 15.8823 10.0197 15.8823 6.41973C15.8823 3.01973 18.6823 0.219727 22.0823 0.219727C25.4823 0.219727 28.2823 3.01973 28.2823 6.41973ZM26.7823 6.41973C26.7823 3.81973 24.8823 1.61973 22.0823 1.61973C19.2823 1.61973 17.3823 3.81973 17.3823 6.41973C17.3823 9.11973 19.5823 11.2197 22.0823 11.2197C24.5823 11.2197 26.7823 9.11973 26.7823 6.41973Z" fill="#5B9CD6"/>
<path d="M39.4823 12.5197L38.4823 11.5197C37.4823 12.2197 36.2823 12.5197 35.0823 12.5197C31.6823 12.5197 28.8823 9.91973 28.8823 6.31973C28.8823 3.01973 31.6823 0.219727 35.0823 0.219727C38.4823 0.219727 41.2823 3.01973 41.2823 6.41973C41.2823 8.11973 40.5823 9.71973 39.4823 10.8197L41.2823 12.6197H39.4823V12.5197ZM38.3823 9.71973C39.2823 8.91973 39.7823 7.51973 39.7823 6.41973C39.7823 3.81973 37.8823 1.61973 35.0823 1.61973C32.2823 1.61973 30.3823 3.81973 30.3823 6.41973C30.3823 9.11973 32.5823 11.2197 35.0823 11.2197C35.7823 11.2197 36.6823 11.0197 37.3823 10.5197L34.6823 7.81973H36.4823L38.3823 9.71973Z" fill="#5B9CD6"/>
<path d="M43.9823 0.519775V7.51978C43.9823 9.41978 44.5823 11.2198 46.8823 11.2198C49.1823 11.2198 49.6823 9.41978 49.6823 7.51978V0.519775H51.1823V8.01978C51.1823 10.6198 49.5823 12.6198 46.8823 12.6198C44.1823 12.6198 42.5823 10.6198 42.5823 8.01978V0.519775H43.9823Z" fill="#5B9CD6"/>
<path d="M53.1823 0.519775H59.4823V1.81978H54.6823V5.11978H59.3823V6.41978H54.6823V10.9198H59.5823V12.2198H53.2822V0.519775H53.1823Z" fill="#5B9CD6"/>
<path d="M29.6823 40.5197C29.6823 49.4197 25.3823 58.9197 15.1823 58.9197C4.98225 58.9197 0.682251 49.4197 0.682251 40.5197C0.682251 31.6197 4.98225 22.1197 15.1823 22.1197C25.2823 22.0197 29.6823 31.6197 29.6823 40.5197ZM9.48225 40.4197C9.48225 43.7197 10.5823 51.0197 15.1823 51.0197C19.7823 51.0197 20.8823 43.7197 20.8823 40.4197C20.8823 37.1197 19.7823 29.8197 15.1823 29.8197C10.5823 29.9197 9.48225 37.1197 9.48225 40.4197Z" fill="#5B9CD6"/>
<path d="M37.8823 57.6196L47.5823 46.1196L47.4823 46.0196C45.9823 46.7196 44.4823 47.0196 42.6823 47.0196C35.9823 47.0196 31.6823 41.2196 31.6823 35.0196C31.6823 26.6196 38.5823 22.1196 46.3823 22.1196C49.6823 22.1196 53.4823 22.9196 56.0823 25.0196C58.8823 27.2196 60.6823 30.8196 60.6823 34.4196C60.6823 39.3196 58.1823 44.1196 55.1823 48.0196L47.8823 57.6196H37.8823ZM40.9823 34.7196C40.9823 37.8196 43.3822 40.3196 46.4823 40.3196C49.5823 40.3196 52.1823 37.8196 52.1823 34.7196C52.1823 31.6196 49.6823 29.1196 46.4823 29.1196C43.2823 29.1196 40.9823 31.6196 40.9823 34.7196Z" fill="#5B9CD6"/>
<path d="M108.782 35.5196C108.782 46.2196 100.082 54.9196 89.3823 54.9196C78.6823 54.9196 69.8823 46.2196 69.8823 35.5196C69.8823 24.8196 78.5823 16.1196 89.3823 16.1196C100.082 16.1196 108.782 24.8196 108.782 35.5196Z" fill="#9CB5C9"/>
<path d="M128.082 30.7196H124.782V13.6196H129.282C132.882 13.6196 135.182 15.0196 135.182 18.9196C135.182 22.5196 133.182 24.3196 129.682 24.3196H127.982V30.7196H128.082ZM128.082 21.5196H128.782C130.782 21.5196 131.782 21.1196 131.782 18.9196C131.782 16.7196 130.482 16.4196 128.682 16.4196H128.082V21.5196Z" fill="#858686"/>
<path d="M148.282 30.7196H144.282L140.182 23.8196V30.7196H136.682V13.6196H141.182C144.582 13.6196 146.882 15.1196 146.882 18.7196C146.882 20.9196 145.682 23.0196 143.382 23.4196L148.282 30.7196ZM140.082 21.5196H140.482C142.282 21.5196 143.582 21.0196 143.582 18.9196C143.582 16.8196 142.282 16.4196 140.482 16.4196H139.982V21.5196H140.082Z" fill="#858686"/>
<path d="M156.982 31.1196C151.782 31.1196 148.582 27.1196 148.582 22.1196C148.582 17.0196 151.982 13.1196 156.982 13.1196C161.982 13.1196 165.382 17.0196 165.382 22.1196C165.382 27.2196 162.182 31.1196 156.982 31.1196ZM156.982 16.5196C153.882 16.5196 151.982 19.3196 151.982 22.0196C151.982 24.6196 153.282 27.9196 156.982 27.9196C160.682 27.9196 161.982 24.7196 161.982 22.0196C161.982 19.2196 160.082 16.5196 156.982 16.5196Z" fill="#858686"/>
<path d="M165.482 13.6196H169.382L172.382 19.5196L175.682 13.6196H179.582L174.182 22.8196V30.6196H170.882V22.8196L165.482 13.6196Z" fill="#858686"/>
<path d="M183.682 16.5196V20.3196H188.982V23.2196H183.682V27.8196H189.182V30.7196H180.382V13.6196H189.182V16.5196H183.682Z" fill="#858686"/>
<path d="M202.782 18.2197C201.882 17.1197 200.482 16.4197 198.982 16.4197C195.782 16.4197 193.982 19.3197 193.982 22.3197C193.982 25.2197 195.882 28.0197 198.982 28.0197C200.382 28.0197 201.882 27.3197 202.782 26.2197V30.2197C201.582 30.8197 200.282 31.2197 198.882 31.2197C194.082 31.2197 190.482 27.1197 190.482 22.3197C190.482 17.5197 193.882 13.2197 198.882 13.2197C200.182 13.2197 201.482 13.6197 202.682 14.2197V18.2197H202.782Z" fill="#858686"/>
<path d="M210.582 30.7196H207.282V16.5196H203.882V13.6196H214.082V16.5196H210.682V30.7196H210.582Z" fill="#858686"/>
<path d="M222.882 31.1196C217.682 31.1196 214.482 27.1196 214.482 22.1196C214.482 17.0196 217.882 13.1196 222.882 13.1196C227.882 13.1196 231.282 17.0196 231.282 22.1196C231.282 27.2196 228.082 31.1196 222.882 31.1196ZM222.882 16.5196C219.782 16.5196 217.882 19.3196 217.882 22.0196C217.882 24.6196 219.182 27.9196 222.882 27.9196C226.582 27.9196 227.882 24.7196 227.882 22.0196C227.882 19.2196 225.982 16.5196 222.882 16.5196Z" fill="#858686"/>
<path d="M240.982 17.4196C240.382 16.5196 239.582 16.0196 238.382 16.0196C237.282 16.0196 236.282 16.8196 236.282 17.9196C236.282 20.8196 243.082 19.6196 243.082 25.3196C243.082 28.7196 240.982 31.1196 237.482 31.1196C235.082 31.1196 233.382 29.7196 232.182 27.8196L234.382 25.7196C234.882 27.0196 236.082 28.2196 237.482 28.2196C238.882 28.2196 239.682 27.0196 239.682 25.7196C239.682 23.9196 238.082 23.4196 236.682 22.9196C234.482 22.0196 232.882 20.9196 232.882 18.2196C232.882 15.4196 234.982 13.1196 237.882 13.1196C239.382 13.1196 241.482 13.8196 242.582 15.0196L240.982 17.4196Z" fill="#858686"/>
<path d="M128.082 43.7198V47.5198H133.382V50.4198H128.082V55.0198H133.582V57.9198H124.782V40.8198H133.582V43.7198H128.082Z" fill="#858686"/>
<path d="M135.782 40.8198H140.582C145.482 40.8198 148.782 44.5198 148.782 49.4198C148.782 54.2198 145.382 57.9198 140.482 57.9198H135.782V40.8198ZM139.082 55.0198H139.582C143.682 55.0198 145.282 52.7198 145.282 49.4198C145.282 45.7198 143.382 43.8198 139.582 43.8198H139.082V55.0198Z" fill="#858686"/>
<path d="M150.382 40.8198H153.682V50.4198C153.682 52.5198 153.882 55.5198 156.682 55.5198C159.482 55.5198 159.682 52.5198 159.682 50.4198V40.8198H162.982V51.0198C162.982 55.2198 161.182 58.3198 156.682 58.3198C152.082 58.3198 150.382 55.2198 150.382 51.0198V40.8198Z" fill="#858686"/>
<path d="M176.782 45.3198C175.882 44.2198 174.482 43.5198 172.982 43.5198C169.782 43.5198 167.982 46.4198 167.982 49.4198C167.982 52.3198 169.882 55.1198 172.982 55.1198C174.382 55.1198 175.882 54.4198 176.782 53.3198V57.3198C175.582 57.9198 174.282 58.3198 172.882 58.3198C168.082 58.3198 164.482 54.2198 164.482 49.4198C164.482 44.6198 167.882 40.3198 172.882 40.3198C174.182 40.3198 175.482 40.7198 176.682 41.3198V45.3198H176.782Z" fill="#858686"/>
<path d="M182.482 54.3199L181.082 57.9199H177.582L184.282 40.4199H186.882L193.382 57.9199H189.682L188.382 54.3199H182.482ZM185.382 45.4199L183.482 51.6199H187.582L185.382 45.4199Z" fill="#858686"/>
<path d="M205.682 45.3198C204.782 44.2198 203.382 43.5198 201.882 43.5198C198.682 43.5198 196.882 46.4198 196.882 49.4198C196.882 52.3198 198.782 55.1198 201.882 55.1198C203.282 55.1198 204.782 54.4198 205.682 53.3198V57.3198C204.482 57.9198 203.182 58.3198 201.782 58.3198C196.982 58.3198 193.382 54.2198 193.382 49.4198C193.382 44.6198 196.782 40.3198 201.782 40.3198C203.082 40.3198 204.382 40.7198 205.582 41.3198V45.3198H205.682Z" fill="#858686"/>
<path d="M211.282 57.9198H207.982V40.8198H211.282V57.9198Z" fill="#858686"/>
<path d="M221.282 58.3198C216.082 58.3198 212.882 54.3198 212.882 49.3198C212.882 44.2198 216.282 40.3198 221.282 40.3198C226.282 40.3198 229.682 44.2198 229.682 49.3198C229.782 54.3198 226.482 58.3198 221.282 58.3198ZM221.282 43.6198C218.182 43.6198 216.282 46.4198 216.282 49.1198C216.282 51.7198 217.582 55.0198 221.282 55.0198C224.982 55.0198 226.282 51.8198 226.282 49.1198C226.282 46.4198 224.482 43.6198 221.282 43.6198Z" fill="#858686"/>
<path d="M231.382 40.3198H233.782L242.782 52.2198V40.8198H246.082V58.2198H243.682L234.682 46.3198V57.9198H231.382V40.3198Z" fill="#858686"/>
<path d="M252.082 54.3199L250.682 57.9199H247.182L253.882 40.4199H256.482L262.982 57.9199H259.382L258.082 54.3199H252.082ZM254.882 45.4199L252.982 51.6199H257.082L254.882 45.4199Z" fill="#858686"/>
<path d="M267.182 55.0198H271.882V57.9198H263.882V40.8198H267.182V55.0198Z" fill="#858686"/>
</g>
<path d="M311.713 44.7995V46.2695H305.567V44.7995H307.751V38.3735L305.721 39.5915V37.9815L308.493 36.3015H309.543V44.7995H311.713ZM317.126 39.8995C317.751 39.8995 318.302 40.0349 318.778 40.3055C319.254 40.5669 319.622 40.9402 319.884 41.4255C320.145 41.9015 320.276 42.4522 320.276 43.0775C320.276 43.7309 320.126 44.3095 319.828 44.8135C319.529 45.3082 319.1 45.6955 318.54 45.9755C317.98 46.2462 317.331 46.3815 316.594 46.3815C315.968 46.3815 315.352 46.2789 314.746 46.0735C314.139 45.8589 313.64 45.5742 313.248 45.2195L313.85 43.9035C314.755 44.5942 315.679 44.9395 316.622 44.9395C317.247 44.9395 317.723 44.7855 318.05 44.4775C318.386 44.1602 318.554 43.7122 318.554 43.1335C318.554 42.5829 318.381 42.1442 318.036 41.8175C317.7 41.4815 317.247 41.3135 316.678 41.3135C316.286 41.3135 315.917 41.3882 315.572 41.5375C315.226 41.6775 314.923 41.8875 314.662 42.1675H313.57V36.3015H319.814V37.7015H315.334V40.4175C315.838 40.0722 316.435 39.8995 317.126 39.8995ZM323.518 36.3015V37.5895C323.518 38.0842 323.434 38.5322 323.266 38.9335C323.098 39.3255 322.814 39.7222 322.412 40.1235L321.698 39.5635C322.118 39.1155 322.37 38.6815 322.454 38.2615H321.558V36.3015H323.518Z" fill="white"/>
<defs>
<clipPath id="clip0">
<rect width="271.2" height="58.7" fill="white" transform="translate(0.682251 0.219727)"/>
</clipPath>
</defs>
</svg>
