<svg width="274" height="60" viewBox="0 0 274 60" fill="none" xmlns="http://www.w3.org/2000/svg">
<g clip-path="url(#clip0)">
<path d="M1.66962 0.967529H3.16962C5.36962 0.967529 7.46962 1.56753 7.46962 4.16753C7.46962 5.06753 6.96962 6.06753 6.16962 6.36753C7.56962 6.66753 8.56962 7.96753 8.56962 9.36753C8.56962 11.7675 6.56962 12.6675 4.46962 12.6675H1.66962V0.967529ZM3.16962 6.16753H3.56962C4.96962 6.16753 6.06962 5.86753 6.06962 4.16753C6.06962 2.46753 4.96962 2.26753 3.56962 2.26753H3.16962V6.16753ZM3.16962 11.3675H4.26962C5.66962 11.3675 7.06962 10.9675 7.06962 9.26753C7.06962 7.56753 5.36962 7.26753 4.06962 7.26753H3.16962V11.3675Z" fill="#5B9CD6"/>
<path d="M11.6696 11.3675H15.2696V12.6675H10.1696V0.967529H11.6696V11.3675Z" fill="#5B9CD6"/>
<path d="M27.7696 6.86748C27.7696 10.3675 24.9696 13.0675 21.5696 13.0675C18.1696 13.0675 15.3696 10.4675 15.3696 6.86748C15.3696 3.46748 18.1696 0.66748 21.5696 0.66748C24.9696 0.66748 27.7696 3.46748 27.7696 6.86748ZM26.2696 6.86748C26.2696 4.26748 24.3696 2.06748 21.5696 2.06748C18.7696 2.06748 16.8696 4.26748 16.8696 6.86748C16.8696 9.56748 19.0696 11.6675 21.5696 11.6675C24.0696 11.6675 26.2696 9.56748 26.2696 6.86748Z" fill="#5B9CD6"/>
<path d="M38.9696 12.9675L37.9696 11.9675C36.9696 12.6675 35.7696 12.9675 34.5696 12.9675C31.1696 12.9675 28.3696 10.3675 28.3696 6.76748C28.3696 3.46748 31.1696 0.66748 34.5696 0.66748C37.9696 0.66748 40.7696 3.46748 40.7696 6.86748C40.7696 8.56748 40.0696 10.1675 38.9696 11.2675L40.7696 13.0675H38.9696V12.9675ZM37.8696 10.1675C38.7696 9.36748 39.2696 7.96748 39.2696 6.86748C39.2696 4.26748 37.3696 2.06748 34.5696 2.06748C31.7696 2.06748 29.8696 4.26748 29.8696 6.86748C29.8696 9.56748 32.0696 11.6675 34.5696 11.6675C35.2696 11.6675 36.1696 11.4675 36.8696 10.9675L34.1696 8.26748H35.9696L37.8696 10.1675Z" fill="#5B9CD6"/>
<path d="M43.4696 0.967529V7.96753C43.4696 9.86753 44.0696 11.6675 46.3696 11.6675C48.6696 11.6675 49.1696 9.86753 49.1696 7.96753V0.967529H50.6696V8.46753C50.6696 11.0675 49.0696 13.0675 46.3696 13.0675C43.6696 13.0675 42.0696 11.0675 42.0696 8.46753V0.967529H43.4696Z" fill="#5B9CD6"/>
<path d="M52.6696 0.967529H58.9696V2.26753H54.1696V5.56753H58.8696V6.86753H54.1696V11.3675H59.0696V12.6675H52.7696V0.967529H52.6696Z" fill="#5B9CD6"/>
<path d="M29.1696 40.9674C29.1696 49.8674 24.8696 59.3674 14.6696 59.3674C4.46962 59.3674 0.169617 49.8674 0.169617 40.9674C0.169617 32.0674 4.46962 22.5674 14.6696 22.5674C24.7696 22.4674 29.1696 32.0674 29.1696 40.9674ZM8.96962 40.8674C8.96962 44.1674 10.0696 51.4674 14.6696 51.4674C19.2696 51.4674 20.3696 44.1674 20.3696 40.8674C20.3696 37.5674 19.2696 30.2674 14.6696 30.2674C10.0696 30.3674 8.96962 37.5674 8.96962 40.8674Z" fill="#5B9CD6"/>
<path d="M59.8696 44.1674V50.9674H55.7696V58.0674H47.5696V50.9674H30.9696V45.2674L44.1696 23.8674H55.7696V44.1674H59.8696ZM47.4696 31.0674L39.3696 44.1674H47.4696V31.0674Z" fill="#5B9CD6"/>
<path d="M68.8696 21.0674V58.4674H105.37V57.5674C105.27 37.3674 88.9696 21.0674 68.8696 21.0674Z" fill="#9CB5C9"/>
<path d="M134.07 30.7676C133.17 29.6676 131.77 28.9676 130.27 28.9676C127.07 28.9676 125.27 31.8676 125.27 34.8676C125.27 37.7676 127.17 40.5676 130.27 40.5676C131.67 40.5676 133.17 39.8676 134.07 38.7676V42.7676C132.87 43.3676 131.57 43.7676 130.17 43.7676C125.37 43.7676 121.77 39.6676 121.77 34.8676C121.77 30.0676 125.17 25.7676 130.17 25.7676C131.47 25.7676 132.77 26.1676 133.97 26.7676V30.7676H134.07Z" fill="#858686"/>
<path d="M141.77 43.2675H138.47V29.0675H135.07V26.1675H145.27V29.0675H141.87V43.2675H141.77Z" fill="#858686"/>
<path d="M149.77 29.0675V32.8675H155.07V35.7675H149.77V40.3675H155.27V43.2675H146.47V26.1675H155.27V29.0675H149.77Z" fill="#858686"/>
<path d="M162.77 34.6675V37.2675H157.27V34.6675H162.77Z" fill="#858686"/>
<path d="M164.97 26.1675H169.77C174.67 26.1675 177.97 29.8675 177.97 34.7675C177.97 39.5675 174.57 43.2675 169.67 43.2675H164.97V26.1675ZM168.27 40.3675H168.77C172.87 40.3675 174.47 38.0675 174.47 34.7675C174.47 31.0675 172.57 29.1675 168.77 29.1675H168.27V40.3675Z" fill="#858686"/>
<path d="M179.57 26.1675H183.67C186.87 26.1675 188.77 27.3675 188.77 30.7675C188.77 31.9675 188.37 33.3675 187.27 34.0675C189.27 34.4675 190.17 36.4675 190.17 38.3675C190.17 41.6675 187.77 43.1675 184.67 43.1675H179.47V26.1675H179.57ZM182.97 33.2675H183.37C184.97 33.2675 185.77 32.7675 185.77 31.0675C185.77 29.3675 184.77 28.8675 183.37 28.8675H182.97V33.2675ZM182.97 40.5675H183.67C185.47 40.5675 186.97 40.3675 186.97 38.1675C186.97 35.9675 185.17 35.8675 183.47 35.8675H182.97V40.5675Z" fill="#858686"/>
<path d="M197.37 34.6675V37.2675H191.87V34.6675H197.37Z" fill="#858686"/>
<path d="M209.07 32.9675V26.2675H212.37V43.3675H209.07V35.6675H202.87V43.2675H199.57V26.1675H202.87V32.8675H209.07V32.9675Z" fill="#858686"/>
<path d="M222.87 29.9675C222.27 29.0675 221.47 28.5675 220.27 28.5675C219.17 28.5675 218.17 29.3675 218.17 30.4675C218.17 33.3675 224.97 32.1675 224.97 37.8675C224.97 41.2675 222.87 43.6675 219.37 43.6675C216.97 43.6675 215.27 42.2675 214.07 40.3675L216.27 38.2675C216.77 39.5675 217.97 40.7675 219.37 40.7675C220.77 40.7675 221.57 39.5675 221.57 38.2675C221.57 36.4675 219.97 35.9675 218.57 35.4675C216.37 34.5675 214.77 33.4675 214.77 30.7675C214.77 27.9675 216.87 25.6675 219.77 25.6675C221.27 25.6675 223.37 26.3675 224.47 27.5675L222.87 29.9675Z" fill="#858686"/>
</g>
<path d="M259.307 49.8903C266.602 49.8903 272.515 43.9768 272.515 36.6821C272.515 29.3874 266.602 23.4739 259.307 23.4739C252.012 23.4739 246.099 29.3874 246.099 36.6821C246.099 43.9768 252.012 49.8903 259.307 49.8903Z" fill="#009DE0"/>
<path d="M256.144 20.0935C256.144 19.8195 256.253 19.5567 256.446 19.3629C256.64 19.1692 256.903 19.0603 257.177 19.0603H261.31C261.584 19.0603 261.847 19.1692 262.04 19.3629C262.234 19.5567 262.343 19.8195 262.343 20.0935C262.343 20.3675 262.234 20.6303 262.04 20.8241C261.847 21.0178 261.584 21.1267 261.31 21.1267V22.3045C264.12 22.7095 266.67 23.9163 268.716 25.6934C268.724 25.6843 268.732 25.6754 268.74 25.6665L269.472 24.935L268.74 24.2056C268.546 24.0119 268.437 23.749 268.437 23.4748C268.437 23.2007 268.546 22.9376 268.74 22.7436C268.933 22.5496 269.196 22.4405 269.47 22.4403C269.744 22.4401 270.007 22.5489 270.201 22.7426L273.123 25.6665C273.222 25.7618 273.301 25.8758 273.355 26.0019C273.409 26.128 273.437 26.2635 273.439 26.4007C273.44 26.5379 273.414 26.674 273.362 26.8009C273.31 26.9279 273.233 27.0432 273.136 27.1403C273.039 27.2373 272.924 27.314 272.797 27.3659C272.67 27.4179 272.534 27.444 272.397 27.4428C272.259 27.4416 272.124 27.4132 271.998 27.359C271.872 27.3049 271.758 27.2261 271.662 27.1275L270.933 26.396L270.201 27.1275C270.193 27.1359 270.184 27.1441 270.175 27.1523C272.279 29.581 273.514 32.6411 273.686 35.8498C273.857 39.0586 272.956 42.2331 271.123 44.8726C269.291 47.5121 266.631 49.4662 263.565 50.4266C260.499 51.387 257.2 51.2991 254.189 50.1766C251.178 49.0541 248.627 46.961 246.937 44.2276C245.248 41.4942 244.517 38.2761 244.859 35.0811C245.202 31.8861 246.599 28.8961 248.829 26.583C251.06 24.2698 253.997 22.7652 257.177 22.3066V21.1267C256.903 21.1267 256.64 21.0178 256.446 20.8241C256.253 20.6303 256.144 20.3675 256.144 20.0935ZM259.243 24.2263C257.615 24.2264 256.003 24.5472 254.499 25.1704C252.995 25.7936 251.628 26.707 250.477 27.8584C248.152 30.1837 246.846 33.3374 246.846 36.6256C246.846 39.9138 248.153 43.0673 250.478 45.3922C252.804 47.7171 255.957 49.0231 259.245 49.0228C262.534 49.0226 265.687 47.7161 268.012 45.3907C270.337 43.0654 271.643 39.9117 271.643 36.6235C271.642 33.3353 270.336 30.1818 268.011 27.8569C265.685 25.532 262.532 24.226 259.243 24.2263Z" fill="#009DE0"/>
<path d="M256.87 40.0039V41.4739H250.724V40.0039H252.908V33.5779L250.878 34.7959V33.1859L253.65 31.5059H254.7V40.0039H256.87ZM262.282 35.1039C262.908 35.1039 263.458 35.2392 263.934 35.5099C264.41 35.7712 264.779 36.1445 265.04 36.6299C265.302 37.1059 265.432 37.6565 265.432 38.2819C265.432 38.9352 265.283 39.5139 264.984 40.0179C264.686 40.5125 264.256 40.8999 263.696 41.1799C263.136 41.4505 262.488 41.5859 261.75 41.5859C261.125 41.5859 260.509 41.4832 259.902 41.2779C259.296 41.0632 258.796 40.7785 258.404 40.4239L259.006 39.1079C259.912 39.7985 260.836 40.1439 261.778 40.1439C262.404 40.1439 262.88 39.9899 263.206 39.6819C263.542 39.3645 263.71 38.9165 263.71 38.3379C263.71 37.7872 263.538 37.3485 263.192 37.0219C262.856 36.6859 262.404 36.5179 261.834 36.5179C261.442 36.5179 261.074 36.5925 260.728 36.7419C260.383 36.8819 260.08 37.0919 259.818 37.3719H258.726V31.5059H264.97V32.9059H260.49V35.6219C260.994 35.2765 261.592 35.1039 262.282 35.1039ZM268.675 31.5059V32.7939C268.675 33.2885 268.591 33.7365 268.423 34.1379C268.255 34.5299 267.97 34.9265 267.569 35.3279L266.855 34.7679C267.275 34.3199 267.527 33.8859 267.611 33.4659H266.715V31.5059H268.675Z" fill="white"/>
<defs>
<clipPath id="clip0">
<rect width="224.9" height="58.7" fill="white" transform="translate(0.169617 0.66748)"/>
</clipPath>
</defs>
</svg>
