<svg width="262" height="60" viewBox="0 0 262 60" fill="none" xmlns="http://www.w3.org/2000/svg">
<g clip-path="url(#clip0)">
<path d="M0.307983 0.699463H1.70798C3.90798 0.699463 6.00798 1.29946 6.00798 3.89946C6.00798 4.79946 5.50798 5.79946 4.70798 6.09946C6.10798 6.39946 7.10798 7.69946 7.10798 9.09946C7.10798 11.4995 5.10798 12.3995 3.00798 12.3995H0.307983V0.699463ZM1.80798 5.89946H2.20798C3.60798 5.89946 4.70798 5.59946 4.70798 3.89946C4.70798 2.19946 3.60798 1.99946 2.20798 1.99946H1.80798V5.89946ZM1.80798 11.0995H2.90798C4.30798 11.0995 5.70798 10.6995 5.70798 8.99946C5.70798 7.29946 4.00798 6.99946 2.70798 6.99946H1.80798V11.0995Z" fill="#5B9CD6"/>
<path d="M10.308 11.0995H13.908V12.3995H8.80798V0.699463H10.308V11.0995Z" fill="#5B9CD6"/>
<path d="M26.408 6.59941C26.408 10.0994 23.608 12.7994 20.208 12.7994C16.808 12.7994 14.008 10.1994 14.008 6.59941C14.008 3.19941 16.808 0.399414 20.208 0.399414C23.608 0.399414 26.408 3.19941 26.408 6.59941ZM24.908 6.59941C24.908 3.99941 23.008 1.79941 20.208 1.79941C17.408 1.79941 15.508 3.99941 15.508 6.59941C15.508 9.29941 17.708 11.3994 20.208 11.3994C22.708 11.3994 24.908 9.29941 24.908 6.59941Z" fill="#5B9CD6"/>
<path d="M37.508 12.6994L36.508 11.6994C35.508 12.3994 34.308 12.6994 33.108 12.6994C29.708 12.6994 26.908 10.0994 26.908 6.49944C26.908 3.09944 29.708 0.299438 33.108 0.299438C36.508 0.299438 39.308 3.09944 39.308 6.49944C39.308 8.19944 38.608 9.79944 37.508 10.8994L39.308 12.6994H37.508ZM36.508 9.89944C37.408 9.09944 37.908 7.69944 37.908 6.59944C37.908 3.99944 36.008 1.79944 33.208 1.79944C30.408 1.79944 28.508 3.99944 28.508 6.59944C28.508 9.29944 30.708 11.3994 33.208 11.3994C33.908 11.3994 34.808 11.1994 35.508 10.6994L32.808 8.09944H34.608L36.508 9.89944Z" fill="#5B9CD6"/>
<path d="M42.008 0.699463V7.69946C42.008 9.59946 42.608 11.3995 44.908 11.3995C47.208 11.3995 47.708 9.59946 47.708 7.69946V0.699463H49.208V8.19946C49.208 10.7995 47.608 12.7995 44.908 12.7995C42.208 12.7995 40.608 10.7995 40.608 8.19946V0.699463H42.008Z" fill="#5B9CD6"/>
<path d="M51.308 0.699463H57.608V1.99946H52.708V5.29946H57.408V6.59946H52.708V11.0995H57.608V12.3995H51.308V0.699463Z" fill="#5B9CD6"/>
<path d="M5.00798 31.0995V23.5995H18.808V57.7995H9.90798V31.0995H5.00798Z" fill="#5B9CD6"/>
<path d="M58.808 40.6995C58.808 49.5995 54.508 59.0995 44.308 59.0995C34.108 59.0995 29.808 49.4995 29.808 40.6995C29.808 31.8995 34.208 22.1995 44.308 22.1995C54.508 22.1995 58.808 31.7995 58.808 40.6995ZM38.708 40.5995C38.708 43.8995 39.808 51.1995 44.408 51.1995C49.008 51.1995 50.108 43.8995 50.108 40.5995C50.108 37.2995 48.908 30.0995 44.308 30.0995C39.808 30.0995 38.708 37.2995 38.708 40.5995Z" fill="#5B9CD6"/>
<path d="M67.408 20.7994V58.1994H103.908V57.2994C103.908 37.0994 87.608 20.7994 67.408 20.7994Z" fill="#A9C5DC"/>
<path d="M126.208 30.0994H122.908V12.9994H127.408C131.008 12.9994 133.308 14.3994 133.308 18.2994C133.308 21.8994 131.308 23.6994 127.808 23.6994H126.108V30.0994H126.208ZM126.208 20.9994H126.908C128.908 20.9994 129.908 20.5994 129.908 18.3994C129.908 16.1994 128.608 15.8994 126.808 15.8994H126.208V20.9994Z" fill="#858686"/>
<path d="M146.308 30.0994H142.308L138.208 23.1994V30.0994H134.908V12.9994H139.408C142.808 12.9994 145.108 14.4994 145.108 18.0994C145.108 20.2994 143.908 22.3994 141.608 22.7994L146.308 30.0994ZM138.108 20.8994H138.508C140.308 20.8994 141.608 20.3994 141.608 18.2994C141.608 16.1994 140.308 15.7994 138.508 15.7994H138.008V20.8994H138.108Z" fill="#858686"/>
<path d="M155.108 30.5994C149.908 30.5994 146.708 26.5994 146.708 21.5994C146.708 16.4994 150.108 12.5994 155.108 12.5994C160.108 12.5994 163.508 16.4994 163.508 21.5994C163.508 26.5994 160.308 30.5994 155.108 30.5994ZM155.108 15.8994C152.008 15.8994 150.108 18.6994 150.108 21.3994C150.108 23.9994 151.408 27.2994 155.108 27.2994C158.808 27.2994 160.108 24.0994 160.108 21.3994C160.108 18.6994 158.208 15.8994 155.108 15.8994Z" fill="#858686"/>
<path d="M163.608 12.9994H167.508L170.508 18.8994L173.808 12.9994H177.708L172.308 22.1994V29.9994H169.008V22.1994L163.608 12.9994Z" fill="#858686"/>
<path d="M181.808 15.8994V19.6994H187.108V22.5994H181.808V27.1994H187.308V30.0994H178.508V12.9994H187.308V15.8994H181.808Z" fill="#858686"/>
<path d="M200.908 17.5994C200.008 16.4994 198.608 15.7994 197.108 15.7994C193.908 15.7994 192.108 18.6994 192.108 21.6994C192.108 24.5994 194.008 27.3994 197.108 27.3994C198.508 27.3994 200.008 26.6994 200.908 25.5994V29.5994C199.708 30.1994 198.408 30.5994 197.008 30.5994C192.208 30.5994 188.608 26.4994 188.608 21.6994C188.608 16.8994 192.008 12.5994 197.008 12.5994C198.308 12.5994 199.608 12.9994 200.808 13.5994V17.5994H200.908Z" fill="#858686"/>
<path d="M208.608 30.0994H205.308V15.8994H201.908V12.9994H212.108V15.8994H208.708V30.0994H208.608Z" fill="#858686"/>
<path d="M220.908 30.5994C215.708 30.5994 212.508 26.5994 212.508 21.5994C212.508 16.4994 215.908 12.5994 220.908 12.5994C225.908 12.5994 229.308 16.4994 229.308 21.5994C229.408 26.5994 226.108 30.5994 220.908 30.5994ZM220.908 15.8994C217.808 15.8994 215.908 18.6994 215.908 21.3994C215.908 23.9994 217.208 27.2994 220.908 27.2994C224.608 27.2994 225.908 24.0994 225.908 21.3994C225.908 18.6994 224.108 15.8994 220.908 15.8994Z" fill="#858686"/>
<path d="M239.108 16.7994C238.508 15.8994 237.708 15.3994 236.508 15.3994C235.408 15.3994 234.408 16.1994 234.408 17.2994C234.408 20.1994 241.208 18.9994 241.208 24.6994C241.208 28.0994 239.108 30.4994 235.608 30.4994C233.208 30.4994 231.508 29.0994 230.308 27.1994L232.508 25.0994C233.008 26.3994 234.208 27.5994 235.608 27.5994C237.008 27.5994 237.808 26.3994 237.808 25.0994C237.808 23.2994 236.208 22.7994 234.808 22.2994C232.608 21.3994 231.008 20.2994 231.008 17.5994C231.008 14.7994 233.108 12.4994 236.008 12.4994C237.508 12.4994 239.608 13.1994 240.708 14.3994L239.108 16.7994Z" fill="#858686"/>
<path d="M134.208 44.6995C133.308 43.5995 131.908 42.8995 130.408 42.8995C127.208 42.8995 125.408 45.7995 125.408 48.7995C125.408 51.6995 127.308 54.4995 130.408 54.4995C131.808 54.4995 133.308 53.7995 134.208 52.6995V56.6995C133.008 57.2995 131.708 57.6995 130.308 57.6995C125.508 57.6995 121.908 53.5995 121.908 48.7995C121.908 43.9995 125.308 39.6995 130.308 39.6995C131.608 39.6995 132.908 40.0995 134.108 40.6995V44.6995H134.208Z" fill="#858686"/>
<path d="M144.108 57.6995C138.908 57.6995 135.708 53.6995 135.708 48.6995C135.708 43.5995 139.108 39.6995 144.108 39.6995C149.208 39.6995 152.508 43.5995 152.508 48.6995C152.508 53.7995 149.308 57.6995 144.108 57.6995ZM144.108 43.0995C141.008 43.0995 139.108 45.8995 139.108 48.5995C139.108 51.1995 140.408 54.4995 144.108 54.4995C147.808 54.4995 149.108 51.2995 149.108 48.5995C149.108 45.7995 147.208 43.0995 144.108 43.0995Z" fill="#858686"/>
<path d="M166.908 46.6994L163.008 57.4994H161.808L158.108 46.6994L156.608 57.2994H153.208L156.108 39.7994H158.508L162.708 50.9994L166.708 39.7994H169.108L171.708 57.2994H168.308L166.908 46.6994Z" fill="#858686"/>
<path d="M176.408 43.0995V46.8995H181.708V49.7995H176.408V54.3995H181.908V57.2995H173.108V40.1995H181.908V43.0995H176.408Z" fill="#858686"/>
<path d="M195.708 57.2995H191.708L187.608 50.3995V57.2995H184.308V40.1995H188.808C192.208 40.1995 194.508 41.6995 194.508 45.2995C194.508 47.4995 193.308 49.5995 191.008 49.9995L195.708 57.2995ZM187.508 48.0995H187.908C189.708 48.0995 191.008 47.5995 191.008 45.4995C191.008 43.3995 189.708 42.9995 187.908 42.9995H187.408V48.0995H187.508Z" fill="#858686"/>
<path d="M208.208 44.6995C207.308 43.5995 205.908 42.8995 204.408 42.8995C201.208 42.8995 199.408 45.7995 199.408 48.7995C199.408 51.6995 201.308 54.4995 204.408 54.4995C205.808 54.4995 207.308 53.7995 208.208 52.6995V56.6995C207.008 57.2995 205.708 57.6995 204.308 57.6995C199.508 57.6995 195.908 53.5995 195.908 48.7995C195.908 43.9995 199.308 39.6995 204.308 39.6995C205.608 39.6995 206.908 40.0995 208.108 40.6995V44.6995H208.208Z" fill="#858686"/>
<path d="M213.708 57.2995H210.408V40.1995H213.708V57.2995Z" fill="#858686"/>
<path d="M219.608 53.6994L218.208 57.2994H214.708L221.408 39.7994H224.008L230.508 57.2994H226.908L225.608 53.6994H219.608ZM222.508 44.7994L220.608 50.9994H224.708L222.508 44.7994Z" fill="#858686"/>
<path d="M234.808 54.3995H239.508V57.2995H231.508V40.1995H234.808V54.3995Z" fill="#858686"/>
<path d="M243.908 43.0995V46.8995H249.208V49.7995H243.908V54.3995H249.408V57.2995H240.608V40.1995H249.408V43.0995H243.908Z" fill="#858686"/>
<path d="M259.608 43.9995C259.008 43.0995 258.208 42.5995 257.008 42.5995C255.908 42.5995 254.908 43.3995 254.908 44.4995C254.908 47.3995 261.708 46.1995 261.708 51.8995C261.708 55.2995 259.608 57.6995 256.108 57.6995C253.708 57.6995 252.008 56.2995 250.808 54.3995L253.008 52.2995C253.508 53.5995 254.708 54.7995 256.108 54.7995C257.508 54.7995 258.308 53.5995 258.308 52.2995C258.308 50.4995 256.708 49.9995 255.308 49.4995C253.108 48.5995 251.508 47.4995 251.508 44.7995C251.508 41.9995 253.608 39.6995 256.508 39.6995C258.008 39.6995 260.108 40.3995 261.208 41.5995L259.608 43.9995Z" fill="#858686"/>
</g>
<defs>
<clipPath id="clip0">
<rect width="261.5" height="58.7" fill="white" transform="translate(0.307983 0.399414)"/>
</clipPath>
</defs>
</svg>
