<svg width="286" height="60" viewBox="0 0 286 60" fill="none" xmlns="http://www.w3.org/2000/svg">
<g clip-path="url(#clip0)">
<path d="M0.0919189 1.29346H1.49192C3.69192 1.29346 5.79192 1.89346 5.79192 4.49346C5.79192 5.39346 5.29192 6.39346 4.49192 6.69346C5.89192 6.99346 6.89192 8.29346 6.89192 9.69346C6.89192 12.0935 4.89192 12.9935 2.79192 12.9935H0.0919189V1.29346ZM1.59192 6.49346H1.99192C3.39192 6.49346 4.49192 6.19346 4.49192 4.49346C4.49192 2.79346 3.39192 2.59346 1.99192 2.59346H1.59192V6.49346ZM1.59192 11.6935H2.69192C4.09192 11.6935 5.49192 11.2935 5.49192 9.59346C5.49192 7.89346 3.79192 7.59346 2.49192 7.59346H1.59192V11.6935Z" fill="#5B9CD6"/>
<path d="M10.0919 11.6935H13.6919V12.9935H8.59192V1.29346H10.0919V11.6935Z" fill="#5B9CD6"/>
<path d="M26.1919 7.19341C26.1919 10.6934 23.3919 13.3934 19.9919 13.3934C16.5919 13.3934 13.7919 10.7934 13.7919 7.19341C13.7919 3.79341 16.5919 0.993408 19.9919 0.993408C23.3919 0.993408 26.1919 3.79341 26.1919 7.19341ZM24.6919 7.19341C24.6919 4.59341 22.7919 2.39341 19.9919 2.39341C17.1919 2.39341 15.2919 4.59341 15.2919 7.19341C15.2919 9.89341 17.4919 11.9934 19.9919 11.9934C22.4919 11.9934 24.6919 9.89341 24.6919 7.19341Z" fill="#5B9CD6"/>
<path d="M37.2919 13.2934L36.2919 12.1934C35.2919 12.8934 34.0919 13.2934 32.8919 13.2934C29.4919 13.2934 26.6919 10.6934 26.6919 7.09343C26.6919 3.69343 29.4919 0.893433 32.8919 0.893433C36.2919 0.893433 39.0919 3.69343 39.0919 7.09343C39.0919 8.79343 38.3919 10.3934 37.1919 11.4934L38.9919 13.2934H37.2919ZM36.2919 10.4934C37.1919 9.69343 37.6919 8.29343 37.6919 7.19343C37.6919 4.59343 35.7919 2.39343 32.9919 2.39343C30.1919 2.39343 28.2919 4.59343 28.2919 7.19343C28.2919 9.89343 30.4919 11.9934 32.9919 11.9934C33.6919 11.9934 34.5919 11.7934 35.2919 11.2934L32.5919 8.69343H34.3919L36.2919 10.4934Z" fill="#5B9CD6"/>
<path d="M41.7919 1.29346V8.29346C41.7919 10.1935 42.3919 11.9935 44.5919 11.9935C46.8919 11.9935 47.4919 10.1935 47.4919 8.29346V1.29346H48.9919V8.79346C48.9919 11.3935 47.3919 13.3935 44.6919 13.3935C41.9919 13.3935 40.3919 11.3935 40.3919 8.79346V1.29346H41.7919Z" fill="#5B9CD6"/>
<path d="M51.0919 1.29346H57.3919V2.59346H52.4919V5.89346H57.1919V7.19346H52.4919V11.6935H57.3919V12.9935H51.0919V1.29346Z" fill="#5B9CD6"/>
<path d="M4.79193 31.6935V24.1935H18.5919V58.3935H9.69193V31.6935H4.79193Z" fill="#5B9CD6"/>
<path d="M55.7919 32.5934C55.7919 36.1934 53.4919 39.2934 50.3919 40.2934V40.3934C54.4919 41.7934 57.1919 44.8934 57.1919 49.3934C57.1919 56.4934 49.9919 59.6934 44.1919 59.6934C38.3919 59.6934 31.1919 56.3934 31.1919 49.3934C31.1919 44.8934 33.8919 41.7934 37.9919 40.3934V40.2934C34.8919 39.2934 32.5919 36.1934 32.5919 32.5934C32.5919 26.0934 38.3919 22.8934 44.1919 22.8934C49.9919 22.7934 55.7919 26.0934 55.7919 32.5934ZM40.0919 48.2934C40.0919 50.5934 41.8919 52.4934 44.1919 52.4934C46.4919 52.4934 48.2919 50.5934 48.2919 48.2934C48.2919 45.8934 46.4919 43.9934 44.1919 43.9934C41.8919 43.9934 40.0919 45.8934 40.0919 48.2934ZM40.3919 32.8934C40.3919 34.9934 42.0919 36.7934 44.1919 36.7934C46.2919 36.7934 47.9919 35.0934 47.9919 32.8934C47.9919 30.7934 46.2919 28.9934 44.1919 28.9934C41.9919 28.9934 40.3919 30.6934 40.3919 32.8934Z" fill="#5B9CD6"/>
<path d="M104.892 40.0935C104.892 50.7935 96.1919 59.4935 85.4919 59.4935C74.7919 59.4935 65.9919 50.7935 65.9919 40.0935C65.9919 29.3935 74.6919 20.6935 85.4919 20.6935C96.1919 20.5935 104.892 29.2935 104.892 40.0935Z" fill="#A9C5DC"/>
<path d="M131.492 34.0935C130.892 33.1935 130.092 32.6935 128.892 32.6935C127.792 32.6935 126.792 33.4935 126.792 34.5935C126.792 37.4935 133.592 36.2935 133.592 41.9935C133.592 45.3935 131.492 47.7935 127.992 47.7935C125.592 47.7935 123.892 46.3935 122.692 44.4935L124.892 42.3935C125.392 43.6935 126.592 44.8935 127.992 44.8935C129.392 44.8935 130.192 43.6935 130.192 42.3935C130.192 40.5935 128.592 40.0935 127.192 39.5935C124.992 38.6935 123.392 37.5935 123.392 34.8935C123.392 32.0935 125.492 29.7935 128.392 29.7935C129.892 29.7935 131.992 30.4935 133.092 31.6935L131.492 34.0935Z" fill="#858686"/>
<path d="M142.992 47.7935C137.792 47.7935 134.592 43.7935 134.592 38.7935C134.592 33.6935 137.992 29.7935 142.992 29.7935C147.992 29.7935 151.392 33.6935 151.392 38.7935C151.492 43.7935 148.192 47.7935 142.992 47.7935ZM142.992 33.0935C139.892 33.0935 137.992 35.8935 137.992 38.5935C137.992 41.1935 139.292 44.4935 142.992 44.4935C146.692 44.4935 147.992 41.2935 147.992 38.5935C147.992 35.8935 146.192 33.0935 142.992 33.0935Z" fill="#858686"/>
<path d="M161.192 34.0935C160.592 33.1935 159.792 32.6935 158.592 32.6935C157.492 32.6935 156.492 33.4935 156.492 34.5935C156.492 37.4935 163.292 36.2935 163.292 41.9935C163.292 45.3935 161.192 47.7935 157.692 47.7935C155.292 47.7935 153.592 46.3935 152.392 44.4935L154.592 42.3935C155.092 43.6935 156.292 44.8935 157.692 44.8935C159.092 44.8935 159.892 43.6935 159.892 42.3935C159.892 40.5935 158.292 40.0935 156.892 39.5935C154.692 38.6935 153.092 37.5935 153.092 34.8935C153.092 32.0935 155.192 29.7935 158.092 29.7935C159.592 29.7935 161.692 30.4935 162.792 31.6935L161.192 34.0935Z" fill="#858686"/>
<path d="M170.592 47.3935H167.292V33.1935H163.892V30.2935H174.092V33.1935H170.692V47.3935H170.592Z" fill="#858686"/>
<path d="M178.592 33.1935V36.9935H183.892V39.8935H178.592V44.4935H184.092V47.3935H175.292V30.2935H184.092V33.1935H178.592Z" fill="#858686"/>
<path d="M186.292 29.8934H188.692L197.692 41.7934V30.2934H200.992V47.6934H198.592L189.592 35.7934V47.3934H186.292V29.8934Z" fill="#858686"/>
<path d="M206.792 47.3935H203.492V30.2935H206.792V47.3935Z" fill="#858686"/>
<path d="M209.192 30.2935H213.292C216.492 30.2935 218.392 31.4935 218.392 34.8935C218.392 36.0935 217.992 37.4935 216.892 38.1935C218.892 38.5935 219.792 40.5935 219.792 42.4935C219.792 45.7935 217.392 47.2935 214.292 47.2935H209.092V30.2935H209.192ZM212.592 37.3935H212.992C214.592 37.3935 215.392 36.8935 215.392 35.1935C215.392 33.4935 214.392 32.9935 212.992 32.9935H212.592V37.3935ZM212.592 44.6935H213.292C215.092 44.6935 216.592 44.4935 216.592 42.2935C216.592 40.0935 214.792 39.9935 213.092 39.9935H212.592V44.6935Z" fill="#858686"/>
<path d="M225.092 47.3935H221.792V30.2935H225.092V47.3935Z" fill="#858686"/>
<path d="M230.792 44.4935H235.492V47.3935H227.492V30.2935H230.792V44.4935Z" fill="#858686"/>
<path d="M239.992 47.3935H236.692V30.2935H239.992V47.3935Z" fill="#858686"/>
<path d="M242.392 30.2935H247.192C252.092 30.2935 255.392 33.9935 255.392 38.8935C255.392 43.6935 251.992 47.3935 247.092 47.3935H242.392V30.2935ZM245.692 44.4935H246.192C250.292 44.4935 251.892 42.1935 251.892 38.8935C251.892 35.1935 249.992 33.2935 246.192 33.2935H245.692V44.4935Z" fill="#858686"/>
<path d="M260.492 43.7934L259.092 47.3934H255.592L262.292 29.8934H264.892L271.392 47.3934H267.792L266.492 43.7934H260.492ZM263.392 34.8934L261.492 41.0934H265.592L263.392 34.8934Z" fill="#858686"/>
<path d="M272.292 30.2935H277.092C281.992 30.2935 285.292 33.9935 285.292 38.8935C285.292 43.6935 281.892 47.3935 276.992 47.3935H272.292V30.2935ZM275.592 44.4935H276.092C280.192 44.4935 281.792 42.1935 281.792 38.8935C281.792 35.1935 279.892 33.2935 276.092 33.2935H275.592V44.4935Z" fill="#858686"/>
</g>
<defs>
<clipPath id="clip0">
<rect width="285.2" height="58.7" fill="white" transform="translate(0.0919189 0.993408)"/>
</clipPath>
</defs>
</svg>
