<svg width="97" height="80" viewBox="0 0 97 80" fill="none" xmlns="http://www.w3.org/2000/svg">
<path d="M14.4189 52.7625H16.549L13.9273 55.9116L16.7674 59.4475H14.5281L12.2888 56.5746V59.4475H10.5957V52.7625H12.2888V55.5249L14.4189 52.7625Z" fill="white"/>
<path d="M17.259 52.7625H18.9521L22.1199 56.8508V52.7625H23.813V59.4475H22.1199L18.9521 55.3591V59.4475H17.259V52.7625Z" fill="white"/>
<path d="M26.6531 58.2873L26.2162 59.4475H24.4138L26.9808 52.7625H28.8378L31.3502 59.4475H29.4932L29.0563 58.2873H26.6531ZM27.8547 54.8066L27.1447 56.9613H28.5647L27.8547 54.8066Z" fill="white"/>
<path d="M37.5766 52.7625V56.5194C37.5766 57.4033 37.522 58.2321 36.8666 58.895C36.3204 59.4475 35.4465 59.6133 34.6819 59.6133C33.9172 59.6133 33.0434 59.3923 32.4972 58.895C31.8418 58.2321 31.7872 57.4033 31.7872 56.5194V52.7625H33.4803V56.2984C33.4803 57.1823 33.5349 58.1216 34.6273 58.1216C35.7196 58.1216 35.7742 57.1823 35.7742 56.2984V52.7625H37.5766Z" fill="white"/>
<path d="M40.362 54.1989V55.3039H42.2736V56.7956H40.362V59.4475H38.6689V52.7625H42.4921V54.2542H40.362V54.1989Z" fill="white"/>
<path d="M50.5754 58.8398C49.92 59.2818 49.1008 59.6133 48.3361 59.6133C47.1892 59.6133 46.2061 58.895 46.2061 57.6796C46.2061 56.6851 46.8068 56.1879 47.6261 55.8011L47.79 55.7459L47.6261 55.5249C47.4076 55.2486 47.1345 54.9171 47.1345 54.3647C47.1345 53.2044 48.1177 52.5414 49.21 52.5414C50.2477 52.5414 51.2854 53.2044 51.2854 54.3647C51.2854 55.1934 50.7393 55.6354 50.0839 55.9669L50.9031 56.8508C51.2308 56.5746 51.5039 56.2431 51.777 55.9116L52.7601 56.8508L51.9409 57.7348L51.8862 57.7901L53.3609 59.3923H51.2308L50.5754 58.8398ZM48.6092 56.6298C48.3361 56.7956 48.0084 57.0718 48.0084 57.4033C48.0084 57.7901 48.3907 58.0111 48.7731 58.0111C49.1008 58.0111 49.4285 57.9006 49.7016 57.7348L48.6092 56.6298ZM49.92 54.3647C49.92 54.0332 49.7016 53.7569 49.3192 53.7569C48.9915 53.7569 48.7731 53.9779 48.7731 54.3094C48.7731 54.6409 49.1008 54.9724 49.2646 55.1934C49.5923 55.0276 49.92 54.7514 49.92 54.3647Z" fill="white"/>
<path d="M10.6503 67.7348V61.0497H13.1081C14.3097 61.0497 15.0743 61.4917 15.0743 62.7624C15.0743 63.3702 14.8558 63.8674 14.3643 64.1437C15.2928 64.2542 15.7297 64.9171 15.7297 65.8564C15.7297 67.2376 14.5281 67.7348 13.3266 67.7348H10.6503ZM12.3435 63.7017H12.5619C12.9989 63.7017 13.4904 63.6464 13.4904 63.0387C13.4904 62.431 12.9442 62.3757 12.5073 62.3757H12.3981V63.7017H12.3435ZM12.3435 66.4089H12.5619C13.0535 66.4089 13.9274 66.4089 13.9274 65.6906C13.9274 64.8619 13.0535 64.9724 12.5073 64.9724H12.3435V66.4089Z" fill="white"/>
<path d="M22.0653 67.7348H19.9352L18.2967 65.1381V67.7348H16.6036V61.0497H19.116C20.4268 61.0497 21.4099 61.6575 21.4099 63.0939C21.4099 64.0332 20.9183 64.8066 19.9898 64.9724L22.0653 67.7348ZM18.2967 64.0332H18.4606C19.0067 64.0332 19.6621 63.9227 19.6621 63.2044C19.6621 62.4862 19.0067 62.3757 18.4606 62.3757H18.2967V64.0332Z" fill="white"/>
<path d="M24.25 62.5414V63.6464H26.1616V65.1381H24.25V66.2984H26.2708V67.7901H22.5023V61.105H26.2708V62.5967H24.25V62.5414Z" fill="white"/>
<path d="M29.0017 66.5746L28.5648 67.7348H26.7624L29.3294 61.0497H31.1864L33.6988 67.7348H31.8418L31.4048 66.5746H29.0017ZM30.2033 63.0939L29.4932 65.2486H30.9133L30.2033 63.0939Z" fill="white"/>
<path d="M38.0135 61.0497H40.1436L37.522 64.1989L40.362 67.7348H38.1227L35.8834 64.8619V67.7348H34.1903V61.0497H35.8834V63.8122L38.0135 61.0497Z" fill="white"/>
<path d="M42.5467 62.5414V63.6464H44.4583V65.1381H42.5467V67.7901H40.8536V61.105H44.6768V62.5967H42.5467V62.5414Z" fill="white"/>
<path d="M46.7522 66.5746L46.3153 67.7348H44.5129L47.0799 61.0497H48.9369L51.4493 67.7348H49.5923L49.1554 66.5746H46.7522ZM47.9538 63.0939L47.2438 65.2486H48.6638L47.9538 63.0939Z" fill="white"/>
<path d="M55.5456 62.7625C55.2179 62.4862 54.8356 62.3205 54.3986 62.3205C54.0709 62.3205 53.6886 62.4862 53.6886 62.873C53.6886 63.2597 54.1802 63.4254 54.4533 63.5359L54.8902 63.6464C55.8187 63.9227 56.5287 64.3647 56.5287 65.4696C56.5287 66.1326 56.3649 66.7956 55.8187 67.2928C55.3271 67.7348 54.6171 67.9006 53.9617 67.9006C53.1424 67.9006 52.3232 67.6243 51.6132 67.1271L52.3232 65.7459C52.7601 66.1326 53.2517 66.4641 53.8525 66.4641C54.2348 66.4641 54.6717 66.2431 54.6717 65.8011C54.6717 65.3039 54.0163 65.1381 53.634 65.0276C52.5416 64.6962 51.8316 64.4199 51.8316 63.1492C51.8316 61.768 52.8147 60.884 54.1255 60.884C54.781 60.884 55.6002 61.105 56.201 61.4365L55.5456 62.7625Z" fill="white"/>
<path d="M59.9695 67.7348H58.2764V62.5415H56.8018V61.0497H61.335V62.5415H59.9149V67.7348H59.9695Z" fill="white"/>
<path d="M18.6791 42.3757V42.5967H70.893V54.4751C70.893 61.3812 68.1075 67.6796 63.6289 72.2099C59.1503 76.7403 52.924 79.558 46.0968 79.558H18.6791C13.6543 79.558 9.06644 77.5138 5.7348 74.1436C2.40315 70.7735 0.38232 66.1878 0.38232 61.0497C0.38232 55.9668 2.40315 51.326 5.7348 47.9558C9.06644 44.5856 13.5997 42.5414 18.6791 42.5414V42.3757V42.1547C8.35642 42.2099 0 50.663 0 61.105C0 71.547 8.35642 80 18.6791 80H46.0968C60.0242 80 71.2753 68.6188 71.2753 54.5304V42.2099H18.6791V42.3757Z" fill="white"/>
<path d="M41.509 26.3536V0H53.7979V13.9227C53.7979 20.7735 48.2816 26.3536 41.509 26.3536Z" fill="white"/>
<path d="M47.6808 39.8342C51.0893 39.8342 53.8525 37.0391 53.8525 33.5911C53.8525 30.1432 51.0893 27.3481 47.6808 27.3481C44.2722 27.3481 41.509 30.1432 41.509 33.5911C41.509 37.0391 44.2722 39.8342 47.6808 39.8342Z" fill="white"/>
<path d="M82.4718 0V18.9503C77.6655 21.0497 74.4431 23.8122 71.33 28.1215V11.2707C71.3846 5.02762 76.3547 0 82.4718 0Z" fill="white"/>
<path d="M97 9.50276C97 12.0994 95.9623 14.4751 94.2692 16.1878C92.576 17.9005 90.2275 18.9503 87.6605 18.9503H84.2742V0H87.6605C92.7945 0 97 4.25414 97 9.50276Z" fill="white"/>
<path d="M87.5513 39.8343H71.3846V37.0718C71.3846 28.011 78.6487 20.7182 87.5513 20.7182C92.7399 20.7182 97 24.9724 97 30.2762C97 35.5249 92.7399 39.8343 87.5513 39.8343Z" fill="white"/>
<path d="M55.5457 25.3039V14.4199L67.8345 5.02762V12.8729C67.8345 19.7238 62.3182 25.3039 55.5457 25.3039Z" fill="white"/>
<path d="M55.5457 27.1271V39.8343H67.8345V39.558C67.8345 32.6519 62.3182 27.1271 55.5457 27.1271Z" fill="white"/>
</svg>
