<svg width="111" height="71" viewBox="0 0 111 71" fill="none" xmlns="http://www.w3.org/2000/svg">
<path d="M8.18004 0L0 56.759H8.69776L10.9757 40.6739V40.2641L11.2864 38.3175V40.9812V41.8009L12.1147 56.759H20.709L18.3274 35.961L25.9897 17.9293H17.7062L12.6325 31.658L12.4254 32.2727L11.8041 34.1169L12.1147 32.0678L12.2183 31.5556L16.6707 0H8.18004Z" fill="white"/>
<path d="M28.5784 17.9292H37.6903L38.3116 34.0143V34.5266V36.3708L38.7257 34.0143L41.2108 17.9292H48.2519L42.3498 56.7589H34.1698L33.2379 38.8296V38.4198L33.3414 36.3708L32.9272 38.9321L30.2351 56.7589H22.6763L28.5784 17.9292Z" fill="white"/>
<path d="M80.3508 48.5627L85.2174 17.9292H93.708L89.0485 47.8455C88.6343 50.5093 89.0485 47.8455 88.6343 50.5093C88.4272 51.7387 88.1166 52.7632 87.7024 53.4804C87.1847 54.6074 86.2528 55.427 85.2174 56.1442C84.1819 56.7589 82.9394 57.1687 81.2827 57.4761C79.833 57.681 78.1763 57.7835 76.5196 57.681C75.2771 57.5785 73.931 57.4761 73.1026 57.1687C72.2743 56.8614 71.8601 56.6565 71.1353 56.2467C70.514 55.7344 70.2034 55.427 69.7892 54.8123C69.2715 53.9927 69.1679 53.4804 68.9608 52.5583C68.7537 51.6363 68.8573 50.8166 68.9608 49.8946C69.0644 48.7676 69.1679 48.6651 69.2715 47.948C69.375 47.5381 69.375 47.3332 69.4785 47.0259C71.3424 37.1904 72.1707 29.8138 74.1381 18.1341H82.7323L77.8657 48.7676L77.6586 49.3823C77.6586 49.3823 77.555 49.8946 77.6586 50.2019C77.7621 50.5093 77.7621 50.7142 78.0728 50.9191C78.2799 51.124 78.4869 51.2265 78.7976 51.2265C79.1082 51.2265 79.2118 51.124 79.5224 51.0215C79.7295 50.9191 79.833 50.7142 79.9366 50.5093C80.1437 50.2019 80.1437 49.8946 80.2472 49.4847C80.2472 49.1774 80.3508 48.5627 80.3508 48.5627Z" fill="white"/>
<path d="M97.2285 17.9292L89.0485 70.9999H97.7463L103.027 38.2149H107.997L108.929 31.7604H103.959L105.098 24.0764H110.172L111 17.9292H97.2285Z" fill="white"/>
<path d="M56.5354 42.6206L60.6772 25.9207L60.8843 25.2035L61.5056 22.3348L61.0914 25.306V26.0232L59.2276 42.6206H56.5354ZM53.0149 56.6566L54.8787 49.0751H58.3993L57.5709 56.6566H65.7509L68.0289 17.8269H56.7425L44.7313 56.6566H53.0149Z" fill="white"/>
</svg>
