<svg width="222" height="181" viewBox="0 0 222 181" fill="none" xmlns="http://www.w3.org/2000/svg">
<g clip-path="url(#clip0)">
<path d="M33.3513 119.375H38.2044L32.2314 126.5L38.7021 134.5H33.6002L28.4983 128V134.5H24.6408V119.375H28.4983V125.625L33.3513 119.375Z" fill="white"/>
<path d="M39.8221 119.375H43.6796L50.897 128.625V119.375H54.7545V134.5H50.897L43.6796 125.25V134.5H39.8221V119.375Z" fill="white"/>
<path d="M61.2252 131.875L60.2297 134.5H56.1233L61.9718 119.375H66.2027L71.9268 134.5H67.6959L66.7004 131.875H61.2252ZM63.9628 124L62.3452 128.875H65.5805L63.9628 124Z" fill="white"/>
<path d="M86.1126 119.375V127.875C86.1126 129.875 85.9882 131.75 84.4949 133.25C83.2506 134.5 81.2596 134.875 79.5175 134.875C77.7753 134.875 75.7843 134.375 74.54 133.25C73.0467 131.75 72.9223 129.875 72.9223 127.875V119.375H76.7798V127.375C76.7798 129.375 76.9043 131.5 79.393 131.5C81.8818 131.5 82.0062 129.375 82.0062 127.375V119.375H86.1126Z" fill="white"/>
<path d="M92.4589 122.625V125.125H96.8142V128.5H92.4589V134.5H88.6013V119.375H97.3119V122.75H92.4589V122.625Z" fill="white"/>
<path d="M115.729 133.125C114.235 134.125 112.369 134.875 110.627 134.875C108.014 134.875 105.774 133.25 105.774 130.5C105.774 128.25 107.142 127.125 109.009 126.25L109.382 126.125L109.009 125.625C108.511 125 107.889 124.25 107.889 123C107.889 120.375 110.129 118.875 112.618 118.875C114.982 118.875 117.346 120.375 117.346 123C117.346 124.875 116.102 125.875 114.609 126.625L116.475 128.625C117.222 128 117.844 127.25 118.466 126.5L120.706 128.625L118.84 130.625L118.715 130.75L122.075 134.375H117.222L115.729 133.125ZM111.249 128.125C110.627 128.5 109.88 129.125 109.88 129.875C109.88 130.75 110.751 131.25 111.622 131.25C112.369 131.25 113.115 131 113.738 130.625L111.249 128.125ZM114.235 123C114.235 122.25 113.738 121.625 112.867 121.625C112.12 121.625 111.622 122.125 111.622 122.875C111.622 123.625 112.369 124.375 112.742 124.875C113.489 124.5 114.235 123.875 114.235 123Z" fill="white"/>
<path d="M24.7652 153.25V138.125H30.3649C33.1025 138.125 34.8446 139.125 34.8446 142C34.8446 143.375 34.3468 144.5 33.2269 145.125C35.3423 145.375 36.3378 146.875 36.3378 149C36.3378 152.125 33.6002 153.25 30.8626 153.25H24.7652ZM28.6227 144.125H29.1205C30.116 144.125 31.2359 144 31.2359 142.625C31.2359 141.25 29.9915 141.125 28.9961 141.125H28.7472V144.125H28.6227ZM28.6227 150.25H29.1205C30.2404 150.25 32.2314 150.25 32.2314 148.625C32.2314 146.75 30.2404 147 28.9961 147H28.6227V150.25Z" fill="white"/>
<path d="M50.7725 153.25H45.9195L42.1864 147.375V153.25H38.3288V138.125H44.0529C47.0394 138.125 49.2793 139.5 49.2793 142.75C49.2793 144.875 48.1593 146.625 46.0439 147L50.7725 153.25ZM42.1864 144.875H42.5597C43.804 144.875 45.2973 144.625 45.2973 143C45.2973 141.375 43.804 141.125 42.5597 141.125H42.1864V144.875Z" fill="white"/>
<path d="M55.75 141.5V144H60.1053V147.375H55.75V150H60.3542V153.375H51.768V138.25H60.3542V141.625H55.75V141.5Z" fill="white"/>
<path d="M66.576 150.625L65.5805 153.25H61.4741L67.3226 138.125H71.5535L77.2776 153.25H73.0467L72.0512 150.625H66.576ZM69.3136 142.75L67.6959 147.625H70.9313L69.3136 142.75Z" fill="white"/>
<path d="M87.1081 138.125H91.9611L85.9882 145.25L92.4589 153.25H87.357L82.2551 146.75V153.25H78.3975V138.125H82.2551V144.375L87.1081 138.125Z" fill="white"/>
<path d="M97.4364 141.5V144H101.792V147.375H97.4364V153.375H93.5788V138.25H102.289V141.625H97.4364V141.5Z" fill="white"/>
<path d="M107.018 150.625L106.023 153.25H101.916L107.765 138.125H111.995L117.72 153.25H113.489L112.493 150.625H107.018ZM109.756 142.75L108.138 147.625H111.373L109.756 142.75Z" fill="white"/>
<path d="M127.052 142C126.306 141.375 125.435 141 124.439 141C123.693 141 122.822 141.375 122.822 142.25C122.822 143.125 123.941 143.5 124.564 143.75L125.559 144C127.675 144.625 129.292 145.625 129.292 148.125C129.292 149.625 128.919 151.125 127.675 152.25C126.555 153.25 124.937 153.625 123.444 153.625C121.577 153.625 119.711 153 118.093 151.875L119.711 148.75C120.706 149.625 121.826 150.375 123.195 150.375C124.066 150.375 125.061 149.875 125.061 148.875C125.061 147.75 123.568 147.375 122.697 147.125C120.208 146.375 118.591 145.75 118.591 142.875C118.591 139.75 120.831 137.75 123.817 137.75C125.31 137.75 127.177 138.25 128.546 139L127.052 142Z" fill="white"/>
<path d="M137.132 153.25H133.274V141.5H129.914V138.125H140.243V141.5H137.007V153.25H137.132Z" fill="white"/>
<path d="M43.0574 95.875V96.375H162.019V123.25C162.019 138.875 155.673 153.125 145.469 163.375C135.265 173.625 121.079 180 105.525 180H43.0574C31.6092 180 21.1565 175.375 13.5659 167.75C5.97523 160.125 1.37106 149.75 1.37106 138.125C1.37106 126.625 5.97523 116.125 13.5659 108.5C21.1565 100.875 31.4848 96.25 43.0574 96.25V95.875V95.375C19.5389 95.5 0.5 114.625 0.5 138.25C0.5 161.875 19.5389 181 43.0574 181H105.525C137.256 181 162.89 155.25 162.89 123.375V95.5H43.0574V95.875Z" fill="white"/>
<path d="M95.0721 59.625V0H123.07V31.5C123.07 47 110.502 59.625 95.0721 59.625Z" fill="white"/>
<path d="M109.133 90.125C116.899 90.125 123.195 83.801 123.195 76C123.195 68.199 116.899 61.875 109.133 61.875C101.368 61.875 95.0721 68.199 95.0721 76C95.0721 83.801 101.368 90.125 109.133 90.125Z" fill="white"/>
<path d="M188.4 0V42.875C177.449 47.625 170.108 53.875 163.015 63.625V25.5C163.139 11.375 174.463 0 188.4 0Z" fill="white"/>
<path d="M221.5 21.5C221.5 27.375 219.136 32.75 215.278 36.625C211.421 40.5 206.07 42.875 200.221 42.875H192.506V0H200.221C211.918 0 221.5 9.625 221.5 21.5Z" fill="white"/>
<path d="M199.972 90.125H163.139V83.875C163.139 63.375 179.689 46.875 199.972 46.875C211.794 46.875 221.5 56.5 221.5 68.5C221.5 80.375 211.794 90.125 199.972 90.125Z" fill="white"/>
<path d="M127.052 57.25V32.625L155.051 11.375V29.125C155.051 44.625 142.483 57.25 127.052 57.25Z" fill="white"/>
<path d="M127.052 61.375V90.125H155.051V89.5C155.051 73.875 142.483 61.375 127.052 61.375Z" fill="white"/>
</g>
<defs>
<clipPath id="clip0">
<rect width="221" height="181" fill="white" transform="translate(0.5)"/>
</clipPath>
</defs>
</svg>
