<svg width="62" height="62" viewBox="0 0 62 62" fill="none" xmlns="http://www.w3.org/2000/svg">
<path d="M31.2546 5.64307C17.1906 5.64307 5.80176 17.0574 5.80176 31.1214C5.80176 45.1855 17.1906 56.5998 31.2546 56.5998C45.3442 56.5998 56.7585 45.1855 56.7585 31.1214C56.7585 17.0574 45.3442 5.64307 31.2546 5.64307ZM31.2801 51.5041C20.0187 51.5041 10.8974 42.3829 10.8974 31.1214C10.8974 19.86 20.0187 10.7387 31.2801 10.7387C42.5416 10.7387 51.6628 19.86 51.6628 31.1214C51.6628 42.3829 42.5416 51.5041 31.2801 51.5041ZM32.554 18.3822H28.7323V33.6693L42.1084 41.6949L44.0193 38.5611L32.554 31.7584V18.3822Z" fill="#009DE0"/>
</svg>
